<svg width="100" height="40" viewBox="0 0 100 40" fill="none" xmlns="http://www.w3.org/2000/svg">
<g clip-path="url(#clip0_456_4000)">
<path d="M52.9021 6.56688C52.8939 6.51021 52.8713 6.45662 52.8363 6.41131C52.4778 6.02569 52.1624 5.60205 51.8956 5.14791C51.7168 4.80377 51.5945 4.47378 51.2605 4.47378H50.388C50.2516 4.47378 50.388 4.5987 50.4492 4.64584C50.6514 4.81084 51.8038 5.7914 52.8786 6.58574C52.9163 6.61167 52.9233 6.60224 52.9139 6.56688M52.5094 11.3023C53.7065 10.3595 54.6002 9.62169 55.1999 9.19976C55.2705 9.15027 55.4186 9.00412 55.2634 9.00412H54.2404C53.8617 9.00412 53.81 9.26341 53.6077 9.65233C53.31 10.1994 52.9388 10.703 52.5047 11.1491C52.4921 11.174 52.4849 11.2013 52.4835 11.2292C52.4835 11.2528 52.4835 11.3282 52.5094 11.3023ZM47.4011 6.51503C48.4618 5.68533 49.2568 5.02534 49.7812 4.65291C49.8447 4.61049 49.9764 4.48085 49.8377 4.48085H48.9369C48.6053 4.48085 48.5583 4.71656 48.3819 5.05127C48.1234 5.52997 47.7996 5.97027 47.42 6.35946C47.4041 6.38706 47.3937 6.41748 47.3894 6.44903C47.3894 6.46788 47.3894 6.53153 47.4011 6.51503ZM47.6528 5.20212C47.1401 6.49381 45.3715 7.84915 44.9223 8.25457C44.9116 8.27819 44.9067 8.30408 44.9082 8.32999C44.9082 8.35592 44.9082 8.40071 44.927 8.38657C45.141 8.22157 45.4468 7.967 45.8677 7.64879C46.3025 7.30719 46.7134 6.93627 47.0978 6.5386C47.7469 5.86918 48.2431 5.14083 48.2431 4.4172C48.2431 3.69357 47.7469 2.96759 47.0978 2.29581C46.7128 1.89803 46.3019 1.52636 45.8677 1.18327C45.4585 0.865057 45.1622 0.615204 44.9435 0.450207C44.9246 0.436065 44.9199 0.478491 44.9199 0.504419C44.9189 0.531072 44.9237 0.55763 44.934 0.582204C45.3833 0.985268 47.1518 2.3406 47.6646 3.62993C47.7681 3.87809 47.8239 4.14358 47.8292 4.41249C47.824 4.68065 47.7681 4.94539 47.6646 5.19269M52.4506 6.78845C52.2954 6.6046 52.1425 6.43017 51.992 6.26753C51.9167 6.18503 51.7827 6.04361 51.7709 6.03182C51.7429 6.00858 51.7084 5.99458 51.6721 5.99175C51.6557 5.99175 51.658 6.00353 51.6721 6.02003C51.6862 6.03653 51.8109 6.18974 51.9308 6.32881C52.4186 6.85973 52.8095 7.47248 53.0856 8.13907C53.1751 8.39596 53.2212 8.66602 53.222 8.93813C53.2152 9.18861 53.1593 9.43531 53.0574 9.66411C52.8222 10.2204 52.1989 10.9157 51.5639 11.5498C51.5381 11.5757 51.5381 11.6417 51.5334 11.6841C51.5287 11.7266 51.571 11.6841 51.6227 11.6441C51.9943 11.3164 52.2836 11.0407 52.4412 10.8827C53.0621 10.2675 53.5348 9.6099 53.5348 8.9452C53.5348 8.2145 53.0291 7.46965 52.4529 6.79316M55.0071 0.822626C55.0215 0.806019 55.0322 0.786439 55.0383 0.765263C55.0444 0.744087 55.0457 0.721832 55.0423 0.700059C55.0423 0.700059 55.0423 0.669416 55.0282 0.681202L54.8307 0.832056C54.6943 0.935769 54.5508 1.05127 54.3862 1.18327C53.9537 1.52749 53.5429 1.89826 53.1561 2.29346C52.507 2.96287 52.0108 3.70772 52.0108 4.41485C52.0108 5.12198 52.4812 5.89511 53.1397 6.5551C53.2784 6.69417 53.389 6.80495 53.476 6.88509L53.5513 6.94873C53.5513 6.94873 53.5677 6.94873 53.5654 6.94873C53.5601 6.88012 53.5366 6.81418 53.4972 6.75781C53.4196 6.64938 53.3678 6.58338 53.262 6.4231C52.9956 6.04625 52.7739 5.63967 52.6011 5.21155C52.4926 4.96334 52.4365 4.69528 52.4365 4.42428C52.4365 4.15328 52.4926 3.88521 52.6011 3.637C52.9939 2.64467 54.158 1.56983 54.8801 0.954627C54.9553 0.888628 54.9906 0.857986 55.0188 0.829701M55.5527 8.9452C55.5466 9.00757 55.5266 9.06775 55.494 9.12123C55.4614 9.17471 55.4171 9.22009 55.3645 9.25398L50.0987 13.3506V13.188C50.0987 13.1088 50.1065 13.0298 50.1223 12.9523C50.1435 12.8635 50.1882 12.7821 50.2516 12.7166C50.5432 12.4243 51.4275 11.538 51.6274 11.3235C52.1109 10.8494 52.5032 10.29 52.7846 9.67354C52.8776 9.4402 52.927 9.19172 52.9304 8.94048C52.9276 8.65161 52.8784 8.36509 52.7846 8.09193C52.3142 6.67767 50.5903 5.0277 50.2093 4.66942C50.1579 4.62149 50.1191 4.56157 50.0964 4.49499C50.0648 4.5901 50.0039 4.67267 49.9223 4.7307L44.6895 8.82499V0L49.9459 4.10371C50.0267 4.16243 50.0875 4.24476 50.1199 4.33942C50.1537 4.24487 50.2152 4.16273 50.2963 4.10371L55.555 0V0.167352C55.5544 0.246477 55.5465 0.325376 55.5315 0.403062C55.5108 0.492049 55.4661 0.573603 55.4022 0.638772C55.1105 0.931053 54.2262 1.81732 54.0263 2.02946C53.5418 2.50324 53.1487 3.0626 52.8669 3.67943C52.7737 3.91271 52.7242 4.16123 52.7211 4.41249C52.7238 4.70136 52.7731 4.98789 52.8669 5.26105C53.3372 6.67531 55.0612 8.32528 55.4539 8.6812C55.5267 8.74673 55.5714 8.83796 55.5786 8.93577" fill="#1D1D1B"/>
<path d="M37.1992 18.5504H39.3864V22.6022H40.5906V18.5504H42.8202V17.3129H37.1992V18.5504Z" fill="#1D1D1B"/>
<path d="M35.355 20.1131C35.355 20.9075 34.9035 21.3648 34.1109 21.3648H33.4242C32.6339 21.3648 32.18 20.9075 32.18 20.1131V17.3129H30.9453V20.1131C30.9453 21.6476 31.8861 22.6022 33.4242 22.6022H34.1062C35.6349 22.6022 36.5851 21.6476 36.5851 20.1131V17.3129H35.3503L35.355 20.1131Z" fill="#1D1D1B"/>
<path d="M12.6358 17.3129H9.00684V20.931H10.2439V18.5504H12.6358C13.4166 18.5504 13.8799 19.0218 13.8799 19.7996V20.1131C13.8799 20.9075 13.426 21.3648 12.6358 21.3648H9.00684V22.6022H12.6358C14.1668 22.6022 15.117 21.6476 15.117 20.1131V19.7996C15.117 18.2652 14.1668 17.3129 12.6358 17.3129Z" fill="#1D1D1B"/>
<path d="M26.7939 17.3129L23.8164 22.6022H25.2863L27.4453 18.7224L28.9482 21.5133H26.6716L26.14 22.6022H31.0742L28.0968 17.3129H26.7939Z" fill="#1D1D1B"/>
<path d="M46.7524 17.3129H45.5059C43.9749 17.3129 43.0247 18.2557 43.0247 19.7996V20.1131C43.0214 20.3431 43.0459 20.5726 43.0976 20.7967L43.1305 20.931H44.4217L44.3488 20.6953C44.2905 20.5051 44.2604 20.3074 44.2594 20.1084V19.7949C44.2594 19.0124 44.7298 18.5457 45.5059 18.5457H46.7524C47.5332 18.5457 47.9965 19.0171 47.9965 19.7949V20.1084C47.9965 20.9028 47.545 21.36 46.7524 21.36H43.2787L43.4669 21.6358C43.8878 22.2557 44.6146 22.5975 45.513 22.5975H46.7595C48.2905 22.5975 49.2407 21.6429 49.2407 20.1084V19.7949C49.2336 18.2652 48.2835 17.3129 46.7524 17.3129Z" fill="#1D1D1B"/>
<path d="M83.7467 17.3129H78.6973V18.5504H83.7467V17.3129Z" fill="#1D1D1B"/>
<path d="M20.3359 19.3376H17.3138C17.1515 19.3376 16.9587 19.2716 16.9587 18.9558C16.9587 18.6942 17.0857 18.5504 17.3138 18.5504H21.5283V17.3129H17.3138C17.1006 17.3047 16.8881 17.3412 16.6898 17.42C16.4914 17.4989 16.3117 17.6183 16.1621 17.7707C16.0125 17.9231 15.8962 18.1051 15.8208 18.3051C15.7453 18.5051 15.7123 18.7187 15.724 18.9322C15.724 19.901 16.3778 20.5822 17.3138 20.5822H20.3359C20.4959 20.5822 20.6864 20.6458 20.6864 20.9546C20.6864 21.2257 20.5641 21.3695 20.3359 21.3695H15.9215V22.6069H20.3359C20.5492 22.6145 20.7616 22.5774 20.9597 22.498C21.1578 22.4186 21.3372 22.2986 21.4864 22.1458C21.6356 21.9929 21.7513 21.8105 21.8261 21.6103C21.901 21.4101 21.9333 21.1964 21.9211 20.9829C21.9211 20.0236 21.2696 19.3376 20.3359 19.3376Z" fill="#1D1D1B"/>
<path d="M53.1535 20.997L51.1709 17.3129H50.1055V22.6022H51.3096V19.9835L52.5396 22.2958H53.7673L54.9973 19.9835V22.6022H56.2038V17.3129H55.1361L53.1535 20.997Z" fill="#1D1D1B"/>
<path d="M74.5303 17.3129H73.3262V22.6022H77.9617V21.3624H74.5303V17.3129Z" fill="#1D1D1B"/>
<path d="M79.9038 20.5751H83.2575V19.3376H78.6973V22.6022H83.8267V21.3624H79.9038V20.5751Z" fill="#1D1D1B"/>
<path d="M88.9863 19.3376H85.9618C85.8019 19.3376 85.6114 19.2716 85.6114 18.9558C85.6114 18.6918 85.7314 18.5504 85.9618 18.5504H90.1811V17.3129H85.9618C85.7488 17.305 85.5366 17.3418 85.3385 17.4208C85.1405 17.4997 84.9611 17.6192 84.8117 17.7716C84.6623 17.924 84.5463 18.1059 84.471 18.3057C84.3957 18.5056 84.3628 18.7189 84.3743 18.9322C84.3743 19.901 85.0282 20.5822 85.9618 20.5822H88.9863C89.1463 20.5822 89.3368 20.6458 89.3368 20.9546C89.3368 21.2257 89.2145 21.3695 88.9863 21.3695H84.5719V22.6069H88.9863C89.1996 22.6145 89.412 22.5774 89.6101 22.498C89.8082 22.4186 89.9876 22.2986 90.1368 22.1458C90.286 21.9929 90.4017 21.8105 90.4765 21.6103C90.5514 21.4101 90.5837 21.1964 90.5715 20.9829C90.5715 20.0236 89.92 19.3376 88.9863 19.3376Z" fill="#1D1D1B"/>
<path d="M69.6401 19.8539C69.8573 19.5752 69.9705 19.2292 69.96 18.8757C69.9704 18.6655 69.9363 18.4554 69.86 18.2594C69.7836 18.0633 69.6668 17.8856 69.5171 17.738C69.3674 17.5904 69.1882 17.4763 68.9913 17.403C68.7945 17.3297 68.5843 17.299 68.3748 17.3129H64.125V22.6023H68.5465C69.499 22.6023 70.1387 21.9729 70.1387 21.0371C70.1463 20.8154 70.1056 20.5948 70.0195 20.3904C69.9334 20.1861 69.804 20.003 69.6401 19.8539ZM68.3748 19.3377H65.7878V20.5775H68.5418C68.5936 20.5708 68.6463 20.5765 68.6956 20.5939C68.7448 20.6114 68.7894 20.6402 68.8255 20.678C68.8616 20.7158 68.8884 20.7616 68.9037 20.8117C68.919 20.8618 68.9223 20.9148 68.9134 20.9664C68.9134 21.2281 68.7864 21.3718 68.5559 21.3718H65.3621V18.5504H68.3748C68.61 18.5504 68.7252 18.6918 68.7252 18.9558C68.7323 19.005 68.7284 19.0551 68.7137 19.1025C68.699 19.15 68.674 19.1936 68.6405 19.2301C68.6069 19.2667 68.5657 19.2953 68.5197 19.3139C68.4738 19.3325 68.4243 19.3406 68.3748 19.3377Z" fill="#1D1D1B"/>
<path d="M72.2042 17.3129H71V22.6022H72.2042V17.3129Z" fill="#1D1D1B"/>
<path d="M60.7736 17.3129H59.5295C57.9984 17.3129 57.0459 18.2557 57.0459 19.7996V20.1131C57.0459 21.6476 57.9866 22.6022 59.5295 22.6022H60.7736C61.6697 22.6022 62.3964 22.2605 62.8197 21.6405L63.0079 21.3648H59.5295C58.7345 21.3648 58.2806 20.9075 58.2806 20.1131V19.7996C58.2806 19.0053 58.7345 18.5504 59.5295 18.5504H60.7736C61.5521 18.5504 62.0177 19.0218 62.0177 19.7996V20.1131C62.0183 20.3113 61.989 20.5084 61.9307 20.6977L61.8507 20.9334H63.1466L63.1795 20.799C63.2315 20.575 63.256 20.3455 63.2525 20.1155V19.802C63.2525 18.2652 62.3023 17.3129 60.7736 17.3129Z" fill="#1D1D1B"/>
<path d="M29.4988 27.8114H9V28.0542H29.4988V27.8114Z" fill="#CBA65F"/>
<path d="M90.5789 27.8114H70.0801V28.0542H90.5789V27.8114Z" fill="#CBA65F"/>
<path d="M21.5659 37.7018H24.7856C25.9168 37.7018 26.359 37.6335 26.7447 37.3954C27.2856 37.0607 27.5067 36.6529 27.5067 35.4107C27.5067 34.02 27.2386 33.8267 26.7118 33.6193C26.2696 33.4449 25.8674 33.3836 24.6068 33.3836H20.3735C20.2636 33.3663 20.1512 33.3752 20.0454 33.4097C19.9397 33.4442 19.8435 33.5033 19.7649 33.5821C19.6862 33.6609 19.6273 33.7573 19.5929 33.8633C19.5584 33.9693 19.5495 34.082 19.5668 34.1921V39.1632C19.5464 39.2699 19.5518 39.3799 19.5826 39.484C19.6134 39.5881 19.6687 39.6834 19.7438 39.7616C19.8189 39.8399 19.9117 39.899 20.0143 39.9339C20.1169 39.9688 20.2264 39.9785 20.3335 39.9623H20.7874C20.8823 39.9765 20.979 39.9701 21.0712 39.9435C21.1633 39.9168 21.2487 39.8707 21.3214 39.808C21.3941 39.7454 21.4526 39.6678 21.4927 39.5806C21.5329 39.4933 21.5538 39.3984 21.5541 39.3023L21.5659 37.7018ZM21.5659 36.1956V34.8073H24.4634C25.3289 34.8073 25.5147 34.9841 25.5147 35.5144C25.5147 36.0448 25.2795 36.1956 24.4634 36.1956H21.5659ZM31.8694 34.8733H36.3685C36.8389 34.9134 37.1752 34.6376 37.1752 34.1827V34.0648C37.1784 33.9628 37.1587 33.8613 37.1175 33.7679C37.0763 33.6746 37.0147 33.5917 36.9373 33.5254C36.8599 33.4591 36.7685 33.411 36.6701 33.3849C36.5716 33.3587 36.4686 33.3551 36.3685 33.3742H30.7099C30.6 33.3568 30.4876 33.3658 30.3819 33.4003C30.2761 33.4348 30.18 33.4939 30.1013 33.5727C30.0227 33.6515 29.9637 33.7479 29.9293 33.8539C29.8949 33.9599 29.8859 34.0725 29.9032 34.1827V39.1538C29.8826 39.2641 29.8893 39.3777 29.9227 39.4848C29.9561 39.5919 30.0152 39.6892 30.0948 39.7681C30.1744 39.8469 30.2722 39.905 30.3794 39.9372C30.4866 39.9695 30.6001 39.9748 30.7099 39.9528H36.4367C36.9188 39.9929 37.2434 39.7171 37.2434 39.2622V39.1444C37.2472 39.0557 37.233 38.9671 37.2015 38.8841C37.1701 38.8011 37.1221 38.7255 37.0604 38.6617C36.9988 38.598 36.9248 38.5475 36.8431 38.5133C36.7613 38.4792 36.6734 38.4621 36.5849 38.4632H31.8811V37.2846H36.0957C36.2616 37.3099 36.4312 37.2792 36.5778 37.1974C36.6962 37.1223 36.7873 37.0109 36.8375 36.8799C36.8877 36.7488 36.8945 36.605 36.8567 36.4698C36.819 36.3345 36.7387 36.2151 36.6279 36.1292C36.5171 36.0433 36.3816 35.9955 36.2415 35.9929H31.8694V34.8733ZM46.8578 38.3854L43.3559 33.9658C42.9913 33.4826 42.735 33.353 42.1259 33.3742H40.5007C40.3911 33.3557 40.2787 33.3639 40.173 33.3982C40.0673 33.4325 39.9714 33.4918 39.8934 33.5711C39.8154 33.6505 39.7576 33.7475 39.7249 33.8539C39.6923 33.9604 39.6857 34.0731 39.7058 34.1827V39.1538C39.6858 39.2596 39.6911 39.3686 39.7215 39.4719C39.7518 39.5752 39.8062 39.6697 39.8802 39.7478C39.9541 39.8258 40.0456 39.8851 40.1469 39.9208C40.2483 39.9565 40.3567 39.9674 40.4631 39.9528H40.8653C41.3356 39.9528 41.6131 39.6959 41.6131 39.3023V39.1444L41.5732 35.0006L45.0186 39.3518C45.3832 39.8444 45.6395 39.9623 46.2487 39.9434H47.895C48.0046 39.9642 48.1176 39.958 48.2243 39.9254C48.331 39.8927 48.4282 39.8346 48.5075 39.756C48.5869 39.6774 48.646 39.5807 48.6798 39.4742C48.7136 39.3676 48.7211 39.2545 48.7016 39.1444V34.1803C48.7207 34.0742 48.7147 33.9652 48.6842 33.8618C48.6537 33.7585 48.5995 33.6638 48.5259 33.5852C48.4523 33.5066 48.3613 33.4464 48.2604 33.4093C48.1594 33.3723 48.0512 33.3594 47.9443 33.3718H47.5586C47.1047 33.3718 46.8108 33.6287 46.8108 34.0224V34.1803L46.8578 38.3854ZM52.006 37.8621C51.5356 37.8621 51.2487 38.0978 51.2487 38.5221C51.2499 38.6939 51.2793 38.8643 51.3357 39.0265C51.5427 39.5569 51.879 39.7855 52.6645 39.9128C53.109 39.9835 53.6994 40.0023 55.1951 40.0023C56.6063 40.0023 57.5964 39.9434 58.0879 39.835C59.0522 39.6276 59.4073 39.0949 59.4073 37.8904C59.4073 36.5586 58.9158 36.0047 57.6646 35.9481C57.3306 35.9293 56.444 35.8986 56.2676 35.8986H54.4073C54.1374 35.9061 53.8675 35.8896 53.6006 35.8491C53.4771 35.8316 53.3649 35.7679 53.2864 35.6708C53.2079 35.5738 53.1689 35.4505 53.1772 35.3259C53.1772 34.9511 53.356 34.8144 53.8828 34.7837C54.1979 34.7554 55.094 34.7366 55.6843 34.7366C56.5992 34.7366 56.9049 34.7837 57.0625 34.9417C57.4553 35.3565 57.5047 35.3754 57.8974 35.3848H58.3513C58.8217 35.3848 59.0898 35.1302 59.0898 34.6965C59.0826 34.4455 58.9996 34.2025 58.8518 33.9997C58.704 33.7968 58.4984 33.6437 58.262 33.5604C57.761 33.3742 57.2389 33.3247 55.3104 33.3247C53.784 33.3247 53.0479 33.3647 52.4881 33.5015C51.5474 33.7372 51.2087 34.2322 51.2087 35.4154C51.2087 36.3135 51.4251 36.8297 51.8978 37.0819C52.3212 37.3011 52.8245 37.3695 54.0333 37.3695H55.8442C56.7497 37.3695 56.8885 37.3695 57.0954 37.4473C57.2022 37.4892 57.2925 37.5647 57.3527 37.6625C57.4129 37.7602 57.4398 37.875 57.4294 37.9894C57.4294 38.5315 57.1542 38.5928 54.8306 38.5928C53.7276 38.5928 53.3936 38.5315 53.276 38.317C53.2196 38.1591 53.1101 38.0257 52.9664 37.9397C52.8227 37.8537 52.6536 37.8205 52.4881 37.8456L52.006 37.8621ZM63.9746 35.8279V34.1779C63.9957 34.0708 63.9908 33.9601 63.9603 33.8552C63.9299 33.7503 63.8749 33.6543 63.7998 33.5751C63.7247 33.4959 63.6318 33.4359 63.5288 33.4001C63.4258 33.3644 63.3158 33.3538 63.2079 33.3695H62.7375C62.2248 33.3695 61.9285 33.6547 61.9685 34.1779V39.1491C61.948 39.256 61.9534 39.3662 61.9843 39.4706C62.0152 39.5749 62.0707 39.6703 62.1461 39.7486C62.2215 39.827 62.3146 39.886 62.4175 39.9207C62.5205 39.9554 62.6302 39.9648 62.7375 39.9481H63.2079C63.3027 39.9623 63.3995 39.9559 63.4917 39.9293C63.5838 39.9027 63.6691 39.8565 63.7419 39.7939C63.8146 39.7313 63.8731 39.6537 63.9132 39.5664C63.9534 39.4792 63.9743 39.3842 63.9746 39.2881V37.4237H64.9789L67.2437 39.3471C67.8152 39.8704 68.0786 39.967 68.8171 39.9481H69.9789C70.2141 39.9481 70.3246 39.8491 70.3246 39.6629C70.323 39.6112 70.3087 39.5606 70.2828 39.5158C70.257 39.4709 70.2204 39.4332 70.1765 39.406L66.7122 36.6246L69.8213 33.9422C69.9389 33.8315 69.9789 33.7749 69.9789 33.6759C69.9789 33.4779 69.8425 33.3695 69.6144 33.3695H68.5607C67.874 33.3482 67.6082 33.459 67.0744 33.9705L65.0283 35.8256L63.9746 35.8279ZM74.7109 34.8733H79.2076C79.6897 34.9134 80.0143 34.6376 80.0143 34.1827V34.0648C80.0175 33.9628 79.9978 33.8613 79.9566 33.7679C79.9155 33.6746 79.8539 33.5917 79.7764 33.5254C79.699 33.4591 79.6076 33.411 79.5092 33.3849C79.4107 33.3587 79.3077 33.3551 79.2076 33.3742H73.549C73.4392 33.3568 73.3268 33.3658 73.221 33.4003C73.1152 33.4348 73.0191 33.4939 72.9404 33.5727C72.8618 33.6515 72.8028 33.7479 72.7684 33.8539C72.734 33.9599 72.7251 34.0725 72.7424 34.1827V39.1538C72.7217 39.2641 72.7284 39.3777 72.7618 39.4848C72.7952 39.5919 72.8543 39.6892 72.9339 39.7681C73.0136 39.8469 73.1113 39.905 73.2185 39.9372C73.3258 39.9695 73.4393 39.9748 73.549 39.9528H79.2758C79.758 39.9929 80.0849 39.7171 80.0849 39.2622V39.1444C80.0884 39.0556 80.0738 38.967 80.0421 38.884C80.0104 38.801 79.9621 38.7253 79.9003 38.6616C79.8385 38.5979 79.7644 38.5474 79.6825 38.5133C79.6006 38.4792 79.5127 38.4621 79.424 38.4632H74.7203V37.2846H78.9325C79.0984 37.3099 79.2679 37.2792 79.4146 37.1974C79.5328 37.1224 79.6238 37.0113 79.6741 36.8804C79.7244 36.7496 79.7314 36.606 79.6939 36.4709C79.6564 36.3358 79.5766 36.2163 79.4661 36.1303C79.3557 36.0442 79.2205 35.996 79.0806 35.9929H74.7109V34.8733Z" fill="#1D1D1B"/>
<path d="M32.1445 28.9452V26.8686H33.3675V27.2057H32.5326V27.8209H33.2523V28.1532H32.5326V28.9452H32.1445Z" fill="#1D1D1B"/>
<path d="M36.1503 28.1697C36.1503 28.6694 35.8916 28.9759 35.3765 28.9759C34.8615 28.9759 34.5957 28.6694 34.5957 28.1697V27.6464C34.5957 27.1467 34.8591 26.8356 35.3765 26.8356C35.8939 26.8356 36.1503 27.1467 36.1503 27.6464V28.1697ZM35.7646 27.6229C35.7646 27.34 35.6376 27.1892 35.3765 27.1892C35.1155 27.1892 34.9838 27.34 34.9838 27.6229V28.1909C34.9838 28.4761 35.1131 28.627 35.3765 28.627C35.6399 28.627 35.7646 28.4761 35.7646 28.1909V27.6229Z" fill="#1D1D1B"/>
<path d="M38.6198 28.9452L38.2152 28.1815H37.9142V28.9452H37.5332V26.8592H38.2388C38.6739 26.8592 38.9043 27.076 38.9043 27.4744V27.5734C38.9151 27.6872 38.8891 27.8015 38.8303 27.8995C38.7714 27.9975 38.6828 28.074 38.5774 28.1179L39.0478 28.9358L38.6198 28.9452ZM37.9142 27.868H38.2482C38.2856 27.8716 38.3234 27.8669 38.3588 27.8542C38.3942 27.8416 38.4265 27.8212 38.4532 27.7947C38.4799 27.7681 38.5004 27.736 38.5134 27.7006C38.5263 27.6652 38.5313 27.6274 38.528 27.5899V27.4767C38.5313 27.4392 38.5263 27.4013 38.5134 27.366C38.5004 27.3306 38.4799 27.2984 38.4532 27.2719C38.4265 27.2453 38.3942 27.225 38.3588 27.2124C38.3234 27.1997 38.2856 27.195 38.2482 27.1986H37.9142V27.868Z" fill="#1D1D1B"/>
<path d="M40.6819 27.6865V28.9452H40.3291V26.8662H40.6419L41.3757 28.3253L42.1024 26.8662H42.4128V28.9452H42.0577V27.6865L41.505 28.8061H41.2369L40.6819 27.6865Z" fill="#1D1D1B"/>
<path d="M44.2187 26.8592V28.2098C44.2187 28.4761 44.3434 28.6176 44.5927 28.6176C44.842 28.6176 44.9666 28.4761 44.9666 28.2098V26.8592H45.3523V28.1886C45.3523 28.6718 45.1007 28.9664 44.5927 28.9664C44.0847 28.9664 43.833 28.6718 43.833 28.1886V26.8592H44.2187Z" fill="#1D1D1B"/>
<path d="M47.1517 26.8662V28.594H47.9678V28.9428H46.7637V26.8662H47.1517Z" fill="#1D1D1B"/>
<path d="M49.0684 28.9452L49.7739 26.8686H50.1432L50.8487 28.9452H50.4371L50.2937 28.5162H49.5881L49.4517 28.9452H49.0684ZM50.1973 28.2145L49.9409 27.3306L49.6822 28.2051L50.1973 28.2145Z" fill="#1D1D1B"/>
<path d="M54.7574 27.2057H53.9013V27.7289H54.621V28.0542H53.9013V28.6105H54.7645V28.9452H53.5156V26.8686H54.7574V27.2057Z" fill="#1D1D1B"/>
<path d="M58.2969 27.2198H57.7207V26.8686H59.2565V27.2198H58.6826V28.9452H58.2969V27.2198Z" fill="#1D1D1B"/>
<path d="M61.7779 27.2057H60.9218V27.7289H61.6415V28.0542H60.9218V28.6105H61.785V28.9452H60.5361V26.8686H61.7779V27.2057Z" fill="#1D1D1B"/>
<path d="M62.9395 28.9452L63.645 26.8686H64.0166L64.7222 28.9452H64.3129L64.1695 28.5162H63.4639L63.3275 28.9452H62.9395ZM64.066 28.2145L63.812 27.3306L63.5533 28.2051L64.066 28.2145Z" fill="#1D1D1B"/>
<path d="M66.3381 27.6865V28.9452H65.9854V26.8662H66.2981L67.0319 28.3253L67.7587 26.8662H68.0691V28.9452H67.714V27.6865L67.1613 28.8061H66.8932L66.3381 27.6865Z" fill="#1D1D1B"/>
</g>
<defs>
<clipPath id="clip0_456_4000">
<rect width="81.5789" height="40" fill="white" transform="translate(9)"/>
</clipPath>
</defs>
</svg>
