<svg width="200" height="80" viewBox="0 0 200 80" fill="none" xmlns="http://www.w3.org/2000/svg">
<g clip-path="url(#clip0_1_372)">
<mask id="mask0_1_372" style="mask-type:luminance" maskUnits="userSpaceOnUse" x="18" y="0" width="164" height="80">
<path d="M181.158 -6.10352e-05H18V79.9999H181.158V-6.10352e-05Z" fill="white"/>
</mask>
<g mask="url(#mask0_1_372)">
<path d="M105.804 13.1337C105.788 13.0204 105.743 12.9132 105.673 12.8226C104.956 12.0513 104.325 11.204 103.791 10.2958C103.434 9.60748 103.189 8.9475 102.521 8.9475H100.776C100.503 8.9475 100.776 9.19734 100.898 9.29162C101.303 9.62162 103.608 11.5827 105.757 13.1714C105.833 13.2233 105.847 13.2044 105.828 13.1337M105.019 22.6045C107.413 20.7189 109.2 19.2433 110.4 18.3995C110.541 18.3005 110.837 18.0082 110.527 18.0082H108.481C107.723 18.0082 107.62 18.5268 107.215 19.3046C106.62 20.3987 105.878 21.4059 105.009 22.2981C104.984 22.3479 104.97 22.4025 104.967 22.4583C104.967 22.5055 104.967 22.6563 105.019 22.6045ZM94.8022 13.03C96.9236 11.3706 98.5136 10.0506 99.5624 9.30576C99.6894 9.22092 99.9528 8.96164 99.6754 8.96164H97.8738C97.2106 8.96164 97.1166 9.43306 96.7638 10.1025C96.2468 11.0599 95.5992 11.9405 94.84 12.7189C94.8082 12.7741 94.7874 12.8349 94.7788 12.898C94.7788 12.9357 94.7788 13.063 94.8022 13.03ZM95.3056 10.4042C94.2802 12.9876 90.743 15.6982 89.8446 16.5091C89.8232 16.5563 89.8134 16.6081 89.8164 16.6599C89.8164 16.7118 89.8164 16.8014 89.854 16.7731C90.282 16.4431 90.8936 15.9339 91.7354 15.2975C92.605 14.6143 93.4268 13.8725 94.1956 13.0771C95.4938 11.7383 96.4862 10.2816 96.4862 8.83434C96.4862 7.38708 95.4938 5.93512 94.1956 4.59156C93.4256 3.796 92.6038 3.05266 91.7354 2.36648C90.917 1.73005 90.3244 1.23035 89.887 0.900353C89.8492 0.872069 89.8398 0.956921 89.8398 1.00878C89.8378 1.06208 89.8474 1.1152 89.868 1.16435C90.7666 1.97047 94.3036 4.68114 95.3292 7.2598C95.5362 7.75612 95.6478 8.2871 95.6584 8.82492C95.648 9.36124 95.5362 9.89072 95.3292 10.3853M104.901 13.5768C104.591 13.2091 104.285 12.8603 103.984 12.535C103.833 12.37 103.565 12.0872 103.542 12.0636C103.486 12.0171 103.417 11.9891 103.344 11.9834C103.311 11.9834 103.316 12.007 103.344 12.04C103.372 12.073 103.622 12.3794 103.862 12.6576C104.837 13.7194 105.619 14.9449 106.171 16.2781C106.35 16.7919 106.442 17.332 106.444 17.8762C106.43 18.3772 106.319 18.8706 106.115 19.3282C105.644 20.4407 104.398 21.8313 103.128 23.0995C103.076 23.1513 103.076 23.2833 103.067 23.3681C103.057 23.4531 103.142 23.3681 103.245 23.2881C103.989 22.6327 104.567 22.0813 104.882 21.7653C106.124 20.5349 107.07 19.2197 107.07 17.8903C107.07 16.4289 106.058 14.9392 104.906 13.5863M110.014 1.64519C110.043 1.61198 110.064 1.57282 110.077 1.53047C110.089 1.48811 110.091 1.4436 110.085 1.40006C110.085 1.40006 110.085 1.33877 110.056 1.36234L109.661 1.66405C109.389 1.87148 109.102 2.10248 108.772 2.36648C107.907 3.05492 107.086 3.79646 106.312 4.58686C105.014 5.92568 104.022 7.41538 104.022 8.82964C104.022 10.2439 104.962 11.7902 106.279 13.1101C106.557 13.3883 106.778 13.6098 106.952 13.7701L107.103 13.8974C107.103 13.8974 107.135 13.8974 107.131 13.8974C107.12 13.7602 107.073 13.6283 106.994 13.5156C106.839 13.2987 106.736 13.1667 106.524 12.8461C105.991 12.0924 105.548 11.2793 105.202 10.423C104.985 9.92662 104.873 9.3905 104.873 8.8485C104.873 8.3065 104.985 7.77036 105.202 7.27394C105.988 5.28928 108.316 3.1396 109.76 1.90919C109.911 1.77719 109.981 1.71591 110.038 1.65934M111.105 17.8903C111.093 18.0151 111.053 18.1354 110.988 18.2424C110.923 18.3494 110.834 18.4401 110.729 18.5079L100.197 26.7011V26.3759C100.197 26.2175 100.213 26.0595 100.245 25.9045C100.287 25.7269 100.376 25.5641 100.503 25.4331C101.086 24.8485 102.855 23.0759 103.255 22.6469C104.222 21.6987 105.006 20.5799 105.569 19.347C105.755 18.8803 105.854 18.3834 105.861 17.8809C105.855 17.3032 105.757 16.7301 105.569 16.1838C104.628 13.3553 101.181 10.0553 100.419 9.33878C100.316 9.24292 100.238 9.12308 100.193 8.98992C100.13 9.18014 100.008 9.34528 99.8446 9.46134L89.379 17.6499V-6.10352e-05L99.8918 8.20736C100.053 8.3248 100.175 8.48946 100.24 8.67878C100.307 8.48968 100.43 8.3254 100.593 8.20736L111.11 -6.10352e-05V0.334643C111.109 0.492893 111.093 0.650691 111.063 0.806063C111.022 0.984037 110.932 1.14715 110.804 1.27748C110.221 1.86205 108.452 3.63458 108.053 4.05886C107.084 5.00642 106.297 6.12514 105.734 7.3588C105.547 7.82536 105.448 8.3224 105.442 8.82492C105.448 9.40266 105.546 9.97572 105.734 10.522C106.674 13.3506 110.122 16.6505 110.908 17.3623C111.053 17.4934 111.143 17.6759 111.157 17.8715" fill="#1D1D1B"/>
<path d="M74.3984 37.1007H78.7728V45.2043H81.1812V37.1007H85.6404V34.6257H74.3984V37.1007Z" fill="#1D1D1B"/>
<path d="M70.71 40.2261C70.71 41.8149 69.807 42.7295 68.2218 42.7295H66.8484C65.2678 42.7295 64.36 41.8149 64.36 40.2261V34.6257H61.8906V40.2261C61.8906 43.2951 63.7722 45.2043 66.8484 45.2043H68.2124C71.2698 45.2043 73.1702 43.2951 73.1702 40.2261V34.6257H70.7006L70.71 40.2261Z" fill="#1D1D1B"/>
<path d="M25.2716 34.6257H18.0137V41.8619H20.4878V37.1007H25.2716C26.8332 37.1007 27.7598 38.0435 27.7598 39.5991V40.2261C27.7598 41.8149 26.852 42.7295 25.2716 42.7295H18.0137V45.2043H25.2716C28.3336 45.2043 30.234 43.2951 30.234 40.2261V39.5991C30.234 36.5303 28.3336 34.6257 25.2716 34.6257Z" fill="#1D1D1B"/>
<path d="M53.5878 34.6257L47.6328 45.2043H50.5726L54.8906 37.4447L57.8964 43.0265H53.3432L52.28 45.2043H62.1484L56.1936 34.6257H53.5878Z" fill="#1D1D1B"/>
<path d="M93.5048 34.6257H91.0118C87.9498 34.6257 86.0494 36.5113 86.0494 39.5991V40.2261C86.0428 40.6861 86.0918 41.1451 86.1952 41.5933L86.261 41.8619H88.8434L88.6976 41.3905C88.581 41.0101 88.5208 40.6147 88.5188 40.2167V39.5897C88.5188 38.0247 89.4596 37.0913 91.0118 37.0913H93.5048C95.0664 37.0913 95.993 38.0341 95.993 39.5897V40.2167C95.993 41.8055 95.09 42.7199 93.5048 42.7199H86.5574L86.9338 43.2715C87.7756 44.5113 89.2292 45.1949 91.026 45.1949H93.519C96.581 45.1949 98.4814 43.2857 98.4814 40.2167V39.5897C98.4672 36.5303 96.567 34.6257 93.5048 34.6257Z" fill="#1D1D1B"/>
<path d="M167.493 34.6257H157.395V37.1007H167.493V34.6257Z" fill="#1D1D1B"/>
<path d="M40.6718 38.6751H34.6276C34.303 38.6751 33.9174 38.5431 33.9174 37.9115C33.9174 37.3883 34.1714 37.1007 34.6276 37.1007H43.0566V34.6257H34.6276C34.2012 34.6093 33.7762 34.6823 33.3796 34.8399C32.9828 34.9977 32.6234 35.2365 32.3242 35.5413C32.025 35.8461 31.7924 36.2101 31.6416 36.6101C31.4906 37.0101 31.4246 37.4373 31.448 37.8643C31.448 39.8019 32.7556 41.1643 34.6276 41.1643H40.6718C40.9918 41.1643 41.3728 41.2915 41.3728 41.9091C41.3728 42.4513 41.1282 42.7389 40.6718 42.7389H31.843V45.2137H40.6718C41.0984 45.2289 41.5232 45.1547 41.9194 44.9959C42.3156 44.8371 42.6744 44.5971 42.9728 44.2915C43.2712 43.9857 43.5026 43.6209 43.6522 43.2205C43.802 42.8201 43.8666 42.3927 43.8422 41.9657C43.8422 40.0471 42.5392 38.6751 40.6718 38.6751Z" fill="#1D1D1B"/>
<path d="M106.307 41.9939L102.342 34.6257H100.211V45.2043H102.619V39.9669L105.079 44.5915H107.535L109.995 39.9669V45.2043H112.408V34.6257H110.272L106.307 41.9939Z" fill="#1D1D1B"/>
<path d="M149.061 34.6257H146.652V45.2043H155.923V42.7247H149.061V34.6257Z" fill="#1D1D1B"/>
<path d="M159.808 41.1502H166.515V38.6752H157.395V45.2044H167.653V42.7248H159.808V41.1502Z" fill="#1D1D1B"/>
<path d="M177.973 38.6752H171.924C171.604 38.6752 171.223 38.5432 171.223 37.9116C171.223 37.3836 171.463 37.1008 171.924 37.1008H180.362V34.6258H171.924C171.498 34.61 171.073 34.6836 170.677 34.8416C170.281 34.9994 169.922 35.2384 169.623 35.5432C169.325 35.848 169.093 36.2118 168.942 36.6114C168.791 37.0112 168.726 37.4378 168.749 37.8644C168.749 39.802 170.056 41.1644 171.924 41.1644H177.973C178.293 41.1644 178.674 41.2916 178.674 41.9092C178.674 42.4514 178.429 42.739 177.973 42.739H169.144V45.2138H177.973C178.399 45.229 178.824 45.1548 179.22 44.996C179.616 44.8372 179.975 44.5972 180.274 44.2916C180.572 43.9858 180.803 43.621 180.953 43.2206C181.103 42.8202 181.167 42.3928 181.143 41.9658C181.143 40.0472 179.84 38.6752 177.973 38.6752Z" fill="#1D1D1B"/>
<path d="M139.28 39.7077C139.715 39.1503 139.941 38.4583 139.92 37.7513C139.941 37.3309 139.873 36.9107 139.72 36.5187C139.567 36.1265 139.334 35.7711 139.034 35.4759C138.735 35.1807 138.376 34.9525 137.983 34.8059C137.589 34.6593 137.169 34.5979 136.75 34.6257H128.25V45.2045H137.093C138.998 45.2045 140.277 43.9457 140.277 42.0741C140.293 41.6307 140.211 41.1895 140.039 40.7807C139.867 40.3721 139.608 40.0059 139.28 39.7077ZM136.75 38.6753H131.576V41.1549H137.084C137.187 41.1415 137.293 41.1529 137.391 41.1877C137.49 41.2227 137.579 41.2803 137.651 41.3559C137.723 41.4315 137.777 41.5231 137.807 41.6233C137.838 41.7235 137.845 41.8295 137.827 41.9327C137.827 42.4561 137.573 42.7435 137.112 42.7435H130.724V37.1007H136.75C137.22 37.1007 137.45 37.3835 137.45 37.9115C137.465 38.0099 137.457 38.1101 137.427 38.2049C137.398 38.2999 137.348 38.3871 137.281 38.4601C137.214 38.5333 137.131 38.5905 137.039 38.6277C136.948 38.6649 136.849 38.6811 136.75 38.6753Z" fill="#1D1D1B"/>
<path d="M144.408 34.6257H142V45.2043H144.408V34.6257Z" fill="#1D1D1B"/>
<path d="M121.547 34.6257H119.059C115.997 34.6257 114.092 36.5113 114.092 39.5991V40.2261C114.092 43.2951 115.973 45.2043 119.059 45.2043H121.547C123.339 45.2043 124.793 44.5209 125.639 43.2809L126.016 42.7295H119.059C117.469 42.7295 116.561 41.8149 116.561 40.2261V39.5991C116.561 38.0105 117.469 37.1007 119.059 37.1007H121.547C123.104 37.1007 124.035 38.0435 124.035 39.5991V40.2261C124.037 40.6225 123.978 41.0167 123.861 41.3953L123.701 41.8667H126.293L126.359 41.5979C126.463 41.1499 126.512 40.6909 126.505 40.2309V39.6039C126.505 36.5303 124.605 34.6257 121.547 34.6257Z" fill="#1D1D1B"/>
<path d="M58.9976 55.6227H18V56.1083H58.9976V55.6227Z" fill="#CBA65F"/>
<path d="M181.158 55.6227H140.16V56.1083H181.158V55.6227Z" fill="#CBA65F"/>
<path d="M43.1318 75.4036H49.5712C51.8336 75.4036 52.718 75.267 53.4894 74.7908C54.5712 74.1214 55.0134 73.3058 55.0134 70.8214C55.0134 68.04 54.4772 67.6534 53.4236 67.2386C52.5392 66.8898 51.7348 66.7672 49.2136 66.7672H40.747C40.5272 66.7326 40.3024 66.7504 40.0908 66.8194C39.8794 66.8884 39.687 67.0066 39.5298 67.1642C39.3724 67.3218 39.2546 67.5146 39.1858 67.7266C39.1168 67.9386 39.099 68.164 39.1336 68.3842V78.3264C39.0928 78.5398 39.1036 78.7598 39.1652 78.968C39.2268 79.1762 39.3374 79.3668 39.4876 79.5232C39.6378 79.6798 39.8234 79.798 40.0286 79.8678C40.2338 79.9376 40.4528 79.957 40.667 79.9246H41.5748C41.7646 79.953 41.958 79.9402 42.1424 79.887C42.3266 79.8336 42.4974 79.7414 42.6428 79.616C42.7882 79.4908 42.9052 79.3356 42.9854 79.1612C43.0658 78.9866 43.1076 78.7968 43.1082 78.6046L43.1318 75.4036ZM43.1318 72.3912V69.6146H48.9268C50.6578 69.6146 51.0294 69.9682 51.0294 71.0288C51.0294 72.0896 50.559 72.3912 48.9268 72.3912H43.1318ZM63.7388 69.7466H72.737C73.6778 69.8268 74.3504 69.2752 74.3504 68.3654V68.1296C74.3568 67.9256 74.3174 67.7226 74.235 67.5358C74.1526 67.3492 74.0294 67.1834 73.8746 67.0508C73.7198 66.9182 73.537 66.822 73.3402 66.7698C73.1432 66.7174 72.9372 66.7102 72.737 66.7484H61.4198C61.2 66.7136 60.9752 66.7316 60.7638 66.8006C60.5522 66.8696 60.36 66.9878 60.2026 67.1454C60.0454 67.303 59.9274 67.4958 59.8586 67.7078C59.7898 67.9198 59.7718 68.145 59.8064 68.3654V78.3076C59.7652 78.5282 59.7786 78.7554 59.8454 78.9696C59.9122 79.1838 60.0304 79.3784 60.1896 79.5362C60.3488 79.6938 60.5444 79.81 60.7588 79.8744C60.9732 79.939 61.2002 79.9496 61.4198 79.9056H72.8734C73.8376 79.9858 74.4868 79.4342 74.4868 78.5244V78.2888C74.4944 78.1114 74.466 77.9342 74.403 77.7682C74.3402 77.6022 74.2442 77.451 74.1208 77.3234C73.9976 77.196 73.8496 77.095 73.6862 77.0266C73.5226 76.9584 73.3468 76.9242 73.1698 76.9264H63.7622V74.5692H72.1914C72.5232 74.6198 72.8624 74.5584 73.1556 74.3948C73.3924 74.2446 73.5746 74.0218 73.675 73.7598C73.7754 73.4976 73.789 73.21 73.7134 72.9396C73.638 72.669 73.4774 72.4302 73.2558 72.2584C73.0342 72.0866 72.7632 71.991 72.483 71.9858H63.7388V69.7466ZM93.7156 76.7708L86.7118 67.9316C85.9826 66.9652 85.47 66.706 84.2518 66.7484H81.0014C80.7822 66.7114 80.5574 66.7278 80.346 66.7964C80.1346 66.865 79.9428 66.9836 79.7868 67.1422C79.6308 67.301 79.5152 67.495 79.4498 67.7078C79.3846 67.9208 79.3714 68.1462 79.4116 68.3654V78.3076C79.3716 78.5192 79.3822 78.7372 79.443 78.9438C79.5036 79.1504 79.6124 79.3394 79.7604 79.4956C79.9082 79.6516 80.0912 79.7702 80.2938 79.8416C80.4966 79.913 80.7134 79.9348 80.9262 79.9056H81.7306C82.6712 79.9056 83.2262 79.3918 83.2262 78.6046V78.2888L83.1464 70.0012L90.0372 78.7036C90.7664 79.6888 91.279 79.9246 92.4974 79.8868H95.79C96.0092 79.9284 96.2352 79.916 96.4486 79.8508C96.662 79.7854 96.8564 79.6692 97.015 79.512C97.1738 79.3548 97.292 79.1614 97.3596 78.9484C97.4272 78.7352 97.4422 78.509 97.4032 78.2888V68.3606C97.4414 68.1484 97.4294 67.9304 97.3684 67.7236C97.3074 67.517 97.199 67.3276 97.0518 67.1704C96.9046 67.0132 96.7226 66.8928 96.5208 66.8186C96.3188 66.7446 96.1024 66.7188 95.8886 66.7436H95.1172C94.2094 66.7436 93.6216 67.2574 93.6216 68.0448V68.3606L93.7156 76.7708ZM104.012 75.7242C103.071 75.7242 102.497 76.1956 102.497 77.0442C102.5 77.3878 102.559 77.7286 102.671 78.053C103.085 79.1138 103.758 79.571 105.329 79.8256C106.218 79.967 107.399 80.0046 110.39 80.0046C113.213 80.0046 115.193 79.8868 116.176 79.67C118.104 79.2552 118.815 78.1898 118.815 75.7808C118.815 73.1172 117.832 72.0094 115.329 71.8962C114.661 71.8586 112.888 71.7972 112.535 71.7972H108.815C108.275 71.8122 107.735 71.7792 107.201 71.6982C106.954 71.6632 106.73 71.5358 106.573 71.3416C106.416 71.1476 106.338 70.901 106.354 70.6518C106.354 69.9022 106.712 69.6288 107.766 69.5674C108.396 69.5108 110.188 69.4732 111.369 69.4732C113.198 69.4732 113.81 69.5674 114.125 69.8834C114.911 70.713 115.009 70.7508 115.795 70.7696H116.703C117.643 70.7696 118.18 70.2604 118.18 69.393C118.165 68.891 117.999 68.405 117.704 67.9994C117.408 67.5936 116.997 67.2874 116.524 67.1208C115.522 66.7484 114.478 66.6494 110.621 66.6494C107.568 66.6494 106.096 66.7294 104.976 67.003C103.095 67.4744 102.417 68.4644 102.417 70.8308C102.417 72.627 102.85 73.6594 103.796 74.1638C104.642 74.6022 105.649 74.739 108.067 74.739H111.688C113.499 74.739 113.777 74.739 114.191 74.8946C114.404 74.9784 114.585 75.1294 114.705 75.325C114.826 75.5204 114.88 75.75 114.859 75.9788C114.859 77.063 114.308 77.1856 109.661 77.1856C107.455 77.1856 106.787 77.063 106.552 76.634C106.439 76.3182 106.22 76.0514 105.933 75.8794C105.645 75.7074 105.307 75.641 104.976 75.6912L104.012 75.7242ZM127.949 71.6558V68.3558C127.991 68.1416 127.982 67.9202 127.921 67.7104C127.86 67.5006 127.75 67.3086 127.6 67.1502C127.449 66.9918 127.264 66.8718 127.058 66.8002C126.852 66.7288 126.632 66.7076 126.416 66.739H125.475C124.45 66.739 123.857 67.3094 123.937 68.3558V78.2982C123.896 78.512 123.907 78.7324 123.969 78.9412C124.03 79.1498 124.141 79.3406 124.292 79.4972C124.443 79.654 124.629 79.772 124.835 79.8414C125.041 79.9108 125.26 79.9296 125.475 79.8962H126.416C126.605 79.9246 126.799 79.9118 126.983 79.8586C127.168 79.8054 127.338 79.713 127.484 79.5878C127.629 79.4626 127.746 79.3074 127.826 79.1328C127.907 78.9584 127.949 78.7684 127.949 78.5762V74.8474H129.958L134.487 78.6942C135.63 79.7408 136.157 79.934 137.634 79.8962H139.958C140.428 79.8962 140.649 79.6982 140.649 79.3258C140.646 79.2224 140.617 79.1212 140.566 79.0316C140.514 78.9418 140.441 78.8664 140.353 78.812L133.424 73.2492L139.643 67.8844C139.878 67.663 139.958 67.5498 139.958 67.3518C139.958 66.9558 139.685 66.739 139.229 66.739H137.121C135.748 66.6964 135.216 66.918 134.149 67.941L130.057 71.6512L127.949 71.6558ZM149.422 69.7466H158.415C159.379 69.8268 160.029 69.2752 160.029 68.3654V68.1296C160.035 67.9256 159.996 67.7226 159.913 67.5358C159.831 67.3492 159.708 67.1834 159.553 67.0508C159.398 66.9182 159.215 66.822 159.018 66.7698C158.821 66.7174 158.615 66.7102 158.415 66.7484H147.098C146.878 66.7136 146.654 66.7316 146.442 66.8006C146.23 66.8696 146.038 66.9878 145.881 67.1454C145.724 67.303 145.606 67.4958 145.537 67.7078C145.468 67.9198 145.45 68.145 145.485 68.3654V78.3076C145.443 78.5282 145.457 78.7554 145.524 78.9696C145.59 79.1838 145.709 79.3784 145.868 79.5362C146.027 79.6938 146.223 79.81 146.437 79.8744C146.652 79.939 146.879 79.9496 147.098 79.9056H158.552C159.516 79.9858 160.17 79.4342 160.17 78.5244V78.2888C160.177 78.1112 160.148 77.934 160.084 77.768C160.021 77.602 159.924 77.4506 159.801 77.3232C159.677 77.1958 159.529 77.0948 159.365 77.0266C159.201 76.9584 159.025 76.9242 158.848 76.9264H149.441V74.5692H157.865C158.197 74.6198 158.536 74.5584 158.829 74.3948C159.066 74.2448 159.248 74.0226 159.348 73.7608C159.449 73.4992 159.463 73.212 159.388 72.9418C159.313 72.6716 159.153 72.4326 158.932 72.2606C158.711 72.0884 158.441 71.992 158.161 71.9858H149.422V69.7466Z" fill="#1D1D1B"/>
<path d="M64.289 57.8903V53.7371H66.735V54.4113H65.0652V55.6417H66.5046V56.3063H65.0652V57.8903H64.289Z" fill="#1D1D1B"/>
<path d="M72.3006 56.3393C72.3006 57.3387 71.7832 57.9517 70.753 57.9517C69.723 57.9517 69.1914 57.3387 69.1914 56.3393V55.2927C69.1914 54.2933 69.7182 53.6711 70.753 53.6711C71.7878 53.6711 72.3006 54.2933 72.3006 55.2927V56.3393ZM71.5292 55.2457C71.5292 54.6799 71.2752 54.3783 70.753 54.3783C70.231 54.3783 69.9676 54.6799 69.9676 55.2457V56.3817C69.9676 56.9521 70.2262 57.2539 70.753 57.2539C71.2798 57.2539 71.5292 56.9521 71.5292 56.3817V55.2457Z" fill="#1D1D1B"/>
<path d="M77.2396 57.8903L76.4304 56.3629H75.8284V57.8903H75.0664V53.7183H76.4776C77.3478 53.7183 77.8086 54.1519 77.8086 54.9487V55.1467C77.8302 55.3743 77.7782 55.6029 77.6606 55.7989C77.5428 55.9949 77.3656 56.1479 77.1548 56.2357L78.0956 57.8715L77.2396 57.8903ZM75.8284 55.7359H76.4964C76.5712 55.7431 76.6468 55.7337 76.7176 55.7083C76.7884 55.6831 76.853 55.6423 76.9064 55.5893C76.9598 55.5361 77.0008 55.4719 77.0268 55.4011C77.0526 55.3303 77.0626 55.2547 77.056 55.1797V54.9533C77.0626 54.8783 77.0526 54.8025 77.0268 54.7319C77.0008 54.6611 76.9598 54.5967 76.9064 54.5437C76.853 54.4905 76.7884 54.4499 76.7176 54.4247C76.6468 54.3993 76.5712 54.3899 76.4964 54.3971H75.8284V55.7359Z" fill="#1D1D1B"/>
<path d="M81.3638 55.373V57.8904H80.6582V53.7324H81.2838L82.7514 56.6506L84.2048 53.7324H84.8256V57.8904H84.1154V55.373L83.01 57.6122H82.4738L81.3638 55.373Z" fill="#1D1D1B"/>
<path d="M88.4374 53.7183V56.4195C88.4374 56.9521 88.6868 57.2351 89.1854 57.2351C89.684 57.2351 89.9332 56.9521 89.9332 56.4195V53.7183H90.7046V56.3771C90.7046 57.3435 90.2014 57.9327 89.1854 57.9327C88.1694 57.9327 87.666 57.3435 87.666 56.3771V53.7183H88.4374Z" fill="#1D1D1B"/>
<path d="M94.3034 53.7324V57.188H95.9356V57.8856H93.5274V53.7324H94.3034Z" fill="#1D1D1B"/>
<path d="M98.1368 57.8903L99.5478 53.7371H100.286L101.697 57.8903H100.874L100.587 57.0323H99.1762L98.9034 57.8903H98.1368ZM100.395 56.4289L99.8818 54.6611L99.3644 56.4101L100.395 56.4289Z" fill="#1D1D1B"/>
<path d="M109.515 54.4113H107.803V55.4577H109.242V56.1083H107.803V57.2209H109.529V57.8903H107.031V53.7371H109.515V54.4113Z" fill="#1D1D1B"/>
<path d="M116.594 54.4395H115.441V53.7371H118.513V54.4395H117.365V57.8903H116.594V54.4395Z" fill="#1D1D1B"/>
<path d="M123.556 54.4113H121.844V55.4577H123.283V56.1083H121.844V57.2209H123.57V57.8903H121.072V53.7371H123.556V54.4113Z" fill="#1D1D1B"/>
<path d="M125.879 57.8903L127.29 53.7371H128.033L129.444 57.8903H128.626L128.339 57.0323H126.928L126.655 57.8903H125.879ZM128.132 56.4289L127.624 54.6611L127.107 56.4101L128.132 56.4289Z" fill="#1D1D1B"/>
<path d="M132.676 55.373V57.8904H131.971V53.7324H132.596L134.064 56.6506L135.517 53.7324H136.138V57.8904H135.428V55.373L134.323 57.6122H133.786L132.676 55.373Z" fill="#1D1D1B"/>
</g>
</g>
<defs>
<clipPath id="clip0_1_372">
<rect width="200" height="80" fill="white"/>
</clipPath>
</defs>
</svg>
