<svg width="200" height="81" viewBox="0 0 200 81" fill="none" xmlns="http://www.w3.org/2000/svg">
<g clip-path="url(#clip0_409_4224)">
<mask id="mask0_409_4224" style="mask-type:luminance" maskUnits="userSpaceOnUse" x="18" y="0" width="164" height="81">
<path d="M181.158 0.666504H18V80.6665H181.158V0.666504Z" fill="white"/>
</mask>
<g mask="url(#mask0_409_4224)">
<path d="M105.804 13.8003C105.788 13.6869 105.743 13.5797 105.673 13.4891C104.956 12.7179 104.325 11.8706 103.791 10.9623C103.434 10.274 103.189 9.61406 102.521 9.61406H100.776C100.503 9.61406 100.776 9.8639 100.898 9.95818C101.303 10.2882 103.608 12.2493 105.757 13.838C105.833 13.8898 105.847 13.871 105.828 13.8003M105.019 23.2711C107.413 21.3855 109.2 19.9099 110.4 19.066C110.541 18.967 110.837 18.6747 110.527 18.6747H108.481C107.723 18.6747 107.62 19.1933 107.215 19.9712C106.62 21.0653 105.878 22.0725 105.009 22.9647C104.984 23.0145 104.97 23.0691 104.967 23.1249C104.967 23.1721 104.967 23.3229 105.019 23.2711ZM94.8022 13.6966C96.9236 12.0372 98.5136 10.7172 99.5624 9.97232C99.6894 9.88748 99.9528 9.6282 99.6754 9.6282H97.8738C97.2106 9.6282 97.1166 10.0996 96.7638 10.769C96.2468 11.7264 95.5992 12.607 94.84 13.3854C94.8082 13.4406 94.7874 13.5015 94.7788 13.5646C94.7788 13.6023 94.7788 13.7296 94.8022 13.6966ZM95.3056 11.0707C94.2802 13.6541 90.743 16.3648 89.8446 17.1756C89.8232 17.2229 89.8134 17.2747 89.8164 17.3265C89.8164 17.3783 89.8164 17.4679 89.854 17.4396C90.282 17.1096 90.8936 16.6005 91.7354 15.9641C92.605 15.2809 93.4268 14.539 94.1956 13.7437C95.4938 12.4049 96.4862 10.9482 96.4862 9.5009C96.4862 8.05364 95.4938 6.60168 94.1956 5.25812C93.4256 4.46256 92.6038 3.71922 91.7354 3.03304C90.917 2.39662 90.3244 1.89691 89.887 1.56692C89.8492 1.53863 89.8398 1.62349 89.8398 1.67534C89.8378 1.72865 89.8474 1.78176 89.868 1.83091C90.7666 2.63704 94.3036 5.3477 95.3292 7.92636C95.5362 8.42268 95.6478 8.95366 95.6584 9.49148C95.648 10.0278 95.5362 10.5573 95.3292 11.0519M104.901 14.2434C104.591 13.8757 104.285 13.5268 103.984 13.2016C103.833 13.0366 103.565 12.7537 103.542 12.7301C103.486 12.6837 103.417 12.6557 103.344 12.65C103.311 12.65 103.316 12.6736 103.344 12.7066C103.372 12.7396 103.622 13.046 103.862 13.3241C104.837 14.386 105.619 15.6115 106.171 16.9446C106.35 17.4584 106.442 17.9985 106.444 18.5428C106.43 19.0437 106.319 19.5371 106.115 19.9947C105.644 21.1073 104.398 22.4979 103.128 23.7661C103.076 23.8179 103.076 23.9499 103.067 24.0347C103.057 24.1197 103.142 24.0347 103.245 23.9547C103.989 23.2993 104.567 22.7479 104.882 22.4319C106.124 21.2015 107.07 19.8863 107.07 18.5569C107.07 17.0955 106.058 15.6058 104.906 14.2528M110.014 2.31176C110.043 2.27854 110.064 2.23938 110.077 2.19703C110.089 2.15468 110.091 2.11017 110.085 2.06662C110.085 2.06662 110.085 2.00534 110.056 2.02891L109.661 2.33062C109.389 2.53804 109.102 2.76904 108.772 3.03304C107.907 3.72148 107.086 4.46302 106.312 5.25342C105.014 6.59224 104.022 8.08194 104.022 9.4962C104.022 10.9105 104.962 12.4567 106.279 13.7767C106.557 14.0548 106.778 14.2764 106.952 14.4367L107.103 14.564C107.103 14.564 107.135 14.564 107.131 14.564C107.12 14.4267 107.073 14.2949 106.994 14.1821C106.839 13.9653 106.736 13.8333 106.524 13.5127C105.991 12.759 105.548 11.9458 105.202 11.0896C104.985 10.5932 104.873 10.0571 104.873 9.51506C104.873 8.97306 104.985 8.43692 105.202 7.9405C105.988 5.95584 108.316 3.80616 109.76 2.57576C109.911 2.44376 109.981 2.38248 110.038 2.32591M111.105 18.5569C111.093 18.6816 111.053 18.802 110.988 18.909C110.923 19.0159 110.834 19.1067 110.729 19.1745L100.197 27.3677V27.0425C100.197 26.8841 100.213 26.7261 100.245 26.5711C100.287 26.3935 100.376 26.2307 100.503 26.0997C101.086 25.5151 102.855 23.7425 103.255 23.3135C104.222 22.3653 105.006 21.2465 105.569 20.0136C105.755 19.5469 105.854 19.0499 105.861 18.5475C105.855 17.9697 105.757 17.3967 105.569 16.8504C104.628 14.0218 101.181 10.7219 100.419 10.0053C100.316 9.90948 100.238 9.78964 100.193 9.65648C100.13 9.8467 100.008 10.0118 99.8446 10.1279L89.379 18.3165V0.666504L99.8918 8.87392C100.053 8.99136 100.175 9.15602 100.24 9.34534C100.307 9.15624 100.43 8.99196 100.593 8.87392L111.11 0.666504V1.00121C111.109 1.15946 111.093 1.31726 111.063 1.47263C111.022 1.6506 110.932 1.81371 110.804 1.94405C110.221 2.52861 108.452 4.30114 108.053 4.72542C107.084 5.67298 106.297 6.7917 105.734 8.02536C105.547 8.49192 105.448 8.98896 105.442 9.49148C105.448 10.0692 105.546 10.6423 105.734 11.1886C106.674 14.0171 110.122 17.3171 110.908 18.0289C111.053 18.16 111.143 18.3424 111.157 18.538" fill="white"/>
<path d="M74.3984 37.7674H78.7728V45.871H81.1812V37.7674H85.6404V35.2924H74.3984V37.7674Z" fill="white"/>
<path d="M70.71 40.8928C70.71 42.4816 69.807 43.3962 68.2218 43.3962H66.8484C65.2678 43.3962 64.36 42.4816 64.36 40.8928V35.2924H61.8906V40.8928C61.8906 43.9618 63.7722 45.871 66.8484 45.871H68.2124C71.2698 45.871 73.1702 43.9618 73.1702 40.8928V35.2924H70.7006L70.71 40.8928Z" fill="white"/>
<path d="M25.2716 35.2924H18.0137V42.5286H20.4878V37.7674H25.2716C26.8332 37.7674 27.7598 38.7102 27.7598 40.2658V40.8928C27.7598 42.4816 26.852 43.3962 25.2716 43.3962H18.0137V45.871H25.2716C28.3336 45.871 30.234 43.9618 30.234 40.8928V40.2658C30.234 37.197 28.3336 35.2924 25.2716 35.2924Z" fill="white"/>
<path d="M53.5878 35.2924L47.6328 45.871H50.5726L54.8906 38.1114L57.8964 43.6932H53.3432L52.28 45.871H62.1484L56.1936 35.2924H53.5878Z" fill="white"/>
<path d="M93.5048 35.2924H91.0118C87.9498 35.2924 86.0494 37.178 86.0494 40.2658V40.8928C86.0428 41.3528 86.0918 41.8118 86.1952 42.26L86.261 42.5286H88.8434L88.6976 42.0572C88.581 41.6768 88.5208 41.2814 88.5188 40.8834V40.2564C88.5188 38.6914 89.4596 37.758 91.0118 37.758H93.5048C95.0664 37.758 95.993 38.7008 95.993 40.2564V40.8834C95.993 42.4722 95.09 43.3866 93.5048 43.3866H86.5574L86.9338 43.9382C87.7756 45.178 89.2292 45.8616 91.026 45.8616H93.519C96.581 45.8616 98.4814 43.9524 98.4814 40.8834V40.2564C98.4672 37.197 96.567 35.2924 93.5048 35.2924Z" fill="white"/>
<path d="M167.493 35.2924H157.395V37.7674H167.493V35.2924Z" fill="white"/>
<path d="M40.6718 39.3417H34.6276C34.303 39.3417 33.9174 39.2097 33.9174 38.5781C33.9174 38.0549 34.1714 37.7673 34.6276 37.7673H43.0566V35.2923H34.6276C34.2012 35.2759 33.7762 35.3489 33.3796 35.5065C32.9828 35.6643 32.6234 35.9031 32.3242 36.2079C32.025 36.5127 31.7924 36.8767 31.6416 37.2767C31.4906 37.6767 31.4246 38.1039 31.448 38.5309C31.448 40.4685 32.7556 41.8309 34.6276 41.8309H40.6718C40.9918 41.8309 41.3728 41.9581 41.3728 42.5757C41.3728 43.1179 41.1282 43.4055 40.6718 43.4055H31.843V45.8803H40.6718C41.0984 45.8955 41.5232 45.8213 41.9194 45.6625C42.3156 45.5037 42.6744 45.2637 42.9728 44.9581C43.2712 44.6523 43.5026 44.2875 43.6522 43.8871C43.802 43.4867 43.8666 43.0593 43.8422 42.6323C43.8422 40.7137 42.5392 39.3417 40.6718 39.3417Z" fill="white"/>
<path d="M106.307 42.6606L102.342 35.2924H100.211V45.871H102.619V40.6336L105.079 45.2582H107.535L109.995 40.6336V45.871H112.408V35.2924H110.272L106.307 42.6606Z" fill="white"/>
<path d="M149.061 35.2924H146.652V45.871H155.923V43.3914H149.061V35.2924Z" fill="white"/>
<path d="M159.808 41.8167H166.515V39.3417H157.395V45.8709H167.653V43.3913H159.808V41.8167Z" fill="white"/>
<path d="M177.973 39.3417H171.924C171.604 39.3417 171.223 39.2097 171.223 38.5781C171.223 38.0501 171.463 37.7673 171.924 37.7673H180.362V35.2923H171.924C171.498 35.2765 171.073 35.3501 170.677 35.5081C170.281 35.6659 169.922 35.9049 169.623 36.2097C169.325 36.5145 169.093 36.8783 168.942 37.2779C168.791 37.6777 168.726 38.1043 168.749 38.5309C168.749 40.4685 170.056 41.8309 171.924 41.8309H177.973C178.293 41.8309 178.674 41.9581 178.674 42.5757C178.674 43.1179 178.429 43.4055 177.973 43.4055H169.144V45.8803H177.973C178.399 45.8955 178.824 45.8213 179.22 45.6625C179.616 45.5037 179.975 45.2637 180.274 44.9581C180.572 44.6523 180.803 44.2875 180.953 43.8871C181.103 43.4867 181.167 43.0593 181.143 42.6323C181.143 40.7137 179.84 39.3417 177.973 39.3417Z" fill="white"/>
<path d="M139.28 40.3743C139.715 39.8169 139.941 39.1249 139.92 38.4179C139.941 37.9975 139.873 37.5773 139.72 37.1853C139.567 36.7931 139.334 36.4377 139.034 36.1425C138.735 35.8473 138.376 35.6191 137.983 35.4725C137.589 35.3259 137.169 35.2645 136.75 35.2923H128.25V45.8711H137.093C138.998 45.8711 140.277 44.6123 140.277 42.7407C140.293 42.2973 140.211 41.8561 140.039 41.4473C139.867 41.0387 139.608 40.6725 139.28 40.3743ZM136.75 39.3419H131.576V41.8215H137.084C137.187 41.8081 137.293 41.8195 137.391 41.8543C137.49 41.8893 137.579 41.9469 137.651 42.0225C137.723 42.0981 137.777 42.1897 137.807 42.2899C137.838 42.3901 137.845 42.4961 137.827 42.5993C137.827 43.1227 137.573 43.4101 137.112 43.4101H130.724V37.7673H136.75C137.22 37.7673 137.45 38.0501 137.45 38.5781C137.465 38.6765 137.457 38.7767 137.427 38.8715C137.398 38.9665 137.348 39.0537 137.281 39.1267C137.214 39.1999 137.131 39.2571 137.039 39.2943C136.948 39.3315 136.849 39.3477 136.75 39.3419Z" fill="white"/>
<path d="M144.408 35.2924H142V45.871H144.408V35.2924Z" fill="white"/>
<path d="M121.547 35.2924H119.059C115.997 35.2924 114.092 37.178 114.092 40.2658V40.8928C114.092 43.9618 115.973 45.871 119.059 45.871H121.547C123.339 45.871 124.793 45.1876 125.639 43.9476L126.016 43.3962H119.059C117.469 43.3962 116.561 42.4816 116.561 40.8928V40.2658C116.561 38.6772 117.469 37.7674 119.059 37.7674H121.547C123.104 37.7674 124.035 38.7102 124.035 40.2658V40.8928C124.037 41.2892 123.978 41.6834 123.861 42.062L123.701 42.5334H126.293L126.359 42.2646C126.463 41.8166 126.512 41.3576 126.505 40.8976V40.2706C126.505 37.197 124.605 35.2924 121.547 35.2924Z" fill="white"/>
<path d="M58.9976 56.2893H18V56.7749H58.9976V56.2893Z" fill="#CBA65F"/>
<path d="M181.158 56.2893H140.16V56.7749H181.158V56.2893Z" fill="#CBA65F"/>
<path d="M43.1318 76.0701H49.5712C51.8336 76.0701 52.718 75.9335 53.4894 75.4573C54.5712 74.7879 55.0134 73.9723 55.0134 71.4879C55.0134 68.7065 54.4772 68.3199 53.4236 67.9051C52.5392 67.5563 51.7348 67.4337 49.2136 67.4337H40.747C40.5272 67.3991 40.3024 67.4169 40.0908 67.4859C39.8794 67.5549 39.687 67.6731 39.5298 67.8307C39.3724 67.9883 39.2546 68.1811 39.1858 68.3931C39.1168 68.6051 39.099 68.8305 39.1336 69.0507V78.9929C39.0928 79.2063 39.1036 79.4263 39.1652 79.6345C39.2268 79.8427 39.3374 80.0333 39.4876 80.1897C39.6378 80.3463 39.8234 80.4645 40.0286 80.5343C40.2338 80.6041 40.4528 80.6235 40.667 80.5911H41.5748C41.7646 80.6195 41.958 80.6067 42.1424 80.5535C42.3266 80.5001 42.4974 80.4079 42.6428 80.2825C42.7882 80.1573 42.9052 80.0021 42.9854 79.8277C43.0658 79.6531 43.1076 79.4633 43.1082 79.2711L43.1318 76.0701ZM43.1318 73.0577V70.2811H48.9268C50.6578 70.2811 51.0294 70.6347 51.0294 71.6953C51.0294 72.7561 50.559 73.0577 48.9268 73.0577H43.1318ZM63.7388 70.4131H72.737C73.6778 70.4933 74.3504 69.9417 74.3504 69.0319V68.7961C74.3568 68.5921 74.3174 68.3891 74.235 68.2023C74.1526 68.0157 74.0294 67.8499 73.8746 67.7173C73.7198 67.5847 73.537 67.4885 73.3402 67.4363C73.1432 67.3839 72.9372 67.3767 72.737 67.4149H61.4198C61.2 67.3801 60.9752 67.3981 60.7638 67.4671C60.5522 67.5361 60.36 67.6543 60.2026 67.8119C60.0454 67.9695 59.9274 68.1623 59.8586 68.3743C59.7898 68.5863 59.7718 68.8115 59.8064 69.0319V78.9741C59.7652 79.1947 59.7786 79.4219 59.8454 79.6361C59.9122 79.8503 60.0304 80.0449 60.1896 80.2027C60.3488 80.3603 60.5444 80.4765 60.7588 80.5409C60.9732 80.6055 61.2002 80.6161 61.4198 80.5721H72.8734C73.8376 80.6523 74.4868 80.1007 74.4868 79.1909V78.9553C74.4944 78.7779 74.466 78.6007 74.403 78.4347C74.3402 78.2687 74.2442 78.1175 74.1208 77.9899C73.9976 77.8625 73.8496 77.7615 73.6862 77.6931C73.5226 77.6249 73.3468 77.5907 73.1698 77.5929H63.7622V75.2357H72.1914C72.5232 75.2863 72.8624 75.2249 73.1556 75.0613C73.3924 74.9111 73.5746 74.6883 73.675 74.4263C73.7754 74.1641 73.789 73.8765 73.7134 73.6061C73.638 73.3355 73.4774 73.0967 73.2558 72.9249C73.0342 72.7531 72.7632 72.6575 72.483 72.6523H63.7388V70.4131ZM93.7156 77.4373L86.7118 68.5981C85.9826 67.6317 85.47 67.3725 84.2518 67.4149H81.0014C80.7822 67.3779 80.5574 67.3943 80.346 67.4629C80.1346 67.5315 79.9428 67.6501 79.7868 67.8087C79.6308 67.9675 79.5152 68.1615 79.4498 68.3743C79.3846 68.5873 79.3714 68.8127 79.4116 69.0319V78.9741C79.3716 79.1857 79.3822 79.4037 79.443 79.6103C79.5036 79.8169 79.6124 80.0059 79.7604 80.1621C79.9082 80.3181 80.0912 80.4367 80.2938 80.5081C80.4966 80.5795 80.7134 80.6013 80.9262 80.5721H81.7306C82.6712 80.5721 83.2262 80.0583 83.2262 79.2711V78.9553L83.1464 70.6677L90.0372 79.3701C90.7664 80.3553 91.279 80.5911 92.4974 80.5533H95.79C96.0092 80.5949 96.2352 80.5825 96.4486 80.5173C96.662 80.4519 96.8564 80.3357 97.015 80.1785C97.1738 80.0213 97.292 79.8279 97.3596 79.6149C97.4272 79.4017 97.4422 79.1755 97.4032 78.9553V69.0271C97.4414 68.8149 97.4294 68.5969 97.3684 68.3901C97.3074 68.1835 97.199 67.9941 97.0518 67.8369C96.9046 67.6797 96.7226 67.5593 96.5208 67.4851C96.3188 67.4111 96.1024 67.3853 95.8886 67.4101H95.1172C94.2094 67.4101 93.6216 67.9239 93.6216 68.7113V69.0271L93.7156 77.4373ZM104.012 76.3907C103.071 76.3907 102.497 76.8621 102.497 77.7107C102.5 78.0543 102.559 78.3951 102.671 78.7195C103.085 79.7803 103.758 80.2375 105.329 80.4921C106.218 80.6335 107.399 80.6711 110.39 80.6711C113.213 80.6711 115.193 80.5533 116.176 80.3365C118.104 79.9217 118.815 78.8563 118.815 76.4473C118.815 73.7837 117.832 72.6759 115.329 72.5627C114.661 72.5251 112.888 72.4637 112.535 72.4637H108.815C108.275 72.4787 107.735 72.4457 107.201 72.3647C106.954 72.3297 106.73 72.2023 106.573 72.0081C106.416 71.8141 106.338 71.5675 106.354 71.3183C106.354 70.5687 106.712 70.2953 107.766 70.2339C108.396 70.1773 110.188 70.1397 111.369 70.1397C113.198 70.1397 113.81 70.2339 114.125 70.5499C114.911 71.3795 115.009 71.4173 115.795 71.4361H116.703C117.643 71.4361 118.18 70.9269 118.18 70.0595C118.165 69.5575 117.999 69.0715 117.704 68.6659C117.408 68.2601 116.997 67.9539 116.524 67.7873C115.522 67.4149 114.478 67.3159 110.621 67.3159C107.568 67.3159 106.096 67.3959 104.976 67.6695C103.095 68.1409 102.417 69.1309 102.417 71.4973C102.417 73.2935 102.85 74.3259 103.796 74.8303C104.642 75.2687 105.649 75.4055 108.067 75.4055H111.688C113.499 75.4055 113.777 75.4055 114.191 75.5611C114.404 75.6449 114.585 75.7959 114.705 75.9915C114.826 76.1869 114.88 76.4165 114.859 76.6453C114.859 77.7295 114.308 77.8521 109.661 77.8521C107.455 77.8521 106.787 77.7295 106.552 77.3005C106.439 76.9847 106.22 76.7179 105.933 76.5459C105.645 76.3739 105.307 76.3075 104.976 76.3577L104.012 76.3907ZM127.949 72.3223V69.0223C127.991 68.8081 127.982 68.5867 127.921 68.3769C127.86 68.1671 127.75 67.9751 127.6 67.8167C127.449 67.6583 127.264 67.5383 127.058 67.4667C126.852 67.3953 126.632 67.3741 126.416 67.4055H125.475C124.45 67.4055 123.857 67.9759 123.937 69.0223V78.9647C123.896 79.1785 123.907 79.3989 123.969 79.6077C124.03 79.8163 124.141 80.0071 124.292 80.1637C124.443 80.3205 124.629 80.4385 124.835 80.5079C125.041 80.5773 125.26 80.5961 125.475 80.5627H126.416C126.605 80.5911 126.799 80.5783 126.983 80.5251C127.168 80.4719 127.338 80.3795 127.484 80.2543C127.629 80.1291 127.746 79.9739 127.826 79.7993C127.907 79.6249 127.949 79.4349 127.949 79.2427V75.5139H129.958L134.487 79.3607C135.63 80.4073 136.157 80.6005 137.634 80.5627H139.958C140.428 80.5627 140.649 80.3647 140.649 79.9923C140.646 79.8889 140.617 79.7877 140.566 79.6981C140.514 79.6083 140.441 79.5329 140.353 79.4785L133.424 73.9157L139.643 68.5509C139.878 68.3295 139.958 68.2163 139.958 68.0183C139.958 67.6223 139.685 67.4055 139.229 67.4055H137.121C135.748 67.3629 135.216 67.5845 134.149 68.6075L130.057 72.3177L127.949 72.3223ZM149.422 70.4131H158.415C159.379 70.4933 160.029 69.9417 160.029 69.0319V68.7961C160.035 68.5921 159.996 68.3891 159.913 68.2023C159.831 68.0157 159.708 67.8499 159.553 67.7173C159.398 67.5847 159.215 67.4885 159.018 67.4363C158.821 67.3839 158.615 67.3767 158.415 67.4149H147.098C146.878 67.3801 146.654 67.3981 146.442 67.4671C146.23 67.5361 146.038 67.6543 145.881 67.8119C145.724 67.9695 145.606 68.1623 145.537 68.3743C145.468 68.5863 145.45 68.8115 145.485 69.0319V78.9741C145.443 79.1947 145.457 79.4219 145.524 79.6361C145.59 79.8503 145.709 80.0449 145.868 80.2027C146.027 80.3603 146.223 80.4765 146.437 80.5409C146.652 80.6055 146.879 80.6161 147.098 80.5721H158.552C159.516 80.6523 160.17 80.1007 160.17 79.1909V78.9553C160.177 78.7777 160.148 78.6005 160.084 78.4345C160.021 78.2685 159.924 78.1171 159.801 77.9897C159.677 77.8623 159.529 77.7613 159.365 77.6931C159.201 77.6249 159.025 77.5907 158.848 77.5929H149.441V75.2357H157.865C158.197 75.2863 158.536 75.2249 158.829 75.0613C159.066 74.9113 159.248 74.6891 159.348 74.4273C159.449 74.1657 159.463 73.8785 159.388 73.6083C159.313 73.3381 159.153 73.0991 158.932 72.9271C158.711 72.7549 158.441 72.6585 158.161 72.6523H149.422V70.4131Z" fill="white"/>
<path d="M64.289 58.5569V54.4037H66.735V55.0779H65.0652V56.3083H66.5046V56.9729H65.0652V58.5569H64.289Z" fill="white"/>
<path d="M72.3006 57.0058C72.3006 58.0052 71.7832 58.6182 70.753 58.6182C69.723 58.6182 69.1914 58.0052 69.1914 57.0058V55.9592C69.1914 54.9598 69.7182 54.3376 70.753 54.3376C71.7878 54.3376 72.3006 54.9598 72.3006 55.9592V57.0058ZM71.5292 55.9122C71.5292 55.3464 71.2752 55.0448 70.753 55.0448C70.231 55.0448 69.9676 55.3464 69.9676 55.9122V57.0482C69.9676 57.6186 70.2262 57.9204 70.753 57.9204C71.2798 57.9204 71.5292 57.6186 71.5292 57.0482V55.9122Z" fill="white"/>
<path d="M77.2396 58.5569L76.4304 57.0295H75.8284V58.5569H75.0664V54.3849H76.4776C77.3478 54.3849 77.8086 54.8185 77.8086 55.6153V55.8133C77.8302 56.0409 77.7782 56.2695 77.6606 56.4655C77.5428 56.6615 77.3656 56.8145 77.1548 56.9023L78.0956 58.5381L77.2396 58.5569ZM75.8284 56.4025H76.4964C76.5712 56.4097 76.6468 56.4003 76.7176 56.3749C76.7884 56.3497 76.853 56.3089 76.9064 56.2559C76.9598 56.2027 77.0008 56.1385 77.0268 56.0677C77.0526 55.9969 77.0626 55.9213 77.056 55.8463V55.6199C77.0626 55.5449 77.0526 55.4691 77.0268 55.3985C77.0008 55.3277 76.9598 55.2633 76.9064 55.2103C76.853 55.1571 76.7884 55.1165 76.7176 55.0913C76.6468 55.0659 76.5712 55.0565 76.4964 55.0637H75.8284V56.4025Z" fill="white"/>
<path d="M81.3638 56.0395V58.5569H80.6582V54.3989H81.2838L82.7514 57.3171L84.2048 54.3989H84.8256V58.5569H84.1154V56.0395L83.01 58.2787H82.4738L81.3638 56.0395Z" fill="white"/>
<path d="M88.4374 54.3849V57.0861C88.4374 57.6187 88.6868 57.9017 89.1854 57.9017C89.684 57.9017 89.9332 57.6187 89.9332 57.0861V54.3849H90.7046V57.0437C90.7046 58.0101 90.2014 58.5993 89.1854 58.5993C88.1694 58.5993 87.666 58.0101 87.666 57.0437V54.3849H88.4374Z" fill="white"/>
<path d="M94.3034 54.3989V57.8545H95.9356V58.5521H93.5274V54.3989H94.3034Z" fill="white"/>
<path d="M98.1368 58.5569L99.5478 54.4037H100.286L101.697 58.5569H100.874L100.587 57.6989H99.1762L98.9034 58.5569H98.1368ZM100.395 57.0955L99.8818 55.3277L99.3644 57.0767L100.395 57.0955Z" fill="white"/>
<path d="M109.515 55.0779H107.803V56.1243H109.242V56.7749H107.803V57.8875H109.529V58.5569H107.031V54.4037H109.515V55.0779Z" fill="white"/>
<path d="M116.594 55.1061H115.441V54.4037H118.513V55.1061H117.365V58.5569H116.594V55.1061Z" fill="white"/>
<path d="M123.556 55.0779H121.844V56.1243H123.283V56.7749H121.844V57.8875H123.57V58.5569H121.072V54.4037H123.556V55.0779Z" fill="white"/>
<path d="M125.879 58.5569L127.29 54.4037H128.033L129.444 58.5569H128.626L128.339 57.6989H126.928L126.655 58.5569H125.879ZM128.132 57.0955L127.624 55.3277L127.107 57.0767L128.132 57.0955Z" fill="white"/>
<path d="M132.676 56.0395V58.5569H131.971V54.3989H132.596L134.064 57.3171L135.517 54.3989H136.138V58.5569H135.428V56.0395L134.323 58.2787H133.786L132.676 56.0395Z" fill="white"/>
</g>
</g>
<defs>
<clipPath id="clip0_409_4224">
<rect width="200" height="80" fill="white" transform="translate(0 0.666504)"/>
</clipPath>
</defs>
</svg>
