<svg width="262" height="259" viewBox="0 0 262 259" fill="none" xmlns="http://www.w3.org/2000/svg">
<path opacity="0.35" d="M261.14 -7.64948C260.897 -0.579599 259.165 6.14818 256.754 12.7436C250.927 28.6049 242.277 42.9211 232.306 56.4642C211.611 84.6029 186.956 108.564 157.175 127.072C143.77 135.405 129.569 142.003 114.309 146.186C103.927 149.035 93.3458 150.462 82.5761 149.95C80.0021 149.832 77.2931 149.266 74.9384 148.231C69.1675 145.698 67.9551 139.719 71.9355 134.809C74.6561 131.442 78.4184 129.679 82.504 129.105C105.322 125.898 124.804 115.357 142.651 101.558C172.162 78.7366 195.713 50.6758 214.426 18.5128C216.408 15.1058 217.996 11.4547 219.552 7.83199C220.195 6.33932 220.29 4.62396 220.64 3.01655C220.335 2.72385 220.031 2.4429 219.738 2.14855C217.854 2.58116 215.919 2.82903 214.109 3.44309C201.58 7.7569 189.83 13.7711 178.241 20.0743C148.707 36.151 120.822 54.6448 95.6723 77.0571C83.8054 87.6185 72.8375 99.0243 63.6127 111.983C56.9139 121.387 51.3049 131.368 47.8538 142.437C44.7807 152.265 43.6006 162.236 45.7573 172.456C48.4608 185.285 55.5705 195.037 66.519 202.032C76.7155 208.546 88.0212 211.248 100.047 211.128C114.112 210.997 127.459 207.203 140.558 202.594C175.968 190.138 205.934 169.194 232.418 142.951C234.2 141.19 235.963 139.384 237.933 137.849C239.469 136.65 241.207 135.603 243.018 134.905C246.638 133.497 249.269 134.961 250.181 138.716C251.281 143.296 250.332 147.648 248.228 151.732C246.841 154.42 245.251 157.028 243.59 159.563C227.082 184.86 205.937 205.691 181.489 223.27C165.011 235.115 147.338 244.766 128.011 251.198C109.75 257.276 91.1203 260.637 71.907 257.285C37.7004 251.305 15.531 231.276 5.04913 198.469C-2.42487 175.105 0.121321 152.129 9.37323 129.71C15.8203 114.073 25.0408 100.144 35.841 87.2038C52.0026 67.8166 70.8689 51.3574 91.3213 36.7009C122.704 14.2156 156.366 -4.0114 192.707 -17.1853C206.267 -22.1114 220.048 -26.2297 234.491 -27.5164C238.013 -27.8315 241.656 -27.8762 245.129 -27.3454C255.496 -25.7699 261.506 -18.1166 261.14 -7.64948Z" fill="#FF1B1B"/>
</svg>
