<svg width="200" height="81" viewBox="0 0 200 81" fill="none" xmlns="http://www.w3.org/2000/svg">
<g clip-path="url(#clip0_409_4150)">
<mask id="mask0_409_4150" style="mask-type:luminance" maskUnits="userSpaceOnUse" x="58" y="0" width="86" height="81">
<path d="M58.332 0.666504H143.332V80.6665H58.332V0.666504Z" fill="white"/>
</mask>
<g mask="url(#mask0_409_4150)">
<path d="M143.332 13.2405L58.332 13.2445V55.7865L100.854 80.6705L143.334 55.7985L143.332 13.2405Z" fill="black"/>
<path d="M106.706 48.0425V50.7265C106.705 51.0078 106.815 51.2782 107.01 51.4805C107.106 51.5794 107.221 51.6583 107.347 51.7126C107.474 51.7668 107.61 51.7954 107.748 51.7965H115.272V50.7365H107.892C107.857 50.736 107.823 50.7225 107.798 50.6985C107.773 50.6747 107.757 50.6428 107.754 50.6085V48.1905C107.76 48.1493 107.78 48.1117 107.812 48.0845C107.843 48.0578 107.883 48.0435 107.924 48.0445H115.274V46.9845H107.78C107.642 46.9842 107.505 47.0114 107.377 47.0647C107.249 47.1179 107.133 47.196 107.036 47.2945C106.837 47.496 106.725 47.7674 106.724 48.0505M104.422 48.9365H97.792C97.7583 48.9383 97.7248 48.9297 97.6962 48.9118C97.6675 48.8939 97.6451 48.8676 97.632 48.8365C97.6233 48.8163 97.6185 48.7945 97.618 48.7725V48.0525C97.6182 48.0182 97.6286 47.9846 97.6478 47.9562C97.667 47.9277 97.6942 47.9055 97.726 47.8925C97.747 47.8841 97.7694 47.88 97.792 47.8805H105.312V46.9805H97.616C97.4791 46.9821 97.3439 47.0113 97.2185 47.0662C97.093 47.1212 96.98 47.2009 96.886 47.3005C96.692 47.5015 96.5856 47.7712 96.59 48.0505V48.7705C96.586 49.0511 96.6915 49.3223 96.884 49.5265C96.9784 49.6265 97.0917 49.7069 97.2173 49.7628C97.343 49.8188 97.4785 49.8493 97.616 49.8525H104.246C104.268 49.852 104.29 49.8559 104.311 49.8642C104.332 49.8724 104.35 49.8848 104.366 49.9005C104.383 49.9159 104.396 49.9345 104.405 49.9551C104.414 49.9757 104.419 49.9979 104.42 50.0205V50.7445C104.419 50.7901 104.399 50.8332 104.366 50.8645C104.35 50.8799 104.331 50.8918 104.311 50.8997C104.29 50.9076 104.268 50.9113 104.246 50.9105H96.716V51.8085H104.422C104.56 51.809 104.696 51.7818 104.823 51.7285C104.951 51.6753 105.066 51.5971 105.162 51.4985C105.361 51.2979 105.472 51.0269 105.472 50.7445V50.0205C105.472 49.7386 105.361 49.468 105.164 49.2665C105.068 49.1678 104.953 49.0892 104.826 49.0353C104.698 48.9814 104.562 48.9532 104.424 48.9525M94.318 49.2865C94.3187 49.3306 94.303 49.3733 94.274 49.4065C94.2452 49.4387 94.2051 49.4588 94.162 49.4625H87.492V48.0205H94.146C94.1697 48.0211 94.193 48.0264 94.2146 48.036C94.2362 48.0456 94.2557 48.0593 94.272 48.0765C94.304 48.1105 94.322 48.1565 94.324 48.2045L94.318 49.2865ZM94.354 50.1465C94.6256 50.1361 94.8822 50.019 95.068 49.8205C95.2561 49.6202 95.3599 49.3553 95.358 49.0805V48.0345C95.3572 47.7543 95.2474 47.4853 95.052 47.2845C94.9556 47.1866 94.8407 47.1089 94.714 47.0557C94.5873 47.0024 94.4514 46.9749 94.314 46.9745H86.454V51.7845H87.494V50.5185H93.284C93.422 50.5191 93.5585 50.5472 93.6856 50.6011C93.8126 50.655 93.9277 50.7337 94.024 50.8325C94.2216 51.0345 94.3322 51.3059 94.332 51.5885V51.7785H95.376C95.3759 51.4389 95.2802 51.1063 95.1 50.8185C94.9215 50.5323 94.6647 50.3032 94.36 50.1585M84.168 50.5525C84.1667 50.5973 84.1489 50.64 84.118 50.6725C84.0881 50.7059 84.0466 50.7266 84.002 50.7305H77.646C77.6114 50.729 77.5787 50.7147 77.554 50.6905C77.5286 50.6662 77.513 50.6335 77.51 50.5985V48.1825C77.515 48.1415 77.5349 48.1037 77.566 48.0765C77.5969 48.0495 77.6369 48.0352 77.678 48.0365H83.976C84.0235 48.0372 84.0688 48.0566 84.102 48.0905C84.136 48.1245 84.154 48.1705 84.156 48.2185L84.168 50.5525ZM84.168 46.9745H77.526C77.3874 46.9739 77.2501 47.0012 77.1222 47.0548C76.9944 47.1084 76.8787 47.1872 76.782 47.2865C76.5831 47.4878 76.4717 47.7595 76.472 48.0425V50.7265C76.4741 51.0082 76.5861 51.278 76.784 51.4785C76.881 51.576 76.9964 51.6533 77.1233 51.7062C77.2503 51.759 77.3865 51.7863 77.524 51.7865H84.162C84.2992 51.787 84.4351 51.7598 84.5616 51.7065C84.6881 51.6533 84.8025 51.575 84.898 51.4765C85.095 51.2761 85.2044 51.0056 85.202 50.7245V48.0385C85.2033 47.7596 85.0957 47.4912 84.902 47.2905C84.8076 47.1923 84.6946 47.1138 84.5697 47.0596C84.4447 47.0053 84.3102 46.9764 84.174 46.9745M74.204 49.2865C74.2047 49.3306 74.189 49.3733 74.16 49.4065C74.1312 49.4387 74.0911 49.4588 74.048 49.4625H67.396V48.0205H74.026C74.0728 48.0217 74.1173 48.0411 74.15 48.0745C74.184 48.1105 74.202 48.1545 74.202 48.2025V49.2845L74.204 49.2865ZM74.204 46.9745H66.356V51.7865H67.396V50.5185H74.196C74.3338 50.5191 74.4704 50.4919 74.5975 50.4387C74.7246 50.3854 74.8397 50.3071 74.936 50.2085C75.1339 50.0083 75.2447 49.738 75.244 49.4565V48.0365C75.2437 47.7546 75.1331 47.484 74.936 47.2825C74.8394 47.1845 74.7241 47.1068 74.5971 47.0539C74.47 47.001 74.3336 46.974 74.196 46.9745M135.312 47.8765V46.9765H126.1V51.7905H135.31V50.8905H127.14V49.8305H135.31V48.9345H127.14V47.8765H135.312ZM123.836 48.9265H117.524V46.9685H116.486V51.7805H117.524V49.9845H123.836V51.7805H124.876V46.9685H123.836V48.9285V48.9265ZM116.172 30.0445C116.012 30.4425 115.736 30.7805 115.386 31.0205C115.034 31.2585 114.62 31.3845 114.198 31.3805C112.822 31.3805 112.616 30.2985 112.616 29.6505V25.4125H111.436V29.4845C111.436 32.2345 113.46 32.4385 114.082 32.4385C114.858 32.4545 115.612 32.1585 116.182 31.6205V32.2745H117.38V25.4125H116.2L116.172 30.0445ZM130.812 26.1485C130.782 26.1125 130.05 25.2845 129.106 25.2845C128.274 25.2845 127.462 26.1005 127.006 26.6685V25.4125H125.806V32.2865H127.004V28.1805C127.304 27.6545 128.16 26.4565 128.868 26.4565C129.468 26.4565 130.068 27.1385 130.088 27.1445L130.812 26.1485ZM107.276 25.2845C105.422 25.2845 104.024 26.6925 104.024 28.8345C104.024 30.3105 105.004 32.4245 107.624 32.4245C108.612 32.4345 109.572 32.0925 110.34 31.4585L110.408 31.3905V29.9945L110.042 30.3525C109.399 30.9353 108.573 31.2755 107.706 31.3145C106.258 31.3145 105.246 30.4545 105.246 28.8705H110.54V28.6205C110.54 26.9285 109.52 25.2845 107.276 25.2845ZM105.414 27.7745C105.516 27.3658 105.758 27.0058 106.098 26.7565C106.435 26.5106 106.848 26.3929 107.264 26.4245C108.676 26.4245 109.064 27.2905 109.18 27.7745H105.414ZM121.606 25.2845C119.752 25.2845 118.354 26.6925 118.354 28.8345C118.354 30.3105 119.332 32.4245 121.954 32.4245C122.942 32.4345 123.902 32.0925 124.67 31.4585L124.738 31.3905V29.9945L124.372 30.3525C123.729 30.9353 122.903 31.2755 122.036 31.3145C120.588 31.3145 119.578 30.4545 119.578 28.8705H124.864V28.6205C124.864 26.9285 123.842 25.2845 121.598 25.2845M119.746 27.7745C119.848 27.3651 120.09 27.0043 120.43 26.7545C120.767 26.5092 121.18 26.3921 121.596 26.4245C123.008 26.4245 123.396 27.2905 123.512 27.7745H119.746ZM101.92 27.7705H97.514V24.3665H96.33V32.2725H97.514V28.8365H101.92L101.916 32.2725H103.102V24.3665H101.916L101.92 27.7725V27.7705ZM81.276 29.3025L82.394 26.3285L83.594 29.2885L81.276 29.3025ZM83.492 24.3765H81.22L78.038 32.2985H80.138L80.738 30.7445H84.204L84.842 32.2985H86.942L83.49 24.3785L83.492 24.3765ZM75.632 32.2505V25.8065H78.428V24.3065H70.858V25.8065H73.65V32.2505H75.632ZM94.296 32.1705C92.772 32.5145 90.816 32.6185 89.406 31.9565C88.206 31.4185 87.456 30.1245 87.306 28.8805C87.212 28.1565 87.312 27.4205 87.596 26.7525C87.88 26.0825 88.336 25.5045 88.92 25.0805C90.334 24.0505 92.578 24.0805 94.12 24.7985V26.3685C92.952 25.8225 91.2 25.5005 90.08 26.3685C89.7339 26.6527 89.469 27.0232 89.312 27.4425C89.154 27.8639 89.1085 28.3192 89.18 28.7636C89.2516 29.2079 89.4377 29.626 89.72 29.9765C90.004 30.3245 90.372 30.5885 90.788 30.7445C91.354 30.9165 91.948 30.9685 92.536 30.8925V29.6125H91.768V28.0865H94.29V32.1785L94.296 32.1705Z" fill="white"/>
<path d="M99.904 38.9565H84.74V40.3845H99.904V38.9545V38.9565Z" fill="#007E53"/>
<path d="M116.928 38.9565H101.76V40.3845H116.926V38.9545L116.928 38.9565Z" fill="#D5001C"/>
<path d="M143.332 0.666504L58.332 0.670504V11.3345L143.332 11.3465V0.666504Z" fill="black"/>
<path d="M74.84 3.60251H77.592V4.44051H75.748V5.61051H77.432V6.39051H75.748V8.41051H74.848L74.842 3.60251H74.84ZM78.188 5.99451C78.188 4.02651 78.614 3.52051 80.012 3.52051C81.408 3.52051 81.834 4.02651 81.834 5.99451C81.834 7.88651 81.478 8.49451 80.012 8.49451C78.546 8.49451 78.188 7.88651 78.188 5.99451ZM80.888 5.97851C80.888 4.58851 80.776 4.35851 80.012 4.35851C79.246 4.35851 79.136 4.58851 79.136 5.97851C79.136 7.56851 79.25 7.74851 80.012 7.74851C80.772 7.74851 80.888 7.56851 80.888 5.97851ZM82.624 3.60251H84.326C85.314 3.60251 85.766 3.96051 85.766 5.14851C85.766 6.04051 85.498 6.45251 84.968 6.58051L85.904 8.41451H84.904L84.092 6.74651H83.522V8.41451H82.622L82.624 3.60251ZM83.524 4.44051V5.96651H84.2C84.66 5.96651 84.824 5.89651 84.824 5.18651C84.824 4.54051 84.664 4.44651 84.174 4.44651L83.524 4.44051ZM86.554 8.41051L86.768 3.60251H87.84L88.84 6.80251L89.796 3.60251H90.87L91.11 8.41051H90.234L90.088 5.25051L89.112 8.41651H88.494L87.508 5.24851L87.376 8.41651L86.554 8.41051ZM91.974 3.60251H92.874V6.88251C92.874 7.54051 93.106 7.74851 93.662 7.74851C94.216 7.74851 94.452 7.54051 94.452 6.88451V3.60251H95.352V6.86451C95.352 7.93851 94.902 8.49451 93.662 8.49451C92.42 8.49451 91.964 7.93851 91.964 6.86451L91.974 3.60251ZM96.33 3.60251H97.23V7.66851H99.046V8.41051H96.322L96.33 3.60251ZM101.032 3.60251H102.152L103.518 8.41051H102.582L102.33 7.49451H100.748L100.502 8.41051H99.664L101.032 3.60251ZM100.96 6.73051H102.114L101.53 4.59051L100.96 6.73051ZM105.66 3.60251H108.456V4.44051H106.568V5.61051H108.298V6.39051H106.568V7.67051H108.456V8.41051H105.66V3.60251ZM110.414 3.60251H113.714V4.44051H112.514V8.41051H111.614V4.44051H110.414V3.60251ZM114.466 3.60251H117.264V4.44051H115.374V5.61051H117.108V6.39051H115.378V7.67051H117.266V8.41051H114.468L114.466 3.60251ZM119.264 3.60251H120.384L121.75 8.41051H120.814L120.562 7.49451H118.98L118.734 8.41051H117.896L119.264 3.60251ZM119.188 6.73051H120.358L119.758 4.59051L119.188 6.73051ZM122.374 8.41051L122.584 3.60251H123.65L124.652 6.80251L125.61 3.60251H126.682L126.92 8.41051H126.044L125.898 5.25051L124.922 8.41651H124.304L123.318 5.24851L123.186 8.41651L122.374 8.41051Z" fill="white"/>
</g>
</g>
<defs>
<clipPath id="clip0_409_4150">
<rect width="200" height="80" fill="white" transform="translate(0 0.666504)"/>
</clipPath>
</defs>
</svg>
