<svg width="88" height="68" viewBox="0 0 88 148" fill="none" xmlns="http://www.w3.org/2000/svg">
<path d="M28.7123 0.979904C31.3676 1.31006 31.8056 1.44763 32.4078 2.05292C33.1195 2.76826 33.1195 4.25398 32.4078 6.34499C30.5737 11.655 27.8637 21.5323 26.0022 29.5661C23.9492 38.4529 23.5659 40.8741 23.7028 44.0106C23.7849 46.5693 23.867 46.982 24.7978 48.8529C25.3452 49.981 26.276 51.3291 26.8508 51.8794C27.4257 52.4297 37.2531 59.2529 48.6955 67.0392C75.6045 85.363 76.1246 85.6931 76.5899 85.6931C76.8363 85.6931 77.4112 85.4455 77.9039 85.1429C79.6011 84.0974 80.4497 84.345 83.6525 86.7662C85.8698 88.4445 86.6637 89.2423 87.129 90.1503C88.1966 92.3789 87.8955 93.2868 84.1452 99.1746C81.7363 102.971 80.8603 104.87 80.0391 107.979C79.4916 110.07 79.4095 111.308 79.2179 119.534C79.0536 127.843 78.9715 128.916 78.4514 130.54C77.548 133.291 69.5 146.305 68.1587 147.213C66.9268 148.011 65.6402 147.598 62.3553 145.369C58.5776 142.838 48.0385 135.355 41.4413 130.485C38.6492 128.449 33.2838 124.514 29.5335 121.763C25.7559 119.012 22.252 116.315 21.7045 115.793C20.5547 114.72 20.0894 113.261 20.0894 110.895C20.0894 109.079 19.5966 108.419 18.0089 108.144C16.4212 107.841 15.4358 107.208 15.0251 106.246C14.7788 105.64 14.6145 103.137 14.4777 98.2942C14.3408 93.6445 14.1492 91.0582 13.9575 90.7556C13.6564 90.3704 13.3553 90.4804 11.2201 91.6085C8.97542 92.7916 8.70168 92.8741 7.38771 92.709C5.27989 92.4339 3.80167 91.636 3.25419 90.4529C2.87095 89.655 2.78883 88.9397 2.89832 86.9037C3.00782 85.0879 2.9257 84.1249 2.65195 83.4646C2.32346 82.6942 2.29609 81.0984 2.43296 74.5503C2.62458 65.6635 2.67933 64.7831 3.25419 64.7831C3.47318 64.7831 3.6648 64.6455 3.6648 64.508C3.6648 64.3429 3.85642 64.2328 4.07542 64.2328C4.29441 64.2328 4.48603 64.3429 4.48603 64.508C4.48603 64.6455 4.67765 64.7831 4.89664 64.7831C5.11564 64.7831 5.30726 64.9757 5.30726 65.1958C5.30726 65.4159 5.11564 65.6085 4.89664 65.6085C4.67765 65.6085 4.48603 65.4159 4.48603 65.1958C4.48603 64.9757 4.32179 64.7831 4.10279 64.7831C3.36368 64.7831 3.22681 76.4762 3.85642 86.8762C4.04804 90.1228 4.13016 90.4529 4.7324 90.9482C5.6905 91.7185 5.93687 91.581 5.38938 90.5905C4.81452 89.5175 4.81452 88.6921 5.14301 75.3757C5.36201 66.4889 5.41676 65.7185 5.88212 65.2508C6.18324 64.9757 6.40224 64.8931 6.40224 65.0582C6.40224 65.1958 6.59386 65.3334 6.81285 65.3334C7.03185 65.3334 7.22346 65.1958 7.22346 65.0582C7.22346 64.8931 7.41508 64.7831 7.63408 64.7831C7.85307 64.7831 8.04469 64.6455 8.04469 64.508C8.04469 64.3429 8.23631 64.2328 8.45531 64.2328C8.6743 64.2328 8.86592 64.3429 8.86592 64.508C8.86592 64.8931 9.60503 64.8381 9.79665 64.4254C9.93352 64.1503 9.98827 64.1503 10.1251 64.4254C10.2073 64.618 10.4536 64.7831 10.6726 64.7831C11.1106 64.7831 11.1927 65.2233 10.8095 65.4709C10.6452 65.5535 10.3989 65.3884 10.262 65.1408C9.98827 64.673 9.93352 64.673 9.68715 65.1132C9.33128 65.7185 8.86592 65.7461 8.86592 65.1958C8.86592 64.9757 8.6743 64.7831 8.45531 64.7831C8.23631 64.7831 8.04469 64.9207 8.04469 65.0857C8.04469 65.2783 7.88045 65.5535 7.66145 65.7185C7.33296 65.9662 7.19609 68.1397 6.94972 77.3291C6.67598 87.3439 6.67598 88.7471 7.05922 89.6275C7.27821 90.2053 7.68883 90.7281 7.9352 90.8381C8.18156 90.9207 9.24916 90.5355 10.5631 89.8476C13.1089 88.527 14.3134 88.3894 15.2715 89.3799C16.038 90.1228 16.1475 91.1683 16.3939 99.6974C16.476 102.916 16.6676 105.475 16.8318 105.668C16.9687 105.86 17.7352 106.163 18.4743 106.328C20.9927 106.933 22.0056 108.392 22.0056 111.363C22.0056 113.812 22.3341 114.197 27.6447 118.076C30.3547 120.03 35.9938 124.184 40.2095 127.266C54.2799 137.611 65.5855 145.562 66.3519 145.672C66.5709 145.699 66.8994 145.727 67.0637 145.699C67.3922 145.672 70.3212 141.27 73.6609 135.767C77.4112 129.549 77.329 130.017 77.5754 118.434C77.8218 106.163 78.0134 105.503 83.1324 97.2762C86.6911 91.581 86.6911 91.4984 82.7218 88.3894C79.6832 86.0233 79.9296 86.1058 78.5335 86.9037C76.5899 88.0593 76.1246 87.9217 71.9089 85.0603C69.8285 83.6296 64.7916 80.218 60.7402 77.4392C56.6614 74.6603 51.2413 70.946 48.6955 69.2127C46.1223 67.4794 40.1547 63.4074 35.419 60.1884C30.6832 56.9693 26.2212 53.7503 25.5095 53.0625C23.9765 51.5767 22.4709 48.6878 21.9782 46.4318C21.2939 43.0476 22.0603 37.9852 25.181 25.164C26.8508 18.3958 28.548 12.3429 30.2453 7.00529C31.2307 3.97884 31.3128 3.56615 30.9296 3.2635C30.4369 2.90583 24.6883 2.27302 24.4145 2.54816C24.305 2.65821 24.086 3.84127 23.9218 5.21693C23.6207 7.83069 23.1827 8.76615 21.9508 9.45398C21.0201 9.97673 20.1441 9.7016 18.4469 8.32594C17.6531 7.66563 16.7497 6.92276 16.4212 6.67514C15.9832 6.34498 14.4229 6.06985 10.8916 5.65715C5.38938 5.02435 4.51341 5.13439 3.19944 6.51006C2.56983 7.17037 2.46033 7.52805 2.46033 8.73863C2.48771 10.472 2.87095 11.2699 3.91117 11.7926C4.34916 12.0402 6.97709 12.4529 9.98827 12.7831C15.7642 13.4159 16.257 13.581 17.1603 15.2868C17.6257 16.1122 17.6531 16.7725 17.5436 21.5873C17.4067 27.5852 17.2151 28.3281 15.6274 29.291C14.9156 29.7312 14.2587 29.8413 11.9318 29.8413C8.23631 29.8413 8.04469 30.0064 8.04469 33.1979C8.04469 34.4635 7.90782 41.3418 7.74358 48.4953C7.46983 59.2254 7.46983 61.6191 7.77095 62.1693C7.96257 62.5545 8.29106 62.8572 8.51006 62.8572C8.70168 62.8572 8.86592 62.9397 8.86592 63.0773C8.86592 63.3524 7.8257 64.2328 7.49721 64.2328C7.05922 64.2328 7.16872 63.6826 7.63408 63.5175C7.85307 63.4074 8.04469 63.2423 8.04469 63.1048C8.04469 62.9672 7.85307 62.8572 7.63408 62.8572C7.41508 62.8572 7.22346 62.7196 7.22346 62.582C7.22346 62.417 7.03185 62.3069 6.81285 62.3069C6.59386 62.3069 6.40224 62.4445 6.40224 62.6371C6.40224 62.8572 6.23799 62.8296 5.96425 62.527C5.55363 62.1143 5.55363 60.9588 5.82737 49.1831C5.99162 42.1122 6.18324 34.9312 6.29274 33.2804C6.42961 30.364 6.42961 30.2815 5.93687 30.7492C5.49889 31.1894 5.41676 31.9048 5.30726 36.8572C5.17039 42.1122 5.14301 42.4974 4.54078 43.2953C4.02067 44.0106 3.93855 44.4508 3.93855 46.6794C3.93855 48.0826 3.85642 52.2921 3.74693 56.0339C3.61005 61.454 3.50056 62.8572 3.19944 62.8572C3.00782 62.8572 2.84357 62.6921 2.84357 62.4995C2.84357 62.3344 2.84357 58.2074 2.84357 53.3651V44.5609L3.58268 43.1027C4.29441 41.672 4.32178 41.5069 4.32178 36.4995C4.34916 30.5566 4.40391 30.4466 6.7581 29.1259C8.01732 28.4106 8.53743 28.3005 11.2749 28.163C15.7369 27.9429 15.5452 28.218 15.6547 21.4497C15.7642 14.9841 15.8464 15.1767 12.5341 14.8741C7.36034 14.4339 3.80168 13.8286 2.78883 13.2783C1.42011 12.4804 0.653633 10.9122 0.653633 8.82117C0.653633 6.48254 1.80335 4.77673 3.99329 3.86879C5.27989 3.31853 6.34748 3.31853 11.1654 3.86879C16.3117 4.44657 16.7223 4.55663 18.8575 6.31747C19.843 7.14287 20.8559 7.8307 21.0749 7.8307C21.595 7.8307 21.8961 6.97779 22.1151 4.80424C22.3615 2.49313 22.7447 1.28255 23.3743 0.952393C23.9765 0.622234 25.9749 0.649745 28.7123 0.979904Z" fill="white"/>
</svg>
