<svg width="173" height="122" viewBox="0 0 173 144" fill="none" xmlns="http://www.w3.org/2000/svg">
<path d="M24.3222 1.07809C30.1659 1.42657 34.2578 6.22603 39.0309 9.00483C45.434 13.5884 52.9683 17.1074 57.8273 23.4784C59.4387 28.5168 54.7746 32.7089 54.5694 37.6277C53.5623 43.0716 56.2504 49.3344 61.7795 51.0702C70.9229 54.4312 80.4062 49.6685 89.7769 50.8233C96.2296 51.3545 102.715 52.6923 109.119 51.2786C114.989 50.1023 120.971 49.9808 126.917 49.9749C135.498 49.6979 144.013 48.0871 152.352 46.3604C156.514 47.8319 156.234 53.1461 158.827 56.1033C162.747 62.3846 165.986 69.1796 167.184 76.5386C171.577 94.5486 174.096 113.705 169.72 131.958C168.457 134.896 170.563 139.07 167.382 141.054C163.777 143.428 159.126 142.942 155.047 142.987C152.355 141.625 153.561 137.85 155.425 136.276C158.322 133.246 160.401 129.528 161.41 125.455C163.179 119.564 163.989 112.866 161.433 107.105C159.39 104.867 157.07 102.547 157.023 99.2942C155.948 94.4007 154.654 88.9319 157.071 84.2617C159.913 76.4504 156.494 68.0434 151.987 61.6251C149.725 58.9943 147.57 55.5936 144.131 54.6183C138.968 53.9476 133.971 56.0888 128.889 56.6842C120.372 58.3921 111.546 58.9715 103.279 61.6359C100.952 63.0054 97.6257 64.1342 95.4604 61.8545C90.8755 59.739 85.9462 62.4926 81.179 62.2178C61.9781 63.7601 41.2449 59.7982 26.512 46.6709C16.5243 37.7401 7.70669 27.177 1.90781 15.0481C0.52254 12.3471 0.38248 7.80664 3.93793 6.80682C7.65955 5.61844 11.8348 6.07549 15.4845 7.24611C18.3483 8.74707 17.905 12.545 16.2365 14.7864C15.2952 16.5162 13.3805 19.1316 15.0638 20.9414C17.2912 21.7434 20.4767 20.152 20.0917 17.5018C20.6045 13.4189 22.6022 8.99802 20.5127 5.09933C19.8123 3.46854 20.7391 1.44175 22.5788 1.1946C21.4834 1.85817 23.8569 0.698873 24.3222 1.07809Z" stroke="white" stroke-linejoin="round"/>
</svg>
