<svg width="100" height="67" viewBox="0 0 100 67" fill="none" xmlns="http://www.w3.org/2000/svg">
<g clip-path="url(#clip0_1_131)">
<path d="M0 0.333679H100V67.001H0V0.333679Z" fill="#0052B4"/>
<path d="M83.0666 29.32L83.7283 31.3567H85.8695L84.1371 32.6153L84.7988 34.6519L83.0666 33.3933L81.3339 34.6519L81.9957 32.6153L80.2632 31.3567H82.4045L83.0666 29.32ZM75.4115 43.9825L76.4043 47.0376H79.6162L77.0175 48.9257L78.0101 51.9804L75.4115 50.0923L72.8129 51.9804L73.8056 48.9257L71.207 47.0376H74.4189L75.4115 43.9825ZM75.7007 19.9892L76.5281 22.5353H79.2047L77.039 24.1083L77.8662 26.654L75.7007 25.0806L73.5351 26.654L74.3623 24.1083L72.1968 22.5353H74.8734L75.7007 19.9892ZM68.3351 29.2313L69.3277 32.2862H72.5398L69.941 34.1741L70.934 37.229L68.3351 35.3411L65.7365 37.229L66.7291 34.1741L64.1304 32.2862H67.3423L68.3351 29.2313Z" fill="#D80027"/>
<path d="M50.0009 0.332062V6.30159L41.1771 11.2016H50.0009V22.7951H38.4554L50.0009 29.2104V33.6647H44.788L30.4357 25.6908V33.6647H19.5662V24.1778L2.49017 33.6647H0.000915527V27.6973L8.82279 22.7951H0.000915527V11.2016H11.5445L0.000915527 4.7887V0.332062H5.21185L19.5662 8.30823V0.332062H30.4357V9.81897L47.5119 0.332062H50.0009Z" fill="white"/>
<path d="M28.125 0.332214H21.875V13.874H0V20.124H21.875V33.6658H28.125V20.124H50V13.874H28.125V0.332214Z" fill="#D80027"/>
<path d="M30.4348 22.7964L50.0001 33.6663V30.5923L35.9674 22.7964H30.4348Z" fill="#0052B4"/>
<path d="M30.4348 22.7964L50.0001 33.6663V30.5923L35.9674 22.7964H30.4348Z" fill="white"/>
<path d="M30.4348 22.7964L50 33.6663V30.5923L35.9674 22.7964H30.4348ZM14.0324 22.7964L0 30.5923V33.6663L19.5652 22.7964H14.0324Z" fill="#D80027"/>
<path d="M19.5652 11.2019L0 0.332214V3.40604L14.0326 11.2019H19.5652Z" fill="#0052B4"/>
<path d="M19.5652 11.2019L0 0.332214V3.40604L14.0326 11.2019H19.5652Z" fill="white"/>
<path d="M19.5652 11.2019L0 0.332214V3.40604L14.0326 11.2019H19.5652ZM35.9676 11.2019L50 3.40604V0.332214L30.4348 11.2019H35.9676Z" fill="#D80027"/>
</g>
<defs>
<clipPath id="clip0_1_131">
<rect width="100" height="66.6666" fill="white" transform="translate(0 0.333313)"/>
</clipPath>
</defs>
</svg>
