<svg width="50" height="34" viewBox="0 0 50 34" fill="none" xmlns="http://www.w3.org/2000/svg">
<g clip-path="url(#clip0_7_1118)">
<path d="M0 0.559448H50V33.8928H0V0.559448Z" fill="#009B3A"/>
<path d="M25 2.44054L44.9707 17.1969L25 31.9435L4.93178 17.1969L25 2.44054Z" fill="#FEDF00"/>
<path d="M25 25.0624C29.3278 25.0624 32.8362 21.554 32.8362 17.2261C32.8362 12.8983 29.3278 9.38986 25 9.38986C20.6722 9.38986 17.1637 12.8983 17.1637 17.2261C17.1637 21.554 20.6722 25.0624 25 25.0624Z" fill="white"/>
<path d="M21.0429 16.7095C19.6881 16.7095 18.3723 16.9142 17.1345 17.2943C17.193 21.5731 20.6725 25.0234 24.961 25.0234C27.6121 25.0234 29.961 23.6978 31.3743 21.6803C28.9474 18.6589 25.2144 16.7095 21.0429 16.7095ZM32.6413 18.6881C32.7291 18.2008 32.7875 17.7037 32.7875 17.1871C32.7875 12.8596 29.2788 9.35087 24.9513 9.35087C21.7252 9.35087 18.9571 11.3099 17.7485 14.0877C18.8109 13.8733 19.9025 13.7563 21.0234 13.7563C25.5848 13.7661 29.6979 15.6569 32.6413 18.6881Z" fill="#002776"/>
</g>
<defs>
<clipPath id="clip0_7_1118">
<rect width="50" height="33.3333" fill="white" transform="translate(0 0.559448)"/>
</clipPath>
</defs>
</svg>
