<svg width="50" height="34" viewBox="0 0 50 34" fill="none" xmlns="http://www.w3.org/2000/svg">
<g clip-path="url(#clip0_7_1142)">
<path d="M0 0.559448H50V33.8928H0V0.559448Z" fill="#D80027"/>
<path d="M22.1053 23.8733L21.1599 22.3528L19.4152 22.7817L20.5751 21.4074L19.6297 19.8869L21.2963 20.5594L22.4464 19.1852L22.3197 20.9785L23.9864 21.6511L22.2417 22.0799L22.1053 23.8733ZM28.3236 8.55165L27.3392 10.0526L28.4698 11.4464L26.7447 10.9785L25.7603 12.4893L25.6628 10.6959L23.9376 10.2281L25.6141 9.58478L25.5166 7.79141L26.6472 9.18517L28.3236 8.55165ZM23.0215 3.03508L22.8265 4.8187L24.464 5.55945L22.7096 5.92982L22.5146 7.71344L21.618 6.15399L19.8733 6.52436L21.0721 5.18908L20.1755 3.63937L21.8129 4.37036L23.0215 3.03508ZM28.538 16.3294L27.0858 17.3918L27.6511 19.0975L26.1989 18.0448L24.7466 19.1169L25.2924 17.4015L23.8402 16.3587L25.6336 16.3489L26.1794 14.6335L26.7447 16.3392L28.538 16.3294ZM11.2086 5.07212L12.8948 10.2865H18.3723L13.9474 13.4932L15.6335 18.7076L11.2086 15.4912L6.77389 18.7076L8.4698 13.4932L4.0351 10.2865H9.52243L11.2086 5.07212Z" fill="#FFDA44"/>
</g>
<defs>
<clipPath id="clip0_7_1142">
<rect width="50" height="33.3333" fill="white" transform="translate(0 0.559448)"/>
</clipPath>
</defs>
</svg>
