<svg width="100" height="67" viewBox="0 0 100 67" fill="none" xmlns="http://www.w3.org/2000/svg">
<g clip-path="url(#clip0_1_89)">
<path d="M0 0.0468292H99.8051V66.7135H0V0.0468292Z" fill="white"/>
<path d="M0 0.0468292H99.8051V17.8246H0V0.0468292ZM0 48.9357H99.8051V66.7135H0V48.9357Z" fill="#D03433"/>
<path d="M0 17.7856H99.8051V48.9747H0V17.7856Z" fill="#FBCA46"/>
<path d="M34.5991 31.1579H39.0349V33.3802H34.5991V31.1579Z" fill="white"/>
<path d="M31.9376 37.8246C31.9376 39.1579 33.2684 40.0468 34.5991 40.0468C35.9298 40.0468 37.2606 39.1579 37.2606 37.8246L37.7041 31.1579H31.494L31.9376 37.8246ZM29.2762 31.1579C29.2762 29.8246 30.1633 28.9357 31.0505 28.9357H37.7041C39.0349 28.9357 39.922 29.8246 39.922 30.7135V31.1579L39.4784 37.8246C39.0349 40.4913 37.2606 42.269 34.5991 42.269C31.9376 42.269 30.1633 40.4913 29.7197 37.8246L29.2762 31.1579Z" fill="#A41517"/>
<path d="M30.1633 33.3801H39.0348V35.6024H36.817L34.5991 40.0468L32.3812 35.6024H30.1633V33.3801ZM23.5096 26.7135H27.9454V42.269H23.5096V26.7135ZM41.2527 26.7135H45.6885V42.269H41.2527V26.7135ZM30.1633 24.4913C30.1633 23.1579 31.0504 22.269 32.3812 22.269H36.817C38.1477 22.269 39.0348 23.1579 39.0348 24.4913V25.3801C39.0348 26.269 38.5913 26.7135 37.7041 26.7135H31.0504C30.6069 26.7135 30.1633 26.269 30.1633 25.8246V24.4913Z" fill="#A41517"/>
</g>
<defs>
<clipPath id="clip0_1_89">
<rect width="100" height="66.6666" fill="white"/>
</clipPath>
</defs>
</svg>
