<svg width="100" height="68" viewBox="0 0 100 68" fill="none" xmlns="http://www.w3.org/2000/svg">
<g clip-path="url(#clip0_1_107)">
<path d="M3.37231 0.666656H96.6276V67.3333H3.37231V0.666656Z" fill="#181A93"/>
<path d="M0 0.666656H100V22.8889H0V0.666656Z" fill="#FFA44A"/>
<path d="M0 45.1111H100V67.3333H0V45.1111Z" fill="#1A9F0B"/>
<path d="M0 22.8889H100V45.1111H0V22.8889Z" fill="white"/>
<path d="M50 40.6666C53.6819 40.6666 56.6666 37.6819 56.6666 34C56.6666 30.3181 53.6819 27.3333 50 27.3333C46.3181 27.3333 43.3333 30.3181 43.3333 34C43.3333 37.6819 46.3181 40.6666 50 40.6666Z" fill="white"/>
<path d="M50 42.8889C45.1072 42.8889 41.1111 38.8928 41.1111 34C41.1111 29.1072 45.1072 25.1111 50 25.1111C54.8928 25.1111 58.8889 29.1072 58.8889 34C58.8889 38.8928 54.8928 42.8889 50 42.8889ZM50 40.6667C53.5478 40.6667 56.6667 37.5478 56.6667 34C56.6667 30.4522 53.5673 27.3333 50 27.3333C46.4328 27.3333 43.3333 30.4522 43.3333 34C43.3333 37.5478 46.4522 40.6667 50 40.6667Z" fill="#181A93"/>
<path d="M50 38.4444C52.4546 38.4444 54.4444 36.4546 54.4444 34C54.4444 31.5454 52.4546 29.5555 50 29.5555C47.5454 29.5555 45.5556 31.5454 45.5556 34C45.5556 36.4546 47.5454 38.4444 50 38.4444Z" fill="#181A93"/>
</g>
<defs>
<clipPath id="clip0_1_107">
<rect width="100" height="66.6666" fill="white" transform="translate(0 0.666656)"/>
</clipPath>
</defs>
</svg>
