<svg width="50" height="34" viewBox="0 0 50 34" fill="none" xmlns="http://www.w3.org/2000/svg">
<g clip-path="url(#clip0_7_1122)">
<path d="M33.3333 0.559448H0V33.8245H50V0.559448H33.3333Z" fill="#DC2339"/>
<path d="M0 0.559448H16.6667V33.8928H0V0.559448Z" fill="#11865D"/>
<path d="M16.6667 0.559448H33.3333V33.8928H16.6667V0.559448Z" fill="white"/>
<path d="M19.0838 17.2456C19.0838 19.3509 20.2047 21.3099 22.037 22.3626C22.6023 22.6939 23.3236 22.499 23.655 21.9337C23.9864 21.3684 23.7914 20.6472 23.2261 20.3158C22.1248 19.6822 21.4522 18.5127 21.4522 17.2456C21.4522 16.5926 20.9259 16.0663 20.2729 16.0663C19.6199 16.0663 19.0838 16.5926 19.0838 17.2456ZM28.1871 22.2261C29.8928 21.1442 30.9162 19.2631 30.9162 17.2456C30.9162 16.5926 30.3899 16.0663 29.7368 16.0663C29.0838 16.0663 28.5575 16.5926 28.5575 17.2456C28.5575 18.4542 27.9435 19.5848 26.9201 20.2378C26.3645 20.5789 26.1891 21.3002 26.5205 21.8655C26.8519 22.4308 27.5829 22.5965 28.1482 22.2651C28.1482 22.2456 28.1676 22.2358 28.1871 22.2261Z" fill="#8C9157"/>
<path d="M25 19.614C26.308 19.614 27.3684 18.0256 27.3684 16.0663C27.3684 14.1069 26.308 12.5185 25 12.5185C23.6919 12.5185 22.6316 14.1069 22.6316 16.0663C22.6316 18.0256 23.6919 19.614 25 19.614Z" fill="#C59262"/>
</g>
<defs>
<clipPath id="clip0_7_1122">
<rect width="50" height="33.3333" fill="white" transform="translate(0 0.559448)"/>
</clipPath>
</defs>
</svg>
