<svg width="100" height="67" viewBox="0 0 100 67" fill="none" xmlns="http://www.w3.org/2000/svg">
<g clip-path="url(#clip0_1_149)">
<path d="M0 0.334564H100V66.9998H0V0.334564Z" fill="#D80027"/>
<path d="M38.4065 0.334564V66.9998H0V0.334564H38.4065Z" fill="#6DA544"/>
<path d="M38.4065 46.1667C45.31 46.1667 50.9065 40.5702 50.9065 33.6667C50.9065 26.7631 45.31 21.1667 38.4065 21.1667C31.5029 21.1667 25.9065 26.7631 25.9065 33.6667C25.9065 40.5702 31.5029 46.1667 38.4065 46.1667Z" fill="#FFDA44"/>
<path d="M31.3746 27.4167V35.2294C31.3746 39.1126 34.5227 42.2607 38.4059 42.2607C42.2891 42.2607 45.4371 39.1126 45.4371 35.2294V27.4167H31.3746Z" fill="#D80027"/>
<path d="M38.4059 37.573C37.1135 37.573 36.0621 36.5216 36.0621 35.2292V32.1042H40.7498V35.2292C40.7496 36.5214 39.6981 37.573 38.4059 37.573Z" fill="white"/>
</g>
<defs>
<clipPath id="clip0_1_149">
<rect width="100" height="66.6666" fill="white" transform="translate(0 0.333313)"/>
</clipPath>
</defs>
</svg>
