<svg width="50" height="34" viewBox="0 0 50 34" fill="none" xmlns="http://www.w3.org/2000/svg">
<g clip-path="url(#clip0_7_1126)">
<path d="M0 0.559448H50V33.8927H0V0.559448Z" fill="#055E1C"/>
<path d="M17.9246 20.4865C17.9246 21.6872 18.8749 22.6604 20.0473 22.6604H26.4152C26.4152 23.6608 27.2072 24.472 28.1842 24.472H30.3068C31.2838 24.472 32.0758 23.6609 32.0758 22.6604V20.4865H17.9246ZM32.2523 9.97917V15.0516C32.2523 15.8508 31.6176 16.5009 30.8372 16.5009V18.6748C32.788 18.6748 34.3749 17.0495 34.3749 15.0516V9.97917H32.2523ZM17.0401 15.0517C17.0401 15.8509 16.4054 16.5009 15.625 16.5009V18.6749C17.5758 18.6749 19.1627 17.0496 19.1627 15.0517V9.97927H17.04V15.0517H17.0401Z" fill="white"/>
<path d="M29.0685 9.97888H31.1911V15.0513H29.0685V9.97888ZM25.8845 12.8778C25.8845 13.0776 25.7258 13.2401 25.5307 13.2401C25.3355 13.2401 25.1769 13.0776 25.1769 12.8778V9.97918H23.0542V12.8778C23.0542 13.0776 22.8955 13.2401 22.7004 13.2401C22.5053 13.2401 22.3466 13.0776 22.3466 12.8778V9.97918H20.2239V12.8778C20.2239 14.2762 21.3349 15.414 22.7003 15.414C23.2262 15.414 23.714 15.2448 24.1154 14.9573C24.5168 15.2448 25.0047 15.414 25.5306 15.414C25.6364 15.414 25.7405 15.4064 25.8431 15.393C25.6927 16.0277 25.1346 16.501 24.4692 16.501V18.6749C26.42 18.6749 28.0069 17.0496 28.0069 15.0517V9.97918H25.8843L25.8845 12.8778Z" fill="white"/>
<path d="M20.2239 16.5006H23.4076V18.6745H20.2239V16.5006Z" fill="white"/>
</g>
<defs>
<clipPath id="clip0_7_1126">
<rect width="50" height="33.3333" fill="white" transform="translate(0 0.559448)"/>
</clipPath>
</defs>
</svg>
