<svg width="50" height="34" viewBox="0 0 50 34" fill="none" xmlns="http://www.w3.org/2000/svg">
<g clip-path="url(#clip0_7_1154)">
<path d="M0 0.559448H50V33.8931H0V0.559448Z" fill="white"/>
<path d="M28.125 0.558907H21.875V14.1005H0V20.3505H21.875V33.8921H28.125V20.3505H50V14.1005H28.125V0.558907Z" fill="#D80027"/>
<path d="M38.4556 23.0228L50.0001 29.4365V23.0228H38.4556ZM30.4348 23.0228L50.0001 33.8924V30.8187L35.9675 23.0228H30.4348ZM44.7885 33.8924L30.4348 25.9174V33.8924H44.7885Z" fill="#0052B4"/>
<path d="M30.4348 23.0228L50.0001 33.8924V30.8187L35.9675 23.0228H30.4348Z" fill="white"/>
<path d="M30.4348 23.0228L50.0001 33.8924V30.8187L35.9675 23.0228H30.4348Z" fill="#D80027"/>
<path d="M8.82237 23.0226L0 27.924V23.0226H8.82237ZM19.5652 24.4048V33.8923H2.48936L19.5652 24.4048Z" fill="#0052B4"/>
<path d="M14.0325 23.0228L0 30.8187V33.8924L19.5652 23.0228H14.0325Z" fill="#D80027"/>
<path d="M11.5444 11.4284L0 5.01476V11.4284H11.5444ZM19.5652 11.4284L0 0.558907V3.63254L14.0325 11.4284H19.5652ZM5.21152 0.558907L19.5652 8.53391V0.558907H5.21152Z" fill="#0052B4"/>
<path d="M19.5652 11.4284L0 0.558907V3.63254L14.0325 11.4284H19.5652Z" fill="white"/>
<path d="M19.5652 11.4284L0 0.558907V3.63254L14.0325 11.4284H19.5652Z" fill="#D80027"/>
<path d="M41.1777 11.4289L50.0001 6.52751V11.4289H41.1777ZM30.4348 10.0466V0.55925H47.5107L30.4348 10.0466Z" fill="#0052B4"/>
<path d="M35.9675 11.4287L50.0001 3.63279V0.559158L30.4348 11.4287H35.9675Z" fill="#D80027"/>
</g>
<defs>
<clipPath id="clip0_7_1154">
<rect width="50" height="33.3333" fill="white" transform="translate(0 0.559448)"/>
</clipPath>
</defs>
</svg>
