<svg width="50" height="34" viewBox="0 0 50 34" fill="none" xmlns="http://www.w3.org/2000/svg">
<g clip-path="url(#clip0_7_1130)">
<path d="M0 0.559448H50V33.8928H0V0.559448Z" fill="white"/>
<path d="M0 0.559448H50V3.1228H0V0.559448ZM0 5.68615H50V8.2495H0V5.68615ZM0 10.8129H50V13.3762H0V10.8129ZM0 15.9396H50V18.5029H0V15.9396ZM0 21.076H50V23.6394H0V21.076ZM0 26.2027H50V28.7661H0V26.2027ZM0 31.3294H50V33.8928H0V31.3294Z" fill="#D80027"/>
<path d="M0 0.559448H25V18.5029H0V0.559448Z" fill="#2E52B2"/>
<path d="M4.65888 14.0975L4.26902 12.8499L3.84017 14.0975H2.55362L3.5965 14.8479L3.20664 16.0955L4.26902 15.3255L5.30216 16.0955L4.90255 14.8479L5.96493 14.0975H4.65888ZM10.1462 14.0975L9.7466 12.8499L9.33725 14.0975H8.05069L9.09358 14.8479L8.70372 16.0955L9.7466 15.3255L10.7992 16.0955L10.4094 14.8479L11.4523 14.0975H10.1462ZM15.653 14.0975L15.2339 12.8499L14.8441 14.0975H13.5283L14.6004 14.8479L14.191 16.0955L15.2339 15.3255L16.3061 16.0955L15.8967 14.8479L16.9396 14.0975H15.653ZM21.1306 14.0975L20.7408 12.8499L20.3314 14.0975H19.0351L20.0877 14.8479L19.6979 16.0955L20.7408 15.3255L21.7934 16.0955L21.3743 14.8479L22.4464 14.0975H21.1306ZM9.7466 7.89863L9.33725 9.14619H8.05069L9.09358 9.91617L8.70372 11.1442L9.7466 10.384L10.7992 11.1442L10.4094 9.91617L11.4523 9.14619H10.1462L9.7466 7.89863ZM4.26902 7.89863L3.84017 9.14619H2.55362L3.5965 9.91617L3.20664 11.1442L4.26902 10.384L5.30216 11.1442L4.90255 9.91617L5.96493 9.14619H4.65888L4.26902 7.89863ZM15.2339 7.89863L14.8441 9.14619H13.5283L14.6004 9.91617L14.191 11.1442L15.2339 10.384L16.3061 11.1442L15.8967 9.91617L16.9396 9.14619H15.653L15.2339 7.89863ZM20.7408 7.89863L20.3314 9.14619H19.0351L20.0877 9.91617L19.6979 11.1442L20.7408 10.384L21.7934 11.1442L21.3743 9.91617L22.4464 9.14619H21.1306L20.7408 7.89863ZM4.26902 2.96686L3.84017 4.19493H2.55362L3.5965 4.96491L3.20664 6.20272L4.26902 5.43274L5.30216 6.20272L4.90255 4.96491L5.96493 4.19493H4.65888L4.26902 2.96686ZM9.7466 2.96686L9.33725 4.19493H8.05069L9.09358 4.96491L8.70372 6.20272L9.7466 5.43274L10.7992 6.20272L10.4094 4.96491L11.4523 4.19493H10.1462L9.7466 2.96686ZM15.2339 2.96686L14.8441 4.19493H13.5283L14.6004 4.96491L14.191 6.20272L15.2339 5.43274L16.3061 6.20272L15.8967 4.96491L16.9396 4.19493H15.653L15.2339 2.96686ZM20.7408 2.96686L20.3314 4.19493H19.0351L20.0877 4.96491L19.6979 6.20272L20.7408 5.43274L21.7934 6.20272L21.3743 4.96491L22.4464 4.19493H21.1306L20.7408 2.96686Z" fill="white"/>
</g>
<defs>
<clipPath id="clip0_7_1130">
<rect width="50" height="33.3333" fill="white" transform="translate(0 0.559448)"/>
</clipPath>
</defs>
</svg>
