<svg width="200" height="81" viewBox="0 0 200 81" fill="none" xmlns="http://www.w3.org/2000/svg">
<g clip-path="url(#clip0_409_4075)">
<path d="M70.6276 56.4603H70.4876L63.8046 46.8091H60.9356V62.1611H64.207V52.4925H64.3294L71.0648 62.1611H73.899V46.8091H70.6276V56.4603Z" fill="white"/>
<path d="M82.366 46.8091H76.8204V62.1611H82.3136C87.0372 62.1611 89.8888 59.2673 89.8888 54.4677C89.8888 49.6681 87.0546 46.8091 82.366 46.8091ZM82.1912 59.3713H80.1092V49.5815H82.1912C85.0952 49.5815 86.6348 51.0543 86.6348 54.4505C86.6348 57.8465 85.1128 59.3713 82.1912 59.3713Z" fill="white"/>
<path d="M104.48 51.8167C104.48 48.7671 102.451 46.8091 98.9346 46.8091H92.829V54.1039H91.7792V56.7029H92.829V62.1437H96.1004V56.7029H98.4972L101.436 62.1437H105.058L101.769 56.1831C103.518 55.4381 104.498 53.9305 104.48 51.8167ZM98.3222 54.1039H96.1004V49.4601H98.3048C100.194 49.4601 101.104 50.2919 101.104 51.8167C101.104 53.3415 100.194 54.1039 98.3222 54.1039Z" fill="white"/>
<path d="M110.568 55.8193H117.199V53.1335H110.568V49.4775H117.741V46.8091H107.297V62.1611H117.759V59.4753H110.568V55.8193Z" fill="white"/>
<path d="M119.998 49.4775H124.739V62.1611H127.976V49.4775H132.717V46.8091H119.998V49.4775Z" fill="white"/>
<path d="M134.973 49.4775H139.714V62.1611H142.95V49.4775H147.691V46.8091H134.973V49.4775Z" fill="white"/>
<path d="M153.377 46.8091H150.105V62.1611H153.377V46.8091Z" fill="white"/>
<path d="M54.4798 62.1611H58.1012L53.8326 46.7745H48.3918L44.1406 62.1611H47.762L48.7416 58.6089H53.5002L54.4798 62.1611ZM49.4764 56.0099L51.121 50.0839L52.7654 56.0099H49.4764Z" fill="white"/>
<path d="M98.758 9.22618L104.759 30.7639L110.182 28.9793L102.397 0.822449C102.397 0.822449 100.14 0.666504 98.793 0.666504C97.4458 0.666504 95.1366 0.822449 95.1366 0.822449L87.334 28.9793L92.7572 30.7639L98.758 9.22618Z" fill="white"/>
<path d="M88.8738 1.77551C87.0894 2.24335 84.8676 2.95376 84.3952 3.14436C84.2552 3.19634 84.1678 3.33496 84.1678 3.47358L82.4882 27.1427C82.4882 27.2985 82.5932 27.4199 82.7332 27.4719L86.1622 28.5981L87.7892 3.0404C87.8416 2.41662 88.279 1.91413 88.8738 1.77551Z" fill="#14377D"/>
<path d="M88.8738 1.77551C88.2614 1.91413 87.824 2.43395 87.7892 3.0404L86.1622 28.5981L87.3342 28.9793L95.1368 0.82251C92.74 1.01311 90.5532 1.37698 88.8738 1.77551Z" fill="#EE3124"/>
<path d="M108.643 1.77551C110.427 2.24335 112.649 2.95376 113.121 3.14436C113.261 3.19634 113.349 3.33496 113.349 3.47358L115.028 27.1427C115.028 27.2985 114.941 27.4199 114.783 27.4719L111.354 28.5981L109.727 3.0404C109.692 2.41662 109.255 1.91413 108.643 1.77551Z" fill="#14377D"/>
<path d="M108.642 1.77551C109.254 1.91413 109.692 2.43395 109.727 3.0404L111.354 28.5981L110.182 28.9793L102.396 0.82251C104.776 1.01311 106.963 1.37698 108.642 1.77551Z" fill="#EE3124"/>
<path d="M98.7584 9.2262L92.7578 30.7639L98.7584 32.7393L104.759 30.7639L98.7584 9.2262Z" fill="#EE3124"/>
<path d="M154.67 61.5545H155.23V61.7105H155.037V62.1611H154.845V61.7105H154.652L154.67 61.5545ZM155.317 61.5545H155.562L155.65 61.9185L155.737 61.5545H155.982V62.1437H155.824V61.6931L155.702 62.1437H155.562L155.44 61.6931V62.1437H155.282V61.5545H155.317Z" fill="white"/>
<path d="M64.6268 69.7851H69.193V70.5995H65.5366V73.1465H68.843V73.9609H65.5366V77.3397H64.6094V69.7851H64.6268Z" fill="white"/>
<path d="M75.0014 77.4609C73.042 77.4609 71.625 75.9709 71.625 73.5797C71.625 71.1885 73.042 69.6983 75.0014 69.6983C76.9608 69.6983 78.3778 71.1885 78.3778 73.5797C78.3778 75.9709 76.9608 77.4609 75.0014 77.4609ZM75.0014 70.5473C73.6194 70.5473 72.5348 71.6043 72.5348 73.5797C72.5348 75.5549 73.6194 76.6119 75.0014 76.6119C76.3836 76.6119 77.4682 75.5549 77.4682 73.5797C77.4682 71.6043 76.3836 70.5473 75.0014 70.5473Z" fill="white"/>
<path d="M80.5468 73.5797H81.0718V69.8023H83.6434C85.4278 69.8023 86.2326 70.7901 86.2326 72.1243C86.2326 73.1291 85.7778 73.9089 84.798 74.2381L86.53 77.3571H85.4628L83.8534 74.3941C83.7834 74.3941 83.7308 74.3941 83.661 74.3941H81.999V77.3397H81.0892V74.3941H80.5644V73.5797H80.5468ZM85.3404 72.1069C85.3404 71.2059 84.868 70.5995 83.626 70.5995H81.999V73.5623H83.6434C84.868 73.5797 85.3404 73.0253 85.3404 72.1069Z" fill="white"/>
<path d="M90.0456 69.7851L92.6348 76.0575H92.7222L95.3114 69.7851H96.4136V77.3397H95.5564V71.6043H95.4864L93.1072 77.3397H92.2674L89.8882 71.6043H89.8182V77.3397H88.961V69.7851H90.0456Z" fill="white"/>
<path d="M105.372 69.7851V74.7927C105.372 76.3347 104.2 77.4783 102.398 77.4783C100.596 77.4783 99.4238 76.3347 99.4238 74.7927V69.7851H100.351V74.7233C100.351 75.8323 101.121 76.6293 102.398 76.6293C103.675 76.6293 104.445 75.8323 104.445 74.7233V69.7851H105.372Z" fill="white"/>
<path d="M108.363 69.7851H109.29V76.5253H112.842V77.3397H108.363V69.7851Z" fill="white"/>
<path d="M115.256 77.3571L118.055 69.8023H119.017L121.816 77.3571H120.854L120.084 75.2085H117.005L116.236 77.3571H115.256ZM119.787 74.3941L118.562 70.9807H118.51L117.285 74.3941H119.787Z" fill="white"/>
<path d="M128.271 69.7851H132.873V70.5995H129.199V73.1465H132.645V73.9609H129.199V76.5253H132.943V77.3397H128.271V69.7851Z" fill="white"/>
</g>
<defs>
<clipPath id="clip0_409_4075">
<rect width="200" height="80" fill="white" transform="translate(0 0.666504)"/>
</clipPath>
</defs>
</svg>
