<svg width="100" height="40" viewBox="0 0 100 40" fill="none" xmlns="http://www.w3.org/2000/svg">
<rect width="100" height="40" fill="white"/>
<path d="M35.3138 27.8969H35.2438L31.9023 23.0713H30.4678V30.7473H32.1035V25.913H32.1647L35.5324 30.7473H36.9495V23.0713H35.3138V27.8969Z" fill="#1A1A1A"/>
<path d="M41.183 23.0713H38.4102V30.7473H41.1568C43.5186 30.7473 44.9444 29.3004 44.9444 26.9006C44.9444 24.5008 43.5273 23.0713 41.183 23.0713ZM41.0956 29.3524H40.0546V24.4575H41.0956C42.5476 24.4575 43.3174 25.1939 43.3174 26.892C43.3174 28.59 42.5564 29.3524 41.0956 29.3524Z" fill="#1A1A1A"/>
<path d="M52.2402 25.5751C52.2402 24.0503 51.2255 23.0713 49.4673 23.0713H46.4145V26.7187H45.8896V28.0182H46.4145V30.7386H48.0502V28.0182H49.2486L50.7181 30.7386H52.5288L50.8843 27.7583C51.7591 27.3858 52.2489 26.632 52.2402 25.5751ZM49.1611 26.7187H48.0502V24.3968H49.1524C50.0971 24.3968 50.5519 24.8127 50.5519 25.5751C50.5519 26.3375 50.0971 26.7187 49.1611 26.7187Z" fill="#1A1A1A"/>
<path d="M55.2842 27.5764H58.5994V26.2335H55.2842V24.4055H58.8706V23.0713H53.6484V30.7473H58.8793V29.4044H55.2842V27.5764Z" fill="#1A1A1A"/>
<path d="M59.999 24.4055H62.3695V30.7473H63.9878V24.4055H66.3583V23.0713H59.999V24.4055Z" fill="#1A1A1A"/>
<path d="M67.4863 24.4055H69.8568V30.7473H71.4751V24.4055H73.8456V23.0713H67.4863V24.4055Z" fill="#1A1A1A"/>
<path d="M76.6885 23.0713H75.0527V30.7473H76.6885V23.0713Z" fill="#1A1A1A"/>
<path d="M27.2399 30.7473H29.0506L26.9163 23.054H24.1959L22.0703 30.7473H23.881L24.3708 28.9712H26.7501L27.2399 30.7473ZM24.7382 27.6717L25.5605 24.7087L26.3827 27.6717H24.7382Z" fill="#1A1A1A"/>
<path d="M49.379 4.27984L52.3793 15.0487L55.0909 14.1564L51.1984 0.0779727C51.1984 0.0779727 50.07 0 49.3965 0C48.7229 0 47.5683 0.0779727 47.5683 0.0779727L43.667 14.1564L46.3786 15.0487L49.379 4.27984Z" fill="white"/>
<path d="M44.4369 0.554504C43.5447 0.788423 42.4338 1.14363 42.1976 1.23893C42.1276 1.26492 42.0839 1.33423 42.0839 1.40354L41.2441 13.2381C41.2441 13.316 41.2966 13.3767 41.3666 13.4027L43.0811 13.9658L43.8946 1.18695C43.9208 0.875059 44.1395 0.623813 44.4369 0.554504Z" fill="#14377D"/>
<path d="M44.4369 0.554503C44.1307 0.623812 43.912 0.883721 43.8946 1.18695L43.0811 13.9658L43.6671 14.1564L47.5684 0.0780029C46.37 0.173303 45.2766 0.355239 44.4369 0.554503Z" fill="#EE3124"/>
<path d="M54.3213 0.554504C55.2135 0.788423 56.3244 1.14363 56.5606 1.23893C56.6306 1.26492 56.6743 1.33423 56.6743 1.40354L57.514 13.2381C57.514 13.316 57.4703 13.3767 57.3916 13.4027L55.6771 13.9658L54.8636 1.18695C54.8461 0.875059 54.6274 0.623813 54.3213 0.554504Z" fill="#14377D"/>
<path d="M54.321 0.554503C54.6272 0.623812 54.8459 0.883721 54.8633 1.18695L55.6768 13.9658L55.0908 14.1564L51.1982 0.0780029C52.3879 0.173303 53.4813 0.355239 54.321 0.554503Z" fill="#EE3124"/>
<path d="M49.3792 4.27985L46.3789 15.0487L49.3792 16.0364L52.3795 15.0487L49.3792 4.27985Z" fill="#EE3124"/>
<path d="M77.3349 30.444H77.6148V30.522H77.5186V30.7473H77.4224V30.522H77.3262L77.3349 30.444ZM77.6586 30.444H77.781L77.8248 30.626L77.8685 30.444H77.991V30.7386H77.9122V30.5133L77.851 30.7386H77.781L77.7198 30.5133V30.7386H77.6411V30.444H77.6586Z" fill="#1A1A1A"/>
<path d="M32.3134 34.5593H34.5965V34.9665H32.7683V36.24H34.4215V36.6472H32.7683V38.3366H32.3047V34.5593H32.3134Z" fill="#1A1A1A"/>
<path d="M37.5007 38.3972C36.521 38.3972 35.8125 37.6522 35.8125 36.4566C35.8125 35.261 36.521 34.5159 37.5007 34.5159C38.4804 34.5159 39.1889 35.261 39.1889 36.4566C39.1889 37.6522 38.4804 38.3972 37.5007 38.3972ZM37.5007 34.9404C36.8097 34.9404 36.2674 35.4689 36.2674 36.4566C36.2674 37.4442 36.8097 37.9727 37.5007 37.9727C38.1918 37.9727 38.7341 37.4442 38.7341 36.4566C38.7341 35.4689 38.1918 34.9404 37.5007 34.9404Z" fill="#1A1A1A"/>
<path d="M40.2734 36.4566H40.5359V34.5679H41.8217C42.7139 34.5679 43.1163 35.0618 43.1163 35.7289C43.1163 36.2313 42.8889 36.6212 42.399 36.7858L43.265 38.3453H42.7314L41.9267 36.8638C41.8917 36.8638 41.8654 36.8638 41.8305 36.8638H40.9995V38.3366H40.5446V36.8638H40.2822V36.4566H40.2734ZM42.6702 35.7202C42.6702 35.2697 42.434 34.9665 41.813 34.9665H40.9995V36.4479H41.8217C42.434 36.4566 42.6702 36.1794 42.6702 35.7202Z" fill="#1A1A1A"/>
<path d="M45.0228 34.5593L46.3174 37.6955H46.3611L47.6557 34.5593H48.2068V38.3366H47.7782V35.4689H47.7432L46.5536 38.3366H46.1337L44.9441 35.4689H44.9091V38.3366H44.4805V34.5593H45.0228Z" fill="#1A1A1A"/>
<path d="M52.686 34.5593V37.0631C52.686 37.8341 52.0999 38.4059 51.1989 38.4059C50.298 38.4059 49.7119 37.8341 49.7119 37.0631V34.5593H50.1755V37.0284C50.1755 37.5829 50.5604 37.9814 51.1989 37.9814C51.8375 37.9814 52.2224 37.5829 52.2224 37.0284V34.5593H52.686Z" fill="#1A1A1A"/>
<path d="M54.1816 34.5593H54.6452V37.9294H56.4209V38.3366H54.1816V34.5593Z" fill="#1A1A1A"/>
<path d="M57.6279 38.3453L59.0275 34.5679H59.5086L60.9082 38.3453H60.4271L60.0422 37.271H58.5027L58.1178 38.3453H57.6279ZM59.8935 36.8638L59.2812 35.1571H59.2549L58.6426 36.8638H59.8935Z" fill="#1A1A1A"/>
<path d="M64.1357 34.5593H66.4363V34.9665H64.5993V36.24H66.3226V36.6472H64.5993V37.9294H66.4713V38.3366H64.1357V34.5593Z" fill="#1A1A1A"/>
</svg>
