<svg width="150" height="58" viewBox="0 0 150 58" fill="none" xmlns="http://www.w3.org/2000/svg">
<path d="M25.8503 28.6577L23.8515 41.446C23.0108 42.5786 22.0114 43.4987 20.8534 44.2066C19.7113 44.9144 18.474 45.4335 17.1415 45.7638C15.8248 46.0942 14.4765 46.2515 13.0964 46.2357C11.066 46.2043 9.3766 45.7717 8.0282 44.9381C6.69575 44.0886 5.66466 42.9718 4.93496 41.5876C4.20526 40.1876 3.73731 38.6382 3.53109 36.9394C3.32487 35.2406 3.34074 33.526 3.57868 31.7957L4.57805 25.3544C4.84771 23.451 5.29981 21.6264 5.93433 19.8804C6.56884 18.1344 7.41751 16.585 8.48033 15.2322C9.54312 13.8637 10.8598 12.7941 12.4302 12.0233C14.0165 11.2525 15.8963 10.8907 18.0694 10.9379C20.1951 10.9851 21.9321 11.4728 23.2805 12.4008C24.6447 13.3289 25.6441 14.5794 26.2786 16.1524C26.913 17.7254 27.2145 19.5029 27.1827 21.4848L22.9235 21.4612C22.9394 20.2815 22.8046 19.1882 22.519 18.1816C22.2335 17.1591 21.7179 16.3333 20.9724 15.7041C20.2269 15.0592 19.1799 14.7131 17.8315 14.6659C16.277 14.603 14.9603 14.8783 13.8816 15.4918C12.8188 16.0894 11.9464 16.9153 11.2642 17.9692C10.598 19.0073 10.0745 20.1714 9.69381 21.4612C9.3131 22.7353 9.02756 24.0173 8.83721 25.3072L7.83784 31.8194C7.69508 32.8889 7.63165 34.0373 7.64749 35.2642C7.6634 36.4911 7.83784 37.6551 8.17097 38.7562C8.52 39.8416 9.09899 40.7382 9.908 41.446C10.717 42.1381 11.8353 42.4921 13.263 42.5078C14.1037 42.5235 14.8731 42.4449 15.5711 42.2718C16.2849 42.0988 16.9591 41.8471 17.5936 41.5168C18.244 41.1707 18.8944 40.7539 19.5447 40.2663L20.9962 32.3384H14.8096L15.4759 28.6577H25.8503ZM38.209 11.4098L47.3223 11.4335C49.3687 11.4963 51.0501 11.9604 52.3668 12.8255C53.6992 13.6749 54.651 14.8468 55.2221 16.3412C55.809 17.8198 56.0153 19.5501 55.8407 21.532C55.698 23.1522 55.2855 24.6072 54.6034 25.897C53.9372 27.1869 53.033 28.288 51.8909 29.2003C50.7646 30.1127 49.44 30.8362 47.9172 31.371L46.6798 31.8429H38.0187L38.6136 28.1386L44.4194 28.1858C45.7519 28.17 46.9258 27.879 47.941 27.3127C48.9562 26.7307 49.7731 25.9364 50.3918 24.9297C51.0263 23.9229 51.415 22.7825 51.5577 21.5084C51.7005 20.3916 51.6688 19.3613 51.4626 18.4175C51.2564 17.4737 50.8122 16.7108 50.1301 16.1288C49.4638 15.5311 48.4962 15.2086 47.2272 15.1614L41.8496 15.1378L36.4721 45.7638H32.2128L38.209 11.4098ZM48.4406 45.7638L44.4908 30.1913L48.7024 30.1677L53.033 45.4571L53.0092 45.7638H48.4406ZM70.1745 11.4098L64.1545 45.7638H59.8715L65.8915 11.4098H70.1745ZM81.8909 45.7638H75.8708L76.5845 42.0595L82.0096 42.0831C84.2307 42.0988 86.0787 41.6505 87.5536 40.7382C89.0292 39.8101 90.1873 38.5517 91.0279 36.963C91.8685 35.3586 92.448 33.5417 92.7647 31.5126L93.6449 25.6139C93.8201 24.3713 93.8832 23.1443 93.8353 21.9331C93.7881 20.7062 93.5657 19.5894 93.169 18.5826C92.7731 17.576 92.1305 16.7659 91.2419 16.1524C90.3541 15.5389 89.148 15.2086 87.6251 15.1614L81.1058 15.1378L81.7721 11.4098L87.7439 11.4335C89.7906 11.4806 91.5198 11.9053 92.9315 12.7076C94.3431 13.494 95.4533 14.5558 96.2627 15.8928C97.0713 17.2141 97.6028 18.7164 97.8571 20.3995C98.1107 22.0825 98.1183 23.8443 97.8807 25.6847L97.0005 31.5126C96.683 33.5732 96.1355 35.4765 95.3581 37.2225C94.5815 38.9685 93.5657 40.4865 92.3124 41.7764C91.0599 43.0505 89.5607 44.0415 87.8155 44.7493C86.0863 45.4414 84.1119 45.7796 81.8909 45.7638ZM84.2703 11.4098L78.2505 45.7638H73.9911L79.9873 11.4098H84.2703Z" fill="#333333"/>
<path d="M111.239 29.3655V32.9519H99.6274V29.3655H111.239Z" fill="#333333"/>
<path d="M149.57 15.5702C149.409 16.4669 149.061 17.2934 148.626 18.0908C147.579 20.0078 146.191 21.6775 144.646 23.2249C141.44 26.4404 137.794 29.0525 133.581 30.8779C131.686 31.6998 129.717 32.2864 127.655 32.546C126.253 32.7232 124.85 32.7156 123.458 32.4574C123.126 32.3963 122.784 32.2757 122.497 32.1015C121.792 31.6753 121.744 30.8917 122.351 30.3372C122.767 29.9568 123.289 29.7995 123.831 29.7995C126.857 29.7995 129.585 28.8051 132.159 27.3661C136.415 24.9861 139.992 21.8317 143.015 18.0678C143.335 17.6692 143.608 17.2323 143.877 16.7985C143.988 16.6197 144.031 16.4028 144.107 16.2042C144.072 16.1614 144.037 16.1202 144.005 16.0774C143.752 16.0988 143.496 16.0957 143.248 16.1416C141.54 16.4669 139.901 17.023 138.279 17.6187C134.143 19.1387 130.176 20.9961 126.495 23.4021C124.758 24.5355 123.123 25.7927 121.686 27.279C120.643 28.3575 119.73 29.5291 119.079 30.8779C118.499 32.0756 118.163 33.3251 118.257 34.6663C118.374 36.3497 119.121 37.7199 120.417 38.8075C121.625 39.8203 123.046 40.3671 124.613 40.5672C126.445 40.8025 128.251 40.5581 130.039 40.2052C134.874 39.252 139.155 37.1195 143.08 34.2492C143.344 34.0568 143.606 33.8582 143.891 33.6978C144.113 33.5726 144.358 33.4702 144.606 33.4137C145.103 33.2991 145.419 33.5329 145.469 34.0278C145.527 34.6311 145.325 35.1689 144.976 35.6516C144.747 35.9693 144.492 36.2733 144.23 36.5666C141.62 39.4949 138.488 41.771 134.986 43.5735C132.626 44.7879 130.15 45.7014 127.518 46.1749C125.031 46.6225 122.546 46.7172 120.108 45.9458C115.767 44.571 113.25 41.6212 112.486 37.2525C111.94 34.1408 112.692 31.2583 114.305 28.5667C115.43 26.6894 116.884 25.0794 118.526 23.6236C120.983 21.4422 123.739 19.6825 126.667 18.1809C131.161 15.8773 135.873 14.1573 140.842 13.1292C142.696 12.7443 144.564 12.4663 146.466 12.561C146.931 12.5839 147.405 12.6435 147.847 12.7733C149.167 13.1598 149.809 14.2428 149.57 15.5702Z" fill="url(#paint0_linear_3_1483)"/>
<defs>
<linearGradient id="paint0_linear_3_1483" x1="130.964" y1="12.5424" x2="130.964" y2="46.5189" gradientUnits="userSpaceOnUse">
<stop stop-color="#14B7ED"/>
<stop offset="1" stop-color="#0554F2" stop-opacity="0.94902"/>
</linearGradient>
</defs>
</svg>
