<svg width="200" height="56" viewBox="0 0 200 56" fill="none" xmlns="http://www.w3.org/2000/svg">
<mask id="mask0_409_4038" style="mask-type:luminance" maskUnits="userSpaceOnUse" x="0" y="0" width="200" height="56">
<path d="M0 0.666504H200V55.7545H0V0.666504Z" fill="white"/>
</mask>
<g mask="url(#mask0_409_4038)">
<path d="M146.85 53.2865H164.94L199.64 0.860474H35.06L0.359985 53.2865H93.03" stroke="white" stroke-width="0.193"/>
<path d="M163.438 17.4865L156.554 20.8565C157.954 21.3925 159.352 21.9285 160.748 22.4685C161.614 22.8025 162.64 23.2225 163.02 24.2445C163.408 25.2965 162.836 26.2305 162.332 27.0285L160.04 30.6165C157.32 34.8725 154.6 39.1265 151.874 43.3765C151.874 42.0645 151.872 40.7525 151.866 39.4405C153.205 35.2276 154.495 30.9993 155.736 26.7565C155.9 26.1905 155.794 25.8525 155.25 25.5825C153.86 24.8965 152.468 24.2125 151.074 23.5285L146.898 25.5825C146.354 25.8525 146.246 26.1905 146.41 26.7565C147.647 31.0008 148.937 35.2292 150.282 39.4405C150.282 40.7525 150.278 42.0645 150.272 43.3765C147.544 39.1271 144.822 34.8737 142.106 30.6165L139.816 27.0285C139.31 26.2365 138.734 25.3005 139.128 24.2445C139.506 23.2225 140.534 22.8045 141.398 22.4685L145.594 20.8565L138.71 17.4865L140.856 21.0845L137.298 22.4505C134.815 18.5581 132.333 14.6647 129.852 10.7705C136.916 13.2745 143.972 15.8005 151.068 18.2225C158.162 15.8005 165.218 13.2725 172.284 10.7685C169.809 14.6666 167.326 18.56 164.836 22.4485L161.288 21.0845L163.432 17.4865" fill="white"/>
<path d="M119.94 43.3725V10.7665" stroke="white" stroke-width="0.193"/>
<path d="M98.29 55.6885V50.8945H100.59V51.6125H99.114V52.8485H100.218V53.5685H99.114V55.6885H98.29ZM101.242 52.0525C101.242 51.3725 101.642 50.8225 102.506 50.8225C103.37 50.8225 103.77 51.3745 103.77 52.0505V54.5265C103.77 55.2045 103.37 55.7545 102.506 55.7545C101.642 55.7545 101.242 55.2045 101.242 54.5265V52.0525ZM102.066 54.5125C102.066 54.8725 102.174 55.0465 102.506 55.0465C102.838 55.0465 102.946 54.8725 102.946 54.5145V52.0725C102.946 51.7125 102.838 51.5405 102.506 51.5405C102.174 51.5405 102.066 51.7125 102.066 52.0725V54.5125ZM105.59 55.6885H104.764V50.8945H105.924C106.85 50.8945 107.314 51.2865 107.314 52.3105C107.314 53.0825 107.014 53.3905 106.734 53.5205L107.434 55.6945H106.6L106.016 53.7065C105.874 53.7211 105.732 53.7277 105.59 53.7265V55.6885ZM105.59 53.0425H105.882C106.328 53.0425 106.494 52.8765 106.494 52.3025C106.494 51.7305 106.328 51.5665 105.882 51.5665H105.59V53.0425ZM111.66 50.8885V55.6825H110.944V51.9385H110.93L110.186 55.6885H109.786L109.04 51.9385H109.028V55.6885H108.308V50.8945H109.392L109.988 53.6945L110.572 50.8885H111.66ZM112.646 50.8885H113.47V54.5145C113.47 54.8665 113.61 55.0405 113.91 55.0405C114.21 55.0405 114.35 54.8665 114.35 54.5125V50.8885H115.174V54.4805C115.174 55.3045 114.694 55.7565 113.91 55.7565C113.126 55.7565 112.646 55.3045 112.646 54.4785V50.8885ZM116.158 55.6885V50.8945H116.982V54.9785H118.28V55.6945L116.158 55.6885ZM119.774 55.6885H118.976L119.862 50.8945H120.886L121.77 55.6885H120.97L120.824 54.6245H119.918L119.774 55.6885ZM120.04 53.9085H120.706L120.38 51.8465H120.368L120.04 53.9085ZM123.908 55.6885V50.8945H126.116V51.6125H124.724V52.8485H125.788V53.5685H124.724V54.9785H126.2V55.6945L123.908 55.6885ZM129.446 51.6065H128.648V50.8885H131.068V51.6065H130.27V55.6885H129.446V51.6065ZM131.876 55.6885V50.8945H134.082V51.6125H132.7V52.8485H133.764V53.5685H132.7V54.9785H134.174V55.6945L131.874 55.6885H131.876ZM135.626 55.6885H134.826L135.712 50.8945H136.744L137.628 55.6885H136.83L136.676 54.6245H135.77L135.626 55.6885ZM135.892 53.9085H136.556L136.23 51.8465H136.216L135.892 53.9085ZM141.724 50.8885V55.6825H141.004V51.9385H140.992L140.246 55.6885H139.846L139.104 51.9385H139.09V55.6885H138.372V50.8945H139.454L140.04 53.7005H140.054L140.638 50.8945L141.724 50.8885ZM65.166 19.7065H73.404C74.754 19.7065 75.442 19.1565 75.442 18.0725C75.442 16.6705 74.138 16.4605 73.36 16.4605H65.16V19.7085L65.164 19.7045L65.166 19.7065ZM50.776 24.7625H55.312V17.7425L50.776 24.7625ZM65.18 29.4665H74.742C76.102 29.4665 76.982 28.6065 76.982 27.2705C76.982 25.9725 76.078 25.0305 74.832 25.0305H65.18V29.4665ZM26.67 43.3705L48.29 10.7665H100.316V34.8325H90.6V16.8185H85.86C85.7715 17.5172 85.6086 18.2044 85.374 18.8685C85.008 19.8885 84.754 20.2505 83.94 21.2365C84.916 22.3105 85.3 22.9145 85.78 24.1405C86.27 25.3225 86.532 26.5865 86.554 27.8645C86.554 29.5785 86.034 31.0365 84.92 32.4565C84.4155 33.1255 83.79 33.694 83.076 34.1325C82.19 34.6585 81.356 34.8325 79.76 34.8325H55.312V30.5865H46.476L37.97 43.3725H26.67V43.3705ZM101.4 16.8185V10.7665H110.06V16.8185H101.4Z" fill="white"/>
</g>
</svg>
