<svg width="100" height="40" fill="none" xmlns="http://www.w3.org/2000/svg"><path fill="#fff" d="M0 0h100v40H0z"/><g clip-path="url(#a)"><path d="M73.425 33.31h9.045L99.82 7.097H17.53L.18 33.31h46.335" stroke="#000" stroke-width=".193"/><path d="m81.719 15.41-3.442 1.685c.7.268 1.399.536 2.097.806.433.167.946.377 1.136.888.194.526-.092.993-.344 1.392l-1.146 1.794c-1.36 2.128-2.72 4.255-4.083 6.38 0-.656-.001-1.312-.004-1.968a286.624 286.624 0 0 0 1.935-6.342c.082-.283.029-.452-.243-.587-.695-.343-1.391-.685-2.088-1.027l-2.088 1.027c-.272.135-.326.304-.244.587a259.388 259.388 0 0 0 1.936 6.342c0 .656-.002 1.312-.005 1.968a2650.393 2650.393 0 0 1-4.083-6.38l-1.145-1.794c-.253-.396-.541-.864-.344-1.392.189-.511.703-.72 1.135-.888l2.098-.806-3.442-1.685 1.073 1.799-1.779.683a9566.606 9566.606 0 0 1-3.723-5.84c3.532 1.252 7.06 2.515 10.608 3.726 3.547-1.211 7.075-2.475 10.608-3.727a1790.323 1790.323 0 0 1-3.724 5.84l-1.774-.682 1.072-1.799" fill="#000"/><path d="M59.97 28.353V12.05" stroke="#000" stroke-width=".193"/><path d="M49.145 34.511v-2.397h1.15v.359h-.738v.618h.552v.36h-.552v1.06h-.413ZM50.621 32.693c0-.34.2-.615.632-.615s.632.276.632.614v1.238c0 .339-.2.614-.632.614s-.632-.275-.632-.614v-1.237Zm.412 1.23c0 .18.054.267.22.267s.22-.087.22-.266v-1.221c0-.18-.054-.266-.22-.266s-.22.086-.22.266v1.22ZM52.795 34.511h-.413v-2.397h.58c.463 0 .695.196.695.708 0 .386-.15.54-.29.605l.35 1.087H53.3l-.292-.994a1.91 1.91 0 0 1-.213.01v.981Zm0-1.323h.146c.223 0 .306-.083.306-.37 0-.286-.083-.368-.306-.368h-.146v.738ZM55.83 32.111v2.397h-.358v-1.872h-.007l-.372 1.875h-.2l-.373-1.875h-.006v1.875h-.36v-2.397h.542l.298 1.4.292-1.403h.544ZM56.323 32.111h.412v1.813c0 .176.07.263.22.263s.22-.087.22-.264v-1.812h.412v1.796c0 .412-.24.638-.632.638s-.632-.226-.632-.639v-1.795ZM58.079 34.511v-2.397h.412v2.042h.649v.358l-1.061-.003ZM59.887 34.511h-.399l.443-2.397h.512l.442 2.397h-.4l-.073-.532h-.453l-.072.532Zm.133-.89h.333l-.163-1.031h-.006l-.164 1.03ZM61.954 34.511v-2.397h1.104v.359h-.696v.618h.532v.36h-.532v.705h.738v.358l-1.146-.003ZM64.723 32.47h-.399v-.359h1.21v.359h-.399v2.041h-.412V32.47ZM65.938 34.511v-2.397h1.103v.359h-.691v.618h.532v.36h-.532v.705h.737v.358l-1.15-.003ZM67.813 34.511h-.4l.443-2.397h.516l.442 2.397h-.399l-.077-.532h-.453l-.072.532Zm.133-.89h.332l-.163-1.031h-.007l-.162 1.03ZM70.862 32.111v2.397h-.36v-1.872h-.006l-.373 1.875h-.2l-.371-1.875h-.007v1.875h-.359v-2.397h.541l.293 1.403h.007l.292-1.403.543-.003ZM32.583 16.52h4.119c.675 0 1.019-.275 1.019-.817 0-.701-.652-.806-1.041-.806H32.58v1.624l.002-.002Zm-7.195 2.528h2.268v-3.51l-2.268 3.51ZM32.59 21.4h4.781c.68 0 1.12-.43 1.12-1.098 0-.649-.452-1.12-1.075-1.12H32.59v2.218Zm-19.255 6.952L24.145 12.05h26.013v12.033H45.3v-9.007h-2.37a4.94 4.94 0 0 1-.243 1.025c-.183.51-.31.691-.717 1.184.488.537.68.839.92 1.452.245.591.376 1.223.387 1.862 0 .857-.26 1.586-.817 2.296a3.35 3.35 0 0 1-.922.838c-.443.263-.86.35-1.658.35H27.656V21.96h-4.418l-4.253 6.393h-5.65ZM50.7 15.076V12.05h4.33v3.026H50.7Z" fill="#000"/></g><defs><clipPath id="a"><path fill="#fff" transform="translate(0 7)" d="M0 0h100v27.544H0z"/></clipPath></defs></svg>