<svg width="200" height="80" viewBox="0 0 200 80" fill="none" xmlns="http://www.w3.org/2000/svg">
<mask id="mask0_1_185" style="mask-type:luminance" maskUnits="userSpaceOnUse" x="0" y="14" width="200" height="56">
<path d="M0 13.9999H200V69.0879H0V13.9999Z" fill="white"/>
</mask>
<g mask="url(#mask0_1_185)">
<path d="M146.85 66.6199H164.94L199.64 14.1939H35.06L0.359985 66.6199H93.03" stroke="black" stroke-width="0.193"/>
<path d="M163.438 30.8199L156.554 34.1899C157.954 34.7259 159.352 35.2619 160.748 35.8019C161.614 36.1359 162.64 36.5559 163.02 37.5779C163.408 38.6299 162.836 39.5639 162.332 40.3619L160.04 43.9499C157.32 48.2059 154.6 52.4599 151.874 56.7099C151.874 55.3979 151.872 54.0859 151.866 52.7739C153.205 48.561 154.495 44.3327 155.736 40.0899C155.9 39.5239 155.794 39.1859 155.25 38.9159C153.86 38.2299 152.468 37.5459 151.074 36.8619L146.898 38.9159C146.354 39.1859 146.246 39.5239 146.41 40.0899C147.647 44.3343 148.937 48.5626 150.282 52.7739C150.282 54.0859 150.278 55.3979 150.272 56.7099C147.544 52.4605 144.822 48.2072 142.106 43.9499L139.816 40.3619C139.31 39.5699 138.734 38.6339 139.128 37.5779C139.506 36.5559 140.534 36.1379 141.398 35.8019L145.594 34.1899L138.71 30.8199L140.856 34.4179L137.298 35.7839C134.815 31.8915 132.333 27.9982 129.852 24.1039C136.916 26.6079 143.972 29.1339 151.068 31.5559C158.162 29.1339 165.218 26.6059 172.284 24.1019C169.809 28.0001 167.326 31.8934 164.836 35.7819L161.288 34.4179L163.432 30.8199" fill="black"/>
<path d="M119.94 56.7059V24.0999" stroke="black" stroke-width="0.193"/>
<path d="M98.29 69.0219V64.2279H100.59V64.9459H99.114V66.1819H100.218V66.9019H99.114V69.0219H98.29ZM101.242 65.3859C101.242 64.7059 101.642 64.1559 102.506 64.1559C103.37 64.1559 103.77 64.708 103.77 65.3839V67.8599C103.77 68.5379 103.37 69.0879 102.506 69.0879C101.642 69.0879 101.242 68.5379 101.242 67.8599V65.3859ZM102.066 67.8459C102.066 68.2059 102.174 68.3799 102.506 68.3799C102.838 68.3799 102.946 68.2059 102.946 67.8479V65.4059C102.946 65.0459 102.838 64.8739 102.506 64.8739C102.174 64.8739 102.066 65.0459 102.066 65.4059V67.8459ZM105.59 69.0219H104.764V64.2279H105.924C106.85 64.2279 107.314 64.6199 107.314 65.6439C107.314 66.4159 107.014 66.7239 106.734 66.8539L107.434 69.0279H106.6L106.016 67.0399C105.874 67.0545 105.732 67.0612 105.59 67.0599V69.0219ZM105.59 66.3759H105.882C106.328 66.3759 106.494 66.2099 106.494 65.6359C106.494 65.0639 106.328 64.8999 105.882 64.8999H105.59V66.3759ZM111.66 64.2219V69.0159H110.944V65.2719H110.93L110.186 69.0219H109.786L109.04 65.2719H109.028V69.0219H108.308V64.2279H109.392L109.988 67.0279L110.572 64.2219H111.66ZM112.646 64.2219H113.47V67.8479C113.47 68.1999 113.61 68.3739 113.91 68.3739C114.21 68.3739 114.35 68.1999 114.35 67.8459V64.2219H115.174V67.8139C115.174 68.638 114.694 69.0899 113.91 69.0899C113.126 69.0899 112.646 68.6379 112.646 67.8119V64.2219ZM116.158 69.0219V64.2279H116.982V68.3119H118.28V69.0279L116.158 69.0219ZM119.774 69.0219H118.976L119.862 64.2279H120.886L121.77 69.0219H120.97L120.824 67.9579H119.918L119.774 69.0219ZM120.04 67.2419H120.706L120.38 65.1799H120.368L120.04 67.2419ZM123.908 69.0219V64.2279H126.116V64.9459H124.724V66.1819H125.788V66.9019H124.724V68.3119H126.2V69.0279L123.908 69.0219ZM129.446 64.9399H128.648V64.2219H131.068V64.9399H130.27V69.0219H129.446V64.9399ZM131.876 69.0219V64.2279H134.082V64.9459H132.7V66.1819H133.764V66.9019H132.7V68.3119H134.174V69.0279L131.874 69.0219H131.876ZM135.626 69.0219H134.826L135.712 64.2279H136.744L137.628 69.0219H136.83L136.676 67.9579H135.77L135.626 69.0219ZM135.892 67.2419H136.556L136.23 65.1799H136.216L135.892 67.2419ZM141.724 64.2219V69.0159H141.004V65.2719H140.992L140.246 69.0219H139.846L139.104 65.2719H139.09V69.0219H138.372V64.2279H139.454L140.04 67.0339H140.054L140.638 64.2279L141.724 64.2219ZM65.166 33.0399H73.404C74.754 33.0399 75.442 32.4899 75.442 31.4059C75.442 30.0039 74.138 29.7939 73.36 29.7939H65.16V33.0419L65.164 33.0379L65.166 33.0399ZM50.776 38.0959H55.312V31.0759L50.776 38.0959ZM65.18 42.7999H74.742C76.102 42.7999 76.982 41.9399 76.982 40.6039C76.982 39.3059 76.078 38.3639 74.832 38.3639H65.18V42.7999ZM26.67 56.7039L48.29 24.0999H100.316V48.1659H90.6V30.1519H85.86C85.7715 30.8506 85.6086 31.5379 85.374 32.2019C85.008 33.2219 84.754 33.5839 83.94 34.5699C84.916 35.6439 85.3 36.2479 85.78 37.4739C86.27 38.6559 86.532 39.9199 86.554 41.1979C86.554 42.9119 86.034 44.3699 84.92 45.7899C84.4155 46.459 83.79 47.0275 83.076 47.4659C82.19 47.9919 81.356 48.1659 79.76 48.1659H55.312V43.9199H46.476L37.97 56.7059H26.67V56.7039ZM101.4 30.1519V24.0999H110.06V30.1519H101.4Z" fill="black"/>
</g>
</svg>
