<svg width="224" height="271" viewBox="0 0 224 271" fill="none" xmlns="http://www.w3.org/2000/svg">
<g filter="url(#filter0_df_70_1197)">
<path d="M271.342 13.7245C271.099 20.7944 269.367 27.5222 266.956 34.1176C261.129 49.9789 252.479 64.2951 242.508 77.8382C221.813 105.977 197.157 129.938 167.377 148.446C153.972 156.779 139.771 163.377 124.51 167.56C114.129 170.409 103.548 171.836 92.778 171.324C90.204 171.206 87.495 170.64 85.1403 169.605C79.3694 167.072 78.157 161.093 82.1374 156.183C84.858 152.816 88.6203 151.053 92.7059 150.479C115.524 147.272 135.006 136.731 152.853 122.932C182.364 100.111 205.915 72.0498 224.627 39.8867C226.61 36.4798 228.198 32.8287 229.754 29.206C230.397 27.7133 230.492 25.998 230.842 24.3905C230.537 24.0978 230.233 23.8169 229.94 23.5225C228.055 23.9552 226.121 24.203 224.31 24.8171C211.782 29.1309 200.032 35.1451 188.443 41.4483C158.909 57.5249 131.024 76.0188 105.874 98.4311C94.0073 108.992 83.0394 120.398 73.8146 133.357C67.1158 142.76 61.5068 152.742 58.0557 163.811C54.9826 173.639 53.8025 183.61 55.9592 193.83C58.6627 206.659 65.7724 216.411 76.7209 223.406C86.9174 229.92 98.2231 232.622 110.249 232.502C124.314 232.371 137.66 228.577 150.76 223.968C186.17 211.512 216.136 190.568 242.62 164.325C244.402 162.564 246.165 160.758 248.135 159.223C249.671 158.024 251.409 156.977 253.22 156.279C256.84 154.871 259.471 156.335 260.383 160.09C261.483 164.67 260.534 169.022 258.43 173.106C257.043 175.794 255.453 178.402 253.792 180.937C237.284 206.234 216.139 227.065 191.691 244.644C175.213 256.489 157.539 266.14 138.212 272.572C119.952 278.65 101.322 282.011 82.1089 278.659C47.9023 272.679 25.7329 252.65 15.251 219.843C7.77704 196.479 10.3232 173.503 19.5751 151.084C26.0222 135.447 35.2427 121.518 46.0429 108.578C62.2045 89.1906 81.0708 72.7314 101.523 58.0749C132.906 35.5896 166.568 17.3626 202.909 4.18865C216.469 -0.737443 230.25 -4.85567 244.693 -6.1424C248.215 -6.45754 251.858 -6.50218 255.331 -5.97141C265.698 -4.39595 271.708 3.25735 271.342 13.7245Z" fill="#0099FF"/>
</g>
<defs>
<filter id="filter0_df_70_1197" x="0.879883" y="-16.3759" width="280.478" height="306.361" filterUnits="userSpaceOnUse" color-interpolation-filters="sRGB">
<feFlood flood-opacity="0" result="BackgroundImageFix"/>
<feColorMatrix in="SourceAlpha" type="matrix" values="0 0 0 0 0 0 0 0 0 0 0 0 0 0 0 0 0 0 127 0" result="hardAlpha"/>
<feOffset dy="4"/>
<feGaussianBlur stdDeviation="2"/>
<feComposite in2="hardAlpha" operator="out"/>
<feColorMatrix type="matrix" values="0 0 0 0 0 0 0 0 0 0 0 0 0 0 0 0 0 0 0.25 0"/>
<feBlend mode="normal" in2="BackgroundImageFix" result="effect1_dropShadow_70_1197"/>
<feBlend mode="normal" in="SourceGraphic" in2="effect1_dropShadow_70_1197" result="shape"/>
<feGaussianBlur stdDeviation="5" result="effect2_foregroundBlur_70_1197"/>
</filter>
</defs>
</svg>
