<svg width="200" height="81" viewBox="0 0 200 81" fill="none" xmlns="http://www.w3.org/2000/svg">
<g clip-path="url(#clip0_409_4105)">
<mask id="mask0_409_4105" style="mask-type:luminance" maskUnits="userSpaceOnUse" x="0" y="0" width="200" height="81">
<path d="M0 0.666504H200V80.6665H0V0.666504Z" fill="white"/>
</mask>
<g mask="url(#mask0_409_4105)">
<mask id="mask1_409_4105" style="mask-type:luminance" maskUnits="userSpaceOnUse" x="0" y="0" width="201" height="81">
<path d="M0 0.666504H200.464V80.6665H0V0.666504Z" fill="white"/>
</mask>
<g mask="url(#mask1_409_4105)">
<path fill-rule="evenodd" clip-rule="evenodd" d="M32.66 59.3585V62.0205H30.164V51.8125H39.638C40.6021 51.8612 41.5092 52.284 42.1665 52.991C42.8239 53.698 43.1795 54.6334 43.158 55.5985C43.1677 56.3144 42.9749 57.0184 42.602 57.6294C42.229 58.2405 41.691 58.7338 41.05 59.0525L43.258 62.0485H40.102L38.116 59.3865L32.66 59.3585ZM159.982 62.0205C159.633 62.0123 159.288 61.9343 158.97 61.7911C158.651 61.6478 158.364 61.4423 158.126 61.1865C157.621 60.6522 157.342 59.9437 157.346 59.2085V54.5685C157.346 53.8365 157.626 53.1205 158.126 52.5825C158.608 52.0725 159.276 51.7765 159.982 51.7565H170.302V54.4025H160.956C160.823 54.4017 160.691 54.4295 160.57 54.4841C160.448 54.5386 160.34 54.6185 160.252 54.7185C160.059 54.9161 159.952 55.1822 159.954 55.4585V58.0965C159.954 58.4385 160.084 58.7725 160.316 59.0245C160.538 59.2645 160.856 59.4045 161.188 59.4045H167.76V57.3645H170.256V62.0045L159.982 62.0205ZM98.73 62.0205H88.52C88.1706 62.0123 87.8265 61.9343 87.5077 61.7911C87.189 61.6478 86.9021 61.4423 86.664 61.1865C86.1593 60.652 85.8799 59.9436 85.884 59.2085V54.5685C85.884 53.8645 86.136 53.1765 86.6 52.6385C87.08 52.1185 87.75 51.8225 88.456 51.8125H98.766V54.4025H89.46C89.328 54.4016 89.1974 54.4293 89.0772 54.4839C88.957 54.5385 88.8502 54.6185 88.764 54.7185C88.5708 54.9161 88.4637 55.1822 88.466 55.4585V58.0965C88.466 58.4385 88.596 58.7725 88.828 59.0245C89.052 59.2645 89.368 59.4045 89.692 59.4045H98.806V62.0305H98.732L98.73 62.0205ZM64.966 55.8965L60.436 62.0125H57.152C58.756 59.8405 60.326 57.5025 62.042 55.4125C64.288 52.6285 64.994 51.7845 67.212 51.7845H71.722V61.9945H69.152V54.4865H67.37C66.8993 54.4397 66.4257 54.5396 66.014 54.7725C65.606 55.0885 65.254 55.4685 64.966 55.8965ZM115.87 62.0125H112.9V51.8045H115.87V62.0125ZM139.286 62.0125L132.716 55.4125V62.0325H129.932V51.8225H133.032L140.456 59.3665V51.7765H143.24V61.9845H139.314L139.286 62.0125ZM32.66 54.3925V56.7325H39.648C39.9313 56.6966 40.1912 56.5573 40.378 56.3413C40.5648 56.1254 40.6652 55.848 40.66 55.5625C40.6648 55.4131 40.64 55.2642 40.587 55.1244C40.5341 54.9846 40.454 54.8566 40.3514 54.7479C40.2488 54.6392 40.1257 54.5518 39.9892 54.4908C39.8527 54.4298 39.7055 54.3964 39.556 54.3925H32.66Z" fill="#00BE26"/>
<path fill-rule="evenodd" clip-rule="evenodd" d="M48.844 79.2185V74.3085H52.334V75.2365H49.884V76.3965H52.028V77.2505H49.884V79.2665L48.844 79.2185ZM56.714 79.2185L55.974 78.4845V75.0525L56.714 74.3085H59.396L60.148 75.0525V78.4865L59.396 79.2185H56.714ZM57.282 78.3825H58.794L59.062 78.1145V75.4045L58.784 75.1445H57.28L57.012 75.4045V78.1145L57.28 78.3825H57.282ZM64.158 79.2185V74.3085H67.266L68.01 75.0525V76.7685L67.388 77.3805L68.176 79.2365H67.082L66.376 77.5025H65.196V79.2365L64.158 79.2185ZM65.198 76.6385H66.718L66.988 76.3785V75.4505L66.728 75.1905H65.2L65.198 76.6385ZM72.13 79.2185V74.3085H73.318L74.654 77.5845L76 74.3085H77.132V79.2185H76.102V76.1665L74.896 79.1185H74.338L73.132 76.1665V79.2205H72.132L72.13 79.2185ZM81.94 79.2185L81.206 78.4845V74.3085H82.246V78.1145L82.516 78.3825H84L84.27 78.1225V74.3085H85.31V78.4865L84.566 79.2185H81.94ZM89.43 79.2185V74.3085H90.47V78.3365H92.808V79.2645L89.43 79.2185ZM96.242 79.2185L97.762 74.3085H99.398L100.918 79.2185H99.814L99.508 78.1325H97.652L97.346 79.2185H96.242ZM97.884 77.2885H99.304L98.72 75.1725H98.516L97.922 77.2885H97.884ZM109.42 79.2185V74.3085H112.966V75.2365H110.44V76.2965H112.712V77.1485H110.44V78.3825H112.944V79.3125L109.42 79.2185ZM122.71 79.2185V75.1905H121.336V74.2625H125.124V75.1905H123.75V79.2185H122.71ZM128.882 79.2185V74.3085H132.426V75.2365H129.93V76.2965H132.204V77.1485H129.93V78.3825H132.436V79.3125L128.882 79.2185ZM135.982 79.2185L137.502 74.3085H139.136L140.66 79.2185H139.554L139.212 78.1325H137.356L137.05 79.2185H135.982ZM137.624 77.2885H139.008L138.422 75.1725H138.218L137.624 77.2885ZM144.372 79.2185V74.3085H145.512L146.85 77.5845L148.194 74.3085H149.336V79.2185H148.324V76.1665L147.118 79.1185H146.636L145.43 76.1665V79.2205H144.37L144.372 79.2185Z" fill="white"/>
<path fill-rule="evenodd" clip-rule="evenodd" d="M165.986 75.6085H198.144V56.8885H200.464V77.9285H165.986V75.6085ZM34.478 77.9285H0V56.8885H2.32V75.6085H34.48L34.478 77.9285Z" fill="#00BE26"/>
<path fill-rule="evenodd" clip-rule="evenodd" d="M163.34 72.8705C164.374 72.87 165.366 73.2801 166.097 74.0108C166.828 74.7414 167.24 75.7327 167.24 76.7665C167.241 77.8003 166.83 78.792 166.1 79.5234C165.369 80.2548 164.378 80.666 163.344 80.6665C162.326 80.6434 161.357 80.2227 160.645 79.4944C159.933 78.7661 159.534 77.788 159.534 76.7695C159.534 75.751 159.933 74.7729 160.645 74.0446C161.357 73.3163 162.326 72.8956 163.344 72.8725L163.34 72.8705ZM163.34 74.7265C162.236 74.7365 161.346 75.6465 161.356 76.7505C161.353 77.2823 161.562 77.7933 161.936 78.1712C162.31 78.5491 162.819 78.7629 163.351 78.7655C163.883 78.7682 164.394 78.5595 164.772 78.1853C165.15 77.8112 165.363 77.3023 165.366 76.7705C165.366 75.6645 164.466 74.7645 163.36 74.7645H163.34V74.7265ZM37.122 72.8705C36.6028 72.8587 36.0865 72.9508 35.6034 73.1414C35.1203 73.332 34.6802 73.6171 34.3088 73.9802C33.9375 74.3432 33.6424 74.7768 33.441 75.2554C33.2395 75.7341 33.1357 76.2482 33.1357 76.7675C33.1357 77.2868 33.2395 77.8009 33.441 78.2796C33.6424 78.7582 33.9375 79.1918 34.3088 79.5548C34.6802 79.9179 35.1203 80.2031 35.6034 80.3936C36.0865 80.5842 36.6028 80.6763 37.122 80.6645C38.1403 80.6414 39.1091 80.2207 39.8211 79.4924C40.5331 78.7641 40.9317 77.786 40.9317 76.7675C40.9317 75.749 40.5331 74.7709 39.8211 74.0426C39.1091 73.3143 38.1403 72.8936 37.122 72.8705ZM37.122 74.7265C38.226 74.7365 39.118 75.6465 39.108 76.7505C39.1093 77.0138 39.0588 77.2748 38.9592 77.5185C38.8597 77.7623 38.7131 77.9841 38.5279 78.1712C38.1537 78.5491 37.6448 78.7629 37.113 78.7655C36.5813 78.7682 36.0702 78.5595 35.6924 78.1853C35.3145 77.8112 35.1007 77.3023 35.098 76.7705C35.0964 76.2411 35.3048 75.7327 35.6774 75.3566C36.0501 74.9806 36.5566 74.7677 37.086 74.7645H37.122V74.7265Z" fill="#00A621"/>
<path fill-rule="evenodd" clip-rule="evenodd" d="M163.34 72.8705C163.852 72.8704 164.359 72.9711 164.832 73.1668C165.305 73.3626 165.735 73.6496 166.097 74.0115C166.459 74.3734 166.746 74.803 166.942 75.2759C167.138 75.7488 167.239 76.2556 167.239 76.7675C167.239 77.2794 167.138 77.7863 166.943 78.2593C166.747 78.7323 166.46 79.162 166.098 79.5241C165.736 79.8862 165.307 80.1734 164.834 80.3694C164.361 80.5654 163.854 80.6664 163.342 80.6665C162.324 80.6434 161.355 80.2227 160.643 79.4944C159.931 78.7661 159.532 77.788 159.532 76.7695C159.532 75.751 159.931 74.7729 160.643 74.0446C161.355 73.3163 162.324 72.8956 163.342 72.8725L163.34 72.8705ZM37.122 72.8705C36.6028 72.8587 36.0865 72.9508 35.6034 73.1414C35.1203 73.332 34.6802 73.6171 34.3088 73.9802C33.9375 74.3432 33.6424 74.7768 33.441 75.2554C33.2395 75.7341 33.1357 76.2482 33.1357 76.7675C33.1357 77.2868 33.2395 77.8009 33.441 78.2796C33.6424 78.7582 33.9375 79.1918 34.3088 79.5548C34.6802 79.9179 35.1203 80.2031 35.6034 80.3936C36.0865 80.5842 36.6028 80.6763 37.122 80.6645C38.1403 80.6414 39.1091 80.2207 39.8211 79.4924C40.5331 78.7641 40.9317 77.786 40.9317 76.7675C40.9317 75.749 40.5331 74.7709 39.8211 74.0426C39.1091 73.3143 38.1403 72.8936 37.122 72.8705ZM37.122 74.7265C38.226 74.7365 39.118 75.6465 39.108 76.7505C39.1093 77.0138 39.0588 77.2748 38.9592 77.5185C38.8597 77.7623 38.7131 77.9841 38.5279 78.1712C38.1537 78.5491 37.6448 78.7629 37.113 78.7655C36.5813 78.7682 36.0702 78.5595 35.6924 78.1853C35.3145 77.8112 35.1007 77.3023 35.098 76.7705C35.0964 76.2411 35.3048 75.7327 35.6774 75.3566C36.0501 74.9806 36.5566 74.7677 37.086 74.7645H37.122V74.7265ZM163.342 74.7265C162.236 74.7365 161.346 75.6465 161.354 76.7505C161.351 77.2823 161.56 77.7933 161.934 78.1712C162.308 78.5491 162.817 78.7629 163.349 78.7655C163.881 78.7682 164.392 78.5595 164.77 78.1853C165.148 77.8112 165.361 77.3023 165.364 76.7705C165.364 75.6645 164.464 74.7645 163.36 74.7645H163.34L163.342 74.7265Z" fill="#00BE26"/>
<path fill-rule="evenodd" clip-rule="evenodd" d="M63.2 32.7125C59.062 37.3525 49.55 35.7485 42.34 33.6405C38.124 32.4345 37.81 34.4765 38.794 36.6005C39.778 38.7265 43.072 42.0865 49.104 42.5965C52.3732 42.9093 55.6503 42.0865 58.384 40.2665C58.57 40.1265 58.46 39.9065 58.256 40.0165C53.986 42.2065 46.31 41.3365 44.604 38.3825C44.372 37.9825 44.528 37.7245 45.698 37.9945C54.152 39.9425 60.258 37.8825 63.398 32.7225V32.6025C63.3742 32.6034 63.3509 32.6096 63.3298 32.6207C63.3086 32.6318 63.2903 32.6474 63.276 32.6665L63.2 32.7125ZM35.86 13.6605C35.666 13.8005 35.786 14.0205 35.99 13.9205C40.25 11.7105 47.878 12.5745 49.586 15.5165C49.81 15.9165 49.652 16.1745 48.492 15.9045C40.028 13.9565 33.92 16.0165 30.784 21.1765C30.71 21.3065 30.84 21.3625 30.952 21.2325C35.092 16.5925 44.592 18.1985 51.804 20.2585C56.028 21.4645 56.334 19.4225 55.35 17.2985C54.366 15.1725 51.044 11.8025 45.05 11.3105C44.63 11.3105 44.214 11.2565 43.804 11.2565C40.9731 11.2314 38.2019 12.07 35.86 13.6605ZM47.072 9.54051C51.5079 9.53061 55.7689 11.2699 58.9308 14.3813C62.0926 17.4926 63.9004 21.725 63.962 26.1605C63.962 29.5665 61.122 32.0905 55.526 32.0905C48.658 32.0905 41.606 28.9825 37.178 28.9825C36.5026 28.9648 35.8478 29.2157 35.3574 29.6803C34.8669 30.1449 34.5808 30.7852 34.562 31.4605V31.6825C34.562 36.9625 40.13 43.2645 47.072 44.0825C47.34 44.0825 47.34 44.4165 47.072 44.4165C42.6374 44.4202 38.3795 42.6786 35.2186 39.5683C32.0577 36.4579 30.2478 32.2286 30.18 27.7945C30.18 24.3885 33.03 21.8645 38.616 21.8645C45.448 21.8645 52.398 24.9725 56.964 24.9725C57.6397 24.9908 58.295 24.7401 58.7859 24.2754C59.2768 23.8107 59.5632 23.1702 59.582 22.4945V22.2725C59.582 16.9925 54.098 10.7725 47.072 9.87251C46.784 9.83651 46.792 9.54051 47.072 9.54051ZM170.284 27.8045C170.284 27.2465 170.238 26.6985 170.154 26.1505C170.07 25.601 169.884 25.0719 169.606 24.5905C169.328 24.1085 168.928 23.7083 168.446 23.4305C167.835 23.1094 167.15 22.9561 166.46 22.9865C165.442 22.965 164.433 23.1742 163.508 23.5985C162.693 23.9799 162.006 24.59 161.532 25.3545V23.2265H158.052V35.9325H161.912V28.6465C162.124 27.9968 162.528 27.4269 163.072 27.0125C163.312 26.8185 163.582 26.6605 163.872 26.5385C164.132 26.4285 164.408 26.3725 164.696 26.3625C164.934 26.3531 165.171 26.4004 165.387 26.5005C165.604 26.6007 165.793 26.7508 165.94 26.9385C166.311 27.4822 166.479 28.1394 166.414 28.7945V35.9325H170.284V27.8005V27.8045ZM146.73 28.2485C146.86 27.8685 147.064 27.5065 147.324 27.1905C147.584 26.9025 147.898 26.6705 148.25 26.5145C148.604 26.3545 148.984 26.2805 149.374 26.2805C150.154 26.2725 150.886 26.6165 151.388 27.2085C151.944 27.8885 152.224 28.7405 152.186 29.6125C152.186 30.0685 152.112 30.5225 151.964 30.9585C151.834 31.3385 151.63 31.7005 151.37 32.0085C151.128 32.2965 150.83 32.5285 150.488 32.6845C150.141 32.8522 149.759 32.9351 149.374 32.9265C148.989 32.9328 148.607 32.8527 148.257 32.6921C147.906 32.5315 147.597 32.2945 147.35 31.9985C146.792 31.3216 146.508 30.4606 146.552 29.5845C146.552 29.1305 146.618 28.6765 146.766 28.2485H146.73ZM152.232 35.6725C153.036 35.3479 153.763 34.858 154.366 34.2345C154.95 33.6335 155.399 32.9157 155.686 32.1285C156.298 30.5174 156.298 28.7376 155.686 27.1265C155.387 26.3428 154.936 25.6263 154.358 25.0185C153.751 24.3978 153.025 23.906 152.224 23.5725C151.313 23.1922 150.333 23.0056 149.346 23.0245C148.356 23.0058 147.374 23.1923 146.46 23.5725C145.659 23.9061 144.933 24.3979 144.326 25.0185C143.743 25.6223 143.291 26.34 142.998 27.1265C142.405 28.7404 142.405 30.5127 142.998 32.1265C143.296 32.9165 143.74 33.6325 144.326 34.2345C144.928 34.8565 145.652 35.3485 146.46 35.6745C148.322 36.3794 150.378 36.3794 152.24 35.6745L152.232 35.6725ZM140.632 18.3005H136.76V21.8085H140.63L140.632 18.3005ZM140.632 23.2565H136.76V35.9345H140.63V23.2545L140.632 23.2565ZM133.504 35.0805C134.424 34.3645 134.944 33.2505 134.904 32.0805C134.913 31.6094 134.821 31.1417 134.636 30.7085C134.443 30.3014 134.153 29.9478 133.792 29.6785C133.327 29.3407 132.818 29.0687 132.278 28.8705C131.658 28.6305 130.896 28.3885 129.996 28.1385C129.391 28.0168 128.802 27.8234 128.242 27.5625C128.101 27.4814 127.983 27.3644 127.902 27.2234C127.82 27.0824 127.777 26.9224 127.777 26.7595C127.777 26.5966 127.82 26.4366 127.902 26.2956C127.983 26.1546 128.101 26.0376 128.242 25.9565C128.566 25.7705 128.938 25.6885 129.31 25.6965C129.876 25.6965 130.432 25.8165 130.95 26.0405C131.638 26.3285 132.278 26.6905 132.882 27.1265L134.386 24.8065C133.691 24.1771 132.872 23.6996 131.982 23.4045C131.118 23.1445 130.218 23.0045 129.308 23.0145C128.622 23.0145 127.936 23.1165 127.286 23.3305C126.704 23.5259 126.161 23.8209 125.68 24.2025C124.742 24.9625 124.204 26.1145 124.232 27.3225C124.224 27.7485 124.298 28.1745 124.472 28.5745C124.66 28.9445 124.928 29.2705 125.272 29.5025C125.718 29.8185 126.2 30.0685 126.712 30.2545C127.296 30.4745 128.02 30.7085 128.872 30.9505C129.512 31.0905 130.134 31.3105 130.728 31.5905C130.881 31.6655 131.011 31.7814 131.103 31.9254C131.195 32.0693 131.245 32.2358 131.248 32.4065C131.254 32.5605 131.218 32.7133 131.144 32.8487C131.071 32.9842 130.962 33.0974 130.83 33.1765C130.476 33.3721 130.074 33.4656 129.67 33.4465C128.944 33.4368 128.227 33.2888 127.556 33.0105C126.761 32.6842 126.004 32.2703 125.3 31.7765L123.918 34.1425C124.688 34.8285 125.598 35.3485 126.58 35.6545C127.61 35.9985 128.688 36.1745 129.772 36.1745C131.128 36.2498 132.468 35.8565 133.568 35.0605L133.504 35.0805ZM122.044 18.3005H118.172V21.8085H122.042L122.044 18.3005ZM122.044 23.2565H118.172V35.9345H122.042V23.2545L122.044 23.2565ZM112.224 35.9345L116.696 23.2365H113.086L110.302 32.8425L107.518 23.2365H103.528L108.008 35.9345H112.224ZM102.45 27.8145C102.449 27.2607 102.405 26.7077 102.32 26.1605C102.228 25.6132 102.043 25.0857 101.774 24.6005C101.496 24.1185 101.096 23.7183 100.614 23.4405C100.002 23.119 99.3163 22.9658 98.626 22.9965C97.6091 22.9753 96.6006 23.1845 95.676 23.6085C94.876 23.9885 94.2 24.6025 93.736 25.3545V23.2265H90.21V35.9325H94.08V28.6465C94.19 28.3125 94.348 28.0065 94.552 27.7185C94.748 27.4485 94.988 27.2185 95.248 27.0125C95.49 26.8185 95.748 26.6605 96.038 26.5385C96.298 26.4285 96.576 26.3725 96.864 26.3625C97.1021 26.3531 97.3391 26.4004 97.5554 26.5005C97.7717 26.6007 97.9611 26.7508 98.108 26.9385C98.478 27.4865 98.646 28.1365 98.58 28.7945V35.9325H102.45V27.8005V27.8105V27.8145ZM80.01 32.4625V28.7965H86.776V25.5865H80.01V22.2445H87.89V18.7645H76.046V35.9445H88.112V32.4525H80.01V32.4625Z" fill="white"/>
<path fill-rule="evenodd" clip-rule="evenodd" d="M198.144 21.7065V2.9865H2.32V21.7065H0V0.666504H200.464V21.7065H198.144Z" fill="#00BE26"/>
</g>
</g>
</g>
<defs>
<clipPath id="clip0_409_4105">
<rect width="200" height="80" fill="white" transform="translate(0 0.666504)"/>
</clipPath>
</defs>
</svg>
