<svg width="200" height="81" viewBox="0 0 200 81" fill="none" xmlns="http://www.w3.org/2000/svg">
<g clip-path="url(#clip0_409_4046)">
<path d="M191.215 0.666504H8.67332C6.09192 0.666504 4 2.75842 4 5.33982V75.9931C4 78.5745 6.09192 80.6665 8.67332 80.6665H191.215C193.797 80.6665 195.889 78.5745 195.889 75.9931V5.33982C195.889 2.75842 193.797 0.666504 191.215 0.666504Z" fill="#3C3C3C"/>
<path d="M126.389 63.1475H117.939V64.4615H126.389V63.1475Z" fill="white"/>
<path d="M126.389 59.6601H117.939V60.9741H126.389V59.6601Z" fill="white"/>
<path d="M115.694 65.5453V58.5733C115.694 57.9119 116.233 57.3729 116.891 57.3729L126.387 57.4049L126.389 56.0909L116.891 56.0589C115.504 56.0589 114.377 57.1863 114.377 58.5733V65.5453C114.377 66.9321 115.504 68.0597 116.888 68.0597L126.384 68.0917L126.387 66.7777L116.888 66.7457C116.233 66.7457 115.694 66.2067 115.694 65.5453Z" fill="white"/>
<path d="M18.3357 57.1979V61.5887H23.5626V62.7279H18.3357V67.9897H17.0625V56.0587H24.4688V57.1979H18.3357Z" fill="#EAFF1B"/>
<path d="M36.0626 66.8505C35.2584 67.6547 34.2036 68.0917 33.012 68.0917C31.8234 68.0917 30.7656 67.6547 29.9616 66.8505C28.8398 65.7289 28.8398 64.5547 28.8398 62.0257C28.8398 59.4967 28.8398 58.3225 29.9616 57.2009C30.7656 56.3967 31.8204 55.9597 33.012 55.9597C34.2008 55.9597 35.2584 56.3967 36.0626 57.2009C37.1842 58.3225 37.1842 59.4967 37.1842 62.0257C37.1872 64.5547 37.1872 65.7259 36.0626 66.8505ZM35.0748 57.9525C34.5562 57.4165 33.8016 57.0989 33.015 57.0989C32.2282 57.0989 31.4736 57.4165 30.955 57.9525C30.2004 58.7217 30.116 59.5287 30.116 62.0227C30.116 64.5197 30.2004 65.3239 30.955 66.0959C31.4736 66.6321 32.2282 66.9495 33.015 66.9495C33.8016 66.9495 34.5562 66.6321 35.0748 66.0959C35.8294 65.3239 35.914 64.5197 35.914 62.0227C35.914 59.5287 35.8294 58.7217 35.0748 57.9525Z" fill="#EAFF1B"/>
<path d="M49.8868 67.9897L47.1714 62.6957H44.3044V67.9897H43.0312V56.0587H47.6056C49.6828 56.0587 51.1426 57.3145 51.1426 59.3773C51.1426 61.1195 50.0878 62.2587 48.5466 62.5793L51.3786 67.9925H49.8868V67.9897ZM47.4918 57.1979H44.3074V61.5711H47.4918C48.8816 61.5711 49.8722 60.8515 49.8722 59.3919C49.8694 57.9351 48.8816 57.1979 47.4918 57.1979Z" fill="#EAFF1B"/>
<path d="M65.8214 67.9897V58.9257L62.5524 66.1133H61.4628L58.1444 58.9257V67.9897H56.871V56.0587H58.1444L62.031 64.5197L65.8186 56.0587H67.0918V67.9897H65.8214Z" fill="#EAFF1B"/>
<path d="M77.3852 68.0887C74.9728 68.0887 73.2304 66.4309 73.2304 64.0505V56.0587H74.5036V63.9515C74.5036 65.7609 75.6428 66.9495 77.3852 66.9495C79.1274 66.9495 80.2842 65.7609 80.2842 63.9515V56.0587H81.5574V64.0505C81.5574 66.4309 79.7976 68.0887 77.3852 68.0887Z" fill="#EAFF1B"/>
<path d="M87.6894 67.9897V56.0587H88.9626V66.8505H95.0608V67.9897H87.6894Z" fill="#EAFF1B"/>
<path d="M107.091 67.9897L106.135 65.2917H100.923L99.967 67.9897H98.6094L103.003 56.0587H104.075L108.448 67.9897H107.091ZM103.557 57.8855L101.31 64.1845H105.768L103.557 57.8855Z" fill="#EAFF1B"/>
<path d="M138.372 57.1981V67.9897H137.099V57.1981H133.646V56.0589H141.825V57.1981H138.372Z" fill="#EAFF1B"/>
<path d="M146.9 67.9897V56.0589H154.307V57.1981H148.174V61.4051H153.4V62.5443H148.174V66.8505H154.307V67.9897H146.9Z" fill="#EAFF1B"/>
<path d="M166.757 67.9897L165.801 65.2919H160.589L159.633 67.9897H158.275L162.669 56.0589H163.741L168.114 67.9897H166.757ZM163.22 57.8857L160.973 64.1847H165.431L163.22 57.8857Z" fill="#EAFF1B"/>
<path d="M181.837 67.9897V58.9257L178.568 66.1135H177.478L174.16 58.9257V67.9897H172.887V56.0589H174.16L178.047 64.5197L181.834 56.0589H183.107V67.9897H181.837Z" fill="#EAFF1B"/>
<path d="M29.9146 26.2765L16.8008 13.4453H35.363L48.1504 26.2765H29.9146Z" fill="#EAFF1B"/>
<path d="M39.1446 13.4453L51.932 26.2765H70.7332V18.6547C70.7332 16.9532 71.476 15.3391 72.7696 14.2349L73.6932 13.4453H39.1446Z" fill="white"/>
<path d="M48.136 34.0149L35.3106 46.8433H16.8008L29.9992 34.0149H48.136Z" fill="#EAFF1B"/>
<path d="M51.926 34.0149L39.0976 46.8461H73.696C71.8662 45.8147 70.7358 43.8801 70.7358 41.7795V34.0149H51.926Z" fill="white"/>
<path d="M107.752 33.0565H84.2598V36.7071H107.752V33.0565Z" fill="white"/>
<path d="M107.752 23.3573H84.2598V27.0079H107.752V23.3573Z" fill="white"/>
<path d="M183.11 13.4338H149.727V17.0845H183.11V13.4338Z" fill="white"/>
<path d="M163.237 46.8055H159.586V27.0139H149.727V23.3631H163.237V46.8055Z" fill="white"/>
<path d="M173.244 46.8055H169.594V23.3631H183.11V27.0139H173.244V46.8055Z" fill="white"/>
<path d="M107.746 46.7909L81.346 46.7035C77.4972 46.7035 74.3652 43.5685 74.3652 39.7167V20.333C74.3652 16.4784 77.5002 13.3463 81.352 13.3463L107.757 13.4337L107.746 17.0844L81.346 16.997C79.5134 16.997 78.016 18.4946 78.016 20.333V39.7167C78.016 41.5553 79.5134 43.0527 81.352 43.0527L107.757 43.1401L107.746 46.7909Z" fill="white"/>
<path d="M133.794 23.3485H112.266V26.9991H133.794V23.3485Z" fill="white"/>
<path d="M135.707 43.1401H121.824V46.7907H135.707V43.1401Z" fill="white"/>
<path d="M145.626 29.7059V20.432C145.626 16.5716 142.485 13.4308 138.624 13.4308H112.266V17.0814H138.624C140.472 17.0814 141.975 18.5848 141.975 20.432V29.7059C141.975 31.5531 140.472 33.0563 138.624 33.0563H122.766H112.271V46.8053H115.922V36.7071H122.766H138.624C140.472 36.7071 141.975 38.2105 141.975 40.0577V46.8053H145.626V40.0577C145.626 38.0095 144.74 36.1651 143.336 34.8831C144.743 33.6013 145.626 31.7541 145.626 29.7059Z" fill="white"/>
</g>
<defs>
<clipPath id="clip0_409_4046">
<rect width="200" height="80" fill="white" transform="translate(0 0.666504)"/>
</clipPath>
</defs>
</svg>
