<svg width="100" height="40" viewBox="0 0 100 40" fill="none" xmlns="http://www.w3.org/2000/svg">
<path d="M95.6077 0H4.33666C3.04596 0 2 1.04596 2 2.33666V37.6633C2 38.954 3.04596 40 4.33666 40H95.6077C96.8984 40 97.9443 38.954 97.9443 37.6633V2.33666C97.9443 1.04596 96.8984 0 95.6077 0Z" fill="#3C3C3C"/>
<path d="M63.1944 31.2405H58.9697V31.8975H63.1944V31.2405Z" fill="#B4B4B4"/>
<path d="M63.1944 29.4968H58.9697V30.1538H63.1944V29.4968Z" fill="#B4B4B4"/>
<path d="M57.8469 32.4394V28.9534C57.8469 28.6227 58.1164 28.3532 58.4457 28.3532L63.1933 28.3692L63.1947 27.7122L58.4457 27.6962C57.7522 27.6962 57.1885 28.2599 57.1885 28.9534V32.4394C57.1885 33.1328 57.7522 33.6966 58.4442 33.6966L63.1918 33.7126L63.1933 33.0556L58.4442 33.0396C58.1164 33.0396 57.8469 32.7701 57.8469 32.4394Z" fill="#B4B4B4"/>
<path d="M9.16786 28.2657V30.4611H11.7813V31.0307H9.16786V33.6616H8.53125V27.6961H12.2344V28.2657H9.16786Z" fill="#EAFF1B"/>
<path d="M18.0313 33.092C17.6292 33.4941 17.1018 33.7126 16.506 33.7126C15.9117 33.7126 15.3828 33.4941 14.9808 33.092C14.4199 32.5312 14.4199 31.9441 14.4199 30.6796C14.4199 29.4151 14.4199 28.828 14.9808 28.2672C15.3828 27.8651 15.9102 27.6466 16.506 27.6466C17.1004 27.6466 17.6292 27.8651 18.0313 28.2672C18.5921 28.828 18.5921 29.4151 18.5921 30.6796C18.5936 31.9441 18.5936 32.5297 18.0313 33.092ZM17.5374 28.643C17.2781 28.375 16.9008 28.2162 16.5075 28.2162C16.1141 28.2162 15.7368 28.375 15.4775 28.643C15.1002 29.0276 15.058 29.4311 15.058 30.6781C15.058 31.9266 15.1002 32.3287 15.4775 32.7147C15.7368 32.9828 16.1141 33.1415 16.5075 33.1415C16.9008 33.1415 17.2781 32.9828 17.5374 32.7147C17.9147 32.3287 17.957 31.9266 17.957 30.6781C17.957 29.4311 17.9147 29.0276 17.5374 28.643Z" fill="#EAFF1B"/>
<path d="M24.9434 33.6616L23.5857 31.0146H22.1522V33.6616H21.5156V27.6961H23.8028C24.8414 27.6961 25.5713 28.324 25.5713 29.3554C25.5713 30.2265 25.0439 30.7961 24.2733 30.9564L25.6893 33.663H24.9434V33.6616ZM23.7459 28.2657H22.1537V30.4523H23.7459C24.4408 30.4523 24.9361 30.0925 24.9361 29.3627C24.9347 28.6343 24.4408 28.2657 23.7459 28.2657Z" fill="#EAFF1B"/>
<path d="M32.9107 33.6616V29.1296L31.2762 32.7234H30.7314L29.0722 29.1296V33.6616H28.4355V27.6961H29.0722L31.0155 31.9266L32.9093 27.6961H33.5459V33.6616H32.9107Z" fill="#EAFF1B"/>
<path d="M38.6926 33.7111C37.4864 33.7111 36.6152 32.8822 36.6152 31.692V27.6961H37.2518V31.6425C37.2518 32.5472 37.8214 33.1415 38.6926 33.1415C39.5637 33.1415 40.1421 32.5472 40.1421 31.6425V27.6961H40.7787V31.692C40.7787 32.8822 39.8988 33.7111 38.6926 33.7111Z" fill="#EAFF1B"/>
<path d="M43.8447 33.6616V27.6961H44.4813V33.092H47.5304V33.6616H43.8447Z" fill="#EAFF1B"/>
<path d="M53.5453 33.6616L53.0675 32.3126H50.4614L49.9835 33.6616H49.3047L51.5015 27.6961H52.0376L54.2242 33.6616H53.5453ZM51.7783 28.6095L50.6551 31.759H52.884L51.7783 28.6095Z" fill="#EAFF1B"/>
<path d="M69.1861 28.2658V33.6616H68.5495V28.2658H66.8232V27.6962H70.9124V28.2658H69.1861Z" fill="#EAFF1B"/>
<path d="M73.4502 33.6616V27.6962H77.1533V28.2658H74.0868V30.3693H76.7002V30.9389H74.0868V33.092H77.1533V33.6616H73.4502Z" fill="#EAFF1B"/>
<path d="M83.3784 33.6616L82.9005 32.3127H80.2944L79.8165 33.6616H79.1377L81.3345 27.6962H81.8706L84.0572 33.6616H83.3784ZM81.6098 28.6096L80.4867 31.7591H82.7155L81.6098 28.6096Z" fill="#EAFF1B"/>
<path d="M90.9186 33.6616V29.1296L89.2841 32.7235H88.7392L87.08 29.1296V33.6616H86.4434V27.6962H87.08L89.0233 31.9266L90.9171 27.6962H91.5537V33.6616H90.9186Z" fill="#EAFF1B"/>
<path d="M14.9573 12.805L8.40039 6.3894H17.6815L24.0752 12.805H14.9573Z" fill="#EAFF1B"/>
<path d="M19.5723 6.3894L25.966 12.805H35.3666V8.99411C35.3666 8.14336 35.738 7.33631 36.3848 6.78419L36.8466 6.3894H19.5723Z" fill="#B4B4B4"/>
<path d="M24.068 16.6742L17.6553 23.0884H8.40039L14.9996 16.6742H24.068Z" fill="#EAFF1B"/>
<path d="M25.963 16.6742L19.5488 23.0898H36.848C35.9331 22.5741 35.3679 21.6068 35.3679 20.5565V16.6742H25.963Z" fill="#B4B4B4"/>
<path d="M53.8758 16.195H42.1299V18.0203H53.8758V16.195Z" fill="#B4B4B4"/>
<path d="M53.8758 11.3454H42.1299V13.1707H53.8758V11.3454Z" fill="#B4B4B4"/>
<path d="M91.555 6.38367H74.8633V8.209H91.555V6.38367Z" fill="#B4B4B4"/>
<path d="M81.6183 23.0695H79.793V13.1737H74.8633V11.3483H81.6183V23.0695Z" fill="#B4B4B4"/>
<path d="M86.6222 23.0695H84.7969V11.3483H91.5548V13.1737H86.6222V23.0695Z" fill="#B4B4B4"/>
<path d="M53.8728 23.0622L40.673 23.0185C38.7486 23.0185 37.1826 21.451 37.1826 19.5251V9.83324C37.1826 7.90593 38.7501 6.3399 40.676 6.3399L53.8787 6.38361L53.8728 8.20894L40.673 8.16524C39.7567 8.16524 39.008 8.91402 39.008 9.83324V19.5251C39.008 20.4444 39.7567 21.1931 40.676 21.1931L53.8787 21.2368L53.8728 23.0622Z" fill="#B4B4B4"/>
<path d="M66.8969 11.341H56.1328V13.1663H66.8969V11.341Z" fill="#B4B4B4"/>
<path d="M67.8536 21.2368H60.9121V23.0621H67.8536V21.2368Z" fill="#B4B4B4"/>
<path d="M72.8128 14.5197V9.88276C72.8128 7.95254 71.2424 6.38214 69.3122 6.38214H56.1328V8.20747H69.3122C70.2358 8.20747 70.9875 8.95917 70.9875 9.88276V14.5197C70.9875 15.4433 70.2358 16.1949 69.3122 16.1949H61.383H56.1357V23.0694H57.9611V18.0203H61.383H69.3122C70.2358 18.0203 70.9875 18.772 70.9875 19.6956V23.0694H72.8128V19.6956C72.8128 18.6715 72.37 17.7493 71.6678 17.1083C72.3714 16.4674 72.8128 15.5438 72.8128 14.5197Z" fill="#B4B4B4"/>
</svg>
