<svg width="200" height="80" viewBox="0 0 200 80" fill="none" xmlns="http://www.w3.org/2000/svg">
<mask id="mask0_1_420" style="mask-type:luminance" maskUnits="userSpaceOnUse" x="10" y="4" width="179" height="72">
<path d="M188.105 3.99994H10V75.9999H188.105V3.99994Z" fill="white"/>
</mask>
<g mask="url(#mask0_1_420)">
<path d="M81.1326 66.4885C81.5708 65.9289 81.8828 65.1227 82.009 64.1903V63.0115C82.009 62.5769 81.879 62.0173 81.5708 61.3351C81.285 60.7269 80.8554 60.1959 80.3186 59.7875C79.522 59.1969 78.5578 58.8709 77.5634 58.8563H68.4238V75.6775H70.4276V68.2889H75.9992C76.375 68.8473 77.3762 70.6477 80.1302 75.3667L80.381 75.8645L82.2014 74.9953L78.3202 68.2271C79.4422 68.0401 80.381 67.4197 81.1326 66.4885ZM70.49 60.7753H77.5634C78.0652 60.7753 78.566 60.9623 79.1238 61.3351C79.7492 61.9553 80.0626 62.6389 80.0626 63.5081C80.0626 64.2523 79.8128 64.8119 79.311 65.4323C78.9364 65.9921 78.1226 66.2397 76.9328 66.2397H70.4276V60.7753H70.49Z" fill="black"/>
<path d="M101.979 59.968C100.973 59.3588 99.8356 58.9972 98.6604 58.913C97.472 58.975 97.1586 58.975 96.97 59.042C95.4098 59.3528 94.2162 59.9732 93.4022 60.7806C92.0876 62.0844 91.3984 63.8228 91.3984 65.8722V75.6776H93.471V68.3508H102.986V75.6776H104.99V65.4892C104.984 63.1354 103.982 61.2732 101.979 59.968ZM102.917 65.4324V66.3636H93.4022V65.8632C93.4022 64.4974 93.778 63.3792 94.5918 62.51C95.5306 61.455 96.7204 60.9624 98.3484 60.9624C99.412 60.9624 100.476 61.3346 101.541 62.0792C102.479 63.1354 102.917 64.1866 102.917 65.4324Z" fill="black"/>
<path d="M119.444 59.5333C117.624 60.3407 116.251 61.6445 115.249 63.4461C114.623 64.8119 114.311 66.1159 114.311 67.2327C114.311 68.1651 114.498 69.2201 114.936 70.4569C115.187 71.1403 115.688 71.9465 116.375 72.8169C118.196 74.7411 120.32 75.6723 122.636 75.6723H127.894V73.6913H123.262C121.947 73.6913 121.322 73.5625 121.071 73.4425L120.941 73.3805C120.251 73.2515 119.501 72.8221 118.625 72.1385C117.122 70.7113 116.37 69.0971 116.37 67.2959C116.36 65.9797 116.777 64.6951 117.56 63.6319C118.999 61.7697 120.753 60.9003 122.944 60.9003H127.952V58.8511H123.069C121.823 58.7893 120.58 59.0233 119.444 59.5333Z" fill="black"/>
<path d="M140.228 58.788H138.225V75.6144H140.228V58.788Z" fill="black"/>
<path d="M159.987 71.6421L159.422 70.8347C152.6 60.7133 151.597 59.2857 151.41 59.0369L151.222 58.8511H149.469V75.6775H151.472V62.8245L160.236 75.6775H161.927V58.8511H159.924V71.6421H159.987Z" fill="black"/>
<path d="M175.504 63.7558C175.864 63.2706 176.262 62.814 176.694 62.39C177.869 61.3672 179.387 60.8156 180.951 60.8424H185.833V58.7274H180.951C180.041 58.7374 179.137 58.8622 178.259 59.0988C176.069 59.9062 174.441 61.2104 173.375 63.0116C173.34 63.147 173.276 63.2736 173.188 63.383H173.126L172.996 63.6938C172.494 65.0596 172.244 66.054 172.244 66.8614C172.244 69.0964 172.932 71.0206 174.31 72.5734C174.622 73.0698 175.249 73.5664 176.188 74.2498C177.69 75.1192 179.068 75.5538 180.256 75.5538L181.697 75.4918H181.759C182.511 75.3628 183.199 75.243 183.826 74.9954V75.5538H185.828V67.7306H180.887V69.7166H183.83V72.759C182.827 73.3188 181.826 73.6282 180.762 73.6282L179.572 73.4426C178.709 73.2166 177.885 72.8608 177.131 72.3876L176.505 71.8898C175.754 71.2076 175.191 70.3422 174.752 69.4072C174.501 68.4748 174.314 67.7306 174.314 67.2328L174.377 66.5506C174.503 65.7432 174.878 64.7502 175.504 63.7558Z" fill="black"/>
<path d="M50.692 63.5894C50.1368 63.2218 49.644 62.8246 49.12 62.55C48.3442 62.136 47.4678 61.9436 46.5884 61.9942C45.2854 62.0444 44.046 62.5664 43.105 63.4618C42.3108 64.1692 41.7702 65.1134 41.5642 66.152C41.34 67.1156 41.3928 68.1222 41.7164 69.0576C42.04 69.9928 42.6218 70.8194 43.3952 71.4434C44.1688 72.0672 45.1032 72.4634 46.0924 72.587C47.0816 72.7106 48.0858 72.5566 48.9912 72.1426C49.1758 72.051 49.1758 71.9594 49.1758 71.7762V67.3488H52.3824V73.707C52.3844 73.7828 52.369 73.858 52.337 73.927C52.3048 73.9958 52.2572 74.0566 52.1978 74.1042C51.0626 75.0284 49.7018 75.6396 48.2526 75.8762C46.6076 76.1602 44.9148 75.9584 43.3844 75.2958C42.1206 74.78 41.0726 73.9506 40.1482 72.9422C39.8616 72.6006 39.5942 72.2438 39.3472 71.873C39.1314 72.3618 38.9154 72.8506 38.6684 73.3394C37.9598 74.562 36.8818 75.2648 35.5256 75.6324C35.142 75.7206 34.7492 75.7638 34.3554 75.7614H23.506V63.9866C23.506 63.0698 23.0744 62.4584 22.3032 62.2134C21.2254 61.8768 20.085 62.55 20.085 63.8332C20.0538 67.6854 20.085 71.5054 20.085 75.3578V75.755H16.755V63.9866C16.755 62.9162 15.9229 62.0612 14.845 62.1528C14.1662 62.2134 13.4576 62.8866 13.3965 63.5584C13.3653 63.9866 13.334 64.4444 13.334 64.8726V75.7846H10.008V75.4184C10.008 71.5054 9.97676 67.563 10.0379 63.65C10.0691 61.7852 10.9936 60.4104 12.6267 59.4624C13.3564 59.0402 14.1861 58.8176 15.0309 58.8176C16.2011 58.8176 17.2804 59.1542 18.1736 59.919C18.3895 60.1022 18.513 60.1022 18.7289 59.919C19.481 59.3066 20.4078 58.943 21.3788 58.8796C22.3372 58.7972 23.2994 58.9878 24.1522 59.429C25.1388 59.9272 25.9224 60.7468 26.3718 61.7504C26.3896 61.7658 26.4008 61.7876 26.403 61.811C26.7724 61.3828 27.1116 60.894 27.542 60.4658C28.266 59.7078 29.2388 59.2308 30.2856 59.1208C30.5718 59.0858 30.8594 59.0656 31.1476 59.0602H38.6984V62.3914H31.1788C30.2856 62.3914 29.5146 62.8814 29.33 63.7984C29.1764 64.5928 29.7004 65.5098 30.5314 65.7238C30.7324 65.7754 30.9404 65.7958 31.1476 65.7844H34.5388C35.6778 65.8154 36.696 66.152 37.558 66.8846C37.7426 67.038 37.8974 67.1606 38.0782 67.3128C38.3862 63.2168 40.4186 60.3742 44.426 59.1208C47.3542 58.2038 50.0666 58.9066 52.5006 60.7972C51.8436 61.6912 51.236 62.62 50.6802 63.5792M26.8334 72.3928C26.8958 72.4224 26.8958 72.4224 26.9258 72.4224H34.2306C34.5034 72.431 34.7742 72.375 35.0206 72.2586C35.267 72.1424 35.4818 71.9696 35.6472 71.7542C35.8126 71.539 35.9238 71.2876 35.9714 71.0212C36.019 70.7546 36.0018 70.4808 35.921 70.2222C35.7364 69.549 34.9964 69.0292 34.2306 69.0292H30.5898C29.809 69.0276 29.0468 68.7936 28.4016 68.3574C27.8164 67.9602 27.2924 67.501 26.7996 67.1038V72.3914L26.8334 72.3928Z" fill="black"/>
<path d="M180.527 21.7292H177.406C177.48 21.5822 177.553 21.4326 177.627 21.2856C178.137 20.2538 178.668 19.9249 179.838 19.9249H181.432L180.539 21.7304" fill="black"/>
<path d="M152.034 27.4719C151.541 28.3747 150.961 28.7139 149.894 28.7127H148.128L150.033 25.2111C150.515 24.3251 151.116 23.9795 152.17 23.9795H153.934L152.029 27.4719M81.2162 27.4719C80.7222 28.3747 80.1422 28.7139 79.0746 28.7127H77.3142C77.9512 27.5467 78.588 26.3801 79.2242 25.2125C79.708 24.3265 80.3074 23.9809 81.3632 23.9809H83.1264L81.2214 27.4733M113.689 24.8063C114.005 23.9035 114.729 23.8223 115.394 23.8223H118.964C118.883 24.0655 118.8 24.3085 118.717 24.5509C118.429 25.4047 117.773 25.4755 117.182 25.4755H113.456C113.533 25.2529 113.61 25.0297 113.689 24.8063ZM177.152 28.7037C178.111 26.7717 179.069 24.8393 180.026 22.9065H176.905L174.424 27.9105C174.146 28.4727 173.764 28.7037 173.107 28.7049H165.511C166.534 26.6415 167.558 24.5749 168.584 22.5055C169.017 21.6323 169.179 21.5705 170.192 21.5705H171.102C171.989 21.5705 172.403 21.3319 172.758 20.6239C172.899 20.3375 173.04 20.0513 173.181 19.7662H169.942C170.408 18.8291 170.873 17.891 171.336 16.9521H169.294C168.403 16.9521 167.986 17.1894 167.638 17.891L166.71 19.7662H165.009C164.712 20.3681 164.414 20.9699 164.116 21.5717H165.817C165.467 22.2759 163.022 27.2089 162.674 27.9143C162.394 28.4767 162.013 28.7063 161.358 28.7075H154.608L158.197 22.1301H155.719C155.142 22.1301 154.892 22.3197 154.532 22.7531C154.532 22.2797 154.359 22.1301 153.905 22.1301H152.178C149.358 22.1301 147.782 23.0045 146.557 25.2499C146.071 26.1441 145.584 27.0365 145.097 27.9273C144.791 28.4869 144.412 28.7153 143.784 28.7153H139.436C137.86 28.7153 137.243 28.4883 137.069 27.6603C136.882 26.7679 137.281 26.0431 139.389 24.6411L140.582 23.8467C141.139 23.4779 141.363 23.2857 141.289 22.8847C141.222 22.5261 141.006 22.1315 139.284 22.1315H131.104C130.238 22.1315 129.834 22.3623 129.444 23.0793L126.797 27.9337C126.494 28.4909 126.114 28.7179 125.485 28.7179H112.352L112.913 27.0657H119.477C120.769 27.0657 121.306 26.7305 121.772 25.6291L122.398 24.1511C122.556 23.7797 122.687 23.2483 122.42 22.8497C122.112 22.3817 121.319 22.1353 120.128 22.1353H113.835C111.822 22.1353 110.904 22.6977 110.194 24.3665C109.761 25.3981 109.325 26.4269 108.886 27.4527C108.44 28.5063 107.733 28.7179 106.734 28.7179H102.231L102.515 28.2909C103.405 26.9483 103.234 25.4537 102.045 24.1923C100.875 22.9529 99.3276 22.5157 97.9546 22.1289H94.4556L92.041 26.5499C91.0424 28.3915 89.9502 28.7203 88.0244 28.7203H83.7868L87.3768 22.1431H84.8894C84.3108 22.1431 84.0626 22.3327 83.701 22.7659C83.701 22.2927 83.5294 22.1431 83.0756 22.1431H81.3658C78.5454 22.1431 76.9696 23.0175 75.7448 25.2627L74.2846 27.9401C73.9764 28.5037 73.6084 28.7243 72.9712 28.7243H66.5142L71.9882 18.6829C72.062 18.5493 72.0996 18.3991 72.0972 18.2469C72.095 18.0946 72.053 17.9455 71.9754 17.8142C71.8976 17.6828 71.787 17.5737 71.6542 17.4975C71.5212 17.4212 71.3706 17.3804 71.2172 17.379H45.5734C43.8336 17.379 42.9728 17.8201 42.1484 19.2258H53.2358L47.0518 30.5453H50.2438L56.4228 19.2181H60.8632L54.6856 30.5439H57.8764C59.9352 26.7695 61.994 22.9947 64.0528 19.2194H68.4932C66.7942 22.3377 65.0952 25.4553 63.396 28.5721C63.1634 28.9989 62.937 29.5961 63.1828 30.0127C63.3896 30.3609 63.9084 30.5453 64.682 30.5453H73.0922C73.5044 30.5453 73.6824 30.4163 73.9386 30.1029C73.9386 30.4409 74.2234 30.5453 74.5458 30.5453H89.0088C91.8772 30.5453 93.4024 29.7045 94.6362 27.4501L96.5412 23.9485L96.7376 23.9861C99.0168 24.4207 100.172 25.2679 100.27 26.5769C100.293 26.8321 100.262 27.0893 100.179 27.3319C100.096 27.5745 99.962 27.7971 99.7866 27.9853C99.5552 28.2237 99.2766 28.4123 98.9682 28.5387C98.66 28.6653 98.3284 28.7271 97.9948 28.7203C96.5372 28.7203 95.9534 29.2931 95.3944 30.5491H107.638C108.051 30.5491 108.228 30.4201 108.484 30.1067C108.484 30.4447 108.769 30.5491 109.091 30.5491H127.203C128.425 30.5491 128.954 30.2255 129.564 29.1073L131.686 25.2189C132.17 24.3317 132.769 23.9861 133.826 23.9861H137.018C136.447 24.3803 135.911 24.8239 135.418 25.3117C134.812 25.9359 134.228 26.7963 134.118 27.9105C134.043 28.6843 134.233 29.3537 134.668 29.8321C135.102 30.3105 135.718 30.5491 136.475 30.5491H143.922C144.335 30.5491 144.512 30.4201 144.768 30.1067C144.768 30.4447 145.053 30.5491 145.375 30.5491H161.041C161.453 30.5491 161.631 30.4201 161.887 30.1067C161.887 30.4447 162.172 30.5491 162.495 30.5491H185.66C187.055 30.5491 187.764 30.0939 188.028 29.0273C188.054 28.9191 188.081 28.8093 188.107 28.7011H177.155" fill="black"/>
<path d="M18.8496 35.8201V34.5137H22.186H25.5212V35.8201H22.186H18.8496Z" fill="black"/>
<path d="M22.1826 38.5257H24.2864V36.4959H22.1826H20.08V38.5257H22.1826Z" fill="black"/>
<path d="M20.0836 33.8391C20.0772 32.7185 19.7872 31.6235 18.8926 30.8793H25.4798C24.5864 31.6235 24.2952 32.7185 24.29 33.8391H20.0836Z" fill="black"/>
<path d="M14.5098 28.723V27.7584H22.1826H29.8568V28.723H22.184H14.5098Z" fill="black"/>
<path d="M15.1957 32.2026C16.1339 31.9908 16.9983 31.535 17.7001 30.882H15.0332C15.0891 31.3218 15.1437 31.7628 15.1983 32.2026" fill="black"/>
<path d="M29.1704 32.2026C28.232 31.9914 27.3674 31.5354 26.666 30.882H29.3342L29.1704 32.2026Z" fill="black"/>
<path d="M14.2519 25.6445C13.4106 20.6471 11.7814 15.4458 10 12.023C11.9183 13.0676 13.9801 14.7249 16.1854 16.9947C15.2821 16.7496 14.3657 16.5545 13.4405 16.4105C14.6919 19.4319 15.7894 22.5139 16.7289 25.6445H14.2519Z" fill="black"/>
<path d="M30.1164 25.6445C30.9576 20.6471 32.5804 15.4458 34.3682 12.023C32.449 13.0676 30.3868 14.7249 28.1816 16.9947C29.0852 16.7495 30.002 16.5545 30.9276 16.4105C29.6762 19.4317 28.579 22.5137 27.6406 25.6445H30.1164Z" fill="black"/>
<path d="M13.6973 27.2565V26.2791H22.1842H30.6722V27.2565H22.1854H13.6973Z" fill="black"/>
<path d="M19.3245 11.4955C20.6338 9.23344 21.7586 6.66312 22.185 3.99994C22.6102 6.66312 23.735 9.23344 25.0456 11.4955C24.5788 11.284 24.0848 11.0609 23.536 10.8172C23.0628 10.6057 22.8612 10.7308 22.8768 11.2208C23.0342 16.0236 23.739 21.4853 26.238 25.6445H23.293C22.8458 24.5799 22.4752 23.4853 22.1838 22.3687C21.8928 23.4853 21.5226 24.5799 21.076 25.6445H18.1309C20.6312 21.4853 21.3348 16.0236 21.492 11.2208C21.509 10.7308 21.3074 10.6057 20.8328 10.8172C20.2854 11.0609 19.7926 11.284 19.3245 11.4955Z" fill="black"/>
<path d="M13.6973 30.2036V29.226H22.1842H30.6722V30.2036H22.1854H13.6973Z" fill="black"/>
<path d="M185.835 43.5775H10V45.5119H185.835V43.5775Z" fill="black"/>
</g>
</svg>
