<svg width="274" height="269" viewBox="0 0 274 269" fill="none" xmlns="http://www.w3.org/2000/svg">
<g filter="url(#filter0_df_196_25420)">
<path d="M271.14 -7.64971C270.897 -0.579828 269.165 6.14795 266.754 12.7434C260.927 28.6047 252.277 42.9209 242.306 56.4639C221.611 84.6027 196.956 108.564 167.175 127.072C153.77 135.405 139.569 142.003 124.309 146.185C113.927 149.035 103.346 150.462 92.5761 149.95C90.0021 149.832 87.2931 149.266 84.9384 148.23C79.1675 145.697 77.9551 139.719 81.9355 134.809C84.6561 131.442 88.4184 129.679 92.504 129.105C115.322 125.898 134.804 115.357 152.651 101.558C182.162 78.7364 205.713 50.6756 224.426 18.5125C226.408 15.1056 227.996 11.4544 229.552 7.83177C230.195 6.33909 230.29 4.62373 230.64 3.01632C230.335 2.72362 230.031 2.44267 229.738 2.14832C227.854 2.58093 225.919 2.8288 224.109 3.44286C211.58 7.75667 199.83 13.7708 188.241 20.0741C158.707 36.1507 130.822 54.6446 105.672 77.0569C93.8054 87.6182 82.8375 99.0241 73.6127 111.983C66.9139 121.386 61.3049 131.368 57.8538 142.436C54.7807 152.265 53.6006 162.235 55.7573 172.456C58.4608 185.284 65.5705 195.037 76.519 202.032C86.7155 208.545 98.0212 211.247 110.047 211.128C124.112 210.997 137.459 207.203 150.558 202.593C185.968 190.138 215.934 169.194 242.418 142.95C244.2 141.19 245.963 139.384 247.933 137.848C249.469 136.65 251.207 135.602 253.018 134.904C256.638 133.497 259.269 134.961 260.181 138.716C261.281 143.296 260.332 147.648 258.228 151.731C256.841 154.419 255.251 157.028 253.59 159.563C237.082 184.86 215.937 205.691 191.489 223.27C175.011 235.114 157.338 244.766 138.011 251.198C119.75 257.276 101.12 260.637 81.907 257.285C47.7004 251.305 25.531 231.276 15.0491 198.469C7.57513 175.104 10.1213 152.129 19.3732 129.71C25.8203 114.073 35.0408 100.144 45.841 87.2036C62.0026 67.8164 80.8689 51.3572 101.321 36.7006C132.704 14.2154 166.366 -4.01163 202.707 -17.1856C216.267 -22.1117 230.048 -26.2299 244.491 -27.5166C248.013 -27.8318 251.656 -27.8764 255.129 -27.3456C265.496 -25.7702 271.506 -18.1169 271.14 -7.64971Z" fill="#B1BDC5"/>
</g>
<defs>
<filter id="filter0_df_196_25420" x="0.677734" y="-37.7501" width="280.479" height="306.361" filterUnits="userSpaceOnUse" color-interpolation-filters="sRGB">
<feFlood flood-opacity="0" result="BackgroundImageFix"/>
<feColorMatrix in="SourceAlpha" type="matrix" values="0 0 0 0 0 0 0 0 0 0 0 0 0 0 0 0 0 0 127 0" result="hardAlpha"/>
<feOffset dy="4"/>
<feGaussianBlur stdDeviation="2"/>
<feComposite in2="hardAlpha" operator="out"/>
<feColorMatrix type="matrix" values="0 0 0 0 0 0 0 0 0 0 0 0 0 0 0 0 0 0 0.25 0"/>
<feBlend mode="normal" in2="BackgroundImageFix" result="effect1_dropShadow_196_25420"/>
<feBlend mode="normal" in="SourceGraphic" in2="effect1_dropShadow_196_25420" result="shape"/>
<feGaussianBlur stdDeviation="5" result="effect2_foregroundBlur_196_25420"/>
</filter>
</defs>
</svg>
