<?xml version="1.0" encoding="UTF-8"?>
<svg id="Layer_1" data-name="Layer 1" xmlns="http://www.w3.org/2000/svg" xmlns:xlink="http://www.w3.org/1999/xlink" viewBox="0 0 100 40">
  <defs>
    <style>
      .cls-1 {
        fill: url(#linear-gradient);
      }

      .cls-2 {
        fill: url(#linear-gradient-8);
      }

      .cls-3 {
        fill: url(#linear-gradient-9);
      }

      .cls-4 {
        fill: url(#linear-gradient-3);
      }

      .cls-5 {
        fill: url(#linear-gradient-4);
      }

      .cls-6 {
        fill: url(#linear-gradient-2);
      }

      .cls-7 {
        fill: url(#linear-gradient-6);
      }

      .cls-8 {
        fill: url(#linear-gradient-7);
      }

      .cls-9 {
        fill: url(#linear-gradient-5);
      }
    </style>
    <linearGradient id="linear-gradient" x1="63.44" y1="15.13" x2="56.13" y2="13.19" gradientTransform="translate(0 42) scale(1 -1)" gradientUnits="userSpaceOnUse">
      <stop offset="0" stop-color="#ee3984"/>
      <stop offset="1" stop-color="#7800da"/>
    </linearGradient>
    <linearGradient id="linear-gradient-2" x1="37.28" y1="13.35" x2="44.76" y2="15.72" xlink:href="#linear-gradient"/>
    <linearGradient id="linear-gradient-3" x1="48.58" y1="14.7" x2="53.62" y2="22.93" xlink:href="#linear-gradient"/>
    <linearGradient id="linear-gradient-4" x1="47.36" y1="22.54" x2="50.03" y2="13.12" gradientTransform="translate(0 42) scale(1 -1)" gradientUnits="userSpaceOnUse">
      <stop offset="0" stop-color="red"/>
      <stop offset="1" stop-color="#ee3984"/>
      <stop offset="1" stop-color="#ee3984"/>
    </linearGradient>
    <linearGradient id="linear-gradient-5" x1="41.9" y1="22.51" x2="53.69" y2="22.51" gradientTransform="translate(0 42) scale(1 -1)" gradientUnits="userSpaceOnUse">
      <stop offset="0" stop-color="#ffc708"/>
      <stop offset="1" stop-color="#fa3b00"/>
    </linearGradient>
    <linearGradient id="linear-gradient-6" x1="56.73" y1="19.02" x2="64.87" y2="19.02" gradientTransform="translate(0 42) scale(1 -1)" gradientUnits="userSpaceOnUse">
      <stop offset="0" stop-color="red"/>
      <stop offset="1" stop-color="#ee3984"/>
    </linearGradient>
    <linearGradient id="linear-gradient-7" x1="57.62" y1="23.56" x2="64.47" y2="23.56" gradientTransform="translate(0 42) scale(1 -1)" gradientUnits="userSpaceOnUse">
      <stop offset="0" stop-color="#ffc708"/>
      <stop offset="1" stop-color="#f05731"/>
    </linearGradient>
    <linearGradient id="linear-gradient-8" x1="36.43" y1="29.44" x2="36.43" y2="24.1" xlink:href="#linear-gradient-7"/>
    <linearGradient id="linear-gradient-9" x1="39.37" y1="25.34" x2="37.97" y2="15.24" gradientTransform="translate(0 42) scale(1 -1)" gradientUnits="userSpaceOnUse">
      <stop offset="0" stop-color="#f80000"/>
      <stop offset="1" stop-color="#ee3984"/>
    </linearGradient>
  </defs>
  <g>
    <g>
      <path d="m31.35,0h-2.08l-4.92,5.67h1.22l1.04-1.21h6.25l1.04,1.21h2.36L31.35,0Zm-4.11,3.73l2.49-2.9,2.5,2.9h-4.99Z"/>
      <path d="m21.2,2.59c0,.76-.16,1.27-.53,1.63-.48.48-1.28.68-2.47.68h-3.86v.76h4.19c1.99,0,3.39-.27,4.12-1.03.42-.43.62-.98.62-1.87V0h-2.08v2.59Z"/>
      <path d="m49.88,0v2.82c0,.73.08,1.31.45,1.79.6.78,1.7,1.24,4.75,1.24h.03c3.07,0,4.16-.45,4.76-1.24.37-.48.45-1.06.45-1.79V0h-2.11v2.75c0,.71-.09,1.17-.36,1.55-.46.64-1.18.88-2.66.88h-.18c-1.42,0-2.2-.23-2.66-.88-.27-.38-.36-.81-.36-1.55V0h-2.11Z"/>
      <path d="m39.85,1.31c.47-.38,1.08-.55,2.21-.55h5.27v-.76h-5.93c-1.43,0-2.3.16-3.06.59-.72.4-1.28,1.15-1.28,2.23,0,1.14.52,1.98,1.65,2.44.68.27,1.58.41,2.73.41h6.1v-2.6h-2.1v1.84h-3.37c-1.09,0-1.72-.16-2.19-.52-.45-.34-.68-.86-.68-1.56,0-.68.22-1.19.64-1.52Z"/>
      <path d="m82.33,3.66c.79-.03,1.46-.15,1.98-.42.54-.29.8-.84.8-1.4,0-.76-.34-1.24-.96-1.51C83.61.08,82.93,0,81.58,0h-6.54v5.67h2.11v-1.96h2.77l3.16,1.96h2.57l-3.32-2Zm-5.18-.68V.72h4.16c.79,0,1.14.07,1.38.25.23.17.31.43.31.84v.11c0,.37-.09.66-.36.85-.27.18-.64.22-1.31.22h-4.18Z"/>
      <path d="m68.25,0h-2.08l-4.91,5.67h1.22l1.03-1.21h6.25l1.04,1.21h2.37L68.25,0Zm-4.11,3.73l2.49-2.9,2.5,2.9h-4.99Z"/>
    </g>
    <g>
      <path d="m39.82,37.42h-.93l-2.2,2.53h.55l.46-.54h2.79l.47.54h1.06l-2.2-2.53Zm-1.83,1.66l1.11-1.3,1.12,1.3h-2.23Z"/>
      <polygon points="52.93 38.93 52.93 39.95 53.72 39.95 53.72 38.87 53.72 38.5 53.72 37.42 52.93 37.42 52.93 38.44 52.93 38.93"/>
      <path d="m48.39,39.61h-1.5c-.49,0-.77-.07-.98-.23-.2-.15-.3-.38-.3-.7,0-.3.1-.53.29-.68.21-.17.48-.25.99-.25h2.35v-.34h-2.65c-.64,0-1.03.07-1.37.26-.32.18-.57.51-.57,1,0,.51.23.88.74,1.09.3.12.71.18,1.22.18h2.63v-.34"/>
      <path d="m67.45,38c.21-.17.48-.25.99-.25h2.35v-.34h-2.65c-.64,0-1.03.07-1.37.26-.32.18-.57.51-.57,1,0,.51.23.88.74,1.09.3.12.71.18,1.22.18h2.73v-1.16h-.94v.82h-1.5c-.49,0-.77-.07-.98-.23-.2-.15-.3-.38-.3-.7,0-.3.1-.53.29-.68Z"/>
      <path d="m32.36,39.11c.35-.01.65-.07.89-.19.24-.13.36-.37.36-.63,0-.34-.15-.55-.43-.68-.24-.11-.55-.14-1.15-.14h-2.92v2.53h.94v-.88h1.24l1.41.88h1.15l-1.48-.89Zm-2.31-.3v-1.02h1.86c.35,0,.51.03.62.11.1.08.14.19.14.38v.05c0,.16-.04.3-.16.38-.12.08-.28.1-.59.1h-1.87Z"/>
      <g>
        <path d="m62.05,39.59l-3.1-2.2v.59s.72.49.72.49l.4.28,1.69,1.22.29-.38Z"/>
        <polygon points="61.76 38.93 61.76 39.97 62.49 39.97 62.49 38.87 62.49 38.49 62.49 37.39 61.76 37.39 61.76 38.43 61.76 38.93"/>
        <polyline points="57.96 39.97 58.96 39.97 58.96 39 58.95 37.39 57.96 37.39"/>
      </g>
    </g>
  </g>
  <g>
    <path class="cls-1" d="m56.25,28.75c0,.43.22.78.78,1.05.78.38,2.05.7,3.18.7,1.43,0,2.62-.43,3.45-1.19.27-.24.5-.57.54-1,.11-.98-.93-2.62-3.08-3.83.99.64,1.29,1.19,1.29,1.97,0,1.16-.92,1.94-2.24,1.94s-2.35-.65-2.94-.65-1,.4-1,1Z"/>
    <path class="cls-6" d="m41.5,30.18c1.08-.4,1.91-1.16,2.45-2.26l-1.21-2.18c-.54,1.62-1.48,2.48-2.78,2.48s-2.24-.78-2.24-2.56l-.03,1.02c-.24,2.17,1.06,4.11,3.8,3.51Z"/>
    <path class="cls-4" d="m44.49,23.14c0,4.83,1.94,7.52,8.09,6.61,1.97-1.02,3.37-3.1,4.34-6.28l.57-1.87c-.54-.7-.53-1.49-.53-2.33,0-.89.1-1.68.64-2.27-.81.86-1.48,2.13-2.02,3.91l-.62,2.05c-1.11,3.61-2.86,5.34-5.58,5.34-2.99,0-4.88-2.08-4.88-5.15Z"/>
    <path class="cls-5" d="m52.58,29.75c-6.15.92-8.09-2.37-8.09-6.6,0-3.07,1.89-5.18,4.61-5.18.89,0,1.78.19,2.59.57.35.16.65.22.92.22.65,0,1.08-.43,1.08-1.08,0-.4-.24-.81-.81-1.08-1.02-.51-2.35-.81-3.77-.81-4.26,0-7.2,3.02-7.2,7.41s2.83,7.31,7.39,7.31c1.24,0,2.32-.24,3.29-.75Z"/>
    <path class="cls-9" d="m41.9,23.2c0-4.39,2.94-7.41,7.2-7.41,1.43,0,2.75.3,3.77.81.57.27.81.67.81,1.08,0,.65-.43,1.08-1.08,1.08-.27,0-.57-.05-.92-.22-.81-.38-1.69-.57-2.59-.57-3.75,0-7.2,2.37-7.2,5.23Z"/>
    <path class="cls-7" d="m58,16.65c-.24.23-.38.55-.38.89,0,.89.84,2.21,2.78,3.56l2.21,1.54c1.62,1.13,2.26,2.21,2.26,3.83,0,1.16-.46,2.16-1.21,2.86.27-.24.43-.57.43-1,0-.94-.94-2.43-2.97-3.83l-2.02-1.4c-1.7-1.19-2.37-2.29-2.37-3.8,0-.89.32-1.7.86-2.29.13-.12.26-.24.41-.35Z"/>
    <path class="cls-8" d="m60.4,21.1c-.86-.62-1.24-1.19-1.24-1.86,0-.86.7-1.4,1.7-1.4,1.27,0,1.86.59,2.62.59.59,0,1-.4,1-1,0-.43-.22-.78-.78-1.05-.89-.43-1.86-.59-2.91-.59-1.11,0-2.08.32-2.78.86-.24.23-.38.55-.38.89,0,.89.84,2.21,2.78,3.56Z"/>
    <path class="cls-2" d="m35.14,18.53c0-1.62,1.05-2.58,2.59-2.58v-2.76c0-.81-.54-1.35-1.29-1.35s-1.29.54-1.29,1.35v5.34Z"/>
    <path class="cls-3" d="m39.72,30.48c.61,0,1.21-.1,1.78-.3-2.72.46-3.75-1.42-3.77-3.51v-8.63h3.15c.73,0,1.21-.43,1.21-1.05s-.48-1.05-1.21-1.05h-3.15c-1.54,0-2.59.97-2.59,2.59v7.41c0,2.97,1.7,4.53,4.58,4.53Z"/>
  </g>
</svg>