<svg width="200" height="81" viewBox="0 0 200 81" fill="none" xmlns="http://www.w3.org/2000/svg">
<g clip-path="url(#clip0_409_4121)">
<path d="M62.7 0.666504H58.54L48.7 12.0065H51.14L53.22 9.5865H65.72L67.8 12.0065H72.52L62.7 0.666504ZM54.48 8.1265L59.46 2.3265L64.46 8.1265H54.48Z" fill="white"/>
<path d="M42.4 5.8465C42.4 7.3665 42.08 8.3865 41.34 9.1065C40.38 10.0665 38.78 10.4665 36.4 10.4665H28.68V11.9865H37.06C41.04 11.9865 43.84 11.4465 45.3 9.9265C46.14 9.0665 46.54 7.9665 46.54 6.1865V0.666504H42.38V5.8465H42.4Z" fill="white"/>
<path d="M99.76 0.666504V6.3065C99.76 7.7665 99.92 8.9265 100.66 9.8865C101.86 11.4465 104.06 12.3665 110.16 12.3665H110.22C116.36 12.3665 118.54 11.4665 119.74 9.8865C120.48 8.9265 120.64 7.7665 120.64 6.3065V0.666504H116.42V6.1665C116.42 7.5865 116.24 8.5065 115.7 9.2665C114.78 10.5465 113.34 11.0265 110.38 11.0265H110.02C107.18 11.0265 105.62 10.5665 104.7 9.2665C104.16 8.5065 103.98 7.6465 103.98 6.1665V0.666504H99.76Z" fill="white"/>
<path d="M79.7 3.2865C80.64 2.5265 81.86 2.1865 84.12 2.1865H94.66V0.666504H82.8C79.94 0.666504 78.2 0.986504 76.68 1.8465C75.24 2.6465 74.12 4.1465 74.12 6.3065C74.12 8.5865 75.16 10.2665 77.42 11.1865C78.78 11.7265 80.58 12.0065 82.88 12.0065H95.08V6.8065H90.88V10.4865H84.14C81.96 10.4865 80.7 10.1665 79.76 9.4465C78.86 8.7665 78.4 7.7265 78.4 6.3265C78.4 4.9665 78.84 3.9465 79.68 3.2865H79.7Z" fill="white"/>
<path d="M164.66 7.9865C166.24 7.9265 167.58 7.6865 168.62 7.1465C169.7 6.5665 170.22 5.4665 170.22 4.3465C170.22 2.8265 169.54 1.8665 168.3 1.3265C167.22 0.826504 165.86 0.666504 163.16 0.666504H150.08V12.0065H154.3V8.0865H159.84L166.16 12.0065H171.3L164.66 8.0065V7.9865ZM154.3 6.6265V2.1065H162.62C164.2 2.1065 164.9 2.2465 165.38 2.6065C165.84 2.9465 166 3.4665 166 4.2865V4.5065C166 5.2465 165.82 5.8265 165.28 6.2065C164.74 6.5665 164 6.6465 162.66 6.6465H154.3V6.6265Z" fill="white"/>
<path d="M136.5 0.666504H132.34L122.52 12.0065H124.96L127.02 9.5865H139.52L141.6 12.0065H146.34L136.5 0.666504ZM128.28 8.1265L133.26 2.3265L138.26 8.1265H128.28Z" fill="white"/>
<path d="M79.64 75.5065H77.78L73.38 80.5665H74.48L75.4 79.4865H80.98L81.92 80.5665H84.04L79.64 75.5065ZM75.98 78.8265L78.2 76.2265L80.44 78.8265H75.98Z" fill="white"/>
<path d="M105.86 78.5265V80.5665H107.44V78.4065V77.6665V75.5065H105.86V77.5465V78.5265Z" fill="white"/>
<path d="M96.78 79.8865H93.78C92.8 79.8865 92.24 79.7465 91.82 79.4265C91.42 79.1265 91.22 78.6665 91.22 78.0265C91.22 77.4265 91.42 76.9665 91.8 76.6665C92.22 76.3265 92.76 76.1665 93.78 76.1665H98.48V75.4865H93.18C91.9 75.4865 91.12 75.6265 90.44 76.0065C89.8 76.3665 89.3 77.0265 89.3 78.0065C89.3 79.0265 89.76 79.7665 90.78 80.1865C91.38 80.4265 92.2 80.5465 93.22 80.5465H98.48V79.8665" fill="white"/>
<path d="M134.9 76.6665C135.32 76.3265 135.86 76.1665 136.88 76.1665H141.58V75.4865H136.28C135 75.4865 134.22 75.6265 133.54 76.0065C132.9 76.3665 132.4 77.0265 132.4 78.0065C132.4 79.0265 132.86 79.7665 133.88 80.1865C134.48 80.4265 135.3 80.5465 136.32 80.5465H141.78V78.2265H139.9V79.8665H136.9C135.92 79.8665 135.36 79.7265 134.94 79.4065C134.54 79.1065 134.34 78.6465 134.34 78.0065C134.34 77.4065 134.54 76.9465 134.92 76.6465L134.9 76.6665Z" fill="white"/>
<path d="M64.72 78.8866C65.42 78.8666 66.02 78.7466 66.5 78.5066C66.98 78.2466 67.22 77.7666 67.22 77.2466C67.22 76.5666 66.92 76.1466 66.36 75.8866C65.88 75.6666 65.26 75.6066 64.06 75.6066H58.22V80.6666H60.1V78.9066H62.58L65.4 80.6666H67.7L64.74 78.8866H64.72ZM60.1 78.2866V76.2466H63.82C64.52 76.2466 64.84 76.3066 65.06 76.4666C65.26 76.6266 65.34 76.8466 65.34 77.2266V77.3266C65.34 77.6466 65.26 77.9266 65.02 78.0866C64.78 78.2466 64.46 78.2866 63.84 78.2866H60.1Z" fill="white"/>
<path d="M124.1 79.8465L117.9 75.4465V76.6265L119.34 77.6065L120.14 78.1665L123.52 80.6065L124.1 79.8465Z" fill="white"/>
<path d="M123.52 78.5265V80.6065H124.98V78.4065V77.6465V75.4465H123.52V77.5265V78.5265Z" fill="white"/>
<path d="M115.92 80.6065H117.92V78.6665L117.9 75.4465H115.92" fill="white"/>
<path d="M112.5 58.1665C112.5 59.0265 112.94 59.7265 114.06 60.2665C115.62 61.0265 118.16 61.6665 120.42 61.6665C123.28 61.6665 125.66 60.8065 127.32 59.2865C127.86 58.8065 128.32 58.1465 128.4 57.2865C128.62 55.3265 126.54 52.0465 122.24 49.6265C124.22 50.9065 124.82 52.0065 124.82 53.5665C124.82 55.8865 122.98 57.4465 120.34 57.4465C117.7 57.4465 115.64 56.1465 114.46 56.1465C113.28 56.1465 112.46 56.9465 112.46 58.1465L112.5 58.1665Z" fill="url(#paint0_linear_409_4121)"/>
<path d="M83 61.0265C85.16 60.2265 86.82 58.7065 87.9 56.5065L85.48 52.1465C84.4 55.3865 82.52 57.1065 79.92 57.1065C77.32 57.1065 75.44 55.5465 75.44 51.9865L75.38 54.0265C74.9 58.3665 77.5 62.2465 82.98 61.0465L83 61.0265Z" fill="url(#paint1_linear_409_4121)"/>
<path d="M88.98 46.9465C88.98 56.6065 92.86 61.9865 105.16 60.1665C109.1 58.1265 111.9 53.9665 113.84 47.6065L114.98 43.8665C113.9 42.4665 113.92 40.8865 113.92 39.2065C113.92 37.4265 114.12 35.8465 115.2 34.6665C113.58 36.3865 112.24 38.9265 111.16 42.4865L109.92 46.5865C107.7 53.8065 104.2 57.2665 98.76 57.2665C92.78 57.2665 89 53.1065 89 46.9665L88.98 46.9465Z" fill="url(#paint2_linear_409_4121)"/>
<path d="M105.16 60.1665C92.86 62.0065 88.98 55.4265 88.98 46.9665C88.98 40.8265 92.76 36.6065 98.2 36.6065C99.98 36.6065 101.76 36.9865 103.38 37.7465C104.08 38.0665 104.68 38.1865 105.22 38.1865C106.52 38.1865 107.38 37.3265 107.38 36.0265C107.38 35.2265 106.9 34.4065 105.76 33.8665C103.72 32.8465 101.06 32.2465 98.22 32.2465C89.7 32.2465 83.82 38.2865 83.82 47.0665C83.82 55.8465 89.48 61.6865 98.6 61.6865C101.08 61.6865 103.24 61.2065 105.18 60.1865L105.16 60.1665Z" fill="url(#paint3_linear_409_4121)"/>
<path d="M83.8 47.0665C83.8 38.2865 89.68 32.2465 98.2 32.2465C101.06 32.2465 103.7 32.8465 105.74 33.8665C106.88 34.4065 107.36 35.2065 107.36 36.0265C107.36 37.3265 106.5 38.1865 105.2 38.1865C104.66 38.1865 104.06 38.0865 103.36 37.7465C101.74 36.9865 99.98 36.6065 98.18 36.6065C90.68 36.6065 83.78 41.3465 83.78 47.0665H83.8Z" fill="url(#paint4_linear_409_4121)"/>
<path d="M116 33.9665C115.52 34.4265 115.24 35.0665 115.24 35.7465C115.24 37.5265 116.92 40.1665 120.8 42.8665L125.22 45.9465C128.46 48.2065 129.74 50.3665 129.74 53.6065C129.74 55.9265 128.82 57.9265 127.32 59.3265C127.86 58.8465 128.18 58.1865 128.18 57.3265C128.18 55.4465 126.3 52.4665 122.24 49.6665L118.2 46.8665C114.8 44.4865 113.46 42.2865 113.46 39.2665C113.46 37.4865 114.1 35.8665 115.18 34.6865C115.44 34.4465 115.7 34.2065 116 33.9865V33.9665Z" fill="url(#paint5_linear_409_4121)"/>
<path d="M120.8 42.8665C119.08 41.6265 118.32 40.4865 118.32 39.1465C118.32 37.4265 119.72 36.3465 121.72 36.3465C124.26 36.3465 125.44 37.5265 126.96 37.5265C128.14 37.5265 128.96 36.7265 128.96 35.5265C128.96 34.6665 128.52 33.9665 127.4 33.4265C125.62 32.5665 123.68 32.2465 121.58 32.2465C119.36 32.2465 117.42 32.8865 116.02 33.9665C115.54 34.4265 115.26 35.0665 115.26 35.7465C115.26 37.5265 116.94 40.1665 120.82 42.8665H120.8Z" fill="url(#paint6_linear_409_4121)"/>
<path d="M70.28 37.7265C70.28 34.4865 72.38 32.5665 75.46 32.5665V27.0465C75.46 25.4265 74.38 24.3465 72.88 24.3465C71.38 24.3465 70.3 25.4265 70.3 27.0465V37.7265H70.28Z" fill="url(#paint7_linear_409_4121)"/>
<path d="M79.44 61.6265C80.66 61.6265 81.86 61.4265 83 61.0265C77.56 61.9465 75.5 58.1865 75.46 54.0065V36.7465H81.76C83.22 36.7465 84.18 35.8865 84.18 34.6465C84.18 33.4065 83.22 32.5465 81.76 32.5465H75.46C72.38 32.5465 70.28 34.4865 70.28 37.7265V52.5465C70.28 58.4865 73.68 61.6065 79.44 61.6065V61.6265Z" fill="url(#paint8_linear_409_4121)"/>
</g>
<defs>
<linearGradient id="paint0_linear_409_4121" x1="126.88" y1="54.4065" x2="112.26" y2="58.2865" gradientUnits="userSpaceOnUse">
<stop stop-color="#EE3984"/>
<stop offset="1" stop-color="#7800DA"/>
</linearGradient>
<linearGradient id="paint1_linear_409_4121" x1="74.56" y1="57.9665" x2="89.52" y2="53.2265" gradientUnits="userSpaceOnUse">
<stop stop-color="#EE3984"/>
<stop offset="1" stop-color="#7800DA"/>
</linearGradient>
<linearGradient id="paint2_linear_409_4121" x1="97.16" y1="55.2665" x2="107.24" y2="38.8065" gradientUnits="userSpaceOnUse">
<stop stop-color="#EE3984"/>
<stop offset="1" stop-color="#7800DA"/>
</linearGradient>
<linearGradient id="paint3_linear_409_4121" x1="94.72" y1="39.5865" x2="100.06" y2="58.4265" gradientUnits="userSpaceOnUse">
<stop stop-color="#FF0000"/>
<stop offset="1" stop-color="#EE3984"/>
</linearGradient>
<linearGradient id="paint4_linear_409_4121" x1="83.8" y1="39.6465" x2="107.38" y2="39.6465" gradientUnits="userSpaceOnUse">
<stop stop-color="#FFC708"/>
<stop offset="1" stop-color="#FA3B00"/>
</linearGradient>
<linearGradient id="paint5_linear_409_4121" x1="113.46" y1="46.6265" x2="129.74" y2="46.6265" gradientUnits="userSpaceOnUse">
<stop stop-color="#FF0000"/>
<stop offset="1" stop-color="#EE3984"/>
</linearGradient>
<linearGradient id="paint6_linear_409_4121" x1="115.24" y1="37.5465" x2="128.94" y2="37.5465" gradientUnits="userSpaceOnUse">
<stop stop-color="#FFC708"/>
<stop offset="1" stop-color="#F05731"/>
</linearGradient>
<linearGradient id="paint7_linear_409_4121" x1="72.86" y1="25.7865" x2="72.86" y2="36.4665" gradientUnits="userSpaceOnUse">
<stop stop-color="#FFC708"/>
<stop offset="1" stop-color="#F05731"/>
</linearGradient>
<linearGradient id="paint8_linear_409_4121" x1="78.74" y1="33.9865" x2="75.94" y2="54.1865" gradientUnits="userSpaceOnUse">
<stop stop-color="#F80000"/>
<stop offset="1" stop-color="#EE3984"/>
</linearGradient>
<clipPath id="clip0_409_4121">
<rect width="200" height="80" fill="white" transform="translate(0 0.666504)"/>
</clipPath>
</defs>
</svg>
