<svg width="200" height="81" viewBox="0 0 200 81" fill="none" xmlns="http://www.w3.org/2000/svg">
<g clip-path="url(#clip0_409_4161)">
<mask id="mask0_409_4161" style="mask-type:luminance" maskUnits="userSpaceOnUse" x="0" y="0" width="200" height="81">
<path d="M0 0.666504H200V80.6665H0V0.666504Z" fill="white"/>
</mask>
<g mask="url(#mask0_409_4161)">
<mask id="mask1_409_4161" style="mask-type:luminance" maskUnits="userSpaceOnUse" x="18" y="-12" width="166" height="105">
<path d="M18 -11.3335H184V92.6665H18V-11.3335Z" fill="white"/>
</mask>
<g mask="url(#mask1_409_4161)">
<path d="M38.64 25.5381H38.4758C36.0132 25.6665 33.2772 26.6665 32.5566 25.1343C32.9032 26.1803 33.7514 28.8041 34.472 31.1803C35.1924 33.5565 35.7032 35.7675 36.3872 36.3087C38.4848 37.8409 42.7076 36.4189 45.2066 38.2445C47.7056 40.0701 47.0306 45.8683 49.2104 46.1253C51.3902 46.3821 51.226 43.0701 51.9466 40.4647C52.7008 37.5571 53.934 34.7973 55.5948 32.2995C54.5428 30.9127 53.2882 29.6939 51.8736 28.6849C50.5042 27.7321 48.9882 27.0131 47.3864 26.5565C44.5486 25.7249 41.5916 25.3805 38.64 25.5381Z" fill="#036291"/>
<path d="M51.9728 40.4097V40.5657C51.3344 42.9417 51.4438 45.8591 49.7382 46.0701H56.0588C58.512 46.0701 60.8104 46.3271 61.531 45.8317C63.6378 44.2903 63.6012 39.8133 66.0912 37.9877C68.581 36.1619 73.8616 38.5931 74.7828 36.5931C75.704 34.5931 72.521 33.7123 70.2864 32.2079C67.7648 30.5813 65.538 28.5335 63.7016 26.1527C62.069 26.7367 60.532 27.5623 59.1414 28.6023C57.8132 29.6275 56.6636 30.8677 55.7394 32.2721C54.037 34.7517 52.7636 37.5031 51.9728 40.4097Z" fill="#FDE8D2"/>
<path d="M70.1586 32.2537L70.2954 32.3363C72.3474 33.6757 75.1292 34.4739 74.8556 36.1803C75.193 35.1253 76.0412 32.5105 76.8348 30.1527C77.6282 27.7949 78.5494 25.6849 78.2848 24.8775C77.4822 22.3913 73.2322 21.0427 72.2836 18.0886C71.3716 15.3363 75.2568 10.8409 73.6426 9.34544C72.0282 7.85002 70.2134 10.639 68.0974 12.2904C65.777 14.1947 63.1528 15.6899 60.336 16.7124C60.3844 18.458 60.6918 20.1866 61.248 21.8409C61.795 23.4241 62.6026 24.9033 63.6376 26.2169C65.4594 28.5827 67.6638 30.6235 70.1586 32.2537Z" fill="#C0DEC1"/>
<path d="M48.5898 8.1803C48.5648 8.13314 48.5434 8.08406 48.526 8.03352C47.6596 5.73994 45.872 3.44636 47.1032 2.23535C46.1912 2.8959 43.984 4.52892 41.9684 5.90508C39.9528 7.28122 37.9828 8.51058 37.7182 9.31792C36.9158 11.8042 39.5424 15.4097 38.6304 18.3546C37.7182 21.1069 31.9906 22.4647 32.4194 24.6207C32.848 26.7767 35.9308 25.6115 38.6212 25.5381C41.6082 25.3651 44.6026 25.7033 47.4772 26.5381C48.4472 25.1003 49.1944 23.5227 49.6934 21.8593C50.191 20.2478 50.416 18.5639 50.3592 16.8776C50.2522 13.8999 49.6544 10.9608 48.5898 8.1803Z" fill="#FACEB2"/>
<path d="M68.0614 12.3362L68.1892 12.2262C70.0952 10.6849 71.7186 8.27202 73.2326 9.07936C72.3206 8.42798 70.1044 6.79496 68.1436 5.30872C66.1826 3.82248 64.4954 2.29955 63.5834 2.29955C60.984 2.29955 58.3938 5.96928 55.3112 5.96928C52.3834 5.96928 49.3738 0.886708 47.4676 1.9601C45.5614 3.0335 47.6136 5.62982 48.5438 8.16194C49.6398 10.9673 50.2564 13.9388 50.3678 16.9509C52.0308 17.4485 53.7588 17.6898 55.4936 17.6665C57.1566 17.6371 58.8028 17.327 60.3638 16.7491C63.1576 15.723 65.7598 14.2312 68.0614 12.3362Z" fill="#17162B"/>
<path d="M50.35 16.7032C50.3454 16.7735 50.3454 16.844 50.35 16.9143V17.4739C50.044 17.6093 49.7792 17.8235 49.5822 18.095C49.385 18.3664 49.2628 18.6854 49.2276 19.0196C49.1924 19.3539 49.2456 19.6915 49.3818 19.9985C49.518 20.3054 49.7324 20.5707 50.0034 20.7675C49.9486 21.0243 49.894 21.2629 49.821 21.5105C49.4254 21.2777 49.0964 20.9457 48.8664 20.547C48.6362 20.1483 48.5126 19.6964 48.5076 19.2354C48.5054 18.6707 48.683 18.1201 49.0146 17.6644C49.3462 17.2087 49.8142 16.8719 50.35 16.7032ZM47.0028 19.2445V19.639L47.1304 19.6941C47.223 19.7307 47.3116 19.7768 47.395 19.8317L47.5318 19.9051L47.623 19.9601L47.7688 20.0519C47.6954 19.7797 47.6586 19.499 47.6594 19.217C47.6576 18.446 47.9114 17.6964 48.3804 17.0866C48.8496 16.4769 49.5072 16.0418 50.2496 15.85C50.2496 15.6023 50.204 15.3638 50.1858 15.1253C49.2698 15.3476 48.456 15.8763 47.8776 16.6246C47.2994 17.373 46.991 18.2967 47.0028 19.2445ZM45.4888 19.0886C45.7258 19.1528 45.963 19.217 46.2002 19.2996C46.1932 18.1485 46.583 17.0305 47.3028 16.1357C48.0228 15.2409 49.0286 14.6245 50.1492 14.3913C50.1492 14.1528 50.0854 13.9143 50.049 13.6849C48.7952 13.9381 47.6632 14.6092 46.8356 15.5898C46.008 16.5704 45.5336 17.8031 45.4888 19.0886ZM43.9748 18.8684H44.2484C44.3944 18.8684 44.5494 18.8684 44.6862 18.9234C44.7516 17.4655 45.3026 16.0721 46.2504 14.9672C47.1982 13.8623 48.488 13.1101 49.9122 12.8317C49.8666 12.584 49.821 12.3546 49.7662 12.1253C48.1916 12.4384 46.7662 13.2723 45.7168 14.4941C44.6674 15.716 44.0542 17.2557 43.9748 18.8684ZM43.8106 5.10692C45.4418 5.17364 46.9854 5.86636 48.1246 7.0427C47.8874 6.52894 47.632 6.02434 47.404 5.5381C46.4 4.88576 45.249 4.49772 44.0568 4.40966L43.8654 4.54728V4.63902C43.8654 4.66654 43.8288 4.95094 43.8106 5.1436V5.10692ZM43.154 19.6299H42.9442C42.776 19.6211 42.6086 19.6027 42.4426 19.5748C42.3822 20.9753 41.8736 22.3185 40.9928 23.4047C40.1118 24.4907 38.9058 25.2617 37.554 25.6023C37.9006 25.6023 38.2564 25.5289 38.6028 25.5197C38.9494 25.5105 39.296 25.5197 39.6608 25.5197C40.6824 24.9057 41.5362 24.0461 42.146 23.0181C42.7556 21.9899 43.102 20.8257 43.154 19.6299ZM46.118 4.03352C46.1172 4.01824 46.1172 4.00292 46.118 3.98764C46.1174 3.60426 46.1634 3.22222 46.2548 2.85004L45.4432 3.44636C45.4338 3.57464 45.4338 3.70342 45.4432 3.83168C45.6438 3.8959 45.881 3.9693 46.118 4.03352ZM43.5918 24.2171C43.1414 24.2221 42.6998 24.3427 42.3088 24.5673C41.9176 24.7921 41.5902 25.1137 41.3572 25.5015L42.2146 25.5565C42.4232 25.3309 42.6826 25.1593 42.9712 25.0561C43.2596 24.9527 43.5686 24.9209 43.872 24.9633C44.1752 25.0055 44.464 25.1207 44.7136 25.2991C44.9634 25.4773 45.1666 25.7135 45.3064 25.9877C45.58 26.0427 45.8626 26.0977 46.1454 26.1711C45.9928 25.6081 45.66 25.1115 45.1982 24.7581C44.7366 24.4049 44.1718 24.2147 43.5918 24.2171ZM43.9566 19.6299V19.8867C43.9566 19.9693 43.9566 20.1987 43.9018 20.3454C44.959 20.3955 45.9882 20.7051 46.899 21.2471C47.81 21.7893 48.5752 22.5475 49.1278 23.4555C49.2372 23.1895 49.3466 22.9235 49.447 22.6391C48.8116 21.7623 47.988 21.0407 47.0376 20.5277C46.0872 20.0147 45.0342 19.7235 43.9566 19.6757V19.6299ZM43.7468 21.1527C43.683 21.4005 43.619 21.6391 43.537 21.8683H43.5826C44.6096 21.8659 45.612 22.1839 46.4518 22.7787C47.2914 23.3737 47.9268 24.2159 48.2704 25.1895C48.4164 24.9327 48.5624 24.6573 48.6992 24.3729C48.2426 23.4377 47.539 22.6471 46.6656 22.0871C45.792 21.5273 44.7822 21.2199 43.7468 21.1987V21.1527ZM43.5918 22.6757H43.1996L43.1448 22.8041L43.008 23.0611L42.935 23.1987L42.8804 23.2905L42.7892 23.4371C43.0606 23.3679 43.339 23.3309 43.619 23.3271C44.4508 23.3255 45.2552 23.6263 45.8836 24.1743C46.5122 24.7223 46.9226 25.4803 47.0392 26.3087L47.4862 26.4281C47.5682 26.3271 47.6412 26.2079 47.7232 26.0885C47.5338 25.1303 47.017 24.2691 46.2622 23.6541C45.5076 23.0391 44.5628 22.7093 43.5918 22.7215V22.6757ZM35.5658 23.2995L35.6206 23.4189H36.0126C37.111 23.4091 38.1608 22.9629 38.9332 22.1773C39.7054 21.3919 40.1376 20.331 40.135 19.2262C40.135 19.0886 40.135 18.9601 40.135 18.8317L40.0166 18.7766H39.9618L39.6608 18.7124L39.515 18.6207H39.442L39.287 18.5198C39.3514 18.7936 39.388 19.0733 39.3964 19.3546C39.3846 20.2545 39.0246 21.1143 38.3928 21.7515C37.761 22.3887 36.9072 22.7533 36.0126 22.7675C35.7332 22.7659 35.4546 22.7321 35.1828 22.6665C35.2164 22.7133 35.2468 22.7623 35.274 22.8133L35.3286 22.9051L35.4108 23.0427L35.5476 23.2995H35.5658ZM36.0126 24.2171C36.0978 24.4495 36.1708 24.6879 36.2316 24.9325C37.6762 24.8817 39.047 24.2779 40.064 23.2447C41.081 22.2113 41.6676 20.8265 41.7038 19.373C41.4576 19.3088 41.2204 19.2445 40.9924 19.162C41.0108 19.8304 40.8954 20.4957 40.653 21.1185C40.4108 21.7411 40.0466 22.3085 39.5822 22.7869C39.1176 23.2653 38.5624 23.6449 37.9492 23.9031C37.336 24.1615 36.6774 24.2931 36.0126 24.2905V24.2171ZM40.892 11.584C40.8884 11.0592 41.0398 10.5452 41.3268 10.1069C41.6138 9.66872 42.0236 9.32604 42.5044 9.12228C42.9852 8.91852 43.5152 8.86286 44.0274 8.96234C44.5398 9.06182 45.011 9.31198 45.3818 9.68112C45.7526 10.0503 46.0062 10.5218 46.1104 11.036C46.2146 11.5502 46.1648 12.0839 45.9674 12.5696C45.7698 13.0553 45.4334 13.4711 45.0008 13.7644C44.5682 14.0577 44.0586 14.2152 43.537 14.217C42.8518 14.2198 42.1926 13.9541 41.6988 13.4763C41.2052 12.9985 40.9158 12.3461 40.892 11.6574V11.584ZM41.6034 11.584C41.6034 11.9676 41.7168 12.3426 41.9292 12.6613C42.1414 12.98 42.443 13.2281 42.7958 13.3741C43.1484 13.5201 43.5362 13.5573 43.91 13.4811C44.2838 13.4049 44.6268 13.2187 44.8952 12.9462C45.1634 12.6736 45.3454 12.327 45.4176 11.9503C45.4896 11.5736 45.449 11.1838 45.3006 10.8304C45.152 10.477 44.9026 10.176 44.5838 9.96548C44.2648 9.755 43.891 9.64456 43.5096 9.6482C43.253 9.6505 42.9994 9.70442 42.7638 9.80678C42.5282 9.90916 42.3154 10.0579 42.1376 10.2442C41.96 10.4306 41.8214 10.6508 41.7296 10.8919C41.6378 11.133 41.595 11.3902 41.6034 11.6482V11.584ZM43.993 15.6115V15.5565C43.993 15.4739 44.0752 15.3821 44.1208 15.2996C44.1478 15.2486 44.1782 15.1996 44.212 15.1528V15.0794L44.3122 14.9234C44.044 14.9927 43.7684 15.0297 43.4914 15.0335C43.0398 15.0359 42.5922 14.9489 42.1742 14.7773C41.7562 14.6057 41.3758 14.3529 41.0548 14.0335C40.7338 13.714 40.4784 13.3341 40.3034 12.9154C40.1284 12.4966 40.0372 12.0474 40.0348 11.5932C40.0356 11.3149 40.0692 11.0377 40.135 10.7675L39.9892 10.8592L39.898 10.9143L39.7612 10.9968L39.5058 11.1344L39.3782 11.1987C39.3688 11.3269 39.3688 11.4557 39.3782 11.584C39.3854 12.6895 39.8282 13.747 40.6096 14.5244C41.391 15.3018 42.4472 15.7356 43.5462 15.7308H43.9292C43.9474 15.7491 43.9748 15.7124 43.993 15.6757V15.6115ZM35.5476 25.8867C35.3574 24.6001 34.8248 23.3891 34.0062 22.3821C33.8064 22.5109 33.6144 22.6519 33.4316 22.8041C34.1686 23.6979 34.6508 24.7759 34.827 25.9235C35.1006 25.9417 35.3012 25.9235 35.5476 25.8867ZM40.9376 6.62068C39.3416 7.70324 37.937 8.6482 37.7182 9.30874V9.41884C39.1058 8.95126 40.2594 7.96166 40.9376 6.65738V6.62068ZM34.0062 25.8867C33.8358 24.9489 33.4344 24.0689 32.8388 23.3271C32.6624 23.5181 32.526 23.7427 32.4376 23.9877C32.8354 24.5169 33.121 25.1227 33.2766 25.7675C33.5092 25.8655 33.7552 25.9275 34.0062 25.9509V25.8867ZM43.391 17.3363C43.4458 17.0935 43.516 16.8545 43.6008 16.6207H43.5552C42.9048 16.6243 42.2602 16.499 41.658 16.252C41.0558 16.005 40.5078 15.6411 40.0454 15.1811C39.583 14.721 39.2152 14.1739 38.963 13.5709C38.7108 12.9678 38.579 12.3207 38.5756 11.6665V11.6207C38.3506 11.7063 38.1134 11.7797 37.8642 11.8409C37.8816 12.1926 37.9274 12.5424 38.001 12.8867L38.165 13.4647C38.5368 14.571 39.2374 15.5357 40.1722 16.2282C41.1068 16.9206 42.2306 17.3075 43.391 17.3363ZM43.5006 8.16196C43.9536 8.15954 44.4026 8.24722 44.822 8.41996C45.2412 8.59268 45.6224 8.84708 45.9436 9.16848C46.2648 9.4899 46.5198 9.872 46.6936 10.2928C46.8676 10.7137 46.9572 11.1649 46.9572 11.6207C46.9594 11.9016 46.9288 12.1818 46.866 12.4555L47.021 12.3546H47.0848L47.2398 12.2629L47.4862 12.1253H47.5408L47.6594 12.0702C47.6684 11.9419 47.6684 11.8132 47.6594 11.6849C47.657 11.1367 47.5474 10.5944 47.3366 10.0888C47.1258 9.58332 46.8182 9.1245 46.431 8.73858C46.044 8.35266 45.5852 8.0472 45.0808 7.83966C44.5764 7.6321 44.0364 7.52652 43.4914 7.52894C43.3638 7.51992 43.2358 7.51992 43.1084 7.52894L43.0444 7.6482V7.69406L42.9076 7.95096L42.8256 8.08856L42.7708 8.1803L42.6888 8.3271C42.953 8.24912 43.2254 8.20292 43.5006 8.18948V8.16196ZM42.9806 5.18948L42.1142 5.80416C41.8064 6.88766 41.2244 7.87228 40.4252 8.66182C39.6258 9.45136 38.6366 10.0188 37.554 10.3087C37.5544 10.5544 37.5728 10.7997 37.6088 11.0427C38.9714 10.7044 40.206 9.97268 41.1604 8.9376C42.1148 7.9025 42.7476 6.60922 42.9806 5.217V5.18948ZM43.1904 18.584C43.1992 18.427 43.2174 18.2708 43.2452 18.1161C42.3956 18.0828 41.561 17.8809 40.7894 17.5219C40.0176 17.1629 39.3242 16.654 38.7488 16.0243C38.794 16.3741 38.8124 16.7268 38.8036 17.0794C40.0166 18.1485 41.5524 18.7755 43.163 18.8592C43.1814 18.7766 43.1814 18.7124 43.1904 18.6115V18.584ZM38.6302 19.2721C38.625 19.0424 38.5914 18.8144 38.53 18.5932C38.3594 18.976 38.125 19.3267 37.8368 19.6299C37.765 20.0687 37.5438 20.4689 37.211 20.7617C36.8784 21.0547 36.4546 21.2221 36.0126 21.2353H35.8576L35.0186 21.7767C35.3384 21.9021 35.6784 21.9675 36.0218 21.9693C36.7176 21.9597 37.3816 21.6735 37.8684 21.1733C38.3554 20.6733 38.626 19.9996 38.6212 19.2996L38.6302 19.2721ZM43.5096 6.62984C44.8216 6.62496 46.0818 7.1439 47.0136 8.07272C47.9456 9.00154 48.473 10.2644 48.4802 11.584L49.1916 11.3638C49.141 9.91066 48.5408 8.53178 47.5136 7.50876C46.4864 6.48572 45.1098 5.89572 43.6646 5.8592C43.6086 6.10464 43.5386 6.34664 43.455 6.58398H43.5096V6.62984Z" fill="#E00C19"/>
<path d="M64.2868 27.0519L62.7546 26.5473C62.408 26.6941 62.0432 26.8591 61.6602 27.0519C62.8534 27.2033 64.0216 27.5117 65.135 27.9693C64.8554 27.7001 64.5726 27.3943 64.2868 27.0519Z" fill="#C86D14"/>
<path d="M69.95 34.3087C69.7502 33.3595 69.4442 32.4363 69.038 31.5565L68.9468 31.3913C68.5636 31.1161 68.1714 30.8133 67.7792 30.4739L67.8796 30.6573C68.5488 31.8455 69.0434 33.1249 69.348 34.4555C69.5306 35.4225 69.5306 36.4153 69.348 37.3821H70.0046C70.1656 36.3623 70.1472 35.3221 69.95 34.3087Z" fill="#C86D14"/>
<path d="M57.71 41.9785L57.9016 41.7949C58.7422 40.9585 59.3682 39.9289 59.7256 38.7949C59.8532 38.4097 59.9354 37.9785 59.6526 37.7583C59.3698 37.5381 58.923 37.7583 58.467 38.0151L58.312 38.1069C57.4802 38.7701 56.73 39.5309 56.0774 40.3729L55.6214 40.8959C55.0694 41.4693 54.6628 42.1679 54.4358 42.9325C54.4132 42.9745 54.4 43.0207 54.3968 43.0683C54.3938 43.1157 54.401 43.1633 54.4178 43.2077C54.4348 43.2523 54.461 43.2925 54.4948 43.3259C54.5286 43.3591 54.5692 43.3847 54.6138 43.4007C54.6584 43.4167 54.7058 43.4229 54.753 43.4189C54.8002 43.4147 54.8458 43.4003 54.887 43.3769C54.928 43.3533 54.9636 43.3211 54.9912 43.2823C55.0188 43.2437 55.0378 43.1995 55.0468 43.1527C55.2442 42.4629 55.6076 41.8327 56.1048 41.3179L56.5608 40.7949C57.181 40.0199 57.8744 39.3071 58.6312 38.6665L58.7954 38.5657L59.1692 38.3637C59.1692 38.4189 59.1692 38.4923 59.1054 38.5839C58.7816 39.6273 58.205 40.5731 57.4272 41.3363L57.2448 41.5105C55.8308 42.7545 54.7438 44.3301 54.08 46.0977H54.7732C55.4202 44.5135 56.4258 43.1031 57.71 41.9785Z" fill="#2D2A66"/>
<path d="M58.9964 42.6299C59.4622 42.1145 59.8976 41.5723 60.3006 41.0059C61.7416 38.9233 61.5228 37.4831 61.085 36.6389C60.9856 36.4175 60.8354 36.2231 60.6468 36.0715C60.458 35.9199 60.2362 35.8157 59.9996 35.7675C59.7102 35.7393 59.4182 35.7783 59.1462 35.8817C58.8742 35.9851 58.6294 36.1501 58.4308 36.3637C58.1482 36.6299 57.7742 36.9417 57.309 37.3363C56.698 37.8317 55.9502 38.4647 55.0838 39.2629C54.527 39.7321 54.0722 40.3113 53.7476 40.9647C53.4228 41.6181 53.235 42.3315 53.1958 43.0611V43.2811C53.0504 44.2499 52.7932 45.1981 52.4296 46.1069H53.1228C53.4278 45.2135 53.6416 44.2913 53.7612 43.3545V43.1343C53.7936 42.4779 53.96 41.8353 54.2502 41.2465C54.5406 40.6577 54.9486 40.1355 55.4486 39.7123C56.3058 38.9325 57.0446 38.3087 57.6466 37.8041C58.2484 37.2995 58.5038 37.0885 58.8048 36.8133C58.9298 36.6691 59.0862 36.5559 59.2618 36.4827C59.4374 36.4095 59.6276 36.3783 59.8172 36.3913C59.9536 36.4245 60.0806 36.4891 60.1882 36.5797C60.2956 36.6705 60.381 36.7849 60.4374 36.9143C60.939 37.8959 60.6836 39.1711 59.6896 40.5839C59.3028 41.1327 58.8824 41.6567 58.4308 42.1527C57.692 42.9377 57.0768 43.8319 56.6068 44.8041C56.397 45.2629 56.2146 45.7215 56.0414 46.0977H56.7436C56.8804 45.7765 57.0354 45.4279 57.1996 45.0701C57.6674 44.1669 58.2738 43.3433 58.9964 42.6299Z" fill="#E00C19"/>
<path d="M60.5374 41.8867C60.4966 41.8741 60.4538 41.8699 60.4114 41.8741C60.369 41.8785 60.328 41.8911 60.2906 41.9117C60.2532 41.9323 60.2202 41.9601 60.1936 41.9935C60.1672 42.0271 60.1476 42.0657 60.136 42.1069C59.57 43.5343 58.893 44.9149 58.1114 46.2353H58.841C59.5862 44.9821 60.2268 43.6687 60.7562 42.3087C60.7702 42.2665 60.7758 42.2221 60.7722 42.1777C60.7688 42.1335 60.7566 42.0903 60.736 42.0509C60.7156 42.0115 60.6874 41.9767 60.6534 41.9485C60.6192 41.9203 60.5798 41.8993 60.5374 41.8867Z" fill="#C86D14"/>
<path d="M62.7986 38.2353C63.0448 36.9143 63.1542 35.6573 61.8864 34.7767C61.3444 34.4073 60.7008 34.2183 60.0462 34.2365C59.3918 34.2545 58.7594 34.4787 58.2384 34.8775C57.2868 35.5209 56.3732 36.2193 55.5022 36.9693C54.6442 37.6577 53.8644 38.4393 53.1766 39.2995C52.3406 40.3919 51.8654 41.7201 51.8176 43.0977L51.7538 43.5473C51.6578 44.4391 51.3948 45.3045 50.9786 46.0977H51.699C52.0826 45.3271 52.3296 44.4951 52.4286 43.6389L52.4834 43.1895C52.522 41.9381 52.9458 40.7295 53.6964 39.7307C54.3598 38.8949 55.1156 38.1377 55.9492 37.4739C56.8212 36.7395 57.7348 36.0563 58.6852 35.4279C59.095 35.1199 59.5876 34.9435 60.0988 34.9223C60.6098 34.9009 61.1154 35.0357 61.549 35.3087C62.461 35.9233 62.461 36.7033 62.2058 38.1161C61.9504 39.5289 61.8408 40.0885 61.6676 41.4189C61.3512 43.0673 60.8748 44.6805 60.2448 46.2353C60.4872 46.2203 60.728 46.1865 60.9654 46.1345C61.5502 44.6527 61.987 43.1159 62.2696 41.5473C62.461 40.1895 62.5432 39.6299 62.7986 38.2353Z" fill="#F5A507"/>
<path d="M64.3962 37.8775C64.7336 35.9417 64.469 34.6299 63.5752 33.7399C62.6814 32.8501 62.0704 32.9233 60.6294 33.0243H59.8724C59.1186 33.0093 58.3728 33.1827 57.7018 33.5289C56.6172 33.9279 55.6154 34.5251 54.7468 35.2903L54.163 35.7857L53.324 36.4831C53.0868 37.0519 52.868 37.5931 52.6856 38.1161C53.2636 37.4533 53.895 36.8395 54.5734 36.2811L55.1662 35.7857C55.9898 35.0609 56.939 34.4949 57.9662 34.1161C58.5638 33.8075 59.2282 33.6531 59.8998 33.6665H60.675C62.1342 33.5655 62.499 33.6023 63.1192 34.1987C63.7394 34.7949 64.1408 35.5473 63.7576 37.7583C63.6574 38.3729 63.5296 39.0427 63.3928 39.7399C63.1102 41.2077 62.8 42.8409 62.6086 44.4189C63.0108 43.5885 63.3612 42.7335 63.6574 41.8591C63.776 41.1803 63.9036 40.5013 64.0312 39.8683C64.159 39.2353 64.2866 38.4923 64.3962 37.8775Z" fill="#036291"/>
<path d="M65.763 35.2261C65.617 33.0335 64.6502 32.2811 63.875 32.0427C62.9092 31.6611 61.8748 31.4861 60.838 31.5289C59.3806 31.6427 57.9384 31.9039 56.533 32.3087C56.1194 32.4635 55.7144 32.6411 55.32 32.8409C55.083 33.2079 54.864 33.5747 54.6542 33.9325C55.313 33.5311 56.0096 33.1961 56.7338 32.9325C58.0894 32.5469 59.4792 32.2949 60.8836 32.1803C61.836 32.1523 62.7846 32.3145 63.6744 32.6573C64.5316 32.9325 65.015 33.8041 65.1154 35.2721C65.182 36.6985 65.0562 38.1273 64.7414 39.5197C64.9778 39.1273 65.2628 38.7665 65.5896 38.4463C65.7686 37.3831 65.8266 36.3027 65.763 35.2261Z" fill="#18152C"/>
<path d="M66.7762 33.2171C66.576 32.6291 66.249 32.0931 65.8186 31.6473C65.388 31.2017 64.8648 30.8573 64.2864 30.6391C63.1098 30.0427 61.7328 30.2353 59.9908 30.4831H59.6988C59.0604 30.5749 58.577 30.6115 58.1392 30.6481C57.7014 30.6849 57.2728 30.7215 56.7986 30.7949C56.5796 31.0519 56.37 31.3179 56.1602 31.5931C56.8292 31.4427 57.5094 31.3475 58.194 31.3087C58.6318 31.3087 59.106 31.2261 59.781 31.1345L60.082 31.0885C61.7144 30.8593 63.0004 30.6757 63.9946 31.1803C64.4934 31.3679 64.9454 31.6629 65.319 32.0449C65.6924 32.4269 65.978 32.8865 66.156 33.3913C66.4856 34.8189 66.6176 36.2853 66.5482 37.7491C66.7568 37.6555 66.9736 37.5817 67.1958 37.5289C67.256 36.0789 67.1148 34.6277 66.7762 33.2171Z" fill="#E00C19"/>
<path d="M62.827 29.7215C62.8716 29.7371 62.919 29.7429 62.966 29.7383C63.013 29.7335 63.0586 29.7189 63.0994 29.6949C63.1402 29.6711 63.1754 29.6385 63.2026 29.5997C63.23 29.5609 63.2484 29.5165 63.257 29.4697C63.2658 29.4231 63.2642 29.3749 63.2526 29.3289C63.2412 29.2829 63.2198 29.2397 63.1902 29.2027C63.1608 29.1657 63.1236 29.1355 63.0812 29.1141C63.039 29.0929 62.9926 29.0811 62.9454 29.0793C62.313 28.9631 61.6728 28.8957 61.0302 28.8775C60.1592 28.9013 59.2908 28.9841 58.4308 29.1253C58.13 29.3821 57.8472 29.6481 57.5644 29.9327C58.703 29.6979 59.8594 29.5629 61.021 29.5289C61.6268 29.5495 62.2304 29.6139 62.827 29.7215Z" fill="#DE8508"/>
<path d="M68.4628 33.9601C68.2728 32.8471 67.7912 31.8051 67.0674 30.9417C66.9306 30.7491 66.7938 30.5657 66.6752 30.3821C65.6934 29.2687 64.457 28.4123 63.0728 27.8867L60.4552 27.7307C60.0812 27.9509 59.689 28.2079 59.2968 28.4923H59.6708C60.7228 28.3143 61.7982 28.3299 62.8448 28.5381C64.0912 29.0013 65.2104 29.7561 66.1098 30.7399C66.2374 30.9327 66.3834 31.1253 66.5294 31.3271C67.185 32.1177 67.625 33.0661 67.8062 34.0793C67.9528 35.1829 67.9954 36.2981 67.9338 37.4097C68.1436 37.4097 68.3626 37.4097 68.5814 37.3637C68.6514 36.2281 68.6118 35.0881 68.4628 33.9601Z" fill="#406F43"/>
<path d="M74.1366 34.7399V34.6115C73.8516 34.3821 73.5462 34.1795 73.2246 34.0059V34.1253C73.613 35.1735 73.726 36.3047 73.553 37.4097C73.8056 37.3597 74.045 37.2565 74.2552 37.1069C74.3564 36.3171 74.3164 35.5155 74.1366 34.7399Z" fill="#18152C"/>
<path d="M71.4372 34.7767C71.3516 34.1155 71.1924 33.4663 70.9628 32.8409V32.7307C70.7076 32.5839 70.4612 32.4279 70.2332 32.2721L69.9688 32.0977L70.0234 32.2261C70.142 32.5289 70.2332 32.7215 70.3062 32.8867C70.5878 33.5239 70.7662 34.2021 70.8352 34.8959C70.9674 35.7409 70.9674 36.6013 70.8352 37.4463H71.4828C71.5998 36.5591 71.5844 35.6593 71.4372 34.7767Z" fill="#036291"/>
<path d="M72.5774 33.7215V33.6115L71.7656 33.1803V33.2903V33.3913C72.1464 34.3985 72.3322 35.4699 72.3128 36.5473C72.3128 36.8959 72.2582 37.2169 72.2216 37.5197H72.8784C72.8784 37.2261 72.933 36.9325 72.9604 36.6023C73.0108 35.6265 72.8808 34.6497 72.5774 33.7215Z" fill="#2D2A66"/>
<path d="M71.5814 9.26288C71.8782 9.03418 72.247 8.9204 72.6204 8.9423C72.9936 8.96418 73.3468 9.12028 73.6152 9.38214L73.7338 9.51976C73.9436 9.83854 74.028 10.2244 73.9708 10.6023L71.5814 9.26288ZM73.4054 12.7124C72.3748 11.795 71.3168 10.951 70.3684 10.1987C70.0856 10.4555 69.8028 10.7399 69.511 11.0152C70.642 11.85 71.9096 12.6574 73.1592 13.4097L73.4054 12.7124ZM68.8452 25.8133C68.8452 25.8133 68.8452 25.7491 68.8452 25.7215C68.1338 24.3455 66.5378 21.8317 65.9814 20.5565L65.197 18.8776C65.331 20.9409 65.8836 22.9547 66.8206 24.7949C66.8752 24.9235 66.93 25.0427 66.9846 25.1437C67.696 26.5381 68.8088 28.4555 69.2922 29.7949C69.566 30.5479 69.7826 31.3209 69.9396 32.1069L70.1494 32.2537L70.2316 32.2995C70.4944 30.0429 70.007 27.7621 68.8452 25.8133ZM64.6134 19.0335C64.4128 17.7124 64.285 16.2812 64.1848 14.9785L63.82 15.1803V18.1528C63.712 21.3985 64.087 24.6423 64.9326 27.7767C65.1058 27.9785 65.2882 28.1619 65.4616 28.3455C65.4616 27.6941 65.4616 27.0427 65.3886 26.3913C66.3006 27.9785 67.1032 29.2995 67.76 30.4739C68.1886 30.8225 68.599 31.1345 68.9912 31.3913C68.526 29.3087 67.085 27.0243 65.27 24.6115C65.0968 22.5657 64.8596 20.6207 64.6134 19.0335ZM73.0406 33.8867C73.825 33.7583 74.7096 33.6573 75.6856 33.5749C75.804 33.1987 75.9408 32.7949 76.0686 32.3913C74.7342 32.5117 73.4282 32.8493 72.2016 33.3913L73.0406 33.8867ZM74.8646 35.9969C74.8692 36.0549 74.8692 36.1131 74.8646 36.1711C74.9832 35.8041 75.1656 35.2537 75.3754 34.5931C74.9468 34.5931 74.5364 34.5931 74.135 34.5931C74.356 34.7535 74.5356 34.9645 74.6594 35.2085C74.7832 35.4527 74.8472 35.7229 74.8464 35.9969H74.8646ZM77.4822 23.5749C77.3184 23.3885 77.1448 23.2109 76.9624 23.0427C76.8986 23.1437 76.7982 23.2905 76.7434 23.3913C76.0686 24.5473 75.3208 25.7215 74.5546 26.8133C73.223 28.7215 71.9644 30.6573 70.7788 32.6481L71.1618 32.8593C71.6726 31.9417 72.1924 31.0243 72.7306 30.1069C74.133 27.8017 75.7224 25.6169 77.4822 23.5749ZM71.472 33.0335L71.5904 33.0977C73.0934 32.3513 74.6976 31.8319 76.3514 31.5565C76.4972 31.1345 76.634 30.7125 76.7708 30.2995C74.7702 30.6503 72.9224 31.6037 71.472 33.0335ZM62.3516 15.9051C61.9228 16.1069 61.4394 16.2996 60.9834 16.4922L60.3632 17.4097C60.3968 17.9663 60.4606 18.5207 60.5548 19.0702C61.2682 18.1064 61.8796 17.0702 62.3788 15.9785L62.3516 15.9051ZM71.3716 21.9143C72.0298 24.3261 72.358 26.8169 72.3474 29.3179C72.9116 27.4241 73.0774 25.4327 72.834 23.4709C72.5906 21.5091 71.9434 19.6197 70.9338 17.9234C71.5358 18.3821 72.2106 18.8409 72.8126 19.2078C72.6156 18.921 72.4506 18.6134 72.32 18.2904C70.8244 16.7032 68.9274 14.7858 67.3678 12.9143C67.085 13.1344 66.784 13.3546 66.4556 13.5748C67.508 14.9822 68.7338 16.2492 70.1038 17.3454C70.4596 18.5656 70.7514 19.6482 71.0158 20.6207L70.6694 20.061C69.0264 18.0754 67.5034 15.9921 66.1092 13.8225C65.8902 13.9693 65.6804 14.1161 65.4524 14.2537C66.7494 17.2698 68.786 19.9056 71.3716 21.9143ZM67.9332 22.5197C68.9818 23.9745 69.8572 25.5481 70.5416 27.2079C70.9732 28.3893 71.2462 29.6235 71.3534 30.8775C72.1832 27.9327 71.1982 24.8775 69.5292 22.1437V22.0977C69.4922 22.0243 69.4494 21.9537 69.4016 21.8867C68.298 20.0519 66.5378 17.8867 65.9358 16.7491C65.5072 15.9418 65.1242 15.1803 64.8414 14.584L64.5678 14.7491C65.0876 17.5603 66.2386 20.2149 67.9332 22.5105V22.5197ZM60.8284 20.4464C60.947 20.8959 61.0746 21.3637 61.2298 21.8593L61.2754 21.9693C62.2482 20.2368 62.9322 18.3556 63.3 16.4005C62.348 17.6637 61.523 19.019 60.8376 20.4464H60.8284ZM63.2818 19.061C63.2818 19.061 62.616 21.1161 61.8682 23.4189C62.0506 23.7859 62.242 24.1527 62.461 24.5105C63.0658 22.7603 63.3472 20.9133 63.291 19.061H63.2818ZM74.5728 21.0703C74.1834 20.7485 73.8148 20.4023 73.4692 20.0335C73.524 21.6483 73.5878 23.9601 73.7246 27.2261C74.4004 25.2485 74.6916 23.1585 74.582 21.0703H74.5728ZM72.4934 15.217C71.2622 13.9785 70.0126 12.8042 68.8452 11.6941C68.6082 11.9143 68.3618 12.1253 68.1156 12.3271L67.9424 12.4647C69.2824 13.7583 70.7354 14.9281 72.2836 15.9601C72.3384 15.6941 72.4022 15.4555 72.4934 15.217ZM75.4484 24.5565C75.715 23.8437 75.9462 23.1179 76.1416 22.3821L75.3572 21.7491C75.333 22.6855 75.3574 23.6225 75.4302 24.5565H75.4484ZM72.2198 31.6115C73.7228 30.6911 75.3512 29.9957 77.0536 29.5473C77.2086 29.0885 77.3728 28.6299 77.5188 28.2261C75.4438 28.7811 73.588 29.9627 72.2016 31.6115H72.2198ZM73.2868 29.9785C74.6808 28.8865 76.2146 27.9885 77.847 27.3087C77.9868 26.8961 78.1056 26.4767 78.2028 26.0519C76.2802 26.9625 74.592 28.3061 73.2686 29.9785H73.2868ZM74.9832 27.4281C75.6126 26.9785 76.853 26.2445 78.3214 25.4281C78.3562 25.2493 78.3562 25.0655 78.3214 24.8867C78.2734 24.7233 78.206 24.5661 78.1206 24.4189C76.9214 25.2529 75.857 26.2679 74.965 27.4281H74.9832Z" fill="#084022"/>
<path d="M69.8214 7.15276C69.8236 6.9814 69.8708 6.81366 69.9582 6.66654C70.4782 7.06102 70.9888 7.428 71.445 7.76744C71.3592 7.86814 71.253 7.949 71.1334 8.00442C71.0136 8.05986 70.8836 8.08856 70.7518 8.08854C70.629 8.09104 70.5068 8.06854 70.3928 8.0224C70.2788 7.97626 70.1754 7.90742 70.0884 7.82002C70.0016 7.73262 69.9332 7.62848 69.8872 7.5138C69.8414 7.39914 69.819 7.27634 69.8214 7.15276ZM52.356 7.25368H54.563L55.5572 8.24452H58.0014L58.4484 8.69406C58.3922 8.8178 58.3642 8.95256 58.3662 9.08854C58.3662 9.27 58.4198 9.44738 58.52 9.59824C58.6202 9.74912 58.7626 9.8667 58.9294 9.93614C59.096 10.0056 59.2794 10.0238 59.4562 9.98836C59.6332 9.95296 59.7956 9.86558 59.9232 9.73726C60.0508 9.60896 60.1376 9.4455 60.1728 9.26752C60.208 9.08956 60.19 8.9051 60.121 8.73746C60.052 8.56982 59.935 8.42654 59.785 8.32574C59.635 8.22492 59.4588 8.17112 59.2784 8.17112C59.1462 8.1704 59.0156 8.19858 58.8952 8.25368L58.2568 7.61148H55.8218L54.8368 6.6023H52.6296L51.2616 5.22616H48.2426L47.5678 5.90506C47.659 6.11608 47.7684 6.3179 47.8688 6.52892L48.5072 5.88672H50.997L52.356 7.25368ZM55.238 12.9968C55.1058 12.9961 54.9752 13.0243 54.855 13.0794L53.4504 11.6757H51.9546L51.4622 12.1711H49.7748C49.7748 12.3821 49.8662 12.6023 49.9026 12.8225H51.7266L52.2192 12.3271H53.1312L54.3442 13.5473C54.2894 13.6682 54.2614 13.7997 54.2622 13.9326C54.2622 14.114 54.3156 14.2914 54.4158 14.4423C54.516 14.5932 54.6584 14.7107 54.8252 14.7802C54.9918 14.8496 55.1752 14.8678 55.352 14.8324C55.529 14.797 55.6916 14.7096 55.819 14.5813C55.9466 14.453 56.0334 14.2895 56.0686 14.1116C56.1038 13.9336 56.0858 13.7491 56.0168 13.5815C55.9478 13.4139 55.8308 13.2706 55.6808 13.1698C55.5308 13.069 55.3546 13.0152 55.1742 13.0152L55.238 12.9968ZM65.5988 11.1069V3.3546C65.3708 3.1803 65.1518 3.0335 64.942 2.89588V11.1528C64.7726 11.2228 64.628 11.3425 64.5272 11.4963C64.4264 11.6501 64.3738 11.8309 64.3766 12.0152C64.3766 12.2585 64.4728 12.4918 64.6438 12.6639C64.8148 12.8359 65.0468 12.9326 65.2886 12.9326C65.5306 12.9326 65.7626 12.8359 65.9336 12.6639C66.1046 12.4918 66.2006 12.2585 66.2006 12.0152C66.2102 11.8189 66.157 11.6247 66.0486 11.4612C65.9402 11.2977 65.7826 11.1735 65.5988 11.1069ZM53.2498 14.6941C53.2498 14.5126 53.1962 14.3352 53.096 14.1844C52.9958 14.0335 52.8534 13.9159 52.6868 13.8465C52.52 13.777 52.3368 13.7589 52.1598 13.7943C51.9828 13.8296 51.8204 13.917 51.6928 14.0453C51.5652 14.1736 51.4784 14.3371 51.4432 14.5151C51.408 14.693 51.426 14.8775 51.4952 15.0451C51.5642 15.2128 51.681 15.3561 51.831 15.4569C51.981 15.5577 52.1574 15.6115 52.3378 15.6115C52.4502 15.6106 52.5614 15.5888 52.666 15.5473L53.496 16.373V17.5289C53.7058 17.5289 53.9156 17.5748 54.1436 17.584V16.1252L53.1586 15.1252C53.2214 14.9904 53.2526 14.8429 53.2498 14.6941ZM61.4582 12.795C61.268 12.7938 61.0824 12.8524 60.927 12.9627C60.7716 13.0729 60.6544 13.2291 60.5916 13.4096H59.0412L56.3872 16.0794V17.6115L57.0348 17.5473V16.3454L59.3056 14.061H60.5826C60.6446 14.2117 60.7456 14.3431 60.875 14.4415C61.0044 14.5399 61.1574 14.6018 61.3186 14.6209C61.4796 14.6399 61.6428 14.6154 61.7914 14.5499C61.94 14.4844 62.0684 14.3802 62.1636 14.2481C62.2588 14.1159 62.3172 13.9607 62.3328 13.7983C62.3486 13.6359 62.3208 13.4722 62.2526 13.3242C62.1846 13.1761 62.0784 13.049 61.945 12.956C61.8118 12.863 61.6564 12.8074 61.4946 12.795H61.4582ZM49.9756 8.53808C50.156 8.53808 50.3322 8.48428 50.4822 8.38348C50.6322 8.28266 50.7492 8.13938 50.8182 7.97174C50.8872 7.8041 50.9052 7.61964 50.87 7.44168C50.8348 7.26372 50.748 7.10024 50.6204 6.97194C50.493 6.84364 50.3304 6.75626 50.1534 6.72086C49.9766 6.68546 49.7932 6.70362 49.6266 6.77306C49.4598 6.8425 49.3174 6.96008 49.2172 7.11096C49.117 7.26184 49.0636 7.4392 49.0636 7.62066C49.0654 7.73962 49.087 7.85744 49.1274 7.96928L48.6714 8.40048C48.7534 8.61148 48.8264 8.83166 48.9084 9.06102L49.5652 8.45552C49.6946 8.51202 49.8344 8.54018 49.9756 8.53808ZM57.135 12.5197C57.2644 12.5049 57.3892 12.4623 57.5008 12.3949C57.6124 12.3275 57.7084 12.2368 57.7824 12.1289C57.8562 12.0211 57.9062 11.8986 57.9292 11.7696C57.9522 11.6407 57.9472 11.5083 57.9152 11.3814C57.883 11.2545 57.824 11.136 57.7426 11.0338C57.661 10.9317 57.5586 10.8483 57.4424 10.7893C57.3262 10.7302 57.1988 10.6969 57.0686 10.6916C56.9386 10.6862 56.8088 10.709 56.6882 10.7583L54.7456 8.80414H51.4622L50.1032 10.1619H49.255C49.3188 10.3821 49.3828 10.5931 49.4374 10.8225H50.3494L51.6992 9.45552H54.4354L56.2594 11.2904C56.2182 11.3956 56.1966 11.5075 56.1956 11.6207C56.198 11.7419 56.2242 11.8615 56.2728 11.9725C56.3214 12.0836 56.3914 12.1838 56.4788 12.2674C56.5662 12.351 56.6692 12.4164 56.7818 12.4597C56.8944 12.503 57.0146 12.5234 57.135 12.5197ZM62.507 4.68488V2.5014C62.2652 2.57942 62.0302 2.67762 61.8046 2.79496L61.8594 4.0335H60.6372L60.2998 3.69406L59.7252 4.0335L60.3546 4.66654L62.507 4.68488ZM60.765 6.95094C60.83 7.13912 60.9542 7.30088 61.1188 7.41176C61.2832 7.52266 61.4792 7.57666 61.677 7.56562C61.925 7.56562 62.1628 7.46654 62.338 7.29018C62.5134 7.11384 62.6118 6.87464 62.6118 6.62524C62.6118 6.37584 62.5134 6.13666 62.338 5.9603C62.1628 5.78396 61.925 5.68488 61.677 5.68488C61.4792 5.67382 61.2832 5.72782 61.1188 5.83872C60.9542 5.94962 60.83 6.11138 60.765 6.29956H59.4972L58.2294 5.02432L57.6276 5.34542L59.2236 6.95094H60.765ZM63.4372 2.30874V8.37296L61.823 10.006C61.652 9.92436 61.4602 9.89816 61.274 9.93104C61.0878 9.96392 60.9162 10.0542 60.7832 10.1895C60.6936 10.2752 60.622 10.3783 60.5732 10.4927C60.5244 10.607 60.4994 10.7302 60.4994 10.8546C60.4994 10.979 60.5244 11.1022 60.5732 11.2165C60.622 11.3309 60.6936 11.434 60.7832 11.5197C60.8682 11.6085 60.9702 11.6792 61.0832 11.7274C61.196 11.7756 61.3172 11.8005 61.4398 11.8005C61.5624 11.8005 61.6838 11.7756 61.7966 11.7274C61.9094 11.6792 62.0114 11.6085 62.0966 11.5197C62.233 11.3852 62.324 11.2111 62.3566 11.0218C62.3894 10.8325 62.3622 10.6376 62.279 10.4647L64.103 8.62984V2.41883C63.9532 2.35094 63.7926 2.31055 63.6288 2.29956L63.4372 2.30874ZM48.4342 4.54726C48.632 4.55832 48.828 4.50432 48.9924 4.39342C49.157 4.28252 49.2812 4.12076 49.3462 3.93258H51.5168L50.7234 3.2812H49.3006C49.2356 3.09304 49.1114 2.93126 48.9468 2.82038C48.7824 2.70948 48.5864 2.65548 48.3886 2.66652C48.1468 2.66652 47.9148 2.76318 47.7436 2.93524C47.5726 3.1073 47.4766 3.34064 47.4766 3.58396C47.4766 3.82728 47.5726 4.06062 47.7436 4.23268C47.9148 4.40474 48.1468 4.5014 48.3886 4.5014L48.4342 4.54726ZM67.1218 4.54726L66.4744 4.0335V9.61148L68.6724 11.8317L69.1558 11.3913L67.1218 9.34542V4.54726ZM68.5902 5.6757L68.1434 5.33626L67.9336 5.16194V7.86836L70.3778 10.1895C70.542 10.0335 70.7152 9.88672 70.8794 9.7491L68.5812 7.59314L68.5902 5.6757Z" fill="#62C1D8"/>
<path d="M51.9364 30.4923H54.0798C53.8882 30.2995 53.6784 30.1069 53.4596 29.9051H51.9364V28.6757C51.7906 28.5657 51.6354 28.4647 51.4714 28.3637V29.9051H51.0518L50.1398 28.9877V27.6023L49.5742 27.3363V29.0151L48.6622 29.9325H48.27V26.8317L47.8688 26.6665V29.9051H45.3242V26.0519L44.859 25.9601V29.9051H44.4396L43.5274 28.9877V25.7215L42.9712 25.6481V29.0151L42.0592 29.9325H41.676V25.5473H41.211V29.9051H38.7484V25.5289H38.4748H38.2468V29.9051H37.8364L36.9244 28.9877V25.7033L36.3588 25.7767V29.0151L35.4468 29.9325H35.1002V25.9325H34.6352V29.9051H34.0878C34.1426 30.1069 34.2064 30.2995 34.2702 30.4923H34.6352V31.7125C34.7992 32.2629 34.9544 32.8041 35.1002 33.3179V30.4923H35.4924L36.4044 31.4097V35.0793L35.912 35.5747C36.017 35.8519 36.1894 36.0979 36.4136 36.2903C36.7702 36.5385 37.169 36.7189 37.5902 36.8225L37.8546 36.5473H38.2742V36.9693L38.7484 37.0611V36.5747H41.2748V37.2079H41.7398V36.5473H42.123L42.9072 37.3455C43.1354 37.3455 43.3634 37.4281 43.573 37.4831L44.4852 36.5657H44.9046V37.9785C45.0232 38.0519 45.1418 38.1161 45.2512 38.1987C45.2948 38.2273 45.3346 38.2611 45.3698 38.2995V36.5473H47.8688V42.0519H47.121C47.1756 42.2537 47.2212 42.4463 47.276 42.6391H47.8688V44.6849C47.9854 45.0089 48.1416 45.3171 48.334 45.6023V42.6115H48.726L49.6382 43.5289V46.1437C49.837 46.1273 50.0298 46.0679 50.2036 45.9693V43.4831L51.1156 42.5657H51.5352V42.8317C51.672 42.0793 51.7996 41.2721 52.0094 40.5197V36.5473H53.341C53.423 36.3547 53.5142 36.1619 53.6056 35.9693H51.9638L51.9364 30.4923ZM38.256 35.9969H37.8364L36.9244 35.0793V31.4097L37.8364 30.4923H38.256V35.9969ZM41.2566 35.9969H38.7484V30.4923H41.2748L41.2566 35.9969ZM42.9986 35.0793L42.0864 35.9969H41.7034V30.4923H42.0864L42.9986 31.4097V35.0793ZM44.8682 35.9969H44.4486L43.5366 35.0793V31.4097L44.4486 30.4923H44.8682V35.9969ZM47.8596 35.9969H45.3242V30.4923H47.8688L47.8596 35.9969ZM49.6016 41.1619L48.6896 42.0793H48.2974V36.5747H48.6896L49.6016 37.4923V41.1619ZM49.6016 35.1069L48.6896 36.0243H48.2974V30.5197H48.6896L49.6016 31.4371V35.1069ZM51.4258 42.0519H51.0062L50.0942 41.1345V37.4647L51.0062 36.5473H51.4258V42.0519ZM51.4258 35.9969H51.0062L50.0942 35.0793V31.4097L51.0062 30.4923H51.4258V35.9969ZM54.8914 31.4097V33.3913C54.7274 33.6573 54.5722 33.9325 54.4264 34.1895V30.8775L54.8914 31.4097Z" fill="#BAE1F7"/>
<path d="M68.0614 12.3362L68.1892 12.2262C70.0952 10.6849 71.7186 8.27202 73.2326 9.07936C72.3206 8.42798 70.1044 6.79496 68.1436 5.30872C66.1826 3.82248 64.4954 2.29955 63.5834 2.29955C60.984 2.29955 58.3938 5.96928 55.3112 5.96928C52.3834 5.96928 49.3738 0.886708 47.4676 1.9601C45.5614 3.0335 47.6136 5.62982 48.5438 8.16194C49.6398 10.9673 50.2564 13.9388 50.3678 16.9509C52.0308 17.4485 53.7588 17.6898 55.4936 17.6665C57.1566 17.6371 58.8028 17.327 60.3638 16.7491C63.1576 15.723 65.7598 14.2312 68.0614 12.3362Z" fill="url(#paint0_linear_409_4161)"/>
<path d="M48.5898 8.1803C48.5648 8.13314 48.5434 8.08406 48.526 8.03352C47.6596 5.73994 45.872 3.44636 47.1032 2.23535C46.1912 2.8959 43.984 4.52892 41.9684 5.90508C39.9528 7.28122 37.9828 8.51058 37.7182 9.31792C36.9158 11.8042 39.5424 15.4097 38.6304 18.3546C37.7182 21.1069 31.9906 22.4647 32.4194 24.6207C32.848 26.7767 35.9308 25.6115 38.6212 25.5381C41.6082 25.3651 44.6026 25.7033 47.4772 26.5381C48.4472 25.1003 49.1944 23.5227 49.6934 21.8593C50.191 20.2478 50.416 18.5639 50.3592 16.8776C50.2522 13.8999 49.6544 10.9608 48.5898 8.1803Z" fill="url(#paint1_linear_409_4161)"/>
<path d="M38.64 25.5381H38.4758C36.0132 25.6665 33.2772 26.6665 32.5566 25.1343C32.9032 26.1803 33.7514 28.8041 34.472 31.1803C35.1924 33.5565 35.7032 35.7675 36.3872 36.3087C38.4848 37.8409 42.7076 36.4189 45.2066 38.2445C47.7056 40.0701 47.0306 45.8683 49.2104 46.1253C51.3902 46.3821 51.226 43.0701 51.9466 40.4647C52.7008 37.5571 53.934 34.7973 55.5948 32.2995C54.5428 30.9127 53.2882 29.6939 51.8736 28.6849C50.5042 27.7321 48.9882 27.0131 47.3864 26.5565C44.5486 25.7249 41.5916 25.3805 38.64 25.5381Z" fill="url(#paint2_linear_409_4161)"/>
<path d="M51.9728 40.4097V40.5657C51.3344 42.9417 51.4438 45.8591 49.7382 46.0701H56.0588C58.512 46.0701 60.8104 46.3271 61.531 45.8317C63.6378 44.2903 63.6012 39.8133 66.0912 37.9877C68.581 36.1619 73.8616 38.5931 74.7828 36.5931C75.704 34.5931 72.521 33.7123 70.2864 32.2079C67.7648 30.5813 65.538 28.5335 63.7016 26.1527C62.069 26.7367 60.532 27.5623 59.1414 28.6023C57.8132 29.6275 56.6636 30.8677 55.7394 32.2721C54.037 34.7517 52.7636 37.5031 51.9728 40.4097Z" fill="url(#paint3_linear_409_4161)"/>
<path d="M70.1586 32.2537L70.2954 32.3363C72.3474 33.6757 75.1292 34.4739 74.8556 36.1803C75.193 35.1253 76.0412 32.5105 76.8348 30.1527C77.6282 27.7949 78.5494 25.6849 78.2848 24.8775C77.4822 22.3913 73.2322 21.0427 72.2836 18.0886C71.3716 15.3363 75.2568 10.8409 73.6426 9.34544C72.0282 7.85002 70.2134 10.639 68.0974 12.2904C65.777 14.1947 63.1528 15.6899 60.336 16.7124C60.3844 18.458 60.6918 20.1866 61.248 21.8409C61.795 23.4241 62.6026 24.9033 63.6376 26.2169C65.4594 28.5827 67.6638 30.6235 70.1586 32.2537Z" fill="url(#paint4_linear_409_4161)"/>
<path d="M98.1044 3.12524H97.6484V44.8775H98.1044V3.12524Z" fill="white"/>
<path d="M161.245 9.53809C155.618 9.53809 147.674 11.2353 139.074 14.4005C131.388 17.2167 124.027 20.8619 117.121 25.2721C123.745 22.8149 130.73 21.4879 137.788 21.3455C147.656 21.3455 154.679 25.1435 144.3 38.4647C174.908 18.3087 174.06 9.53809 161.245 9.53809Z" fill="#FF8000"/>
<path d="M46.1364 65.9142H44.3854L41.549 60.96V61.8774C41.549 62.171 41.549 62.5012 41.5946 62.7948V65.8774H40.3632V59.3636H42.1052L44.9326 64.272C44.9326 63.9692 44.9326 63.6756 44.9326 63.3544C44.9326 63.0334 44.9326 62.749 44.9326 62.437V59.3636H46.1364V65.9142Z" fill="white"/>
<path d="M55.4028 65.9142H51.6542V59.3636H55.4028V60.5012H53.0314V61.9416H55.2386V63.0792H53.0314V64.7674H55.4028V65.9142Z" fill="white"/>
<path d="M66.548 62.6299C66.5632 63.2405 66.4482 63.8475 66.2106 64.4097C66.005 64.8989 65.6506 65.3099 65.1982 65.5839C64.668 65.8853 64.0646 66.0315 63.4562 66.0059C62.845 66.0313 62.2386 65.8851 61.7052 65.5839C61.2366 65.3097 60.8638 64.8963 60.638 64.4005C60.408 63.8363 60.2962 63.2303 60.3096 62.6207C60.2962 62.0139 60.408 61.4111 60.638 60.8501C60.8492 60.3639 61.2064 59.9565 61.6596 59.6849C62.1962 59.3835 62.8056 59.2373 63.4198 59.2629C64.0282 59.2373 64.6316 59.3835 65.1618 59.6849C65.6148 59.9579 65.9696 60.3693 66.174 60.8591C66.424 61.4155 66.5516 62.0195 66.548 62.6299ZM61.7964 62.6299C61.7642 63.1983 61.9006 63.7635 62.1884 64.2537C62.3286 64.4541 62.5186 64.6139 62.7396 64.7171C62.9604 64.8201 63.2046 64.8629 63.4472 64.8409C63.691 64.8625 63.9362 64.8199 64.1586 64.7169C64.381 64.6139 64.5728 64.4543 64.7148 64.2537C64.995 63.7607 65.128 63.1969 65.0978 62.6299C65.1284 62.0657 64.9952 61.5047 64.7148 61.0151C64.5752 60.8137 64.3856 60.6525 64.1646 60.5479C63.9438 60.4433 63.6996 60.3987 63.4562 60.4189C63.2116 60.3981 62.9658 60.4423 62.7432 60.5469C62.5208 60.6515 62.3296 60.8129 62.1884 61.0151C61.9008 61.5021 61.7642 62.0643 61.7964 62.6299Z" fill="white"/>
<path d="M74.5278 65.9142L72.959 60.7766V61.327V62.116V62.8682V65.9142H71.7734V59.3636H73.6522L75.23 64.3728L76.8626 59.3636H78.7414V65.9142H77.4464V62.8132C77.4464 62.6022 77.4464 62.3636 77.4464 62.0976C77.4464 61.8316 77.4464 61.5746 77.4464 61.3362C77.4464 61.0976 77.4464 60.905 77.4464 60.7856L75.7682 65.9142H74.5278Z" fill="white"/>
<path d="M93.2524 65.9142L91.6472 60.7766V61.327V62.116V62.8682V65.9142H90.498V59.3636H92.3768L93.9182 64.3728L95.5508 59.3636H97.4296V65.9142H96.2074V62.8132C96.2074 62.6022 96.2074 62.3636 96.2074 62.0976C96.2074 61.8316 96.2074 61.5746 96.2074 61.3362C96.2074 61.0976 96.2074 60.905 96.2074 60.7856L94.5292 65.9142H93.2524Z" fill="white"/>
<path d="M104.89 66.0059C104.576 66.0265 104.262 65.9827 103.965 65.8769C103.669 65.7713 103.397 65.6061 103.166 65.3913C102.733 64.8379 102.527 64.1385 102.592 63.4371C102.569 62.9205 102.676 62.4063 102.902 61.9417C103.089 61.5723 103.39 61.2733 103.759 61.0885C104.158 60.8987 104.595 60.8045 105.036 60.8133C105.343 60.8075 105.649 60.8415 105.948 60.9143C106.177 60.9711 106.4 61.0511 106.614 61.1527L106.212 62.2079C105.993 62.1253 105.802 62.0519 105.61 61.9969C105.433 61.9425 105.249 61.9147 105.063 61.9143C104.352 61.9143 104.005 62.4189 104.005 63.4279C103.977 63.8179 104.072 64.2069 104.279 64.5381C104.37 64.6581 104.49 64.7535 104.626 64.8159C104.763 64.8785 104.913 64.9059 105.063 64.8959C105.32 64.8999 105.575 64.8629 105.82 64.7857C106.044 64.7029 106.258 64.5953 106.459 64.4647V65.6299C106.256 65.7611 106.035 65.8603 105.802 65.9235C105.502 65.9885 105.196 66.0161 104.89 66.0059Z" fill="white"/>
<path d="M111.539 65.9142V59.3636H112.916V64.7674H115.561V65.9142H111.539Z" fill="white"/>
<path d="M124.553 65.9143L124.079 64.3545H121.744L121.27 65.9143H119.783L122.082 59.3363H123.769L126.076 65.9143H124.553ZM123.751 63.1619L123.276 61.6389C123.276 61.5381 123.203 61.4005 123.158 61.2445C123.112 61.0885 123.057 60.9233 123.012 60.7583C122.966 60.5931 122.921 60.4463 122.893 60.3271C122.893 60.4463 122.82 60.6023 122.766 60.7857C122.711 60.9693 122.665 61.1345 122.62 61.2995L122.519 61.6389L122.054 63.1619H123.751Z" fill="white"/>
<path d="M132.633 59.3637C133.322 59.3121 134.009 59.4823 134.594 59.8499C134.812 60.0253 134.984 60.2515 135.095 60.5089C135.207 60.7663 135.254 61.0471 135.233 61.3271C135.236 61.5999 135.177 61.8699 135.059 62.1161C134.953 62.3359 134.8 62.5299 134.612 62.6849C134.432 62.8353 134.232 62.9617 134.02 63.0609L135.935 65.9143H134.403L132.852 63.4005H132.114V65.9143H130.736V59.3637H132.633ZM132.533 60.5013H132.114V62.2721H132.56C132.902 62.3035 133.244 62.2231 133.536 62.0427C133.637 61.9625 133.718 61.8589 133.77 61.7405C133.823 61.6223 133.846 61.4929 133.837 61.3637C133.848 61.2349 133.825 61.1055 133.768 60.9891C133.712 60.8729 133.626 60.7741 133.518 60.7031C133.214 60.5481 132.873 60.4783 132.533 60.5013Z" fill="white"/>
<path d="M144.381 65.9142H140.633V59.3636H144.381V60.5012H142.01V61.9416H144.217V63.0792H142.01V64.7674H144.381V65.9142Z" fill="white"/>
<path d="M155.389 65.9142H153.665L150.829 60.96V61.8774V62.7948V65.8774H149.598V59.3636H151.34L154.167 64.272C154.167 63.9692 154.167 63.6756 154.167 63.3544C154.167 63.0334 154.167 62.749 154.167 62.437V59.3636H155.407L155.389 65.9142Z" fill="white"/>
<path d="M34.6812 77.8409H33.3222V71.2905H37.0526V72.4281H34.6812V74.1161H36.9248V75.2537H34.6812V77.8409Z" fill="white"/>
<path d="M48.1164 74.5565C48.1316 75.1671 48.0164 75.7741 47.7788 76.3363C47.5708 76.8267 47.2132 77.2381 46.7574 77.5105C46.2272 77.8119 45.6238 77.9581 45.0154 77.9325C44.4194 77.9493 43.83 77.8035 43.3098 77.5105C42.8582 77.2291 42.502 76.8163 42.2884 76.3271C42.0584 75.7629 41.9466 75.1569 41.96 74.5473C41.9466 73.9405 42.0584 73.3375 42.2884 72.7765C42.4996 72.2905 42.8568 71.8831 43.3098 71.6115C43.8466 71.3099 44.456 71.1639 45.0702 71.1895C45.6786 71.1639 46.282 71.3101 46.8122 71.6115C47.2652 71.8845 47.62 72.2959 47.8244 72.7857C48.0464 73.3483 48.1458 73.9521 48.1164 74.5565ZM43.3646 74.5565C43.3324 75.1249 43.469 75.6901 43.7568 76.1803C43.8968 76.3807 44.0868 76.5405 44.3078 76.6437C44.5288 76.7467 44.7728 76.7893 45.0154 76.7675C45.2592 76.7891 45.5046 76.7465 45.727 76.6435C45.9492 76.5405 46.141 76.3807 46.2832 76.1803C46.5634 75.6873 46.6964 75.1235 46.6662 74.5565C46.6966 73.9923 46.5636 73.4313 46.2832 72.9417C46.1436 72.7403 45.9538 72.5791 45.733 72.4745C45.5122 72.3699 45.2678 72.3253 45.0246 72.3453C44.7798 72.3247 44.534 72.3687 44.3116 72.4735C44.0892 72.5781 43.8978 72.7395 43.7568 72.9417C43.4692 73.4287 43.3326 73.9909 43.3646 74.5565Z" fill="white"/>
<path d="M55.2388 71.2903C55.9272 71.2387 56.614 71.4089 57.1998 71.7767C57.4176 71.9519 57.5896 72.1781 57.7008 72.4355C57.8122 72.6929 57.8592 72.9739 57.8382 73.2537C57.8454 73.5269 57.786 73.7979 57.6648 74.0427C57.5584 74.2625 57.406 74.4565 57.218 74.6115C57.0372 74.7619 56.838 74.8883 56.6252 74.9877L58.5404 77.8409H56.99L55.4394 75.3271H54.7008V77.8409H53.3418V71.2903H55.2388ZM55.1658 72.4281H54.7464V74.1987H55.1658C55.5072 74.2303 55.8496 74.1497 56.1418 73.9693C56.243 73.8891 56.3232 73.7855 56.3756 73.6673C56.428 73.5489 56.451 73.4197 56.4428 73.2903C56.4538 73.1615 56.43 73.0321 56.3738 72.9157C56.3176 72.7995 56.231 72.7007 56.1236 72.6299C55.8274 72.4795 55.4972 72.4099 55.1658 72.4281Z" fill="white"/>
<path d="M65.9906 77.8409L64.422 72.7033V73.2537V74.0427V74.7949V77.8409H63.2364V71.2905H65.1152L66.6564 76.2995L68.289 71.2905H70.1678V77.8409H68.9092V74.7399C68.9092 74.5289 68.9092 74.2905 68.9092 74.0243C68.9092 73.7583 68.9092 73.5015 68.9092 73.2629C68.9092 73.0243 68.9092 72.8317 68.9092 72.7125L67.231 77.8409H65.9906Z" fill="white"/>
<path d="M81.013 71.2905V75.5289C81.0158 75.9587 80.909 76.3819 80.703 76.7583C80.4938 77.1327 80.1754 77.4337 79.7908 77.6207C79.3216 77.8449 78.8052 77.9519 78.286 77.9327C77.5686 77.9813 76.8608 77.7441 76.316 77.2721C76.0886 77.0413 75.911 76.7657 75.7948 76.4625C75.6788 76.1593 75.6264 75.8351 75.6412 75.5105V71.2905H77.0548V75.2995C77.0128 75.7101 77.1304 76.1211 77.3832 76.4463C77.6536 76.6785 78.0044 76.7939 78.359 76.7675C78.5378 76.7843 78.7182 76.7609 78.887 76.6989C79.0556 76.6371 79.2086 76.5383 79.3348 76.4097C79.5688 76.0863 79.679 75.6889 79.645 75.2905V71.2905H81.013Z" fill="white"/>
<path d="M86.4844 77.8409V71.2905H87.8616V76.6941H90.5064V77.8409H86.4844Z" fill="white"/>
<path d="M99.4998 77.8409L99.0256 76.2813H96.6542L96.2074 77.8409H94.6934L96.9916 71.2629H98.679L100.986 77.8409H99.4998ZM98.6972 75.0885L98.223 73.5657C98.223 73.4647 98.15 73.3271 98.1044 73.1711C98.0588 73.0151 98.004 72.8501 97.9584 72.6849C97.9128 72.5197 97.8672 72.3729 97.8398 72.2537C97.8398 72.3729 97.767 72.5289 97.7122 72.7125C97.6574 72.8959 97.6118 73.0611 97.5662 73.2261L97.466 73.5657L97.0008 75.0885H98.6972Z" fill="white"/>
<path d="M115.68 77.8409H111.932V71.2905H115.68V72.4281H113.309V73.8683H115.516V75.0061H113.309V76.6941H115.68V77.8409Z" fill="white"/>
<path d="M129.67 77.8409H128.293V72.4463H126.523V71.2905H131.439V72.4463H129.67V77.8409Z" fill="white"/>
<path d="M140.068 77.8409H136.338V71.2905H140.086V72.4281H137.715V73.8683H139.922V75.0061H137.715V76.6941H140.086L140.068 77.8409Z" fill="white"/>
<path d="M149.287 77.8409L148.813 76.2813H146.441L145.967 77.8409H144.48L146.779 71.2629H148.466L150.774 77.8409H149.287ZM148.484 75.0885L148.01 73.5657C148.01 73.4647 147.937 73.3271 147.891 73.1711C147.846 73.0151 147.791 72.8501 147.746 72.6849C147.7 72.5197 147.654 72.3729 147.627 72.2537C147.627 72.3729 147.554 72.5289 147.499 72.7125C147.445 72.8959 147.399 73.0611 147.353 73.2261L147.253 73.5657L146.788 75.0885H148.484Z" fill="white"/>
<path d="M158.226 77.8409L156.658 72.7033V73.2537V74.0427V74.7949V77.8409H155.49V71.2905H157.314L158.856 76.2995L160.488 71.2905H162.367V77.8409H161.145V74.7399C161.145 74.5289 161.145 74.2905 161.145 74.0243C161.145 73.7583 161.145 73.5015 161.145 73.2629C161.145 73.0243 161.145 72.8317 161.145 72.7125L159.467 77.8409H158.226Z" fill="white"/>
</g>
</g>
</g>
<defs>
<linearGradient id="paint0_linear_409_4161" x1="45.9354" y1="4.61148" x2="70.4164" y2="15.4491" gradientUnits="userSpaceOnUse">
<stop offset="0.09" stop-opacity="0.8"/>
<stop offset="0.42" stop-opacity="0"/>
</linearGradient>
<linearGradient id="paint1_linear_409_4161" x1="34.4532" y1="26.9693" x2="52.464" y2="7.08408" gradientUnits="userSpaceOnUse">
<stop offset="0.09" stop-opacity="0.85"/>
<stop offset="0.42" stop-opacity="0"/>
</linearGradient>
<linearGradient id="paint2_linear_409_4161" x1="52.0378" y1="44.8591" x2="38.5486" y2="21.6345" gradientUnits="userSpaceOnUse">
<stop offset="0.09" stop-opacity="0.8"/>
<stop offset="0.42" stop-opacity="0"/>
</linearGradient>
<linearGradient id="paint3_linear_409_4161" x1="74.3906" y1="33.5657" x2="48.2202" y2="39.0991" gradientUnits="userSpaceOnUse">
<stop offset="0.09" stop-opacity="0.85"/>
<stop offset="0.42" stop-opacity="0"/>
</linearGradient>
<linearGradient id="paint4_linear_409_4161" x1="70.6146" y1="8.69406" x2="67.791" y2="35.4429" gradientUnits="userSpaceOnUse">
<stop offset="0.09" stop-opacity="0.8"/>
<stop offset="0.42" stop-opacity="0"/>
</linearGradient>
<clipPath id="clip0_409_4161">
<rect width="200" height="80" fill="white" transform="translate(0 0.666504)"/>
</clipPath>
</defs>
</svg>
