<svg width="200" height="80" viewBox="0 0 200 80" fill="none" xmlns="http://www.w3.org/2000/svg">
<g clip-path="url(#clip0_1_309)">
<mask id="mask0_1_309" style="mask-type:luminance" maskUnits="userSpaceOnUse" x="0" y="0" width="200" height="80">
<path d="M0 -6.10352e-05H200V79.9999H0V-6.10352e-05Z" fill="white"/>
</mask>
<g mask="url(#mask0_1_309)">
<mask id="mask1_1_309" style="mask-type:luminance" maskUnits="userSpaceOnUse" x="18" y="-12" width="166" height="104">
<path d="M18 -12.0001H184V91.9999H18V-12.0001Z" fill="white"/>
</mask>
<g mask="url(#mask1_1_309)">
<path d="M38.64 24.8715H38.4758C36.0132 24.9999 33.2772 25.9999 32.5566 24.4677C32.9032 25.5137 33.7514 28.1375 34.472 30.5137C35.1924 32.8899 35.7032 35.1009 36.3872 35.6421C38.4848 37.1743 42.7076 35.7523 45.2066 37.5779C47.7056 39.4035 47.0306 45.2017 49.2104 45.4587C51.3902 45.7155 51.226 42.4035 51.9466 39.7981C52.7008 36.8905 53.934 34.1307 55.5948 31.6329C54.5428 30.2461 53.2882 29.0273 51.8736 28.0183C50.5042 27.0655 48.9882 26.3465 47.3864 25.8899C44.5486 25.0583 41.5916 24.7139 38.64 24.8715Z" fill="#036291"/>
<path d="M51.9728 39.7431V39.8991C51.3344 42.2751 51.4438 45.1925 49.7382 45.4035H56.0588C58.512 45.4035 60.8104 45.6605 61.531 45.1651C63.6378 43.6237 63.6012 39.1467 66.0912 37.3211C68.581 35.4953 73.8616 37.9265 74.7828 35.9265C75.704 33.9265 72.521 33.0457 70.2864 31.5413C67.7648 29.9147 65.538 27.8669 63.7016 25.4861C62.069 26.0701 60.532 26.8957 59.1414 27.9357C57.8132 28.9609 56.6636 30.2011 55.7394 31.6055C54.037 34.0851 52.7636 36.8365 51.9728 39.7431Z" fill="#FDE8D2"/>
<path d="M70.1586 31.5871L70.2954 31.6697C72.3474 33.0091 75.1292 33.8073 74.8556 35.5137C75.193 34.4587 76.0412 31.8439 76.8348 29.4861C77.6282 27.1283 78.5494 25.0183 78.2848 24.2109C77.4822 21.7247 73.2322 20.3761 72.2836 17.422C71.3716 14.6697 75.2568 10.1743 73.6426 8.67888C72.0282 7.18346 70.2134 9.97246 68.0974 11.6238C65.777 13.5282 63.1528 15.0233 60.336 16.0458C60.3844 17.7915 60.6918 19.52 61.248 21.1743C61.795 22.7575 62.6026 24.2367 63.6376 25.5503C65.4594 27.9161 67.6638 29.9569 70.1586 31.5871Z" fill="#C0DEC1"/>
<path d="M48.5898 7.51374C48.5648 7.46658 48.5434 7.4175 48.526 7.36696C47.6596 5.07338 45.872 2.7798 47.1032 1.56879C46.1912 2.22934 43.984 3.86236 41.9684 5.23852C39.9528 6.61466 37.9828 7.84402 37.7182 8.65136C36.9158 11.1376 39.5424 14.7431 38.6304 17.6881C37.7182 20.4403 31.9906 21.7981 32.4194 23.9541C32.848 26.1101 35.9308 24.9449 38.6212 24.8715C41.6082 24.6985 44.6026 25.0367 47.4772 25.8715C48.4472 24.4337 49.1944 22.8561 49.6934 21.1927C50.191 19.5813 50.416 17.8973 50.3592 16.211C50.2522 13.2333 49.6544 10.2942 48.5898 7.51374Z" fill="#FACEB2"/>
<path d="M68.0614 11.6697L68.1892 11.5596C70.0952 10.0183 71.7186 7.60546 73.2326 8.4128C72.3206 7.76142 70.1044 6.1284 68.1436 4.64216C66.1826 3.15592 64.4954 1.63299 63.5834 1.63299C60.984 1.63299 58.3938 5.30272 55.3112 5.30272C52.3834 5.30272 49.3738 0.220143 47.4676 1.29354C45.5614 2.36694 47.6136 4.96326 48.5438 7.49538C49.6398 10.3007 50.2564 13.2723 50.3678 16.2844C52.0308 16.7819 53.7588 17.0232 55.4936 17C57.1566 16.9705 58.8028 16.6604 60.3638 16.0825C63.1576 15.0565 65.7598 13.5647 68.0614 11.6697Z" fill="#17162B"/>
<path d="M50.35 16.0367C50.3454 16.1069 50.3454 16.1774 50.35 16.2477V16.8073C50.044 16.9427 49.7792 17.157 49.5822 17.4284C49.385 17.6998 49.2628 18.0188 49.2276 18.3531C49.1924 18.6873 49.2456 19.025 49.3818 19.3319C49.518 19.6388 49.7324 19.9041 50.0034 20.1009C49.9486 20.3577 49.894 20.5963 49.821 20.8439C49.4254 20.6111 49.0964 20.2791 48.8664 19.8804C48.6362 19.4817 48.5126 19.0298 48.5076 18.5688C48.5054 18.0041 48.683 17.4535 49.0146 16.9978C49.3462 16.5422 49.8142 16.2053 50.35 16.0367ZM47.0028 18.578V18.9725L47.1304 19.0275C47.223 19.0641 47.3116 19.1102 47.395 19.1651L47.5318 19.2385L47.623 19.2936L47.7688 19.3853C47.6954 19.1132 47.6586 18.8324 47.6594 18.5504C47.6576 17.7794 47.9114 17.0298 48.3804 16.4201C48.8496 15.8103 49.5072 15.3752 50.2496 15.1835C50.2496 14.9358 50.204 14.6972 50.1858 14.4587C49.2698 14.681 48.456 15.2097 47.8776 15.9581C47.2994 16.7064 46.991 17.6302 47.0028 18.578ZM45.4888 18.422C45.7258 18.4862 45.963 18.5504 46.2002 18.633C46.1932 17.4819 46.583 16.3639 47.3028 15.4691C48.0228 14.5743 49.0286 13.9579 50.1492 13.7248C50.1492 13.4862 50.0854 13.2477 50.049 13.0183C48.7952 13.2715 47.6632 13.9426 46.8356 14.9232C46.008 15.9038 45.5336 17.1365 45.4888 18.422ZM43.9748 18.2018H44.2484C44.3944 18.2018 44.5494 18.2018 44.6862 18.2569C44.7516 16.7989 45.3026 15.4055 46.2504 14.3006C47.1982 13.1957 48.488 12.4436 49.9122 12.1651C49.8666 11.9174 49.821 11.6881 49.7662 11.4587C48.1916 11.7719 46.7662 12.6057 45.7168 13.8276C44.6674 15.0494 44.0542 16.5891 43.9748 18.2018ZM43.8106 4.44035C45.4418 4.50707 46.9854 5.19979 48.1246 6.37613C47.8874 5.86237 47.632 5.35777 47.404 4.87153C46.4 4.21919 45.249 3.83115 44.0568 3.74309L43.8654 3.88071V3.97245C43.8654 3.99997 43.8288 4.28437 43.8106 4.47703V4.44035ZM43.154 18.9633H42.9442C42.776 18.9545 42.6086 18.9361 42.4426 18.9082C42.3822 20.3087 41.8736 21.6519 40.9928 22.7381C40.1118 23.8241 38.9058 24.5951 37.554 24.9357C37.9006 24.9357 38.2564 24.8623 38.6028 24.8531C38.9494 24.8439 39.296 24.8531 39.6608 24.8531C40.6824 24.2391 41.5362 23.3795 42.146 22.3515C42.7556 21.3233 43.102 20.1591 43.154 18.9633ZM46.118 3.36695C46.1172 3.35167 46.1172 3.33635 46.118 3.32107C46.1174 2.93769 46.1634 2.55565 46.2548 2.18347L45.4432 2.77979C45.4338 2.90807 45.4338 3.03685 45.4432 3.16511C45.6438 3.22933 45.881 3.30273 46.118 3.36695ZM43.5918 23.5505C43.1414 23.5555 42.6998 23.6761 42.3088 23.9007C41.9176 24.1255 41.5902 24.4471 41.3572 24.8349L42.2146 24.8899C42.4232 24.6643 42.6826 24.4927 42.9712 24.3895C43.2596 24.2861 43.5686 24.2543 43.872 24.2967C44.1752 24.3389 44.464 24.4541 44.7136 24.6325C44.9634 24.8107 45.1666 25.0469 45.3064 25.3211C45.58 25.3761 45.8626 25.4311 46.1454 25.5045C45.9928 24.9415 45.66 24.4449 45.1982 24.0915C44.7366 23.7383 44.1718 23.5481 43.5918 23.5505ZM43.9566 18.9633V19.2202C43.9566 19.3027 43.9566 19.5321 43.9018 19.6789C44.959 19.7289 45.9882 20.0385 46.899 20.5805C47.81 21.1227 48.5752 21.8809 49.1278 22.7889C49.2372 22.5229 49.3466 22.2569 49.447 21.9725C48.8116 21.0957 47.988 20.3741 47.0376 19.8612C46.0872 19.3482 45.0342 19.057 43.9566 19.0092V18.9633ZM43.7468 20.4861C43.683 20.7339 43.619 20.9725 43.537 21.2017H43.5826C44.6096 21.1993 45.612 21.5173 46.4518 22.1121C47.2914 22.7071 47.9268 23.5493 48.2704 24.5229C48.4164 24.2661 48.5624 23.9907 48.6992 23.7063C48.2426 22.7711 47.539 21.9805 46.6656 21.4205C45.792 20.8607 44.7822 20.5533 43.7468 20.5321V20.4861ZM43.5918 22.0091H43.1996L43.1448 22.1375L43.008 22.3945L42.935 22.5321L42.8804 22.6239L42.7892 22.7705C43.0606 22.7013 43.339 22.6643 43.619 22.6605C44.4508 22.6589 45.2552 22.9597 45.8836 23.5077C46.5122 24.0557 46.9226 24.8137 47.0392 25.6421L47.4862 25.7615C47.5682 25.6605 47.6412 25.5413 47.7232 25.4219C47.5338 24.4637 47.017 23.6025 46.2622 22.9875C45.5076 22.3725 44.5628 22.0427 43.5918 22.0549V22.0091ZM35.5658 22.6329L35.6206 22.7523H36.0126C37.111 22.7425 38.1608 22.2963 38.9332 21.5107C39.7054 20.7253 40.1376 19.6644 40.135 18.5596C40.135 18.422 40.135 18.2936 40.135 18.1651L40.0166 18.1101H39.9618L39.6608 18.0459L39.515 17.9541H39.442L39.287 17.8532C39.3514 18.127 39.388 18.4068 39.3964 18.6881C39.3846 19.5879 39.0246 20.4477 38.3928 21.0849C37.761 21.7221 36.9072 22.0867 36.0126 22.1009C35.7332 22.0993 35.4546 22.0655 35.1828 21.9999C35.2164 22.0467 35.2468 22.0957 35.274 22.1467L35.3286 22.2385L35.4108 22.3761L35.5476 22.6329H35.5658ZM36.0126 23.5505C36.0978 23.7829 36.1708 24.0213 36.2316 24.2659C37.6762 24.2151 39.047 23.6113 40.064 22.5781C41.081 21.5447 41.6676 20.1599 41.7038 18.7064C41.4576 18.6422 41.2204 18.578 40.9924 18.4954C41.0108 19.1638 40.8954 19.8292 40.653 20.4519C40.4108 21.0745 40.0466 21.6419 39.5822 22.1203C39.1176 22.5987 38.5624 22.9783 37.9492 23.2365C37.336 23.4949 36.6774 23.6265 36.0126 23.6239V23.5505ZM40.892 10.9174C40.8884 10.3926 41.0398 9.87859 41.3268 9.44037C41.6138 9.00215 42.0236 8.65947 42.5044 8.45571C42.9852 8.25195 43.5152 8.19629 44.0274 8.29577C44.5398 8.39525 45.011 8.64541 45.3818 9.01455C45.7526 9.38369 46.0062 9.85521 46.1104 10.3694C46.2146 10.8836 46.1648 11.4174 45.9674 11.9031C45.7698 12.3888 45.4334 12.8046 45.0008 13.0978C44.5682 13.3911 44.0586 13.5486 43.537 13.5504C42.8518 13.5532 42.1926 13.2876 41.6988 12.8098C41.2052 12.332 40.9158 11.6796 40.892 10.9908V10.9174ZM41.6034 10.9174C41.6034 11.3011 41.7168 11.676 41.9292 11.9948C42.1414 12.3135 42.443 12.5616 42.7958 12.7075C43.1484 12.8535 43.5362 12.8907 43.91 12.8145C44.2838 12.7384 44.6268 12.5522 44.8952 12.2796C45.1634 12.007 45.3454 11.6604 45.4176 11.2837C45.4896 10.907 45.449 10.5172 45.3006 10.1638C45.152 9.81043 44.9026 9.50939 44.5838 9.29891C44.2648 9.08843 43.891 8.97799 43.5096 8.98163C43.253 8.98393 42.9994 9.03785 42.7638 9.14021C42.5282 9.24259 42.3154 9.39131 42.1376 9.57767C41.96 9.76403 41.8214 9.98425 41.7296 10.2254C41.6378 10.4665 41.595 10.7236 41.6034 10.9816V10.9174ZM43.993 14.9449V14.8899C43.993 14.8073 44.0752 14.7156 44.1208 14.633C44.1478 14.5821 44.1782 14.533 44.212 14.4862V14.4128L44.3122 14.2569C44.044 14.3262 43.7684 14.3631 43.4914 14.367C43.0398 14.3694 42.5922 14.2823 42.1742 14.1107C41.7562 13.9391 41.3758 13.6864 41.0548 13.3669C40.7338 13.0474 40.4784 12.6675 40.3034 12.2488C40.1284 11.8301 40.0372 11.3808 40.0348 10.9266C40.0356 10.6483 40.0692 10.3712 40.135 10.1009L39.9892 10.1926L39.898 10.2477L39.7612 10.3303L39.5058 10.4679L39.3782 10.5321C39.3688 10.6604 39.3688 10.7891 39.3782 10.9174C39.3854 12.0229 39.8282 13.0804 40.6096 13.8578C41.391 14.6352 42.4472 15.0691 43.5462 15.0642H43.9292C43.9474 15.0826 43.9748 15.0459 43.993 15.0092V14.9449ZM35.5476 25.2201C35.3574 23.9335 34.8248 22.7225 34.0062 21.7155C33.8064 21.8443 33.6144 21.9853 33.4316 22.1375C34.1686 23.0313 34.6508 24.1093 34.827 25.2569C35.1006 25.2751 35.3012 25.2569 35.5476 25.2201ZM40.9376 5.95411C39.3416 7.03667 37.937 7.98163 37.7182 8.64217V8.75227C39.1058 8.28469 40.2594 7.29509 40.9376 5.99081V5.95411ZM34.0062 25.2201C33.8358 24.2823 33.4344 23.4023 32.8388 22.6605C32.6624 22.8515 32.526 23.0761 32.4376 23.3211C32.8354 23.8503 33.121 24.4561 33.2766 25.1009C33.5092 25.1989 33.7552 25.2609 34.0062 25.2843V25.2201ZM43.391 16.6697C43.4458 16.427 43.516 16.1879 43.6008 15.9541H43.5552C42.9048 15.9577 42.2602 15.8325 41.658 15.5855C41.0558 15.3385 40.5078 14.9745 40.0454 14.5145C39.583 14.0545 39.2152 13.5073 38.963 12.9043C38.7108 12.3013 38.579 11.6542 38.5756 11V10.9541C38.3506 11.0397 38.1134 11.1131 37.8642 11.1743C37.8816 11.5261 37.9274 11.8758 38.001 12.2202L38.165 12.7982C38.5368 13.9044 39.2374 14.8691 40.1722 15.5616C41.1068 16.2541 42.2306 16.6409 43.391 16.6697ZM43.5006 7.49539C43.9536 7.49297 44.4026 7.58065 44.822 7.75339C45.2412 7.92611 45.6224 8.18051 45.9436 8.50191C46.2648 8.82333 46.5198 9.20543 46.6936 9.62625C46.8676 10.0471 46.9572 10.4984 46.9572 10.9541C46.9594 11.235 46.9288 11.5152 46.866 11.789L47.021 11.6881H47.0848L47.2398 11.5963L47.4862 11.4587H47.5408L47.6594 11.4037C47.6684 11.2754 47.6684 11.1466 47.6594 11.0183C47.657 10.4702 47.5474 9.92781 47.3366 9.42227C47.1258 8.91675 46.8182 8.45793 46.431 8.07201C46.044 7.68609 45.5852 7.38063 45.0808 7.17309C44.5764 6.96553 44.0364 6.85995 43.4914 6.86237C43.3638 6.85335 43.2358 6.85335 43.1084 6.86237L43.0444 6.98163V7.02749L42.9076 7.28439L42.8256 7.42199L42.7708 7.51373L42.6888 7.66053C42.953 7.58255 43.2254 7.53635 43.5006 7.52291V7.49539ZM42.9806 4.52291L42.1142 5.13759C41.8064 6.22109 41.2244 7.20571 40.4252 7.99525C39.6258 8.78479 38.6366 9.35225 37.554 9.64217C37.5544 9.88785 37.5728 10.1332 37.6088 10.3761C38.9714 10.0379 40.206 9.30611 41.1604 8.27103C42.1148 7.23593 42.7476 5.94265 42.9806 4.55043V4.52291ZM43.1904 17.9174C43.1992 17.7605 43.2174 17.6042 43.2452 17.4495C42.3956 17.4163 41.561 17.2143 40.7894 16.8553C40.0176 16.4964 39.3242 15.9874 38.7488 15.3578C38.794 15.7075 38.8124 16.0603 38.8036 16.4128C40.0166 17.4819 41.5524 18.1089 43.163 18.1926C43.1814 18.1101 43.1814 18.0459 43.1904 17.9449V17.9174ZM38.6302 18.6055C38.625 18.3759 38.5914 18.1478 38.53 17.9266C38.3594 18.3095 38.125 18.6601 37.8368 18.9633C37.765 19.4022 37.5438 19.8023 37.211 20.0951C36.8784 20.3881 36.4546 20.5555 36.0126 20.5687H35.8576L35.0186 21.1101C35.3384 21.2355 35.6784 21.3009 36.0218 21.3027C36.7176 21.2931 37.3816 21.0069 37.8684 20.5067C38.3554 20.0067 38.626 19.3331 38.6212 18.633L38.6302 18.6055ZM43.5096 5.96327C44.8216 5.95839 46.0818 6.47733 47.0136 7.40615C47.9456 8.33497 48.473 9.59779 48.4802 10.9174L49.1916 10.6972C49.141 9.24409 48.5408 7.86521 47.5136 6.84219C46.4864 5.81915 45.1098 5.22915 43.6646 5.19263C43.6086 5.43807 43.5386 5.68007 43.455 5.91741H43.5096V5.96327Z" fill="#E00C19"/>
<path d="M64.2868 26.3853L62.7546 25.8807C62.408 26.0275 62.0432 26.1925 61.6602 26.3853C62.8534 26.5367 64.0216 26.8451 65.135 27.3027C64.8554 27.0335 64.5726 26.7277 64.2868 26.3853Z" fill="#C86D14"/>
<path d="M69.95 33.6421C69.7502 32.6929 69.4442 31.7697 69.038 30.8899L68.9468 30.7247C68.5636 30.4495 68.1714 30.1467 67.7792 29.8073L67.8796 29.9907C68.5488 31.1789 69.0434 32.4583 69.348 33.7889C69.5306 34.7559 69.5306 35.7487 69.348 36.7155H70.0046C70.1656 35.6957 70.1472 34.6555 69.95 33.6421Z" fill="#C86D14"/>
<path d="M57.71 41.3119L57.9016 41.1283C58.7422 40.2919 59.3682 39.2623 59.7256 38.1283C59.8532 37.7431 59.9354 37.3119 59.6526 37.0917C59.3698 36.8715 58.923 37.0917 58.467 37.3485L58.312 37.4403C57.4802 38.1035 56.73 38.8643 56.0774 39.7063L55.6214 40.2293C55.0694 40.8027 54.6628 41.5013 54.4358 42.2659C54.4132 42.3079 54.4 42.3541 54.3968 42.4017C54.3938 42.4491 54.401 42.4967 54.4178 42.5411C54.4348 42.5857 54.461 42.6259 54.4948 42.6593C54.5286 42.6925 54.5692 42.7181 54.6138 42.7341C54.6584 42.7501 54.7058 42.7563 54.753 42.7523C54.8002 42.7481 54.8458 42.7337 54.887 42.7103C54.928 42.6867 54.9636 42.6545 54.9912 42.6157C55.0188 42.5771 55.0378 42.5329 55.0468 42.4861C55.2442 41.7963 55.6076 41.1661 56.1048 40.6513L56.5608 40.1283C57.181 39.3533 57.8744 38.6405 58.6312 37.9999L58.7954 37.8991L59.1692 37.6971C59.1692 37.7523 59.1692 37.8257 59.1054 37.9173C58.7816 38.9607 58.205 39.9065 57.4272 40.6697L57.2448 40.8439C55.8308 42.0879 54.7438 43.6635 54.08 45.4311H54.7732C55.4202 43.8469 56.4258 42.4365 57.71 41.3119Z" fill="#2D2A66"/>
<path d="M58.9964 41.9633C59.4622 41.4479 59.8976 40.9057 60.3006 40.3393C61.7416 38.2567 61.5228 36.8165 61.085 35.9723C60.9856 35.7509 60.8354 35.5565 60.6468 35.4049C60.458 35.2533 60.2362 35.1491 59.9996 35.1009C59.7102 35.0727 59.4182 35.1117 59.1462 35.2151C58.8742 35.3185 58.6294 35.4835 58.4308 35.6971C58.1482 35.9633 57.7742 36.2751 57.309 36.6697C56.698 37.1651 55.9502 37.7981 55.0838 38.5963C54.527 39.0655 54.0722 39.6447 53.7476 40.2981C53.4228 40.9515 53.235 41.6649 53.1958 42.3945V42.6145C53.0504 43.5833 52.7932 44.5315 52.4296 45.4403H53.1228C53.4278 44.5469 53.6416 43.6247 53.7612 42.6879V42.4677C53.7936 41.8113 53.96 41.1687 54.2502 40.5799C54.5406 39.9911 54.9486 39.4689 55.4486 39.0457C56.3058 38.2659 57.0446 37.6421 57.6466 37.1375C58.2484 36.6329 58.5038 36.4219 58.8048 36.1467C58.9298 36.0025 59.0862 35.8893 59.2618 35.8161C59.4374 35.7429 59.6276 35.7117 59.8172 35.7247C59.9536 35.7579 60.0806 35.8225 60.1882 35.9131C60.2956 36.0039 60.381 36.1183 60.4374 36.2477C60.939 37.2293 60.6836 38.5045 59.6896 39.9173C59.3028 40.4661 58.8824 40.9901 58.4308 41.4861C57.692 42.2711 57.0768 43.1653 56.6068 44.1375C56.397 44.5963 56.2146 45.0549 56.0414 45.4311H56.7436C56.8804 45.1099 57.0354 44.7613 57.1996 44.4035C57.6674 43.5003 58.2738 42.6767 58.9964 41.9633Z" fill="#E00C19"/>
<path d="M60.5374 41.2201C60.4966 41.2075 60.4538 41.2033 60.4114 41.2075C60.369 41.2119 60.328 41.2245 60.2906 41.2451C60.2532 41.2657 60.2202 41.2935 60.1936 41.3269C60.1672 41.3605 60.1476 41.3991 60.136 41.4403C59.57 42.8677 58.893 44.2483 58.1114 45.5687H58.841C59.5862 44.3155 60.2268 43.0021 60.7562 41.6421C60.7702 41.5999 60.7758 41.5555 60.7722 41.5111C60.7688 41.4669 60.7566 41.4237 60.736 41.3843C60.7156 41.3449 60.6874 41.3101 60.6534 41.2819C60.6192 41.2537 60.5798 41.2327 60.5374 41.2201Z" fill="#C86D14"/>
<path d="M62.7986 37.5687C63.0448 36.2477 63.1542 34.9907 61.8864 34.1101C61.3444 33.7407 60.7008 33.5517 60.0462 33.5699C59.3918 33.5879 58.7594 33.8121 58.2384 34.2109C57.2868 34.8543 56.3732 35.5527 55.5022 36.3027C54.6442 36.9911 53.8644 37.7727 53.1766 38.6329C52.3406 39.7253 51.8654 41.0535 51.8176 42.4311L51.7538 42.8807C51.6578 43.7725 51.3948 44.6379 50.9786 45.4311H51.699C52.0826 44.6605 52.3296 43.8285 52.4286 42.9723L52.4834 42.5229C52.522 41.2715 52.9458 40.0629 53.6964 39.0641C54.3598 38.2283 55.1156 37.4711 55.9492 36.8073C56.8212 36.0729 57.7348 35.3897 58.6852 34.7613C59.095 34.4533 59.5876 34.2769 60.0988 34.2557C60.6098 34.2343 61.1154 34.3691 61.549 34.6421C62.461 35.2567 62.461 36.0367 62.2058 37.4495C61.9504 38.8623 61.8408 39.4219 61.6676 40.7523C61.3512 42.4007 60.8748 44.0139 60.2448 45.5687C60.4872 45.5537 60.728 45.5199 60.9654 45.4679C61.5502 43.9861 61.987 42.4493 62.2696 40.8807C62.461 39.5229 62.5432 38.9633 62.7986 37.5687Z" fill="#F5A507"/>
<path d="M64.3962 37.211C64.7336 35.2752 64.469 33.9634 63.5752 33.0734C62.6814 32.1836 62.0704 32.2568 60.6294 32.3578H59.8724C59.1186 32.3428 58.3728 32.5162 57.7018 32.8624C56.6172 33.2614 55.6154 33.8586 54.7468 34.6238L54.163 35.1192L53.324 35.8166C53.0868 36.3854 52.868 36.9266 52.6856 37.4496C53.2636 36.7868 53.895 36.173 54.5734 35.6146L55.1662 35.1192C55.9898 34.3944 56.939 33.8284 57.9662 33.4496C58.5638 33.141 59.2282 32.9866 59.8998 33H60.675C62.1342 32.899 62.499 32.9358 63.1192 33.5322C63.7394 34.1284 64.1408 34.8808 63.7576 37.0918C63.6574 37.7064 63.5296 38.3762 63.3928 39.0734C63.1102 40.5412 62.8 42.1744 62.6086 43.7524C63.0108 42.922 63.3612 42.067 63.6574 41.1926C63.776 40.5138 63.9036 39.8348 64.0312 39.2018C64.159 38.5688 64.2866 37.8258 64.3962 37.211Z" fill="#036291"/>
<path d="M65.763 34.5595C65.617 32.3669 64.6502 31.6145 63.875 31.3761C62.9092 30.9945 61.8748 30.8195 60.838 30.8623C59.3806 30.9761 57.9384 31.2373 56.533 31.6421C56.1194 31.7969 55.7144 31.9745 55.32 32.1743C55.083 32.5413 54.864 32.9081 54.6542 33.2659C55.313 32.8645 56.0096 32.5295 56.7338 32.2659C58.0894 31.8803 59.4792 31.6283 60.8836 31.5137C61.836 31.4857 62.7846 31.6479 63.6744 31.9907C64.5316 32.2659 65.015 33.1375 65.1154 34.6055C65.182 36.0319 65.0562 37.4607 64.7414 38.8531C64.9778 38.4607 65.2628 38.0999 65.5896 37.7797C65.7686 36.7165 65.8266 35.6361 65.763 34.5595Z" fill="#18152C"/>
<path d="M66.7762 32.5505C66.576 31.9625 66.249 31.4265 65.8186 30.9807C65.388 30.5351 64.8648 30.1907 64.2864 29.9725C63.1098 29.3761 61.7328 29.5687 59.9908 29.8165H59.6988C59.0604 29.9083 58.577 29.9449 58.1392 29.9815C57.7014 30.0183 57.2728 30.0549 56.7986 30.1283C56.5796 30.3853 56.37 30.6513 56.1602 30.9265C56.8292 30.7761 57.5094 30.6809 58.194 30.6421C58.6318 30.6421 59.106 30.5595 59.781 30.4679L60.082 30.4219C61.7144 30.1927 63.0004 30.0091 63.9946 30.5137C64.4934 30.7013 64.9454 30.9963 65.319 31.3783C65.6924 31.7603 65.978 32.2199 66.156 32.7247C66.4856 34.1523 66.6176 35.6187 66.5482 37.0825C66.7568 36.9889 66.9736 36.9151 67.1958 36.8623C67.256 35.4123 67.1148 33.9611 66.7762 32.5505Z" fill="#E00C19"/>
<path d="M62.827 29.0549C62.8716 29.0705 62.919 29.0763 62.966 29.0717C63.013 29.0669 63.0586 29.0523 63.0994 29.0283C63.1402 29.0045 63.1754 28.9719 63.2026 28.9331C63.23 28.8943 63.2484 28.8499 63.257 28.8031C63.2658 28.7565 63.2642 28.7083 63.2526 28.6623C63.2412 28.6163 63.2198 28.5731 63.1902 28.5361C63.1608 28.4991 63.1236 28.4689 63.0812 28.4475C63.039 28.4263 62.9926 28.4145 62.9454 28.4127C62.313 28.2965 61.6728 28.2291 61.0302 28.2109C60.1592 28.2347 59.2908 28.3175 58.4308 28.4587C58.13 28.7155 57.8472 28.9815 57.5644 29.2661C58.703 29.0313 59.8594 28.8963 61.021 28.8623C61.6268 28.8829 62.2304 28.9473 62.827 29.0549Z" fill="#DE8508"/>
<path d="M68.4628 33.2935C68.2728 32.1805 67.7912 31.1385 67.0674 30.2751C66.9306 30.0825 66.7938 29.8991 66.6752 29.7155C65.6934 28.6021 64.457 27.7457 63.0728 27.2201L60.4552 27.0641C60.0812 27.2843 59.689 27.5413 59.2968 27.8257H59.6708C60.7228 27.6477 61.7982 27.6633 62.8448 27.8715C64.0912 28.3347 65.2104 29.0895 66.1098 30.0733C66.2374 30.2661 66.3834 30.4587 66.5294 30.6605C67.185 31.4511 67.625 32.3995 67.8062 33.4127C67.9528 34.5163 67.9954 35.6315 67.9338 36.7431C68.1436 36.7431 68.3626 36.7431 68.5814 36.6971C68.6514 35.5615 68.6118 34.4215 68.4628 33.2935Z" fill="#406F43"/>
<path d="M74.1366 34.0734V33.945C73.8516 33.7156 73.5462 33.513 73.2246 33.3394V33.4588C73.613 34.507 73.726 35.6382 73.553 36.7432C73.8056 36.6932 74.045 36.59 74.2552 36.4404C74.3564 35.6506 74.3164 34.849 74.1366 34.0734Z" fill="#18152C"/>
<path d="M71.4372 34.1102C71.3516 33.449 71.1924 32.7998 70.9628 32.1744V32.0642C70.7076 31.9174 70.4612 31.7614 70.2332 31.6056L69.9688 31.4312L70.0234 31.5596C70.142 31.8624 70.2332 32.055 70.3062 32.2202C70.5878 32.8574 70.7662 33.5356 70.8352 34.2294C70.9674 35.0744 70.9674 35.9348 70.8352 36.7798H71.4828C71.5998 35.8926 71.5844 34.9928 71.4372 34.1102Z" fill="#036291"/>
<path d="M72.5774 33.0549V32.9449L71.7656 32.5137V32.6237V32.7247C72.1464 33.7319 72.3322 34.8033 72.3128 35.8807C72.3128 36.2293 72.2582 36.5503 72.2216 36.8531H72.8784C72.8784 36.5595 72.933 36.2659 72.9604 35.9357C73.0108 34.9599 72.8808 33.9831 72.5774 33.0549Z" fill="#2D2A66"/>
<path d="M71.5814 8.59631C71.8782 8.36761 72.247 8.25383 72.6204 8.27573C72.9936 8.29761 73.3468 8.45371 73.6152 8.71557L73.7338 8.85319C73.9436 9.17197 74.028 9.55781 73.9708 9.93577L71.5814 8.59631ZM73.4054 12.0459C72.3748 11.1284 71.3168 10.2844 70.3684 9.53209C70.0856 9.78897 69.8028 10.0734 69.511 10.3486C70.642 11.1835 71.9096 11.9908 73.1592 12.7431L73.4054 12.0459ZM68.8452 25.1467C68.8452 25.1467 68.8452 25.0825 68.8452 25.0549C68.1338 23.6789 66.5378 21.1651 65.9814 19.8899L65.197 18.211C65.331 20.2743 65.8836 22.2881 66.8206 24.1283C66.8752 24.2569 66.93 24.3761 66.9846 24.4771C67.696 25.8715 68.8088 27.7889 69.2922 29.1283C69.566 29.8813 69.7826 30.6543 69.9396 31.4403L70.1494 31.5871L70.2316 31.6329C70.4944 29.3763 70.007 27.0955 68.8452 25.1467ZM64.6134 18.367C64.4128 17.0459 64.285 15.6147 64.1848 14.3119L63.82 14.5138V17.4862C63.712 20.7319 64.087 23.9757 64.9326 27.1101C65.1058 27.3119 65.2882 27.4953 65.4616 27.6789C65.4616 27.0275 65.4616 26.3761 65.3886 25.7247C66.3006 27.3119 67.1032 28.6329 67.76 29.8073C68.1886 30.1559 68.599 30.4679 68.9912 30.7247C68.526 28.6421 67.085 26.3577 65.27 23.9449C65.0968 21.8991 64.8596 19.9541 64.6134 18.367ZM73.0406 33.2201C73.825 33.0917 74.7096 32.9907 75.6856 32.9083C75.804 32.5321 75.9408 32.1283 76.0686 31.7247C74.7342 31.8451 73.4282 32.1827 72.2016 32.7247L73.0406 33.2201ZM74.8646 35.3303C74.8692 35.3883 74.8692 35.4465 74.8646 35.5045C74.9832 35.1375 75.1656 34.5871 75.3754 33.9265C74.9468 33.9265 74.5364 33.9265 74.135 33.9265C74.356 34.0869 74.5356 34.2979 74.6594 34.5419C74.7832 34.7861 74.8472 35.0563 74.8464 35.3303H74.8646ZM77.4822 22.9083C77.3184 22.7219 77.1448 22.5443 76.9624 22.3761C76.8986 22.4771 76.7982 22.6239 76.7434 22.7247C76.0686 23.8807 75.3208 25.0549 74.5546 26.1467C73.223 28.0549 71.9644 29.9907 70.7788 31.9815L71.1618 32.1927C71.6726 31.2751 72.1924 30.3577 72.7306 29.4403C74.133 27.1351 75.7224 24.9503 77.4822 22.9083ZM71.472 32.3669L71.5904 32.4311C73.0934 31.6847 74.6976 31.1653 76.3514 30.8899C76.4972 30.4679 76.634 30.0459 76.7708 29.6329C74.7702 29.9837 72.9224 30.9371 71.472 32.3669ZM62.3516 15.2385C61.9228 15.4404 61.4394 15.633 60.9834 15.8257L60.3632 16.7431C60.3968 17.2997 60.4606 17.8541 60.5548 18.4037C61.2682 17.4398 61.8796 16.4036 62.3788 15.3119L62.3516 15.2385ZM71.3716 21.2477C72.0298 23.6595 72.358 26.1503 72.3474 28.6513C72.9116 26.7575 73.0774 24.7661 72.834 22.8043C72.5906 20.8425 71.9434 18.9531 70.9338 17.2569C71.5358 17.7156 72.2106 18.1743 72.8126 18.5413C72.6156 18.2544 72.4506 17.9468 72.32 17.6238C70.8244 16.0367 68.9274 14.1193 67.3678 12.2477C67.085 12.4679 66.784 12.6881 66.4556 12.9082C67.508 14.3156 68.7338 15.5827 70.1038 16.6789C70.4596 17.8991 70.7514 18.9816 71.0158 19.9541L70.6694 19.3945C69.0264 17.4088 67.5034 15.3255 66.1092 13.156C65.8902 13.3027 65.6804 13.4495 65.4524 13.5871C66.7494 16.6033 68.786 19.239 71.3716 21.2477ZM67.9332 21.8531C68.9818 23.3079 69.8572 24.8815 70.5416 26.5413C70.9732 27.7227 71.2462 28.9569 71.3534 30.2109C72.1832 27.2661 71.1982 24.2109 69.5292 21.4771V21.4311C69.4922 21.3577 69.4494 21.2871 69.4016 21.2201C68.298 19.3853 66.5378 17.2202 65.9358 16.0826C65.5072 15.2752 65.1242 14.5138 64.8414 13.9174L64.5678 14.0826C65.0876 16.8937 66.2386 19.5483 67.9332 21.8439V21.8531ZM60.8284 19.7798C60.947 20.2293 61.0746 20.6971 61.2298 21.1927L61.2754 21.3027C62.2482 19.5703 62.9322 17.6891 63.3 15.7339C62.348 16.9971 61.523 18.3524 60.8376 19.7798H60.8284ZM63.2818 18.3945C63.2818 18.3945 62.616 20.4495 61.8682 22.7523C62.0506 23.1193 62.242 23.4861 62.461 23.8439C63.0658 22.0937 63.3472 20.2467 63.291 18.3945H63.2818ZM74.5728 20.4037C74.1834 20.0819 73.8148 19.7358 73.4692 19.367C73.524 20.9817 73.5878 23.2935 73.7246 26.5595C74.4004 24.5819 74.6916 22.4919 74.582 20.4037H74.5728ZM72.4934 14.5504C71.2622 13.3119 70.0126 12.1376 68.8452 11.0275C68.6082 11.2477 68.3618 11.4587 68.1156 11.6605L67.9424 11.7982C69.2824 13.0917 70.7354 14.2616 72.2836 15.2936C72.3384 15.0275 72.4022 14.789 72.4934 14.5504ZM75.4484 23.8899C75.715 23.1771 75.9462 22.4513 76.1416 21.7155L75.3572 21.0825C75.333 22.0189 75.3574 22.9559 75.4302 23.8899H75.4484ZM72.2198 30.9449C73.7228 30.0245 75.3512 29.3291 77.0536 28.8807C77.2086 28.4219 77.3728 27.9633 77.5188 27.5595C75.4438 28.1145 73.588 29.2961 72.2016 30.9449H72.2198ZM73.2868 29.3119C74.6808 28.2199 76.2146 27.3219 77.847 26.6421C77.9868 26.2295 78.1056 25.8101 78.2028 25.3853C76.2802 26.2959 74.592 27.6395 73.2686 29.3119H73.2868ZM74.9832 26.7615C75.6126 26.3119 76.853 25.5779 78.3214 24.7615C78.3562 24.5827 78.3562 24.3989 78.3214 24.2201C78.2734 24.0567 78.206 23.8995 78.1206 23.7523C76.9214 24.5863 75.857 25.6013 74.965 26.7615H74.9832Z" fill="#084022"/>
<path d="M69.8214 6.4862C69.8236 6.31484 69.8708 6.1471 69.9582 5.99998C70.4782 6.39446 70.9888 6.76144 71.445 7.10088C71.3592 7.20158 71.253 7.28244 71.1334 7.33786C71.0136 7.3933 70.8836 7.422 70.7518 7.42198C70.629 7.42448 70.5068 7.40198 70.3928 7.35584C70.2788 7.3097 70.1754 7.24086 70.0884 7.15346C70.0016 7.06606 69.9332 6.96192 69.8872 6.84724C69.8414 6.73258 69.819 6.60978 69.8214 6.4862ZM52.356 6.58712H54.563L55.5572 7.57796H58.0014L58.4484 8.0275C58.3922 8.15124 58.3642 8.286 58.3662 8.42198C58.3662 8.60344 58.4198 8.78082 58.52 8.93168C58.6202 9.08256 58.7626 9.20014 58.9294 9.26958C59.096 9.33902 59.2794 9.3572 59.4562 9.3218C59.6332 9.2864 59.7956 9.19902 59.9232 9.0707C60.0508 8.9424 60.1376 8.77894 60.1728 8.60096C60.208 8.423 60.19 8.23854 60.121 8.0709C60.052 7.90326 59.935 7.75998 59.785 7.65918C59.635 7.55836 59.4588 7.50456 59.2784 7.50456C59.1462 7.50384 59.0156 7.53202 58.8952 7.58712L58.2568 6.94492H55.8218L54.8368 5.93574H52.6296L51.2616 4.5596H48.2426L47.5678 5.2385C47.659 5.44952 47.7684 5.65134 47.8688 5.86236L48.5072 5.22016H50.997L52.356 6.58712ZM55.238 12.3302C55.1058 12.3295 54.9752 12.3577 54.855 12.4128L53.4504 11.0091H51.9546L51.4622 11.5046H49.7748C49.7748 11.7156 49.8662 11.9358 49.9026 12.1559H51.7266L52.2192 11.6605H53.1312L54.3442 12.8807C54.2894 13.0016 54.2614 13.1331 54.2622 13.266C54.2622 13.4475 54.3156 13.6249 54.4158 13.7757C54.516 13.9266 54.6584 14.0442 54.8252 14.1136C54.9918 14.1831 55.1752 14.2012 55.352 14.1658C55.529 14.1304 55.6916 14.0431 55.819 13.9147C55.9466 13.7864 56.0334 13.623 56.0686 13.445C56.1038 13.267 56.0858 13.0826 56.0168 12.9149C55.9478 12.7473 55.8308 12.604 55.6808 12.5032C55.5308 12.4024 55.3546 12.3486 55.1742 12.3486L55.238 12.3302ZM65.5988 10.4403V2.68804C65.3708 2.51374 65.1518 2.36694 64.942 2.22932V10.4862C64.7726 10.5562 64.628 10.6759 64.5272 10.8297C64.4264 10.9835 64.3738 11.1644 64.3766 11.3486C64.3766 11.5919 64.4728 11.8253 64.6438 11.9973C64.8148 12.1694 65.0468 12.266 65.2886 12.266C65.5306 12.266 65.7626 12.1694 65.9336 11.9973C66.1046 11.8253 66.2006 11.5919 66.2006 11.3486C66.2102 11.1523 66.157 10.9581 66.0486 10.7946C65.9402 10.6311 65.7826 10.5069 65.5988 10.4403ZM53.2498 14.0275C53.2498 13.846 53.1962 13.6687 53.096 13.5178C52.9958 13.3669 52.8534 13.2493 52.6868 13.1799C52.52 13.1105 52.3368 13.0923 52.1598 13.1277C51.9828 13.1631 51.8204 13.2505 51.6928 13.3788C51.5652 13.5071 51.4784 13.6705 51.4432 13.8485C51.408 14.0265 51.426 14.2109 51.4952 14.3786C51.5642 14.5462 51.681 14.6895 51.831 14.7903C51.981 14.8911 52.1574 14.9449 52.3378 14.9449C52.4502 14.9441 52.5614 14.9223 52.666 14.8807L53.496 15.7064V16.8624C53.7058 16.8624 53.9156 16.9082 54.1436 16.9174V15.4587L53.1586 14.4587C53.2214 14.3239 53.2526 14.1764 53.2498 14.0275ZM61.4582 12.1284C61.268 12.1273 61.0824 12.1859 60.927 12.2961C60.7716 12.4063 60.6544 12.5626 60.5916 12.7431H59.0412L56.3872 15.4128V16.9449L57.0348 16.8807V15.6789L59.3056 13.3945H60.5826C60.6446 13.5452 60.7456 13.6765 60.875 13.7749C61.0044 13.8733 61.1574 13.9353 61.3186 13.9543C61.4796 13.9734 61.6428 13.9489 61.7914 13.8833C61.94 13.8178 62.0684 13.7136 62.1636 13.5815C62.2588 13.4494 62.3172 13.2941 62.3328 13.1317C62.3486 12.9693 62.3208 12.8057 62.2526 12.6576C62.1846 12.5096 62.0784 12.3825 61.945 12.2895C61.8118 12.1964 61.6564 12.1408 61.4946 12.1284H61.4582ZM49.9756 7.87152C50.156 7.87152 50.3322 7.81772 50.4822 7.71692C50.6322 7.6161 50.7492 7.47282 50.8182 7.30518C50.8872 7.13754 50.9052 6.95308 50.87 6.77512C50.8348 6.59716 50.748 6.43368 50.6204 6.30538C50.493 6.17708 50.3304 6.0897 50.1534 6.0543C49.9766 6.0189 49.7932 6.03706 49.6266 6.1065C49.4598 6.17594 49.3174 6.29352 49.2172 6.4444C49.117 6.59528 49.0636 6.77264 49.0636 6.9541C49.0654 7.07306 49.087 7.19088 49.1274 7.30272L48.6714 7.73392C48.7534 7.94492 48.8264 8.1651 48.9084 8.39446L49.5652 7.78896C49.6946 7.84546 49.8344 7.87362 49.9756 7.87152ZM57.135 11.8532C57.2644 11.8383 57.3892 11.7957 57.5008 11.7283C57.6124 11.6609 57.7084 11.5702 57.7824 11.4624C57.8562 11.3545 57.9062 11.232 57.9292 11.1031C57.9522 10.9741 57.9472 10.8417 57.9152 10.7148C57.883 10.5879 57.824 10.4694 57.7426 10.3673C57.661 10.2651 57.5586 10.1818 57.4424 10.1227C57.3262 10.0637 57.1988 10.0304 57.0686 10.025C56.9386 10.0197 56.8088 10.0424 56.6882 10.0917L54.7456 8.13758H51.4622L50.1032 9.49538H49.255C49.3188 9.71556 49.3828 9.92658 49.4374 10.1559H50.3494L51.6992 8.78896H54.4354L56.2594 10.6238C56.2182 10.729 56.1966 10.841 56.1956 10.9541C56.198 11.0754 56.2242 11.195 56.2728 11.306C56.3214 11.417 56.3914 11.5172 56.4788 11.6008C56.5662 11.6844 56.6692 11.7498 56.7818 11.7931C56.8944 11.8364 57.0146 11.8568 57.135 11.8532ZM62.507 4.01832V1.83483C62.2652 1.91285 62.0302 2.01106 61.8046 2.1284L61.8594 3.36694H60.6372L60.2998 3.0275L59.7252 3.36694L60.3546 3.99998L62.507 4.01832ZM60.765 6.28438C60.83 6.47256 60.9542 6.63432 61.1188 6.7452C61.2832 6.8561 61.4792 6.9101 61.677 6.89906C61.925 6.89906 62.1628 6.79998 62.338 6.62362C62.5134 6.44728 62.6118 6.20808 62.6118 5.95868C62.6118 5.70928 62.5134 5.4701 62.338 5.29374C62.1628 5.1174 61.925 5.01832 61.677 5.01832C61.4792 5.00726 61.2832 5.06126 61.1188 5.17216C60.9542 5.28306 60.83 5.44482 60.765 5.633H59.4972L58.2294 4.35776L57.6276 4.67886L59.2236 6.28438H60.765ZM63.4372 1.64217V7.7064L61.823 9.33942C61.652 9.2578 61.4602 9.2316 61.274 9.26448C61.0878 9.29736 60.9162 9.38766 60.7832 9.5229C60.6936 9.60862 60.622 9.71178 60.5732 9.82612C60.5244 9.94046 60.4994 10.0636 60.4994 10.188C60.4994 10.3125 60.5244 10.4356 60.5732 10.55C60.622 10.6643 60.6936 10.7675 60.7832 10.8532C60.8682 10.942 60.9702 11.0126 61.0832 11.0608C61.196 11.1091 61.3172 11.1339 61.4398 11.1339C61.5624 11.1339 61.6838 11.1091 61.7966 11.0608C61.9094 11.0126 62.0114 10.942 62.0966 10.8532C62.233 10.7187 62.324 10.5445 62.3566 10.3552C62.3894 10.1659 62.3622 9.97106 62.279 9.79814L64.103 7.96328V1.75226C63.9532 1.68438 63.7926 1.64398 63.6288 1.633L63.4372 1.64217ZM48.4342 3.8807C48.632 3.89176 48.828 3.83776 48.9924 3.72686C49.157 3.61596 49.2812 3.4542 49.3462 3.26602H51.5168L50.7234 2.61464H49.3006C49.2356 2.42648 49.1114 2.2647 48.9468 2.15382C48.7824 2.04292 48.5864 1.98892 48.3886 1.99996C48.1468 1.99996 47.9148 2.09662 47.7436 2.26868C47.5726 2.44074 47.4766 2.67408 47.4766 2.9174C47.4766 3.16072 47.5726 3.39406 47.7436 3.56612C47.9148 3.73818 48.1468 3.83484 48.3886 3.83484L48.4342 3.8807ZM67.1218 3.8807L66.4744 3.36694V8.94492L68.6724 11.1651L69.1558 10.7247L67.1218 8.67886V3.8807ZM68.5902 5.00914L68.1434 4.6697L67.9336 4.49538V7.2018L70.3778 9.5229C70.542 9.36694 70.7152 9.22016 70.8794 9.08254L68.5812 6.92658L68.5902 5.00914Z" fill="#62C1D8"/>
<path d="M51.9364 29.8258H54.0798C53.8882 29.633 53.6784 29.4404 53.4596 29.2386H51.9364V28.0092C51.7906 27.8992 51.6354 27.7982 51.4714 27.6972V29.2386H51.0518L50.1398 28.3212V26.9358L49.5742 26.6698V28.3486L48.6622 29.266H48.27V26.1652L47.8688 26V29.2386H45.3242V25.3854L44.859 25.2936V29.2386H44.4396L43.5274 28.3212V25.055L42.9712 24.9816V28.3486L42.0592 29.266H41.676V24.8808H41.211V29.2386H38.7484V24.8624H38.4748H38.2468V29.2386H37.8364L36.9244 28.3212V25.0368L36.3588 25.1102V28.3486L35.4468 29.266H35.1002V25.266H34.6352V29.2386H34.0878C34.1426 29.4404 34.2064 29.633 34.2702 29.8258H34.6352V31.046C34.7992 31.5964 34.9544 32.1376 35.1002 32.6514V29.8258H35.4924L36.4044 30.7432V34.4128L35.912 34.9082C36.017 35.1854 36.1894 35.4314 36.4136 35.6238C36.7702 35.872 37.169 36.0524 37.5902 36.156L37.8546 35.8808H38.2742V36.3028L38.7484 36.3946V35.9082H41.2748V36.5414H41.7398V35.8808H42.123L42.9072 36.679C43.1354 36.679 43.3634 36.7616 43.573 36.8166L44.4852 35.8992H44.9046V37.312C45.0232 37.3854 45.1418 37.4496 45.2512 37.5322C45.2948 37.5608 45.3346 37.5946 45.3698 37.633V35.8808H47.8688V41.3854H47.121C47.1756 41.5872 47.2212 41.7798 47.276 41.9726H47.8688V44.0184C47.9854 44.3424 48.1416 44.6506 48.334 44.9358V41.945H48.726L49.6382 42.8624V45.4772C49.837 45.4608 50.0298 45.4014 50.2036 45.3028V42.8166L51.1156 41.8992H51.5352V42.1652C51.672 41.4128 51.7996 40.6056 52.0094 39.8532V35.8808H53.341C53.423 35.6882 53.5142 35.4954 53.6056 35.3028H51.9638L51.9364 29.8258ZM38.256 35.3304H37.8364L36.9244 34.4128V30.7432L37.8364 29.8258H38.256V35.3304ZM41.2566 35.3304H38.7484V29.8258H41.2748L41.2566 35.3304ZM42.9986 34.4128L42.0864 35.3304H41.7034V29.8258H42.0864L42.9986 30.7432V34.4128ZM44.8682 35.3304H44.4486L43.5366 34.4128V30.7432L44.4486 29.8258H44.8682V35.3304ZM47.8596 35.3304H45.3242V29.8258H47.8688L47.8596 35.3304ZM49.6016 40.4954L48.6896 41.4128H48.2974V35.9082H48.6896L49.6016 36.8258V40.4954ZM49.6016 34.4404L48.6896 35.3578H48.2974V29.8532H48.6896L49.6016 30.7706V34.4404ZM51.4258 41.3854H51.0062L50.0942 40.468V36.7982L51.0062 35.8808H51.4258V41.3854ZM51.4258 35.3304H51.0062L50.0942 34.4128V30.7432L51.0062 29.8258H51.4258V35.3304ZM54.8914 30.7432V32.7248C54.7274 32.9908 54.5722 33.266 54.4264 33.523V30.211L54.8914 30.7432Z" fill="#BAE1F7"/>
<path d="M68.0614 11.6697L68.1892 11.5596C70.0952 10.0183 71.7186 7.60546 73.2326 8.4128C72.3206 7.76142 70.1044 6.1284 68.1436 4.64216C66.1826 3.15592 64.4954 1.63299 63.5834 1.63299C60.984 1.63299 58.3938 5.30272 55.3112 5.30272C52.3834 5.30272 49.3738 0.220143 47.4676 1.29354C45.5614 2.36694 47.6136 4.96326 48.5438 7.49538C49.6398 10.3007 50.2564 13.2723 50.3678 16.2844C52.0308 16.7819 53.7588 17.0232 55.4936 17C57.1566 16.9705 58.8028 16.6604 60.3638 16.0825C63.1576 15.0565 65.7598 13.5647 68.0614 11.6697Z" fill="url(#paint0_linear_1_309)"/>
<path d="M48.5898 7.51374C48.5648 7.46658 48.5434 7.4175 48.526 7.36696C47.6596 5.07338 45.872 2.7798 47.1032 1.56879C46.1912 2.22934 43.984 3.86236 41.9684 5.23852C39.9528 6.61466 37.9828 7.84402 37.7182 8.65136C36.9158 11.1376 39.5424 14.7431 38.6304 17.6881C37.7182 20.4403 31.9906 21.7981 32.4194 23.9541C32.848 26.1101 35.9308 24.9449 38.6212 24.8715C41.6082 24.6985 44.6026 25.0367 47.4772 25.8715C48.4472 24.4337 49.1944 22.8561 49.6934 21.1927C50.191 19.5813 50.416 17.8973 50.3592 16.211C50.2522 13.2333 49.6544 10.2942 48.5898 7.51374Z" fill="url(#paint1_linear_1_309)"/>
<path d="M38.64 24.8715H38.4758C36.0132 24.9999 33.2772 25.9999 32.5566 24.4677C32.9032 25.5137 33.7514 28.1375 34.472 30.5137C35.1924 32.8899 35.7032 35.1009 36.3872 35.6421C38.4848 37.1743 42.7076 35.7523 45.2066 37.5779C47.7056 39.4035 47.0306 45.2017 49.2104 45.4587C51.3902 45.7155 51.226 42.4035 51.9466 39.7981C52.7008 36.8905 53.934 34.1307 55.5948 31.6329C54.5428 30.2461 53.2882 29.0273 51.8736 28.0183C50.5042 27.0655 48.9882 26.3465 47.3864 25.8899C44.5486 25.0583 41.5916 24.7139 38.64 24.8715Z" fill="url(#paint2_linear_1_309)"/>
<path d="M51.9728 39.7431V39.8991C51.3344 42.2751 51.4438 45.1925 49.7382 45.4035H56.0588C58.512 45.4035 60.8104 45.6605 61.531 45.1651C63.6378 43.6237 63.6012 39.1467 66.0912 37.3211C68.581 35.4953 73.8616 37.9265 74.7828 35.9265C75.704 33.9265 72.521 33.0457 70.2864 31.5413C67.7648 29.9147 65.538 27.8669 63.7016 25.4861C62.069 26.0701 60.532 26.8957 59.1414 27.9357C57.8132 28.9609 56.6636 30.2011 55.7394 31.6055C54.037 34.0851 52.7636 36.8365 51.9728 39.7431Z" fill="url(#paint3_linear_1_309)"/>
<path d="M70.1586 31.5871L70.2954 31.6697C72.3474 33.0091 75.1292 33.8073 74.8556 35.5137C75.193 34.4587 76.0412 31.8439 76.8348 29.4861C77.6282 27.1283 78.5494 25.0183 78.2848 24.2109C77.4822 21.7247 73.2322 20.3761 72.2836 17.422C71.3716 14.6697 75.2568 10.1743 73.6426 8.67888C72.0282 7.18346 70.2134 9.97246 68.0974 11.6238C65.777 13.5282 63.1528 15.0233 60.336 16.0458C60.3844 17.7915 60.6918 19.52 61.248 21.1743C61.795 22.7575 62.6026 24.2367 63.6376 25.5503C65.4594 27.9161 67.6638 29.9569 70.1586 31.5871Z" fill="url(#paint4_linear_1_309)"/>
<path d="M98.1044 2.45868H97.6484V44.2109H98.1044V2.45868Z" fill="black"/>
<path d="M161.245 8.87152C155.618 8.87152 147.674 10.5688 139.074 13.7339C131.388 16.5502 124.027 20.1953 117.121 24.6055C123.745 22.1483 130.73 20.8213 137.788 20.6789C147.656 20.6789 154.679 24.4769 144.3 37.7981C174.908 17.6422 174.06 8.87152 161.245 8.87152Z" fill="#FF8000"/>
<path d="M46.1364 65.2477H44.3854L41.549 60.2935V61.2109C41.549 61.5045 41.549 61.8347 41.5946 62.1283V65.2109H40.3632V58.6971H42.1052L44.9326 63.6055C44.9326 63.3027 44.9326 63.0091 44.9326 62.6879C44.9326 62.3669 44.9326 62.0825 44.9326 61.7705V58.6971H46.1364V65.2477Z" fill="black"/>
<path d="M55.4028 65.2477H51.6542V58.6971H55.4028V59.8347H53.0314V61.2751H55.2386V62.4127H53.0314V64.1009H55.4028V65.2477Z" fill="black"/>
<path d="M66.548 61.9633C66.5632 62.5739 66.4482 63.1809 66.2106 63.7431C66.005 64.2323 65.6506 64.6433 65.1982 64.9173C64.668 65.2187 64.0646 65.3649 63.4562 65.3393C62.845 65.3647 62.2386 65.2185 61.7052 64.9173C61.2366 64.6431 60.8638 64.2297 60.638 63.7339C60.408 63.1697 60.2962 62.5637 60.3096 61.9541C60.2962 61.3473 60.408 60.7445 60.638 60.1835C60.8492 59.6973 61.2064 59.2899 61.6596 59.0183C62.1962 58.7169 62.8056 58.5707 63.4198 58.5963C64.0282 58.5707 64.6316 58.7169 65.1618 59.0183C65.6148 59.2913 65.9696 59.7027 66.174 60.1925C66.424 60.7489 66.5516 61.3529 66.548 61.9633ZM61.7964 61.9633C61.7642 62.5317 61.9006 63.0969 62.1884 63.5871C62.3286 63.7875 62.5186 63.9473 62.7396 64.0505C62.9604 64.1535 63.2046 64.1963 63.4472 64.1743C63.691 64.1959 63.9362 64.1533 64.1586 64.0503C64.381 63.9473 64.5728 63.7877 64.7148 63.5871C64.995 63.0941 65.128 62.5303 65.0978 61.9633C65.1284 61.3991 64.9952 60.8381 64.7148 60.3485C64.5752 60.1471 64.3856 59.9859 64.1646 59.8813C63.9438 59.7767 63.6996 59.7321 63.4562 59.7523C63.2116 59.7315 62.9658 59.7757 62.7432 59.8803C62.5208 59.9849 62.3296 60.1463 62.1884 60.3485C61.9008 60.8355 61.7642 61.3977 61.7964 61.9633Z" fill="black"/>
<path d="M74.5278 65.2477L72.959 60.1101V60.6605V61.4495V62.2017V65.2477H71.7734V58.6971H73.6522L75.23 63.7063L76.8626 58.6971H78.7414V65.2477H77.4464V62.1467C77.4464 61.9357 77.4464 61.6971 77.4464 61.4311C77.4464 61.1651 77.4464 60.9081 77.4464 60.6697C77.4464 60.4311 77.4464 60.2385 77.4464 60.1191L75.7682 65.2477H74.5278Z" fill="black"/>
<path d="M93.2524 65.2477L91.6472 60.1101V60.6605V61.4495V62.2017V65.2477H90.498V58.6971H92.3768L93.9182 63.7063L95.5508 58.6971H97.4296V65.2477H96.2074V62.1467C96.2074 61.9357 96.2074 61.6971 96.2074 61.4311C96.2074 61.1651 96.2074 60.9081 96.2074 60.6697C96.2074 60.4311 96.2074 60.2385 96.2074 60.1191L94.5292 65.2477H93.2524Z" fill="black"/>
<path d="M104.89 65.3393C104.576 65.3599 104.262 65.3161 103.965 65.2103C103.669 65.1047 103.397 64.9395 103.166 64.7247C102.733 64.1713 102.527 63.4719 102.592 62.7705C102.569 62.2539 102.676 61.7397 102.902 61.2751C103.089 60.9057 103.39 60.6067 103.759 60.4219C104.158 60.2321 104.595 60.1379 105.036 60.1467C105.343 60.1409 105.649 60.1749 105.948 60.2477C106.177 60.3045 106.4 60.3845 106.614 60.4861L106.212 61.5413C105.993 61.4587 105.802 61.3853 105.61 61.3303C105.433 61.2759 105.249 61.2481 105.063 61.2477C104.352 61.2477 104.005 61.7523 104.005 62.7613C103.977 63.1513 104.072 63.5403 104.279 63.8715C104.37 63.9915 104.49 64.0869 104.626 64.1493C104.763 64.2119 104.913 64.2393 105.063 64.2293C105.32 64.2333 105.575 64.1963 105.82 64.1191C106.044 64.0363 106.258 63.9287 106.459 63.7981V64.9633C106.256 65.0945 106.035 65.1937 105.802 65.2569C105.502 65.3219 105.196 65.3495 104.89 65.3393Z" fill="black"/>
<path d="M111.539 65.2477V58.6971H112.916V64.1009H115.561V65.2477H111.539Z" fill="black"/>
<path d="M124.553 65.2477L124.079 63.6879H121.744L121.27 65.2477H119.783L122.082 58.6697H123.769L126.076 65.2477H124.553ZM123.751 62.4953L123.276 60.9723C123.276 60.8715 123.203 60.7339 123.158 60.5779C123.112 60.4219 123.057 60.2567 123.012 60.0917C122.966 59.9265 122.921 59.7797 122.893 59.6605C122.893 59.7797 122.82 59.9357 122.766 60.1191C122.711 60.3027 122.665 60.4679 122.62 60.6329L122.519 60.9723L122.054 62.4953H123.751Z" fill="black"/>
<path d="M132.633 58.6971C133.322 58.6455 134.009 58.8157 134.594 59.1833C134.812 59.3587 134.984 59.5849 135.095 59.8423C135.207 60.0997 135.254 60.3805 135.233 60.6605C135.236 60.9333 135.177 61.2033 135.059 61.4495C134.953 61.6693 134.8 61.8633 134.612 62.0183C134.432 62.1687 134.232 62.2951 134.02 62.3943L135.935 65.2477H134.403L132.852 62.7339H132.114V65.2477H130.736V58.6971H132.633ZM132.533 59.8347H132.114V61.6055H132.56C132.902 61.6369 133.244 61.5565 133.536 61.3761C133.637 61.2959 133.718 61.1923 133.77 61.0739C133.823 60.9557 133.846 60.8263 133.837 60.6971C133.848 60.5683 133.825 60.4389 133.768 60.3225C133.712 60.2063 133.626 60.1075 133.518 60.0365C133.214 59.8815 132.873 59.8117 132.533 59.8347Z" fill="black"/>
<path d="M144.381 65.2477H140.633V58.6971H144.381V59.8347H142.01V61.2751H144.217V62.4127H142.01V64.1009H144.381V65.2477Z" fill="black"/>
<path d="M155.389 65.2477H153.665L150.829 60.2935V61.2109V62.1283V65.2109H149.598V58.6971H151.34L154.167 63.6055C154.167 63.3027 154.167 63.0091 154.167 62.6879C154.167 62.3669 154.167 62.0825 154.167 61.7705V58.6971H155.407L155.389 65.2477Z" fill="black"/>
<path d="M34.6812 77.1743H33.3222V70.6239H37.0526V71.7615H34.6812V73.4495H36.9248V74.5871H34.6812V77.1743Z" fill="black"/>
<path d="M48.1164 73.8899C48.1316 74.5005 48.0164 75.1075 47.7788 75.6697C47.5708 76.1601 47.2132 76.5715 46.7574 76.8439C46.2272 77.1453 45.6238 77.2915 45.0154 77.2659C44.4194 77.2827 43.83 77.1369 43.3098 76.8439C42.8582 76.5625 42.502 76.1497 42.2884 75.6605C42.0584 75.0963 41.9466 74.4903 41.96 73.8807C41.9466 73.2739 42.0584 72.6709 42.2884 72.1099C42.4996 71.6239 42.8568 71.2165 43.3098 70.9449C43.8466 70.6433 44.456 70.4973 45.0702 70.5229C45.6786 70.4973 46.282 70.6435 46.8122 70.9449C47.2652 71.2179 47.62 71.6293 47.8244 72.1191C48.0464 72.6817 48.1458 73.2855 48.1164 73.8899ZM43.3646 73.8899C43.3324 74.4583 43.469 75.0235 43.7568 75.5137C43.8968 75.7141 44.0868 75.8739 44.3078 75.9771C44.5288 76.0801 44.7728 76.1227 45.0154 76.1009C45.2592 76.1225 45.5046 76.0799 45.727 75.9769C45.9492 75.8739 46.141 75.7141 46.2832 75.5137C46.5634 75.0207 46.6964 74.4569 46.6662 73.8899C46.6966 73.3257 46.5636 72.7647 46.2832 72.2751C46.1436 72.0737 45.9538 71.9125 45.733 71.8079C45.5122 71.7033 45.2678 71.6587 45.0246 71.6787C44.7798 71.6581 44.534 71.7021 44.3116 71.8069C44.0892 71.9115 43.8978 72.0729 43.7568 72.2751C43.4692 72.7621 43.3326 73.3243 43.3646 73.8899Z" fill="black"/>
<path d="M55.2388 70.6237C55.9272 70.5721 56.614 70.7423 57.1998 71.1101C57.4176 71.2853 57.5896 71.5115 57.7008 71.7689C57.8122 72.0263 57.8592 72.3073 57.8382 72.5871C57.8454 72.8603 57.786 73.1313 57.6648 73.3761C57.5584 73.5959 57.406 73.7899 57.218 73.9449C57.0372 74.0953 56.838 74.2217 56.6252 74.3211L58.5404 77.1743H56.99L55.4394 74.6605H54.7008V77.1743H53.3418V70.6237H55.2388ZM55.1658 71.7615H54.7464V73.5321H55.1658C55.5072 73.5637 55.8496 73.4831 56.1418 73.3027C56.243 73.2225 56.3232 73.1189 56.3756 73.0007C56.428 72.8823 56.451 72.7531 56.4428 72.6237C56.4538 72.4949 56.43 72.3655 56.3738 72.2491C56.3176 72.1329 56.231 72.0341 56.1236 71.9633C55.8274 71.8129 55.4972 71.7433 55.1658 71.7615Z" fill="black"/>
<path d="M65.9906 77.1743L64.422 72.0367V72.5871V73.3761V74.1283V77.1743H63.2364V70.6239H65.1152L66.6564 75.6329L68.289 70.6239H70.1678V77.1743H68.9092V74.0733C68.9092 73.8623 68.9092 73.6239 68.9092 73.3577C68.9092 73.0917 68.9092 72.8349 68.9092 72.5963C68.9092 72.3577 68.9092 72.1651 68.9092 72.0459L67.231 77.1743H65.9906Z" fill="black"/>
<path d="M81.013 70.6239V74.8623C81.0158 75.2921 80.909 75.7153 80.703 76.0917C80.4938 76.4661 80.1754 76.7671 79.7908 76.9541C79.3216 77.1783 78.8052 77.2853 78.286 77.2661C77.5686 77.3147 76.8608 77.0775 76.316 76.6055C76.0886 76.3747 75.911 76.0991 75.7948 75.7959C75.6788 75.4927 75.6264 75.1685 75.6412 74.8439V70.6239H77.0548V74.6329C77.0128 75.0435 77.1304 75.4545 77.3832 75.7797C77.6536 76.0119 78.0044 76.1273 78.359 76.1009C78.5378 76.1177 78.7182 76.0943 78.887 76.0323C79.0556 75.9705 79.2086 75.8717 79.3348 75.7431C79.5688 75.4197 79.679 75.0223 79.645 74.6239V70.6239H81.013Z" fill="black"/>
<path d="M86.4844 77.1743V70.6239H87.8616V76.0275H90.5064V77.1743H86.4844Z" fill="black"/>
<path d="M99.4998 77.1743L99.0256 75.6147H96.6542L96.2074 77.1743H94.6934L96.9916 70.5963H98.679L100.986 77.1743H99.4998ZM98.6972 74.4219L98.223 72.8991C98.223 72.7981 98.15 72.6605 98.1044 72.5045C98.0588 72.3485 98.004 72.1835 97.9584 72.0183C97.9128 71.8531 97.8672 71.7063 97.8398 71.5871C97.8398 71.7063 97.767 71.8623 97.7122 72.0459C97.6574 72.2293 97.6118 72.3945 97.5662 72.5595L97.466 72.8991L97.0008 74.4219H98.6972Z" fill="black"/>
<path d="M115.68 77.1743H111.932V70.6239H115.68V71.7615H113.309V73.2017H115.516V74.3395H113.309V76.0275H115.68V77.1743Z" fill="black"/>
<path d="M129.67 77.1743H128.293V71.7797H126.523V70.6239H131.439V71.7797H129.67V77.1743Z" fill="black"/>
<path d="M140.068 77.1743H136.338V70.6239H140.086V71.7615H137.715V73.2017H139.922V74.3395H137.715V76.0275H140.086L140.068 77.1743Z" fill="black"/>
<path d="M149.287 77.1743L148.813 75.6147H146.441L145.967 77.1743H144.48L146.779 70.5963H148.466L150.774 77.1743H149.287ZM148.484 74.4219L148.01 72.8991C148.01 72.7981 147.937 72.6605 147.891 72.5045C147.846 72.3485 147.791 72.1835 147.746 72.0183C147.7 71.8531 147.654 71.7063 147.627 71.5871C147.627 71.7063 147.554 71.8623 147.499 72.0459C147.445 72.2293 147.399 72.3945 147.353 72.5595L147.253 72.8991L146.788 74.4219H148.484Z" fill="black"/>
<path d="M158.226 77.1743L156.658 72.0367V72.5871V73.3761V74.1283V77.1743H155.49V70.6239H157.314L158.856 75.6329L160.488 70.6239H162.367V77.1743H161.145V74.0733C161.145 73.8623 161.145 73.6239 161.145 73.3577C161.145 73.0917 161.145 72.8349 161.145 72.5963C161.145 72.3577 161.145 72.1651 161.145 72.0459L159.467 77.1743H158.226Z" fill="black"/>
</g>
</g>
</g>
<defs>
<linearGradient id="paint0_linear_1_309" x1="45.9354" y1="3.94492" x2="70.4164" y2="14.7826" gradientUnits="userSpaceOnUse">
<stop offset="0.09" stop-opacity="0.8"/>
<stop offset="0.42" stop-opacity="0"/>
</linearGradient>
<linearGradient id="paint1_linear_1_309" x1="34.4532" y1="26.3027" x2="52.464" y2="6.41752" gradientUnits="userSpaceOnUse">
<stop offset="0.09" stop-opacity="0.85"/>
<stop offset="0.42" stop-opacity="0"/>
</linearGradient>
<linearGradient id="paint2_linear_1_309" x1="52.0378" y1="44.1925" x2="38.5486" y2="20.9679" gradientUnits="userSpaceOnUse">
<stop offset="0.09" stop-opacity="0.8"/>
<stop offset="0.42" stop-opacity="0"/>
</linearGradient>
<linearGradient id="paint3_linear_1_309" x1="74.3906" y1="32.8991" x2="48.2202" y2="38.4325" gradientUnits="userSpaceOnUse">
<stop offset="0.09" stop-opacity="0.85"/>
<stop offset="0.42" stop-opacity="0"/>
</linearGradient>
<linearGradient id="paint4_linear_1_309" x1="70.6146" y1="8.0275" x2="67.791" y2="34.7763" gradientUnits="userSpaceOnUse">
<stop offset="0.09" stop-opacity="0.8"/>
<stop offset="0.42" stop-opacity="0"/>
</linearGradient>
<clipPath id="clip0_1_309">
<rect width="200" height="80" fill="white"/>
</clipPath>
</defs>
</svg>
