<svg width="200" height="49" viewBox="0 0 200 49" fill="none" xmlns="http://www.w3.org/2000/svg">
<path d="M192.144 5.09789C191.791 5.12653 191.432 5.12212 191.087 5.19041C188.7 5.65964 186.409 6.4615 184.139 7.32064C178.355 9.51254 172.809 12.1913 167.659 15.6587C165.232 17.2933 162.945 19.1063 160.933 21.2519C159.474 22.8072 158.201 24.4968 157.288 26.442C156.478 28.1691 156.008 29.971 156.139 31.9052C156.303 34.335 157.349 36.3089 159.162 37.8773C160.85 39.3379 162.838 40.1265 165.029 40.4151C167.591 40.7521 170.116 40.4019 172.617 39.893C179.38 38.5162 185.364 35.4409 190.854 31.3038C191.223 31.0262 191.59 30.7399 191.987 30.5086C192.297 30.3279 192.642 30.1803 192.99 30.0988C193.682 29.9336 194.126 30.2706 194.193 30.9844C194.276 31.8545 193.995 32.63 193.505 33.3261C193.184 33.7843 192.828 34.2205 192.461 34.6456C188.811 38.8686 184.432 42.151 179.535 44.7504C176.234 46.5018 172.772 47.8213 169.092 48.5042C165.614 49.1497 162.139 49.2862 158.729 48.1716C152.659 46.1889 149.138 41.9351 148.07 35.6348C147.308 31.1474 148.361 26.9905 150.617 23.109C152.19 20.4016 154.223 18.0797 156.519 15.9803C159.955 12.8367 163.808 10.2968 167.903 8.13131C174.185 4.80931 180.778 2.32882 187.726 0.846258C190.316 0.293326 192.931 -0.109809 195.591 0.0267721C196.24 0.0598159 196.904 0.14573 197.522 0.332978C199.366 0.892519 200.266 2.45219 199.931 4.36652C199.706 5.65964 199.219 6.85142 198.61 8.00134C197.144 10.7682 195.205 13.1738 193.044 15.4076C188.56 20.0425 183.462 23.8095 177.571 26.4442C174.919 27.6293 172.167 28.4753 169.284 28.8498C167.322 29.1053 165.361 29.0943 163.415 28.722C162.947 28.6339 162.469 28.4576 162.067 28.2065C161.082 27.5919 161.014 26.464 161.864 25.6621C162.447 25.1136 163.174 24.8867 163.935 24.8867C168.168 24.8867 171.979 23.4526 175.579 21.3775C181.531 17.9453 186.533 13.3963 190.76 7.96829C191.207 7.39333 191.59 6.7633 191.965 6.13767C192.12 5.88213 192.182 5.56711 192.284 5.28074C192.236 5.22126 192.19 5.15957 192.142 5.1001L192.144 5.09789Z" fill="url(#paint0_linear_16_3145)"/>
<path d="M86.4367 16.3394C86.1134 16.6192 85.7771 16.8857 85.4713 17.1831C82.9921 19.6019 80.6986 22.1947 78.4969 24.8691C76.341 27.4884 74.2769 30.1715 72.6146 33.1521C72.3722 33.586 72.0009 33.9848 71.6011 34.28C70.7733 34.888 69.8297 34.6523 69.2924 33.7689C68.8948 33.1146 68.7987 32.3877 68.8948 31.6453C69.0849 30.1671 69.2705 28.6868 69.5283 27.2196C70.0569 24.206 70.8694 21.2629 71.7737 18.344C71.8305 18.1568 71.8851 17.9695 71.9331 17.7801C71.9419 17.7449 71.9048 17.7008 71.8654 17.6017C71.6689 17.844 71.481 18.0599 71.3128 18.289C68.4449 22.2454 65.8936 26.4001 63.6089 30.7244C63.4953 30.9403 63.3883 31.1628 63.2529 31.3633C63.0148 31.7136 62.733 32.0418 62.259 31.9933C61.7501 31.9405 61.5011 31.5417 61.3984 31.1078C61.2717 30.568 61.1429 29.9931 61.1996 29.4534C61.2717 28.7594 61.4312 28.0391 61.7217 27.4091C64.0916 22.2763 67.0426 17.5246 70.9218 13.4007C71.6186 12.6583 72.4071 11.9908 73.2175 11.3762C73.7111 11.0017 74.3031 10.7153 74.895 10.5281C76.068 10.158 76.9046 10.7792 76.8652 12.0173C76.8412 12.7354 76.6774 13.4756 76.4415 14.1585C75.3166 17.4188 74.4451 20.7474 73.7199 24.1201C73.6762 24.325 73.6478 24.532 73.6129 24.7391C73.6565 24.7611 73.7002 24.7854 73.7439 24.8074C73.9012 24.6047 74.065 24.4065 74.2157 24.1994C76.6381 20.9104 79.2636 17.8087 82.3194 15.0947C83.9991 13.6034 85.788 12.264 87.6992 11.0898C88.787 10.4201 89.9359 9.88924 91.2203 9.80112C91.762 9.76367 92.3408 9.82095 92.8607 9.97956C93.7213 10.2417 94.145 11.0083 93.9244 11.8807C93.7824 12.4402 93.5356 12.9865 93.2538 13.491C91.6353 16.3879 89.9359 19.2406 88.3742 22.1683C85.5827 27.4002 83.5753 32.956 81.9306 38.6505C81.8432 38.9546 81.7514 39.263 81.6117 39.5449C81.07 40.642 80.098 40.7015 79.4055 39.6815C78.9687 39.0383 78.8005 38.3025 78.7524 37.5337C78.6694 36.1943 78.9643 34.9056 79.281 33.6257C80.181 29.9777 81.6007 26.5235 83.2105 23.1486C84.1673 21.144 85.2048 19.179 86.2052 17.1963C86.3253 16.9584 86.4455 16.7205 86.5678 16.4826C86.5241 16.4363 86.4804 16.3879 86.4367 16.3416V16.3394Z" fill="url(#paint1_linear_16_3145)"/>
<path d="M45.8158 17.9387C45.3899 18.1017 44.9705 18.3022 44.5315 18.4189C44.0684 18.5423 43.5835 18.648 43.1095 18.6458C42.5176 18.6436 42.2271 18.2229 42.3887 17.6479C42.4848 17.3043 42.6464 16.9408 42.8823 16.683C43.3388 16.183 43.8216 15.6829 44.372 15.2974C47.8013 12.905 51.6063 11.5855 55.7695 11.2991C57.3728 11.189 58.9673 11.1207 60.5487 11.4753C61.3132 11.645 62.034 11.9225 62.6806 12.3785C64.1768 13.4315 64.6988 15.163 63.954 16.8372C63.6788 17.4541 63.2922 18.0334 62.8815 18.5731C62.0056 19.7275 60.9157 20.6681 59.782 21.5537C57.0277 23.7037 54.0243 25.444 50.9139 27.0081C50.6605 27.1359 50.4071 27.2681 50.0489 27.4509C50.3307 27.7108 50.5251 27.9157 50.7435 28.0897C54.4415 31.0483 58.371 33.6411 62.6216 35.7273C62.9034 35.8661 63.1982 36.0004 63.4429 36.1943C64.0588 36.6789 64.037 37.3552 63.3533 37.7429C62.9645 37.9632 62.4905 38.1307 62.0537 38.1351C61.3613 38.1417 60.6448 38.0712 59.9764 37.8883C58.0718 37.3684 56.309 36.4829 54.5682 35.5643C51.3595 33.8724 48.295 31.9471 45.3702 29.7948C45.178 29.6538 44.977 29.5216 44.7411 29.3586C44.6188 29.5921 44.5118 29.7772 44.4222 29.971C43.424 32.1453 42.4324 34.324 41.4298 36.4961C41.2769 36.8265 41.1043 37.1592 40.8772 37.4389C40.3114 38.1351 39.5557 38.0844 39.0773 37.3156C38.564 36.4895 38.4788 35.562 38.6339 34.6236C38.73 34.0486 38.8808 33.4737 39.0861 32.9296C40.9165 28.0501 43.1881 23.3733 45.5799 18.756C45.7022 18.5225 45.818 18.2846 45.9359 18.0488C45.8944 18.0136 45.8551 17.9783 45.8136 17.9409L45.8158 17.9387ZM46.6043 25.2832C46.8402 25.1709 46.9516 25.1312 47.0499 25.0717C49.4985 23.5892 51.9689 22.1375 54.3847 20.6042C55.5293 19.8795 56.5996 19.0269 57.6524 18.17C58.1329 17.7779 58.5545 17.2734 58.8821 16.7425C59.4457 15.8349 59.0678 15.0903 58.004 14.9846C57.4077 14.9251 56.7787 14.9163 56.1977 15.0419C54.6861 15.3723 53.1965 15.7953 51.6937 16.1675C51.2066 16.2887 50.9161 16.5839 50.6933 17.0289C49.3849 19.6438 48.0591 22.2498 46.7398 24.8603C46.6983 24.944 46.6786 25.0409 46.6 25.2854L46.6043 25.2832Z" fill="url(#paint2_linear_16_3145)"/>
<path d="M9.16811 16.835C8.49098 16.9254 7.94492 17.0223 7.39448 17.0597C7.01223 17.0862 6.61469 17.0752 6.239 17.0047C5.45922 16.8549 5.12502 16.2997 5.38495 15.5419C5.51601 15.1586 5.74099 14.7885 5.99873 14.4735C6.74357 13.5637 7.7112 12.9667 8.82955 12.6275C12.5035 11.515 16.2299 10.6382 20.013 9.99719C23.6083 9.38698 27.2233 8.99927 30.8732 9.05214C32.1576 9.07197 33.4441 9.15567 34.7197 9.29446C35.2832 9.35614 35.8424 9.58304 36.3688 9.81655C36.8013 10.0082 37.118 10.3673 37.0918 10.907C37.0656 11.4423 36.7205 11.7749 36.2815 11.9402C35.79 12.1252 35.2614 12.2706 34.7394 12.3081C29.045 12.7156 23.403 13.4668 17.8484 14.8194C17.1189 14.9978 16.4024 15.2291 15.6794 15.434C15.3387 15.5309 15.0831 15.7182 14.8953 16.0354C13.79 17.9057 12.6695 19.7671 11.5577 21.633C11.5337 21.6727 11.5359 21.7255 11.5031 21.8819C11.8766 21.8136 12.2152 21.7542 12.5515 21.6903C14.6244 21.2894 16.6973 20.8906 18.8204 20.8884C19.2289 20.8884 19.6439 20.9479 20.0436 21.0338C20.4673 21.1241 20.8125 21.3576 20.8976 21.8291C20.9916 22.3424 20.9107 22.838 20.4521 23.1354C20.1135 23.3557 19.7225 23.5231 19.3315 23.6355C17.0926 24.2787 14.8472 24.8955 12.6083 25.53C11.8853 25.7348 11.1733 25.9838 10.4525 26.1931C9.70981 26.4067 9.17248 26.8583 8.80989 27.5412C7.90342 29.2441 6.98165 30.9381 6.073 32.6388C4.99178 34.6633 3.92149 36.6944 2.84028 38.7188C2.69174 38.9964 2.52793 39.2784 2.31605 39.5075C1.66077 40.2124 0.706243 40.0692 0.267205 39.2079C0.0160134 38.7144 -0.0757268 38.1769 0.0684351 37.6394C0.396076 36.4146 0.686584 35.1722 1.10596 33.9782C2.4056 30.2817 4.11152 26.7658 5.85894 23.2698C6.84186 21.3048 7.87502 19.364 8.88415 17.4122C8.9606 17.2624 9.03487 17.1126 9.17248 16.835H9.16811Z" fill="url(#paint3_linear_16_3145)"/>
<path d="M89.3986 34.3769C89.4488 32.5881 89.7284 31.0747 90.1849 29.601C91.6964 24.7215 93.9681 20.2319 97.1003 16.2072C97.7119 15.423 98.4087 14.696 99.1382 14.0175C99.5358 13.6474 100.053 13.3676 100.565 13.1694C101.399 12.8455 102.622 13.2861 102.465 14.6255C102.397 15.2005 102.29 15.7975 102.065 16.324C101.571 17.4915 101.036 18.648 100.438 19.7627C98.5638 23.2455 96.7617 26.7658 95.2655 30.4337C94.8702 31.4029 94.5534 32.4075 94.2433 33.4098C94.1384 33.7513 94.1253 34.1346 94.1406 34.4958C94.1625 34.9408 94.4246 35.192 94.8592 35.1303C95.2546 35.0752 95.6893 34.9607 96.006 34.7338C96.7923 34.1676 97.5721 33.5728 98.2667 32.9009C100.252 30.98 101.93 28.7903 103.559 26.5653C107.296 21.4634 110.625 16.0904 113.873 10.6647C114.122 10.2483 114.411 9.84738 114.732 9.4883C115.068 9.1116 115.514 8.91774 116.038 8.97061C116.51 9.01908 116.715 9.19311 116.691 9.66674C116.669 10.0765 116.615 10.506 116.47 10.885C115.961 12.2309 115.481 13.5967 114.858 14.8877C112.272 20.2452 109.19 25.3075 105.693 30.1076C104.195 32.1629 102.502 34.0486 100.584 35.7185C99.4418 36.712 98.2274 37.6086 96.8469 38.243C95.5254 38.851 94.1625 39.2299 92.6859 38.9149C90.9778 38.5514 89.9009 37.483 89.5668 35.7449C89.4663 35.2184 89.4335 34.6787 89.3986 34.3769Z" fill="url(#paint4_linear_16_3145)"/>
<path d="M140.587 15.8988C140.22 16.1698 139.831 16.4121 139.493 16.7139C137.186 18.7714 134.871 20.8223 132.595 22.9151C131.018 24.3668 129.5 25.8803 127.962 27.3738C127.147 28.1647 126.263 28.8322 125.135 29.0987C124.605 29.2243 124.041 29.3344 123.644 28.8586C123.233 28.3651 123.493 27.8298 123.742 27.3518C123.945 26.9641 124.19 26.5962 124.447 26.2437C126.142 23.9329 128.119 21.8797 130.172 19.9015C133.298 16.8879 136.592 14.0726 140.237 11.7089C141.314 11.0105 142.459 10.4091 143.601 9.82097C144.444 9.38479 145.362 9.28786 146.29 9.54781C147.614 9.9157 148.079 10.8828 147.489 12.1318C146.873 13.4338 146.196 14.7048 145.563 15.998C142.498 22.2741 140.449 28.8718 139.403 35.789C139.309 36.4168 139.255 37.0535 139.119 37.6725C139.012 38.1681 138.883 38.6858 138.636 39.1176C137.798 40.5825 136.12 40.5869 135.227 39.155C134.746 38.3862 134.654 37.5073 134.526 36.6349C134.259 34.8241 134.01 33.0067 133.674 31.2091C133.412 29.8103 132.855 28.5017 132.193 27.2417C132.057 26.9839 131.931 26.7152 131.854 26.4354C131.642 25.6578 132.088 25.1158 132.887 25.1863C133.571 25.248 134.165 25.5476 134.541 26.1336C135.052 26.931 135.511 27.7637 135.983 28.5876C136.1 28.7925 136.181 29.0194 136.345 29.2397C137.378 24.6797 138.951 20.3157 140.773 16.0376L140.585 15.901L140.587 15.8988Z" fill="url(#paint5_linear_16_3145)"/>
<path d="M39.322 21.0536C39.3132 22.5913 39.145 23.8029 38.7606 24.9682C37.1901 29.7243 34.3702 33.5442 30.255 36.3639C28.7741 37.3795 27.1425 38.058 25.3361 38.2408C24.0801 38.3664 22.8613 38.2078 21.7102 37.6857C19.3686 36.6239 18.3377 34.2799 18.6828 31.9471C19.5849 25.8472 22.7521 21.2585 28.097 18.2427C29.4643 17.4717 30.9606 17.0729 32.5223 16.8747C33.0334 16.8108 33.5664 16.6059 34.0033 16.3262C35.5563 15.326 37.3496 15.8834 38.3106 17.3659C39.0992 18.5819 39.3045 19.9478 39.3241 21.0536H39.322ZM34.5777 19.4741C34.1234 19.5843 33.7455 19.657 33.3807 19.7693C31.6246 20.3068 30.1458 21.318 28.8091 22.5516C26.5964 24.5937 24.8905 27.0125 23.6673 29.7728C23.4117 30.3521 23.1758 30.9513 23.0295 31.5637C22.8853 32.174 22.8045 32.8172 22.8111 33.4428C22.8198 34.1125 23.213 34.454 23.8792 34.5068C24.1172 34.5267 24.3794 34.5311 24.5978 34.454C25.3033 34.2051 26.0503 34.0068 26.6838 33.6257C30.2813 31.469 32.8019 28.4004 34.1343 24.3844C34.6476 22.838 34.7852 21.2365 34.5734 19.4763L34.5777 19.4741Z" fill="url(#paint6_linear_16_3145)"/>
<path d="M115.046 34.465C115.409 34.335 115.653 34.2513 115.896 34.1632C119.295 32.9031 122.798 32.2136 126.424 32.2202C127.195 32.2202 127.966 32.3634 128.733 32.4625C128.943 32.489 129.159 32.5749 129.345 32.6828C129.821 32.9604 129.939 33.3812 129.668 33.868C129.312 34.5113 128.729 34.8395 128.025 34.9519C126.972 35.1193 125.911 35.2338 124.865 35.4431C122.741 35.8639 120.721 36.6283 118.694 37.3751C117.148 37.9434 115.586 38.4765 114.007 38.9391C113.094 39.2057 112.132 39.1859 111.204 38.9039C109.821 38.4853 108.976 37.3905 108.884 35.9476C108.828 35.0532 108.981 34.1962 109.278 33.3569C109.824 31.8061 110.584 30.3588 111.403 28.9445C113.585 25.1797 116.101 21.644 118.705 18.17C119.963 16.4936 121.258 14.8436 122.547 13.1892C123.259 12.275 124.107 11.5106 125.162 11.0171C125.511 10.8541 125.882 10.7153 126.258 10.647C127.169 10.4796 127.619 11.0193 127.28 11.8961C127.108 12.3455 126.826 12.7574 126.562 13.1628C124.83 15.8173 123.032 18.4322 121.368 21.1285C119.199 24.6378 117.265 28.2814 115.763 32.1387C115.533 32.7291 115.343 33.3371 115.14 33.9385C115.103 34.0509 115.097 34.1742 115.046 34.4672V34.465Z" fill="url(#paint7_linear_16_3145)"/>
<defs>
<linearGradient id="paint0_linear_16_3145" x1="173.912" y1="0" x2="173.912" y2="49" gradientUnits="userSpaceOnUse">
<stop stop-color="#14B7ED"/>
<stop offset="1" stop-color="#0554F2" stop-opacity="0.94902"/>
</linearGradient>
<linearGradient id="paint1_linear_16_3145" x1="77.584" y1="9.79007" x2="77.584" y2="40.4088" gradientUnits="userSpaceOnUse">
<stop stop-color="#14B7ED"/>
<stop offset="1" stop-color="#0554F2" stop-opacity="0.94902"/>
</linearGradient>
<linearGradient id="paint2_linear_16_3145" x1="51.4272" y1="11.2105" x2="51.4272" y2="38.1355" gradientUnits="userSpaceOnUse">
<stop stop-color="#14B7ED"/>
<stop offset="1" stop-color="#0554F2" stop-opacity="0.94902"/>
</linearGradient>
<linearGradient id="paint3_linear_16_3145" x1="18.5467" y1="9.04733" x2="18.5467" y2="39.9567" gradientUnits="userSpaceOnUse">
<stop stop-color="#14B7ED"/>
<stop offset="1" stop-color="#0554F2" stop-opacity="0.94902"/>
</linearGradient>
<linearGradient id="paint4_linear_16_3145" x1="103.046" y1="8.96204" x2="103.046" y2="39.0283" gradientUnits="userSpaceOnUse">
<stop stop-color="#14B7ED"/>
<stop offset="1" stop-color="#0554F2" stop-opacity="0.94902"/>
</linearGradient>
<linearGradient id="paint5_linear_16_3145" x1="135.585" y1="9.40494" x2="135.585" y2="40.2227" gradientUnits="userSpaceOnUse">
<stop stop-color="#14B7ED"/>
<stop offset="1" stop-color="#0554F2" stop-opacity="0.94902"/>
</linearGradient>
<linearGradient id="paint6_linear_16_3145" x1="28.9709" y1="15.8212" x2="28.9709" y2="38.2816" gradientUnits="userSpaceOnUse">
<stop stop-color="#14B7ED"/>
<stop offset="1" stop-color="#0554F2" stop-opacity="0.94902"/>
</linearGradient>
<linearGradient id="paint7_linear_16_3145" x1="119.342" y1="10.6167" x2="119.342" y2="39.1277" gradientUnits="userSpaceOnUse">
<stop stop-color="#14B7ED"/>
<stop offset="1" stop-color="#0554F2" stop-opacity="0.94902"/>
</linearGradient>
</defs>
</svg>
