<svg width="200" height="80" viewBox="0 0 200 80" fill="none" xmlns="http://www.w3.org/2000/svg">
<path d="M70.6276 55.7937H70.4876L63.8046 46.1425H60.9356V61.4945H64.207V51.8259H64.3294L71.0648 61.4945H73.899V46.1425H70.6276V55.7937Z" fill="#1A1A1A"/>
<path d="M82.366 46.1425H76.8204V61.4945H82.3136C87.0372 61.4945 89.8888 58.6007 89.8888 53.8011C89.8888 49.0015 87.0546 46.1425 82.366 46.1425ZM82.1912 58.7047H80.1092V48.9149H82.1912C85.0952 48.9149 86.6348 50.3877 86.6348 53.7839C86.6348 57.1799 85.1128 58.7047 82.1912 58.7047Z" fill="#1A1A1A"/>
<path d="M104.48 51.1501C104.48 48.1005 102.451 46.1425 98.9346 46.1425H92.829V53.4373H91.7792V56.0363H92.829V61.4771H96.1004V56.0363H98.4972L101.436 61.4771H105.058L101.769 55.5165C103.518 54.7715 104.498 53.2639 104.48 51.1501ZM98.3222 53.4373H96.1004V48.7935H98.3048C100.194 48.7935 101.104 49.6253 101.104 51.1501C101.104 52.6749 100.194 53.4373 98.3222 53.4373Z" fill="#1A1A1A"/>
<path d="M110.568 55.1527H117.199V52.4669H110.568V48.8109H117.741V46.1425H107.297V61.4945H117.759V58.8087H110.568V55.1527Z" fill="#1A1A1A"/>
<path d="M119.998 48.8109H124.739V61.4945H127.976V48.8109H132.717V46.1425H119.998V48.8109Z" fill="#1A1A1A"/>
<path d="M134.973 48.8109H139.714V61.4945H142.95V48.8109H147.691V46.1425H134.973V48.8109Z" fill="#1A1A1A"/>
<path d="M153.377 46.1425H150.105V61.4945H153.377V46.1425Z" fill="#1A1A1A"/>
<path d="M54.4798 61.4945H58.1012L53.8326 46.1079H48.3918L44.1406 61.4945H47.762L48.7416 57.9423H53.5002L54.4798 61.4945ZM49.4764 55.3433L51.121 49.4173L52.7654 55.3433H49.4764Z" fill="#1A1A1A"/>
<path d="M98.758 8.55962L104.759 30.0973L110.182 28.3127L102.397 0.155884C102.397 0.155884 100.14 -6.10352e-05 98.793 -6.10352e-05C97.4458 -6.10352e-05 95.1366 0.155884 95.1366 0.155884L87.334 28.3127L92.7572 30.0973L98.758 8.55962Z" fill="white"/>
<path d="M88.8738 1.10895C87.0894 1.57679 84.8676 2.2872 84.3952 2.4778C84.2552 2.52978 84.1678 2.6684 84.1678 2.80702L82.4882 26.4761C82.4882 26.6319 82.5932 26.7533 82.7332 26.8053L86.1622 27.9315L87.7892 2.37384C87.8416 1.75006 88.279 1.24757 88.8738 1.10895Z" fill="#14377D"/>
<path d="M88.8738 1.10895C88.2614 1.24756 87.824 1.76738 87.7892 2.37384L86.1622 27.9315L87.3342 28.3127L95.1368 0.155945C92.74 0.346545 90.5532 0.710417 88.8738 1.10895Z" fill="#EE3124"/>
<path d="M108.643 1.10895C110.427 1.57679 112.649 2.2872 113.121 2.4778C113.261 2.52978 113.349 2.6684 113.349 2.80702L115.028 26.4761C115.028 26.6319 114.941 26.7533 114.783 26.8053L111.354 27.9315L109.727 2.37384C109.692 1.75006 109.255 1.24757 108.643 1.10895Z" fill="#14377D"/>
<path d="M108.642 1.10895C109.254 1.24756 109.692 1.76738 109.727 2.37384L111.354 27.9315L110.182 28.3127L102.396 0.155945C104.776 0.346545 106.963 0.710417 108.642 1.10895Z" fill="#EE3124"/>
<path d="M98.7584 8.55963L92.7578 30.0973L98.7584 32.0727L104.759 30.0973L98.7584 8.55963Z" fill="#EE3124"/>
<path d="M154.67 60.8879H155.23V61.0439H155.037V61.4945H154.845V61.0439H154.652L154.67 60.8879ZM155.317 60.8879H155.562L155.65 61.2519L155.737 60.8879H155.982V61.4771H155.824V61.0265L155.702 61.4771H155.562L155.44 61.0265V61.4771H155.282V60.8879H155.317Z" fill="#1A1A1A"/>
<path d="M64.6268 69.1185H69.193V69.9329H65.5366V72.4799H68.843V73.2943H65.5366V76.6731H64.6094V69.1185H64.6268Z" fill="#1A1A1A"/>
<path d="M75.0014 76.7943C73.042 76.7943 71.625 75.3043 71.625 72.9131C71.625 70.5219 73.042 69.0317 75.0014 69.0317C76.9608 69.0317 78.3778 70.5219 78.3778 72.9131C78.3778 75.3043 76.9608 76.7943 75.0014 76.7943ZM75.0014 69.8807C73.6194 69.8807 72.5348 70.9377 72.5348 72.9131C72.5348 74.8883 73.6194 75.9453 75.0014 75.9453C76.3836 75.9453 77.4682 74.8883 77.4682 72.9131C77.4682 70.9377 76.3836 69.8807 75.0014 69.8807Z" fill="#1A1A1A"/>
<path d="M80.5468 72.9131H81.0718V69.1357H83.6434C85.4278 69.1357 86.2326 70.1235 86.2326 71.4577C86.2326 72.4625 85.7778 73.2423 84.798 73.5715L86.53 76.6905H85.4628L83.8534 73.7275C83.7834 73.7275 83.7308 73.7275 83.661 73.7275H81.999V76.6731H81.0892V73.7275H80.5644V72.9131H80.5468ZM85.3404 71.4403C85.3404 70.5393 84.868 69.9329 83.626 69.9329H81.999V72.8957H83.6434C84.868 72.9131 85.3404 72.3587 85.3404 71.4403Z" fill="#1A1A1A"/>
<path d="M90.0456 69.1185L92.6348 75.3909H92.7222L95.3114 69.1185H96.4136V76.6731H95.5564V70.9377H95.4864L93.1072 76.6731H92.2674L89.8882 70.9377H89.8182V76.6731H88.961V69.1185H90.0456Z" fill="#1A1A1A"/>
<path d="M105.372 69.1185V74.1261C105.372 75.6681 104.2 76.8117 102.398 76.8117C100.596 76.8117 99.4238 75.6681 99.4238 74.1261V69.1185H100.351V74.0567C100.351 75.1657 101.121 75.9627 102.398 75.9627C103.675 75.9627 104.445 75.1657 104.445 74.0567V69.1185H105.372Z" fill="#1A1A1A"/>
<path d="M108.363 69.1185H109.29V75.8587H112.842V76.6731H108.363V69.1185Z" fill="#1A1A1A"/>
<path d="M115.256 76.6905L118.055 69.1357H119.017L121.816 76.6905H120.854L120.084 74.5419H117.005L116.236 76.6905H115.256ZM119.787 73.7275L118.562 70.3141H118.51L117.285 73.7275H119.787Z" fill="#1A1A1A"/>
<path d="M128.271 69.1185H132.873V69.9329H129.199V72.4799H132.645V73.2943H129.199V75.8587H132.943V76.6731H128.271V69.1185Z" fill="#1A1A1A"/>
</svg>
