<svg width="204" height="63" viewBox="0 0 204 63" fill="none" xmlns="http://www.w3.org/2000/svg">
<path d="M4.74725 0.961334C5.76959 1.2851 9.48918 2.45068 13.013 3.52991C16.5368 4.63073 24.1718 7.00505 29.9795 8.83975C41.5951 12.4876 46.511 13.9769 54.668 16.2865C57.648 17.1283 63.6733 18.9846 68.0455 20.3876C72.4176 21.769 76.855 23.1936 77.9426 23.5173C79.0085 23.8411 81.5535 24.7045 83.5981 25.46C85.6211 26.2154 89.2319 27.4673 91.6029 28.2444C96.236 29.7769 97.8239 30.446 98.781 31.3526C99.9774 32.4966 101.391 35.5832 101.979 38.346C102.109 39.0367 102.305 39.5979 102.392 39.5979C102.696 39.5979 103.458 38.6266 104.524 36.8999C106.481 33.7053 107.243 33.5758 113.007 35.4753C117.205 36.8567 121.795 38.0654 127.428 39.2526C135.933 41.0441 138.87 41.4758 161.796 44.1307C179.785 46.246 200.58 49.1168 201.777 49.678C203.974 50.7141 204.604 53.6712 203.19 56.2613C201.929 58.5709 200.384 58.9378 195.186 58.0745C192.597 57.6643 191.858 57.5996 191.64 57.8154C191.488 57.9665 191.27 58.7004 191.14 59.4343C190.727 62.0676 189.9 62.9094 187.768 62.9094C184.223 62.9094 140.501 57.7075 101.544 52.6567C96.3665 51.9876 96.8451 52.0091 96.6711 52.6135C96.4971 53.3474 95.6705 53.1747 95.6705 52.4193C95.6705 52.1171 95.5182 51.8365 95.3442 51.7717C94.8222 51.5775 94.9527 50.8652 95.4965 50.7788C96.062 50.7141 96.3013 50.0018 95.8445 49.7212C95.4095 49.4406 95.3007 49.4837 95.1484 50.0665C94.9744 50.7788 94.3654 50.7788 94.3654 50.0665C94.3654 49.6564 94.4741 49.5269 94.8222 49.5269C95.0832 49.5269 95.3225 49.3542 95.3877 49.0952C95.453 48.8578 95.6922 48.6635 95.9098 48.6635C96.149 48.6635 96.323 48.5772 96.323 48.4693C96.323 48.3613 96.5623 48.2318 96.8668 48.1887C97.2801 48.1023 97.4106 48.1671 97.4106 48.4261C97.4106 48.6851 97.2366 48.793 96.8233 48.7714C96.149 48.7714 95.8445 49.4406 96.3665 49.7643C96.7798 50.0449 96.9756 50.0018 96.9756 49.6348C96.9756 49.3974 97.1279 49.3326 97.4541 49.3974C97.7369 49.4622 98.3895 49.5485 98.9333 49.6348L99.9121 49.7428L98.607 48.4908C97.8892 47.8001 97.1279 47.1742 96.9321 47.0878C96.4536 46.9152 96.6711 46.0734 97.2149 46.0734C97.4541 46.0734 97.6282 45.9223 97.6499 45.6848C97.6499 45.3826 97.6934 45.3826 97.8457 45.7496C97.9544 45.987 98.9115 47.0447 99.9991 48.0807L101.935 49.9802L112.137 51.2537C117.727 51.966 124.557 52.851 127.32 53.1963C154.966 56.7362 188.16 60.5783 188.464 60.2545C188.53 60.1898 188.725 59.4559 188.878 58.6141C189.226 56.8441 189.639 56.0023 190.422 55.3764C191.162 54.7936 192.01 54.7936 195.36 55.3548C196.795 55.6138 198.557 55.7865 199.275 55.7433C200.515 55.6785 200.645 55.6354 201.102 54.9447C201.733 54.0165 201.733 53.11 201.102 52.484C200.667 52.0523 199.841 51.8796 193.337 50.9515C179.459 48.9873 175.109 48.4261 162.449 46.9367C137.761 44.0444 137.717 44.0228 131.344 42.8141C123.382 41.26 115.4 39.2526 110.832 37.6337C109.526 37.1589 108.287 36.7919 108.091 36.7919C107.612 36.7919 107.025 37.4395 106.22 38.8425C104.98 41.001 103.023 42.6198 101.696 42.6198C100.869 42.6198 100.13 41.5837 99.8251 40.0081C99.1508 36.4466 97.8674 33.6622 96.5623 32.9499C96.1055 32.6908 93.43 31.7195 90.6458 30.7698C87.8398 29.8417 83.9679 28.4818 82.0102 27.7479C80.0743 27.0141 77.3336 26.0859 75.9197 25.6974C74.5276 25.2873 70.3294 23.9706 66.6316 22.7619C62.912 21.5531 57.8221 19.999 55.3206 19.2867C46.8591 16.8693 39.0719 14.5381 29.2182 11.4299C23.8237 9.72472 16.1018 7.30723 12.0342 6.05532C7.96655 4.80341 4.2252 3.63783 3.70316 3.46516C2.92009 3.18456 2.74606 3.18456 2.65906 3.44357C2.5938 3.59467 2.61555 6.57335 2.72432 10.0701L2.89833 16.3944L6.26988 16.4376C40.1812 16.9124 47.9249 17.4089 54.0155 19.5242C54.7333 19.7832 57.7133 20.6898 60.6498 21.5531C66.6316 23.3447 68.2195 23.9275 69.6551 24.8988C71.3518 26.0643 71.6998 27.2299 71.9391 32.4102L72.1131 35.9285L73.3312 37.7417C74.9409 40.1376 75.2671 40.2887 80.5529 41.001C84.6422 41.5622 90.1455 42.5551 92.3424 43.1378L93.4953 43.44L93.517 42.8788C93.5605 42.3392 93.5605 42.3392 93.6476 42.7925C93.7128 43.0731 93.8868 43.3537 94.0608 43.4184C94.5176 43.5911 94.4524 44.3466 93.9738 44.3466C93.7563 44.3466 93.4735 44.4545 93.3648 44.5624C93.2125 44.7135 92.7992 44.6704 92.0597 44.4761C89.9715 43.8717 84.4465 42.8572 80.0091 42.296C75.2671 41.6701 74.2448 41.2168 72.6569 39.0583L72.2001 38.4108L72.1784 42.1234V45.8143L72.8744 46.0518C74.5493 46.5482 83.6416 47.8217 92.0814 48.7283C92.3859 48.7499 92.5382 48.6204 92.5817 48.275C92.6905 47.5843 93.2125 47.4332 93.7346 47.9944C94.1914 48.4693 94.5829 48.5988 94.5829 48.2318C94.5829 48.1023 94.7787 48.016 95.0179 48.016C95.2572 48.016 95.453 48.1023 95.453 48.2318C95.453 48.3398 95.2572 48.4477 94.9962 48.4477C94.7351 48.4477 94.4959 48.6204 94.4306 48.8794C94.3654 49.1168 94.1479 49.3111 93.9303 49.3111C93.6911 49.3111 93.4953 49.5269 93.4083 49.8723C93.2995 50.2824 93.169 50.3903 92.8427 50.2824C92.4729 50.1744 92.4077 50.2392 92.4077 50.8004C92.4077 51.2537 92.5164 51.4695 92.734 51.4695C92.9297 51.4695 93.0602 51.6638 93.0602 51.9876C93.0602 52.2682 93.2125 52.5488 93.3865 52.6351C93.8868 52.8078 93.7998 53.628 93.2995 53.628C93.0602 53.628 92.7992 53.8223 92.734 54.0597C92.6687 54.2971 92.4077 54.4914 92.1684 54.4914C91.8421 54.4914 91.7551 54.3403 91.7769 53.7791C91.7769 53.4122 91.8421 53.2179 91.9074 53.3474C92.1467 53.9734 93.0602 53.5201 93.0602 52.7646C93.0602 52.4408 92.3424 52.3113 92.1249 52.5919C92.0162 52.7646 91.9726 52.6351 92.0597 52.1602C92.1249 51.7933 92.1032 51.4695 92.0162 51.4695C91.9291 51.4695 88.3836 51.0378 84.1419 50.4982C76.2242 49.5053 72.4394 48.8794 71.156 48.3398C69.9162 47.8217 69.8509 47.4764 69.7204 38.8425C69.6334 34.5687 69.4811 30.3165 69.3288 29.3884C69.1113 27.9422 69.0026 27.6616 68.4588 27.2731C67.3494 26.496 65.4135 25.7837 60.6716 24.3807C58.0831 23.6253 55.3858 22.7835 54.668 22.546C52.3406 21.7258 48.621 20.7977 46.9461 20.6034C41.3123 19.9343 32.394 19.5458 16.08 19.3083C0.657883 19.0925 1.31042 19.1572 0.723129 17.7326C0.331589 16.7182 0.0488281 3.72417 0.41861 2.51543C0.701385 1.52253 1.54971 0.637562 2.35454 0.486469C2.65907 0.421715 3.72491 0.637566 4.74725 0.961334ZM92.7557 48.4908C92.56 49.2679 92.6035 49.3542 93.1038 49.2679C93.6693 49.2031 93.9086 48.4908 93.4518 48.2102C93.0167 47.9296 92.908 47.9728 92.7557 48.4908ZM95.8227 51.2969C95.6705 51.8581 95.6487 51.8365 96.2143 51.9444C96.5406 51.9876 96.6711 51.8796 96.7146 51.4048C96.7798 50.9515 96.6928 50.822 96.3665 50.822C96.1055 50.822 95.888 51.0163 95.8227 51.2969Z" fill="white"/>
</svg>
