<svg width="850" height="300" viewBox="0 0 816 393" fill="none" xmlns="http://www.w3.org/2000/svg">
<path d="M30.735 0.526611C30.5386 1.01759 29.4585 1.31216 28.3783 1.31216C22.4866 1.31216 12.4708 10.3461 8.24838 19.2818C6.38267 23.3078 5.8917 25.9591 5.8917 32.2436C5.8917 42.2594 8.64115 48.6421 16.3986 56.4977L21.8975 61.9966L21.3083 76.1367C20.13 104.024 16.3004 147.819 14.631 153.023C14.0419 154.889 11.9798 157.049 9.03394 158.915C3.14224 162.646 0 167.36 0 172.368C0 177.376 1.47292 180.027 11.2924 192.792C23.4686 208.602 22.8794 207.423 21.7011 214.592C21.1119 218.028 19.3444 230.499 17.6751 242.381C16.104 254.262 14.3365 266.144 13.7473 268.893C13.2563 271.545 11.6852 282.444 10.3105 292.951C8.83755 303.458 7.36462 313.867 6.87365 316.027C6.38267 318.187 5.49892 324.275 4.90975 329.48C3.43682 340.968 4.51697 346.86 9.03394 352.261C13.2563 357.367 17.6751 359.233 30.8332 361.688C37.2159 362.866 43.304 364.142 44.4823 364.633C45.6607 365.124 48.7047 365.812 51.2578 366.106C53.8108 366.401 56.1675 367.088 56.4621 367.481C56.6585 367.972 58.917 368.365 61.3718 368.365C63.8267 368.463 66.2816 368.758 66.8708 369.15C68.1473 369.838 70.6022 370.231 86.4116 371.507C93.187 371.998 101.043 373.078 103.988 373.962C110.469 375.73 125.395 377.988 139.928 379.363C145.918 379.854 154.461 381.032 159.076 381.818C175.867 384.763 202.282 387.807 220.939 388.789C227.125 389.084 234.195 389.477 236.65 389.673C239.105 389.771 247.451 390.164 255.307 390.557C263.162 390.95 271.804 391.441 274.455 391.637C285.747 392.619 408 392.128 408 391.048C408 390.95 413.794 390.753 420.864 390.655C427.934 390.557 434.12 390.262 434.611 389.968C435.102 389.673 439.226 389.379 443.841 389.379C448.456 389.379 455.526 389.084 459.552 388.789C463.578 388.397 479.093 387.218 493.921 386.138C508.748 385.058 527.012 383.291 534.475 382.21C541.84 381.228 550.677 380.345 554.114 380.345C557.453 380.345 564.817 379.952 570.513 379.363C576.208 378.872 588.777 377.693 598.498 376.908C631.099 373.962 693.06 365.321 699.639 362.67C702.781 361.491 715.841 358.742 730.079 356.385C734.989 355.501 742.452 354.028 746.773 352.948C778.195 345.191 775.446 345.682 786.345 346.664C798.914 347.842 804.02 347.057 808.635 343.522C813.447 339.888 816 334.193 816 326.927C816 318.875 813.349 313.572 807.162 309.644C802.744 306.797 801.762 306.6 795.674 306.895C791.942 307.189 783.301 308.957 776.231 311.019C769.259 313.081 757.967 316.027 751.191 317.5C744.416 318.973 734.498 321.33 729.097 322.704C723.697 324.079 716.823 325.552 713.877 325.945C710.931 326.337 707.396 327.123 706.022 327.81C704.647 328.498 699.344 329.774 694.238 330.658C689.132 331.64 681.866 333.015 678.036 333.702C662.62 336.746 631.394 340.478 603.408 342.54C593.196 343.325 582.885 344.111 580.627 344.307C576.895 344.7 576.404 344.504 576.404 342.736C576.404 341.165 576.11 340.968 575.226 341.852C573.655 343.423 572.477 343.325 572.477 341.558C572.477 340.772 571.593 340.085 570.513 340.085C569.432 340.085 568.549 340.772 568.549 341.558C568.549 342.343 567.665 343.031 566.585 343.031C565.505 343.031 564.621 343.423 564.621 343.914C564.621 344.307 553.23 344.994 539.385 345.387C525.441 345.78 501.776 346.467 486.851 347.057C459.945 348.137 459.454 348.137 452.482 345.976C440.601 342.343 429.799 341.067 411.339 341.067C401.814 341.067 387.084 340.576 378.443 339.987C360.866 338.808 358.903 338.121 353.796 331.444C348.003 323.883 345.744 313.572 340.736 271.839C339.067 258.288 336.907 240.417 335.827 232.07C329.837 184.839 329.837 184.937 323.552 179.143C319.723 175.608 318.643 175.117 314.518 175.117C306.957 175.117 276.517 178.063 274.946 178.947C274.16 179.34 272.196 179.634 270.527 179.536C268.956 179.438 267.188 179.634 266.599 180.027C266.108 180.42 264.046 181.107 262.181 181.5C260.315 181.893 256.092 183.66 252.852 185.428C249.612 187.195 243.622 189.355 239.596 190.239C230.955 192.007 227.125 193.774 220.644 198.88C217.502 201.335 214.851 202.612 212.985 202.612C208.173 202.612 195.997 200.55 194.721 199.47C194.131 198.979 193.051 198.684 192.266 198.782C191.578 198.88 190.302 198.782 189.516 198.488C188.731 198.193 182.348 196.818 175.278 195.444C168.306 194.069 160.549 192.498 158.094 191.909C155.639 191.418 149.747 190.239 144.838 189.355C140.026 188.472 135.313 187.49 134.527 187.195C133.742 186.901 132.17 186.508 131.09 186.311C128.243 185.82 100.748 180.223 100.159 180.027C99.8643 179.929 99.2751 179.831 98.7841 179.929C98.1949 180.027 96.9184 179.732 95.8383 179.143C94.6599 178.652 88.2773 177.278 81.5018 176.099C74.7264 174.921 68.5401 173.742 67.7545 173.35C66.969 173.055 65.5942 172.662 64.8087 172.564C57.3459 171.091 50.6686 169.226 48.5083 167.753C46.0534 166.181 45.9552 165.789 46.5444 160.486C47.1336 155.38 47.8209 147.819 50.0794 121.601C50.4722 116.2 51.1596 106.675 51.4542 100.489C51.7487 94.3028 52.3379 83.3049 52.7307 76.2349L53.5162 63.175L59.5061 57.4797C62.8448 54.3374 66.2816 50.4096 67.0672 48.7403C70.013 43.045 72.2715 42.4559 88.7682 42.2595C98.4895 42.1613 104.283 42.4559 105.167 43.1432C105.952 43.7324 111.451 45.2053 117.343 46.4818C123.333 47.6602 130.697 49.5259 133.84 50.5078C139.83 52.3735 165.262 56.3013 171.645 56.3013C173.707 56.3013 175.867 56.7923 176.358 57.2833C176.947 57.8725 182.446 58.3634 188.632 58.5598C198.059 58.7562 200.416 58.4616 203.264 56.8905C208.173 54.2392 213.77 48.3475 215.636 43.9288C217.698 39.1172 217.502 27.7266 215.342 23.5042C213.378 19.4782 207.388 13.2919 203.755 11.4262C195.997 7.30205 111.746 7.20387 76.2975 11.2299L65.8888 12.4082L60.9791 8.284C56.6585 4.65078 54.1054 3.27605 47.6245 0.919373C44.9733 -0.0625769 31.3242 -0.357143 30.735 0.526611ZM45.3661 15.9432C46.6426 16.4342 49.9812 18.8891 52.9271 21.5403C56.3639 24.5844 59.6043 26.6465 62.6484 27.3338L67.0672 28.5122L62.943 30.8688C60.1935 32.3418 57.6404 34.993 55.4801 38.6263C53.6144 41.5721 49.883 45.9909 47.0354 48.3475C38.8852 55.3194 38.3942 57.2833 37.3141 84.9742C36.2339 110.701 34.27 135.545 31.9134 151.059C29.3603 167.556 30.0477 172.073 35.5466 177.768C39.6708 182.089 45.7589 184.151 65.2996 188.177C90.7321 193.48 117.834 199.077 143.856 204.576C175.965 211.351 211.119 218.323 213.181 218.323C216.913 218.323 224.572 214.984 229.58 211.253C232.427 209.093 236.061 206.932 237.632 206.343C244.211 204.085 252.459 212.235 250.888 219.403C250.495 221.072 248.728 224.116 246.862 226.179C242.934 230.499 240.578 235.704 240.578 240.122C240.578 246.309 249.317 307.189 250.986 312.59C254.62 324.766 263.457 338.121 272.196 344.7C279.856 350.493 283.391 352.359 292.13 355.501L299.986 358.251H341.718C366.464 358.251 391.405 357.662 403.09 356.876C420.765 355.698 423.711 355.796 432.058 357.171C437.164 358.054 443.35 359.429 445.805 360.117C456.508 363.259 461.713 363.652 482.137 362.67C497.75 361.884 560.693 360.411 567.37 360.706C567.96 360.706 568.549 360.117 568.549 359.331C568.549 357.072 571.593 356.483 572.182 358.742C572.477 359.822 573.36 360.706 574.048 360.706C576.012 360.706 575.717 362.964 573.458 364.928C571.004 366.99 569.825 366.99 567.861 365.124C567.076 364.339 566.094 363.848 565.603 364.142C564.817 364.633 516.604 368.856 470.845 372.391C398.573 378.086 256.387 377.595 199.336 371.507C178.518 369.249 96.5256 358.054 76.5921 354.814C53.6144 350.886 23.9596 344.602 22.3884 343.227C21.5047 342.441 20.5227 340.674 20.13 339.201C19.8354 337.826 23.3704 310.528 28.0838 278.713C32.6989 246.8 36.7249 217.046 37.0195 212.431C37.7069 201.728 36.0375 197.997 26.5126 187.981C22.7812 184.053 19.639 180.223 19.639 179.536C19.639 178.849 18.7552 177.179 17.6751 175.805L15.7112 173.252L20.0318 170.306C25.4325 166.574 28.182 163.137 29.4585 158.522C31.9134 148.997 36.2339 97.5432 36.5285 72.5035C36.7249 55.4176 36.3321 54.2392 27.9856 46.1873C22.2903 40.5901 20.0318 35.1894 21.2101 29.2977C21.9957 24.6826 26.5126 18.7909 30.5386 16.7288C34.1718 14.9613 41.7329 14.5685 45.3661 15.9432ZM195.506 24.9771C199.63 26.0573 201.005 27.432 202.183 31.458C203.264 35.1894 201.398 39.9028 197.863 42.1613C195.506 43.7324 194.131 43.7324 182.348 42.6522C163.691 40.9829 147.587 38.1353 125.199 32.6364C103.497 27.2356 95.4455 26.3519 81.3054 27.5302C71.7805 28.414 67.8527 27.6284 75.9047 26.5482C81.109 25.8609 106.934 23.9952 117.834 23.5042C132.956 22.915 191.873 23.9952 195.506 24.9771ZM319.625 183.071C323.651 186.704 324.534 189.355 326.596 205.558C335.041 273.509 340.835 315.929 342.209 320.446C344.664 328.4 348.199 334.782 352.422 339.005L356.153 342.736L341.817 343.325C322.178 344.111 303.521 342.834 296.254 340.281C281.23 334.88 271.116 323.883 265.814 307.189C264.93 304.44 262.868 292.067 261.199 279.695C259.627 267.224 257.664 253.28 257.074 248.469C255.994 240.22 255.994 239.828 258.056 237.176C265.716 227.75 267.778 221.269 266.108 212.431C264.832 205.459 263.064 202.612 256.78 197.015L251.281 192.203L257.958 189.061C265.126 185.82 270.723 184.74 294.585 181.991C315.991 179.536 315.599 179.536 319.625 183.071ZM800.682 324.668C801.467 325.945 801.369 327.025 800.289 329.087C798.521 332.033 797.539 332.131 783.105 330.756C775.74 330.069 773.973 330.363 754.628 334.979C715.056 344.504 678.429 351.574 641.606 356.68C626.189 358.84 577.288 363.946 576.797 363.357C576.601 363.259 576.699 362.179 576.994 361.098C577.485 359.429 578.466 359.135 587.991 358.938C622.163 358.153 680.491 350.199 719.769 341.067C759.047 331.836 777.704 327.221 785.069 324.963C794.004 322.213 799.111 322.115 800.682 324.668ZM572.28 344.798C572.477 345.485 571.789 346.369 570.611 346.664C569.433 346.958 568.549 347.842 568.549 348.529C568.549 349.315 567.861 349.904 567.076 349.904C566.29 349.904 565.603 349.217 565.603 348.431C565.603 347.646 566.29 346.958 567.076 346.958C567.96 346.958 568.549 346.075 568.549 344.896C568.549 342.638 571.495 342.54 572.28 344.798ZM574.637 348.431C574.637 348.922 574.146 349.511 573.557 349.708C572.968 349.904 572.477 349.315 572.477 348.431C572.477 347.548 572.968 346.958 573.557 347.155C574.146 347.351 574.637 347.94 574.637 348.431ZM572.182 351.868C572.477 352.948 573.36 353.832 574.048 353.832C574.833 353.832 575.422 354.519 575.422 355.305C575.422 356.091 574.735 356.778 573.949 356.778C573.164 356.778 572.477 356.091 572.477 355.305C572.477 354.519 571.593 353.832 570.513 353.832C569.432 353.832 568.549 354.519 568.549 355.305C568.549 356.091 567.861 356.778 567.076 356.778C566.29 356.778 565.603 356.091 565.603 355.305C565.603 354.519 566.192 353.832 566.978 353.832C567.665 353.832 568.549 352.948 568.843 351.868C569.138 350.788 569.825 349.904 570.513 349.904C571.2 349.904 571.887 350.788 572.182 351.868Z" fill="white"/>
</svg>
