<svg width="200" height="80" viewBox="0 0 200 80" fill="none" xmlns="http://www.w3.org/2000/svg">
<g clip-path="url(#clip0_1_253)">
<mask id="mask0_1_253" style="mask-type:luminance" maskUnits="userSpaceOnUse" x="0" y="0" width="200" height="80">
<path d="M0 -6.10352e-05H200V79.9999H0V-6.10352e-05Z" fill="white"/>
</mask>
<g mask="url(#mask0_1_253)">
<mask id="mask1_1_253" style="mask-type:luminance" maskUnits="userSpaceOnUse" x="0" y="0" width="201" height="80">
<path d="M0 -6.10352e-05H200.464V79.9999H0V-6.10352e-05Z" fill="white"/>
</mask>
<g mask="url(#mask1_1_253)">
<path fill-rule="evenodd" clip-rule="evenodd" d="M32.66 58.692V61.354H30.164V51.146H39.638C40.6021 51.1947 41.5092 51.6174 42.1665 52.3244C42.8239 53.0314 43.1795 53.9669 43.158 54.932C43.1677 55.6478 42.9749 56.3518 42.602 56.9629C42.229 57.574 41.691 58.0673 41.05 58.386L43.258 61.382H40.102L38.116 58.72L32.66 58.692ZM159.982 61.354C159.633 61.3457 159.288 61.2677 158.97 61.1245C158.651 60.9813 158.364 60.7757 158.126 60.52C157.621 59.9856 157.342 59.2771 157.346 58.542V53.902C157.346 53.17 157.626 52.454 158.126 51.916C158.608 51.406 159.276 51.11 159.982 51.09H170.302V53.736H160.956C160.823 53.7352 160.691 53.763 160.57 53.8175C160.448 53.872 160.34 53.952 160.252 54.052C160.059 54.2496 159.952 54.5156 159.954 54.792V57.43C159.954 57.772 160.084 58.106 160.316 58.358C160.538 58.598 160.856 58.738 161.188 58.738H167.76V56.698H170.256V61.338L159.982 61.354ZM98.73 61.354H88.52C88.1706 61.3457 87.8265 61.2677 87.5077 61.1245C87.189 60.9813 86.9021 60.7757 86.664 60.52C86.1593 59.9855 85.8799 59.2771 85.884 58.542V53.902C85.884 53.198 86.136 52.51 86.6 51.972C87.08 51.452 87.75 51.156 88.456 51.146H98.766V53.736H89.46C89.328 53.735 89.1974 53.7628 89.0772 53.8173C88.957 53.8719 88.8502 53.952 88.764 54.052C88.5708 54.2496 88.4637 54.5156 88.466 54.792V57.43C88.466 57.772 88.596 58.106 88.828 58.358C89.052 58.598 89.368 58.738 89.692 58.738H98.806V61.364H98.732L98.73 61.354ZM64.966 55.23L60.436 61.346H57.152C58.756 59.174 60.326 56.836 62.042 54.746C64.288 51.962 64.994 51.118 67.212 51.118H71.722V61.328H69.152V53.82H67.37C66.8993 53.7731 66.4257 53.873 66.014 54.106C65.606 54.422 65.254 54.802 64.966 55.23ZM115.87 61.346H112.9V51.138H115.87V61.346ZM139.286 61.346L132.716 54.746V61.366H129.932V51.156H133.032L140.456 58.7V51.11H143.24V61.318H139.314L139.286 61.346ZM32.66 53.726V56.066H39.648C39.9313 56.03 40.1912 55.8907 40.378 55.6747C40.5648 55.4588 40.6652 55.1814 40.66 54.896C40.6648 54.7465 40.64 54.5976 40.587 54.4578C40.5341 54.318 40.454 54.1901 40.3514 54.0813C40.2488 53.9726 40.1257 53.8852 39.9892 53.8242C39.8527 53.7632 39.7055 53.7298 39.556 53.726H32.66Z" fill="#00BE26"/>
<path fill-rule="evenodd" clip-rule="evenodd" d="M48.844 78.5519V73.6419H52.334V74.5699H49.884V75.7299H52.028V76.5839H49.884V78.5999L48.844 78.5519ZM56.714 78.5519L55.974 77.8179V74.3859L56.714 73.6419H59.396L60.148 74.3859V77.8199L59.396 78.5519H56.714ZM57.282 77.716H58.794L59.062 77.4479V74.7379L58.784 74.4779H57.28L57.012 74.7379V77.4479L57.28 77.716H57.282ZM64.158 78.5519V73.6419H67.266L68.01 74.3859V76.1019L67.388 76.7139L68.176 78.5699H67.082L66.376 76.8359H65.196V78.5699L64.158 78.5519ZM65.198 75.9719H66.718L66.988 75.7119V74.7839L66.728 74.5239H65.2L65.198 75.9719ZM72.13 78.5519V73.6419H73.318L74.654 76.9179L76 73.6419H77.132V78.5519H76.102V75.4999L74.896 78.452H74.338L73.132 75.4999V78.5539H72.132L72.13 78.5519ZM81.94 78.5519L81.206 77.8179V73.6419H82.246V77.4479L82.516 77.716H84L84.27 77.4559V73.6419H85.31V77.8199L84.566 78.5519H81.94ZM89.43 78.5519V73.6419H90.47V77.6699H92.808V78.5979L89.43 78.5519ZM96.242 78.5519L97.762 73.6419H99.398L100.918 78.5519H99.814L99.508 77.466H97.652L97.346 78.5519H96.242ZM97.884 76.6219H99.304L98.72 74.5059H98.516L97.922 76.6219H97.884ZM109.42 78.5519V73.6419H112.966V74.5699H110.44V75.6299H112.712V76.4819H110.44V77.716H112.944V78.646L109.42 78.5519ZM122.71 78.5519V74.5239H121.336V73.5959H125.124V74.5239H123.75V78.5519H122.71ZM128.882 78.5519V73.6419H132.426V74.5699H129.93V75.6299H132.204V76.4819H129.93V77.716H132.436V78.646L128.882 78.5519ZM135.982 78.5519L137.502 73.6419H139.136L140.66 78.5519H139.554L139.212 77.466H137.356L137.05 78.5519H135.982ZM137.624 76.6219H139.008L138.422 74.5059H138.218L137.624 76.6219ZM144.372 78.5519V73.6419H145.512L146.85 76.9179L148.194 73.6419H149.336V78.5519H148.324V75.4999L147.118 78.452H146.636L145.43 75.4999V78.5539H144.37L144.372 78.5519Z" fill="#383B43"/>
<path fill-rule="evenodd" clip-rule="evenodd" d="M165.986 74.9419H198.144V56.2219H200.464V77.2619H165.986V74.9419ZM34.478 77.2619H0V56.2219H2.32V74.9419H34.48L34.478 77.2619Z" fill="#00BE26"/>
<path fill-rule="evenodd" clip-rule="evenodd" d="M163.34 72.2039C164.374 72.2034 165.366 72.6136 166.097 73.3442C166.828 74.0749 167.24 75.0661 167.24 76.0999C167.241 77.1338 166.83 78.1254 166.1 78.8568C165.369 79.5882 164.378 79.9994 163.344 79.9999C162.326 79.9769 161.357 79.5562 160.645 78.8279C159.933 78.0995 159.534 77.1215 159.534 76.1029C159.534 75.0844 159.933 74.1063 160.645 73.378C161.357 72.6497 162.326 72.229 163.344 72.2059L163.34 72.2039ZM163.34 74.0599C162.236 74.0699 161.346 74.9799 161.356 76.0839C161.353 76.6157 161.562 77.1267 161.936 77.5046C162.31 77.8825 162.819 78.0963 163.351 78.0989C163.883 78.1016 164.394 77.8929 164.772 77.5188C165.15 77.1446 165.363 76.6357 165.366 76.1039C165.366 74.9979 164.466 74.0979 163.36 74.0979H163.34V74.0599ZM37.122 72.2039C36.6028 72.1922 36.0865 72.2843 35.6034 72.4748C35.1203 72.6654 34.6802 72.9506 34.3088 73.3136C33.9375 73.6766 33.6424 74.1102 33.441 74.5889C33.2395 75.0675 33.1357 75.5816 33.1357 76.1009C33.1357 76.6203 33.2395 77.1343 33.441 77.613C33.6424 78.0917 33.9375 78.5252 34.3088 78.8883C34.6802 79.2513 35.1203 79.5365 35.6034 79.727C36.0865 79.9176 36.6028 80.0097 37.122 79.9979C38.1403 79.9749 39.1091 79.5542 39.8211 78.8258C40.5331 78.0975 40.9317 77.1195 40.9317 76.1009C40.9317 75.0824 40.5331 74.1043 39.8211 73.376C39.1091 72.6477 38.1403 72.227 37.122 72.2039ZM37.122 74.0599C38.226 74.0699 39.118 74.9799 39.108 76.0839C39.1093 76.3472 39.0588 76.6082 38.9592 76.852C38.8597 77.0957 38.7131 77.3175 38.5279 77.5046C38.1537 77.8825 37.6448 78.0963 37.113 78.0989C36.5813 78.1016 36.0702 77.8929 35.6924 77.5188C35.3145 77.1446 35.1007 76.6357 35.098 76.1039C35.0964 75.5745 35.3048 75.0661 35.6774 74.6901C36.0501 74.3141 36.5566 74.1011 37.086 74.0979H37.122V74.0599Z" fill="#00A621"/>
<path fill-rule="evenodd" clip-rule="evenodd" d="M163.34 72.2039C163.852 72.2038 164.359 72.3045 164.832 72.5003C165.305 72.696 165.735 72.9831 166.097 73.3449C166.459 73.7068 166.746 74.1364 166.942 74.6093C167.138 75.0822 167.239 75.589 167.239 76.1009C167.239 76.6128 167.138 77.1197 166.943 77.5927C166.747 78.0657 166.46 78.4955 166.098 78.8575C165.736 79.2196 165.307 79.5068 164.834 79.7028C164.361 79.8988 163.854 79.9998 163.342 79.9999C162.324 79.9769 161.355 79.5562 160.643 78.8279C159.931 78.0995 159.532 77.1215 159.532 76.1029C159.532 75.0844 159.931 74.1063 160.643 73.378C161.355 72.6497 162.324 72.229 163.342 72.2059L163.34 72.2039ZM37.122 72.2039C36.6028 72.1922 36.0865 72.2843 35.6034 72.4748C35.1203 72.6654 34.6802 72.9506 34.3088 73.3136C33.9375 73.6766 33.6424 74.1102 33.441 74.5889C33.2395 75.0675 33.1357 75.5816 33.1357 76.1009C33.1357 76.6203 33.2395 77.1343 33.441 77.613C33.6424 78.0917 33.9375 78.5252 34.3088 78.8883C34.6802 79.2513 35.1203 79.5365 35.6034 79.727C36.0865 79.9176 36.6028 80.0097 37.122 79.9979C38.1403 79.9749 39.1091 79.5542 39.8211 78.8258C40.5331 78.0975 40.9317 77.1195 40.9317 76.1009C40.9317 75.0824 40.5331 74.1043 39.8211 73.376C39.1091 72.6477 38.1403 72.227 37.122 72.2039ZM37.122 74.0599C38.226 74.0699 39.118 74.9799 39.108 76.0839C39.1093 76.3472 39.0588 76.6082 38.9592 76.852C38.8597 77.0957 38.7131 77.3175 38.5279 77.5046C38.1537 77.8825 37.6448 78.0963 37.113 78.0989C36.5813 78.1016 36.0702 77.8929 35.6924 77.5188C35.3145 77.1446 35.1007 76.6357 35.098 76.1039C35.0964 75.5745 35.3048 75.0661 35.6774 74.6901C36.0501 74.3141 36.5566 74.1011 37.086 74.0979H37.122V74.0599ZM163.342 74.0599C162.236 74.0699 161.346 74.9799 161.354 76.0839C161.351 76.6157 161.56 77.1267 161.934 77.5046C162.308 77.8825 162.817 78.0963 163.349 78.0989C163.881 78.1016 164.392 77.8929 164.77 77.5188C165.148 77.1446 165.361 76.6357 165.364 76.1039C165.364 74.9979 164.464 74.0979 163.36 74.0979H163.34L163.342 74.0599Z" fill="#00BE26"/>
<path fill-rule="evenodd" clip-rule="evenodd" d="M63.2 32.0459C59.062 36.6859 49.55 35.0819 42.34 32.9739C38.124 31.7679 37.81 33.8099 38.794 35.9339C39.778 38.0599 43.072 41.4199 49.104 41.9299C52.3732 42.2427 55.6503 41.4199 58.384 39.5999C58.57 39.4599 58.46 39.2399 58.256 39.3499C53.986 41.5399 46.31 40.6699 44.604 37.7159C44.372 37.3159 44.528 37.0579 45.698 37.3279C54.152 39.2759 60.258 37.2159 63.398 32.0559V31.9359C63.3742 31.9369 63.3509 31.9431 63.3298 31.9541C63.3086 31.9652 63.2903 31.9809 63.276 31.9999L63.2 32.0459ZM35.86 12.9939C35.666 13.1339 35.786 13.3539 35.99 13.2539C40.25 11.0439 47.878 11.9079 49.586 14.8499C49.81 15.2499 49.652 15.5079 48.492 15.2379C40.028 13.2899 33.92 15.3499 30.784 20.5099C30.71 20.6399 30.84 20.6959 30.952 20.5659C35.092 15.9259 44.592 17.5319 51.804 19.5919C56.028 20.7979 56.334 18.7559 55.35 16.6319C54.366 14.5059 51.044 11.1359 45.05 10.6439C44.63 10.6439 44.214 10.5899 43.804 10.5899C40.9731 10.5648 38.2019 11.4035 35.86 12.9939ZM47.072 8.87395C51.5079 8.86405 55.7689 10.6034 58.9308 13.7147C62.0926 16.826 63.9004 21.0584 63.962 25.4939C63.962 28.8999 61.122 31.4239 55.526 31.4239C48.658 31.4239 41.606 28.3159 37.178 28.3159C36.5026 28.2982 35.8478 28.5492 35.3574 29.0138C34.8669 29.4784 34.5808 30.1186 34.562 30.7939V31.0159C34.562 36.2959 40.13 42.5979 47.072 43.4159C47.34 43.4159 47.34 43.7499 47.072 43.7499C42.6374 43.7536 38.3795 42.0121 35.2186 38.9017C32.0577 35.7913 30.2478 31.562 30.18 27.1279C30.18 23.7219 33.03 21.1979 38.616 21.1979C45.448 21.1979 52.398 24.3059 56.964 24.3059C57.6397 24.3242 58.295 24.0735 58.7859 23.6088C59.2768 23.1442 59.5632 22.5036 59.582 21.8279V21.6059C59.582 16.3259 54.098 10.1059 47.072 9.20595C46.784 9.16995 46.792 8.87395 47.072 8.87395ZM170.284 27.1379C170.284 26.5799 170.238 26.0319 170.154 25.4839C170.07 24.9344 169.884 24.4054 169.606 23.9239C169.328 23.4419 168.928 23.0418 168.446 22.7639C167.835 22.4428 167.15 22.2896 166.46 22.3199C165.442 22.2984 164.433 22.5077 163.508 22.9319C162.693 23.3133 162.006 23.9234 161.532 24.6879V22.5599H158.052V35.2659H161.912V27.9799C162.124 27.3302 162.528 26.7603 163.072 26.3459C163.312 26.1519 163.582 25.9939 163.872 25.8719C164.132 25.7619 164.408 25.7059 164.696 25.6959C164.934 25.6865 165.171 25.7338 165.387 25.834C165.604 25.9341 165.793 26.0842 165.94 26.2719C166.311 26.8156 166.479 27.4728 166.414 28.1279V35.2659H170.284V27.1339V27.1379ZM146.73 27.5819C146.86 27.202 147.064 26.8399 147.324 26.5239C147.584 26.2359 147.898 26.0039 148.25 25.8479C148.604 25.6879 148.984 25.6139 149.374 25.6139C150.154 25.6059 150.886 25.9499 151.388 26.5419C151.944 27.2219 152.224 28.0739 152.186 28.9459C152.186 29.4019 152.112 29.8559 151.964 30.2919C151.834 30.6719 151.63 31.0339 151.37 31.3419C151.128 31.6299 150.83 31.8619 150.488 32.018C150.141 32.1856 149.759 32.2685 149.374 32.2599C148.989 32.2662 148.607 32.1861 148.257 32.0255C147.906 31.8649 147.597 31.628 147.35 31.3319C146.792 30.655 146.508 29.794 146.552 28.9179C146.552 28.4639 146.618 28.0099 146.766 27.5819H146.73ZM152.232 35.0059C153.036 34.6813 153.763 34.1914 154.366 33.5679C154.95 32.9669 155.399 32.2492 155.686 31.4619C156.298 29.8508 156.298 28.0711 155.686 26.4599C155.387 25.6763 154.936 24.9597 154.358 24.3519C153.751 23.7312 153.025 23.2394 152.224 22.9059C151.313 22.5256 150.333 22.339 149.346 22.3579C148.356 22.3392 147.374 22.5258 146.46 22.9059C145.659 23.2395 144.933 23.7313 144.326 24.3519C143.743 24.9558 143.291 25.6734 142.998 26.4599C142.405 28.0738 142.405 29.8461 142.998 31.4599C143.296 32.2499 143.74 32.966 144.326 33.5679C144.928 34.1899 145.652 34.6819 146.46 35.0079C148.322 35.7128 150.378 35.7128 152.24 35.0079L152.232 35.0059ZM140.632 17.6339H136.76V21.1419H140.63L140.632 17.6339ZM140.632 22.5899H136.76V35.268H140.63V22.5879L140.632 22.5899ZM133.504 34.4139C134.424 33.698 134.944 32.5839 134.904 31.4139C134.913 30.9428 134.821 30.4752 134.636 30.0419C134.443 29.6349 134.153 29.2812 133.792 29.0119C133.327 28.6741 132.818 28.4022 132.278 28.2039C131.658 27.9639 130.896 27.7219 129.996 27.4719C129.391 27.3502 128.802 27.1569 128.242 26.8959C128.101 26.8148 127.983 26.6979 127.902 26.5569C127.82 26.4159 127.777 26.2559 127.777 26.0929C127.777 25.93 127.82 25.77 127.902 25.629C127.983 25.488 128.101 25.3711 128.242 25.2899C128.566 25.1039 128.938 25.0219 129.31 25.0299C129.876 25.0299 130.432 25.1499 130.95 25.3739C131.638 25.6619 132.278 26.0239 132.882 26.4599L134.386 24.1399C133.691 23.5106 132.872 23.0331 131.982 22.7379C131.118 22.4779 130.218 22.3379 129.308 22.3479C128.622 22.3479 127.936 22.4499 127.286 22.6639C126.704 22.8593 126.161 23.1544 125.68 23.5359C124.742 24.2959 124.204 25.4479 124.232 26.6559C124.224 27.0819 124.298 27.5079 124.472 27.9079C124.66 28.278 124.928 28.6039 125.272 28.8359C125.718 29.1519 126.2 29.4019 126.712 29.5879C127.296 29.8079 128.02 30.0419 128.872 30.2839C129.512 30.4239 130.134 30.6439 130.728 30.9239C130.881 30.999 131.011 31.1148 131.103 31.2588C131.195 31.4028 131.245 31.5693 131.248 31.7399C131.254 31.894 131.218 32.0467 131.144 32.1822C131.071 32.3176 130.962 32.4308 130.83 32.5099C130.476 32.7056 130.074 32.799 129.67 32.7799C128.944 32.7702 128.227 32.6222 127.556 32.344C126.761 32.0176 126.004 31.6038 125.3 31.1099L123.918 33.476C124.688 34.162 125.598 34.6819 126.58 34.9879C127.61 35.3319 128.688 35.5079 129.772 35.5079C131.128 35.5832 132.468 35.1899 133.568 34.3939L133.504 34.4139ZM122.044 17.6339H118.172V21.1419H122.042L122.044 17.6339ZM122.044 22.5899H118.172V35.268H122.042V22.5879L122.044 22.5899ZM112.224 35.268L116.696 22.5699H113.086L110.302 32.1759L107.518 22.5699H103.528L108.008 35.268H112.224ZM102.45 27.1479C102.449 26.5941 102.405 26.0412 102.32 25.4939C102.228 24.9467 102.043 24.4191 101.774 23.9339C101.496 23.4519 101.096 23.0518 100.614 22.7739C100.002 22.4524 99.3163 22.2992 98.626 22.3299C97.6091 22.3087 96.6006 22.518 95.676 22.9419C94.876 23.3219 94.2 23.9359 93.736 24.6879V22.5599H90.21V35.2659H94.08V27.9799C94.19 27.6459 94.348 27.3399 94.552 27.0519C94.748 26.7819 94.988 26.5519 95.248 26.3459C95.49 26.1519 95.748 25.9939 96.038 25.8719C96.298 25.7619 96.576 25.7059 96.864 25.6959C97.1021 25.6865 97.3391 25.7338 97.5554 25.834C97.7717 25.9341 97.9611 26.0842 98.108 26.2719C98.478 26.8199 98.646 27.4699 98.58 28.1279V35.2659H102.45V27.1339V27.1439V27.1479ZM80.01 31.7959V28.1299H86.776V24.9199H80.01V21.5779H87.89V18.0979H76.046V35.2779H88.112V31.7859H80.01V31.7959Z" fill="#383B43"/>
<path fill-rule="evenodd" clip-rule="evenodd" d="M198.144 21.0399V2.31994H2.32V21.0399H0V-6.10352e-05H200.464V21.0399H198.144Z" fill="#00BE26"/>
</g>
</g>
</g>
<defs>
<clipPath id="clip0_1_253">
<rect width="200" height="80" fill="white"/>
</clipPath>
</defs>
</svg>
