<svg width="200" height="80" viewBox="0 0 200 80" fill="none" xmlns="http://www.w3.org/2000/svg">
<g clip-path="url(#clip0_1_194)">
<path d="M191.215 -6.10352e-05H8.67332C6.09192 -6.10352e-05 4 2.09186 4 4.67326V75.3265C4 77.9079 6.09192 79.9999 8.67332 79.9999H191.215C193.797 79.9999 195.889 77.9079 195.889 75.3265V4.67326C195.889 2.09186 193.797 -6.10352e-05 191.215 -6.10352e-05Z" fill="#3C3C3C"/>
<path d="M126.389 62.4809H117.939V63.7949H126.389V62.4809Z" fill="#B4B4B4"/>
<path d="M126.389 58.9935H117.939V60.3075H126.389V58.9935Z" fill="#B4B4B4"/>
<path d="M115.694 64.8787V57.9067C115.694 57.2453 116.233 56.7063 116.891 56.7063L126.387 56.7383L126.389 55.4243L116.891 55.3923C115.504 55.3923 114.377 56.5197 114.377 57.9067V64.8787C114.377 66.2655 115.504 67.3931 116.888 67.3931L126.384 67.4251L126.387 66.1111L116.888 66.0791C116.233 66.0791 115.694 65.5401 115.694 64.8787Z" fill="#B4B4B4"/>
<path d="M18.3357 56.5313V60.9221H23.5626V62.0614H18.3357V67.3231H17.0625V55.3922H24.4688V56.5313H18.3357Z" fill="#EAFF1B"/>
<path d="M36.0626 66.1839C35.2584 66.9881 34.2036 67.4252 33.012 67.4252C31.8234 67.4252 30.7656 66.9881 29.9616 66.1839C28.8398 65.0623 28.8398 63.8882 28.8398 61.3591C28.8398 58.8301 28.8398 57.656 29.9616 56.5344C30.7656 55.7302 31.8204 55.2932 33.012 55.2932C34.2008 55.2932 35.2584 55.7302 36.0626 56.5344C37.1842 57.656 37.1842 58.8301 37.1842 61.3591C37.1872 63.8882 37.1872 65.0593 36.0626 66.1839ZM35.0748 57.2859C34.5562 56.7499 33.8016 56.4324 33.015 56.4324C32.2282 56.4324 31.4736 56.7499 30.955 57.2859C30.2004 58.0551 30.116 58.8622 30.116 61.3562C30.116 63.8532 30.2004 64.6573 30.955 65.4293C31.4736 65.9655 32.2282 66.2829 33.015 66.2829C33.8016 66.2829 34.5562 65.9655 35.0748 65.4293C35.8294 64.6573 35.914 63.8532 35.914 61.3562C35.914 58.8622 35.8294 58.0551 35.0748 57.2859Z" fill="#EAFF1B"/>
<path d="M49.8868 67.3231L47.1714 62.0292H44.3044V67.3231H43.0312V55.3922H47.6056C49.6828 55.3922 51.1426 56.648 51.1426 58.7108C51.1426 60.453 50.0878 61.5922 48.5466 61.9128L51.3786 67.3259H49.8868V67.3231ZM47.4918 56.5313H44.3074V60.9045H47.4918C48.8816 60.9045 49.8722 60.1849 49.8722 58.7253C49.8694 57.2685 48.8816 56.5313 47.4918 56.5313Z" fill="#EAFF1B"/>
<path d="M65.8214 67.3231V58.2592L62.5524 65.4468H61.4628L58.1444 58.2592V67.3231H56.871V55.3922H58.1444L62.031 63.8531L65.8186 55.3922H67.0918V67.3231H65.8214Z" fill="#EAFF1B"/>
<path d="M77.3852 67.4222C74.9728 67.4222 73.2304 65.7643 73.2304 63.3839V55.3922H74.5036V63.285C74.5036 65.0943 75.6428 66.2829 77.3852 66.2829C79.1274 66.2829 80.2842 65.0943 80.2842 63.285V55.3922H81.5574V63.3839C81.5574 65.7643 79.7976 67.4222 77.3852 67.4222Z" fill="#EAFF1B"/>
<path d="M87.6894 67.3231V55.3922H88.9626V66.1839H95.0608V67.3231H87.6894Z" fill="#EAFF1B"/>
<path d="M107.091 67.3231L106.135 64.6251H100.923L99.967 67.3231H98.6094L103.003 55.3922H104.075L108.448 67.3231H107.091ZM103.557 57.219L101.31 63.518H105.768L103.557 57.219Z" fill="#EAFF1B"/>
<path d="M138.372 56.5315V67.3231H137.099V56.5315H133.646V55.3923H141.825V56.5315H138.372Z" fill="#EAFF1B"/>
<path d="M146.9 67.3231V55.3923H154.307V56.5315H148.174V60.7385H153.4V61.8777H148.174V66.1839H154.307V67.3231H146.9Z" fill="#EAFF1B"/>
<path d="M166.757 67.3231L165.801 64.6253H160.589L159.633 67.3231H158.275L162.669 55.3923H163.741L168.114 67.3231H166.757ZM163.22 57.2191L160.973 63.5181H165.431L163.22 57.2191Z" fill="#EAFF1B"/>
<path d="M181.837 67.3231V58.2591L178.568 65.4469H177.478L174.16 58.2591V67.3231H172.887V55.3923H174.16L178.047 63.8531L181.834 55.3923H183.107V67.3231H181.837Z" fill="#EAFF1B"/>
<path d="M29.9146 25.6099L16.8008 12.7787H35.363L48.1504 25.6099H29.9146Z" fill="#EAFF1B"/>
<path d="M39.1446 12.7787L51.932 25.6099H70.7332V17.9882C70.7332 16.2867 71.476 14.6726 72.7696 13.5683L73.6932 12.7787H39.1446Z" fill="#B4B4B4"/>
<path d="M48.136 33.3483L35.3106 46.1767H16.8008L29.9992 33.3483H48.136Z" fill="#EAFF1B"/>
<path d="M51.926 33.3483L39.0976 46.1795H73.696C71.8662 45.1481 70.7358 43.2135 70.7358 41.1129V33.3483H51.926Z" fill="#B4B4B4"/>
<path d="M107.752 32.39H84.2598V36.0406H107.752V32.39Z" fill="#B4B4B4"/>
<path d="M107.752 22.6907H84.2598V26.3413H107.752V22.6907Z" fill="#B4B4B4"/>
<path d="M183.11 12.7673H149.727V16.4179H183.11V12.7673Z" fill="#B4B4B4"/>
<path d="M163.237 46.1389H159.586V26.3473H149.727V22.6965H163.237V46.1389Z" fill="#B4B4B4"/>
<path d="M173.244 46.1389H169.594V22.6965H183.11V26.3473H173.244V46.1389Z" fill="#B4B4B4"/>
<path d="M107.746 46.1244L81.346 46.0369C77.4972 46.0369 74.3652 42.902 74.3652 39.0501V19.6664C74.3652 15.8118 77.5002 12.6797 81.352 12.6797L107.757 12.7672L107.746 16.4178L81.346 16.3304C79.5134 16.3304 78.016 17.828 78.016 19.6664V39.0501C78.016 40.8888 79.5134 42.3861 81.352 42.3861L107.757 42.4735L107.746 46.1244Z" fill="#B4B4B4"/>
<path d="M133.794 22.6819H112.266V26.3325H133.794V22.6819Z" fill="#B4B4B4"/>
<path d="M135.707 42.4735H121.824V46.1241H135.707V42.4735Z" fill="#B4B4B4"/>
<path d="M145.626 29.0393V19.7655C145.626 15.905 142.485 12.7642 138.624 12.7642H112.266V16.4149H138.624C140.472 16.4149 141.975 17.9183 141.975 19.7655V29.0393C141.975 30.8865 140.472 32.3897 138.624 32.3897H122.766H112.271V46.1387H115.922V36.0405H122.766H138.624C140.472 36.0405 141.975 37.5439 141.975 39.3911V46.1387H145.626V39.3911C145.626 37.3429 144.74 35.4985 143.336 34.2165C144.743 32.9347 145.626 31.0875 145.626 29.0393Z" fill="#B4B4B4"/>
</g>
<defs>
<clipPath id="clip0_1_194">
<rect width="200" height="80" fill="white"/>
</clipPath>
</defs>
</svg>
