<svg width="690" height="251" viewBox="0 0 690 251" fill="none" xmlns="http://www.w3.org/2000/svg">
<path d="M48.9333 2.33336C14 5.80003 5.59997 8.4667 1.86663 17.1334C0.399967 20.8667 0.5333 21.9334 3.19997 27.1334C7.86663 35.8 80.6666 120.067 84.8 121.533C93.4666 124.467 102.8 116.867 117.467 95C132.4 72.7334 130 74.4667 138.933 78.8667C155.2 86.8667 170.133 97.9334 205.467 128.467C229.6 149.267 238.533 155.4 261.333 167C286.667 179.933 315.067 188.067 333.733 187.8C346.933 187.667 404.267 182.867 474 176.333C531.467 170.867 543.067 170.067 546 171.667C550.133 173.8 552.8 180.333 553.6 190.067C554.533 202.6 553.333 203.933 539.867 204.6C534.133 204.867 511.067 206.467 488.667 208.067C442.8 211.4 398.4 211.8 380 209.133C364.533 206.867 336.133 201 316 195.8C307.2 193.533 297.733 191.667 294.933 191.667C284.533 191.667 280 202.467 286.133 212.467C290.267 219.267 307.067 234.067 314.667 237.533C324.533 242.2 333.6 243.667 352.4 243.667C361.733 243.667 374.8 244.333 381.333 245C436.133 250.733 488.133 252.2 506.667 248.467C528.133 244.2 549.867 236.467 630.667 204.333C680.667 184.467 683.067 183.267 685.6 177.4C686.933 174.2 688 163.8 689.067 145.933C690.4 121.667 690.267 119 688.133 115.267C683.867 107.4 656.933 89.4 641.067 83.6667L632.667 80.6L623.467 83.6667C618.4 85.2667 608.533 89.9333 601.733 94.0667C580 107 573.333 109.667 562.667 109.533C547.867 109.4 417.867 92.7334 415.867 90.7334C413.467 88.3334 412.267 88.6 413.2 91.2667C413.733 92.4667 413.333 93.9334 412.4 94.4667C408.4 97 415.2 98.7334 443.467 102.467C482.667 107.533 536.133 114.067 548.4 115.133C553.733 115.667 558.4 116.467 558.667 117C558.933 117.533 556.8 119.133 553.6 120.467C546 123.933 532.4 123.533 503.333 119.267C490.533 117.267 465.333 113.8 447.467 111.533C429.067 109.267 413.733 106.733 412.267 105.667C409.867 103.933 409.867 103.933 412.267 102.467C413.6 101.667 413.867 101 413.067 101C412.133 101 411.333 100.067 411.333 98.8667C411.333 97 410.933 97 409.333 98.3333C408 99.5333 407.333 99.5334 407.333 98.4667C407.333 97.6667 406.667 97 405.867 97C403.733 97 405.2 100.333 407.467 100.467C411.6 100.867 411.867 101.133 409.6 102.467C407.733 103.533 406.667 103.133 404.533 100.733C401.867 97.6667 401.867 97.6667 402.667 100.6C403.2 102.733 402.8 103.667 400.933 104.2C398.4 105.133 333.333 95.9334 296.667 89.5334C274.933 85.8 264.667 83.4 255.333 79.6667C248.4 76.8667 234.933 69 235.733 68.2C236 67.8 242.533 69.1334 250.133 70.8667C274.267 76.4667 334.267 87.1334 379.867 93.6667C399.467 96.6 404 96.8667 404.933 95.4C406 94.0667 406.4 94.0667 406.933 95.4C407.2 96.2 408.133 96.7333 408.8 96.3333C410.267 95.4 407.2 91.9333 405.333 92.3333C404.667 92.4667 404.4 92.3333 405.067 92.0667C406.4 91.2667 406.267 87.6667 404.933 87.6667C404.4 87.6667 403.333 88.2 402.533 88.8667C400.933 90.4667 365.333 85.2667 301.6 74.2C236.133 62.7333 206.533 53.9334 159.2 31.6667C148.267 26.4667 132.267 19.4 123.733 15.8C115.067 12.2 103.867 7.40003 98.9333 5.13336C87.0666 -0.333304 79.7333 -0.733308 48.9333 2.33336ZM98.1333 12.0667C103.6 14.6 114.667 19.4 122.667 22.7334C130.8 26.0667 146.933 33.2667 158.667 38.7334C180.133 48.7334 201.6 57.2667 218.533 62.4667C224.133 64.0667 230.267 67.2667 234.267 70.4667C242.8 77.1334 255.333 83.1333 267.6 86.2C287.333 91.2667 397.6 108.333 401.2 106.867C402.4 106.467 403.333 106.6 403.333 107.4C403.333 108.067 402.267 109.133 401.067 109.533C399.067 110.333 399.067 110.6 400.667 111.8C402.133 112.867 402.267 113.4 401.067 113.933C400.133 114.2 399.333 115.533 399.333 116.6C399.333 118.333 399.6 118.333 401.6 116.867C403.467 115.267 403.867 115.267 404.4 116.867C404.933 118.333 405.2 118.333 406.133 116.867C407.2 115.267 407.6 115.267 408.533 117C409.333 118.067 410.4 118.467 410.933 117.8C411.467 117.133 411.2 116.333 410.4 116.067C408 115.267 408.267 113.267 410.8 112.733C412.533 112.467 412.4 111.8 410 109.267C406.8 105.8 407.333 103.533 410.667 106.733C413.467 109.667 414.133 109.8 444 113.667C458.667 115.533 483.333 118.867 498.933 121C514.533 123.267 532.533 125 538.933 125C549.333 125 551.6 124.467 558.4 121C562.667 118.867 568.4 116.733 571.067 116.2C576.133 115.4 597.067 105.4 603.6 100.867C610.933 95.6667 628 88.3334 632.667 88.4667C640.667 88.7334 668.8 104.6 679.733 115L683.467 118.467L682.667 140.067C682 158.333 680.267 175.267 679.067 176.333C676 178.867 629.733 198.2 597.333 210.333C590 213.133 574.667 219 563.333 223.4C518.267 240.867 504.4 243.933 468.667 243.667C446.4 243.667 384.4 239.533 375.867 237.667C374.267 237.267 364.667 237 354.533 236.867C323.733 236.733 317.067 234.467 300.4 218.333C291.467 209.667 289.867 207.267 290.267 204.2C291.067 197.267 293.333 197.267 318.267 203.4C374.133 217.133 413.733 221.133 454.8 217C473.467 215.133 501.867 213.267 526 212.2C537.333 211.667 548.8 210.6 551.333 209.8C558.4 207.533 561.067 201.533 560.133 189.267C559.467 177.8 556.267 171 549.867 166.6C544.667 163 542.533 163 492 167.8C442.267 172.6 424.8 174.067 377.2 177.933C335.067 181.267 329.333 181.4 319.867 179.8C303.067 177 287.867 172.067 271.333 164.2C247.867 153 234.933 144.6 216 128.333C182 99.2667 172.933 91.9333 161.333 84.0667C151.333 77.4 134.933 69 131.6 69C128.133 69 120.933 77.1334 110.933 92.4667C101.067 107.533 92.6666 116.067 88.2666 115.4C86.4 115.133 73.0666 100.467 49.6 73C12.1333 29.1334 6.66663 22.0667 7.86663 18.8667C9.59997 14.3334 20.2666 11.6667 46.2666 9.00002C79.7333 5.80002 85.6 6.0667 98.1333 12.0667ZM406 105C406 105.667 405.467 106.333 404.667 106.333C404 106.333 403.333 105.667 403.333 105C403.333 104.2 404 103.667 404.667 103.667C405.467 103.667 406 104.2 406 105ZM408 109.533C409.6 111.133 409.6 111.667 407.6 113.4C405.467 115.4 405.067 115.4 403.733 113.133C402.533 111.267 402.533 110.333 403.733 109.133C405.6 107.267 405.867 107.267 408 109.533Z" fill="white"/>
</svg>
