<svg width="129" height="80" viewBox="0 0 129 90" fill="none" xmlns="http://www.w3.org/2000/svg">
<path d="M49.8326 0.214653C51.6321 0.723532 73.2588 9.18364 86.222 14.4633C99.3446 19.7906 109.728 24.0843 110.572 24.5295C111.973 25.2769 113.9 27.1534 114.506 28.3779C115.493 30.3816 115.27 32.4967 113.932 33.9915C113.072 34.9456 112.18 35.3591 110.174 35.709C108.04 36.0906 104.058 36.1065 102.721 35.7249C101.654 35.4386 99.2012 34.1664 92.4329 30.3975C80.473 23.7344 74.9947 20.9197 71.5707 19.6793C68.7041 18.6297 65.5668 18.2958 64.245 18.9001C63.5125 19.234 62.6206 20.1563 62.4773 20.7606C62.2862 21.5081 62.5251 22.9552 62.971 23.8616C64.038 25.9608 72.0485 38.3806 75.2813 42.9287C79.5812 48.9875 82.8299 52.979 88.5312 59.1492C90.9519 61.7731 103.007 73.9226 106.877 77.6279C109.378 80.0132 109.776 80.3313 110.333 80.4108C111.193 80.5221 112.849 79.9973 117.563 78.1209C121.752 76.4511 121.99 76.4193 123.328 77.1985C124.411 77.8346 128.169 81.9533 128.679 83.0824C129.459 84.7681 128.743 87.1535 127.325 87.5987C125.144 88.2984 108.486 90 103.883 90C101.431 90 98.8668 89.2844 95.6658 87.6941C91.8915 85.8177 91.4615 85.0543 90.2671 77.8505C89.4071 72.6822 88.6268 70.5195 87.4005 69.9152C86.875 69.6607 86.5565 69.6607 82.814 69.8357C78.1797 70.0583 76.842 69.947 75.2176 69.1837C73.2906 68.2772 73.1951 68.1341 68.7201 59.1174C64.5157 50.6414 59.3878 39.8913 52.3806 24.7999C50.1192 19.9496 47.5552 14.4951 46.6793 12.6822C45.1983 9.62892 45.039 9.37447 44.4657 9.08823C43.2394 8.45213 42.3954 8.48394 39.3218 9.27906C35.8341 10.1696 31.0247 11.6167 27.3618 12.8571C24.336 13.8749 17.8385 16.2761 17.1855 16.6101C16.5167 16.96 15.2904 18.3117 15.0356 18.9955C14.9241 19.3453 14.4782 21.9215 14.0801 24.7204C13.0131 32.1786 12.1212 37.4741 11.8664 37.9671C11.3409 38.969 10.242 39.5892 8.79284 39.7164C7.51881 39.8118 6.54736 39.5415 5.73517 38.8577C5.16185 38.3647 5.03446 38.0943 4.30189 35.8839C2.18381 29.4593 0.782379 23.8457 0.782379 21.8102C0.782379 19.7111 1.37161 18.6774 4.20633 15.7514C6.03775 13.859 12.0098 8.64296 13.5068 7.64111C14.9878 6.63925 16.9944 5.74871 18.7462 5.31934C23.699 4.11076 35.1971 1.8367 42.8095 0.548599C46.3767 -0.0556946 48.5267 -0.151104 49.8326 0.214653ZM40.5162 2.93398C34.6557 3.95173 26.8204 5.51017 21.6446 6.65515C18.5869 7.33896 17.8225 7.57749 16.4689 8.22949C14.6056 9.13593 14.2871 9.37447 10.5446 12.5868C6.91365 15.7037 5.63962 16.9281 4.19041 18.6297C2.47047 20.697 2.39084 21.1423 3.25081 24.9748C3.9356 27.9963 4.74779 30.9223 5.95812 34.6276C6.83402 37.2992 6.86587 37.3946 7.39141 37.6173C8.55396 38.0943 9.87577 37.7127 10.1624 36.838C10.3695 36.1542 10.7994 33.5144 12.0098 25.4042C13.1405 17.7869 13.1564 17.7074 14.6215 16.2125C15.7045 15.0994 16.1026 14.9085 20.0362 13.3978C28.2696 10.265 40.2773 6.67105 42.475 6.67105C43.4783 6.67105 44.7046 6.9573 45.469 7.35486C46.7112 7.99096 46.8067 8.19769 54.6102 24.9589C66.2516 49.9417 73.7684 65.3671 74.8991 66.6075C76.0776 67.8797 77.479 68.1023 82.9255 67.8638C87.6394 67.6729 88.0375 67.7206 89.1842 68.802C90.49 70.0106 91.3659 72.4914 92.1144 77.0395C93.054 82.669 93.3566 83.6867 94.4395 84.6727C95.188 85.3406 98.1502 86.7877 99.9497 87.3443C102.705 88.2189 103.533 88.2348 112.021 87.5192C117.101 87.1058 125.574 86.088 126.625 85.7699C126.943 85.6745 127.134 84.9112 127.007 84.2274C126.895 83.6867 125.892 82.4463 123.631 80.0928C122.532 78.9637 122.197 78.7092 121.815 78.7092C121.545 78.7092 119.841 79.3135 118.025 80.0451C112.563 82.2555 110.843 82.669 109.202 82.176C108.486 81.9693 104.775 78.4389 96.4143 70.0583C84.3269 57.9247 79.4538 52.2952 72.8766 42.8969C69.3571 37.8717 61.7766 26.0244 61.044 24.4182C59.4037 20.7924 61.1555 17.3416 64.9776 16.6578C66.7453 16.3557 69.8826 16.9122 72.8447 18.0572C75.6317 19.1545 83.2918 23.0824 91.2385 27.5033C101.654 33.2918 102.721 33.8166 104.393 34.0233C105.762 34.1823 108.693 34.0074 110.365 33.6894C112.117 33.3395 112.961 32.5762 113.152 31.1291C113.343 29.7614 112.133 27.869 110.285 26.6446C108.852 25.6904 77.3357 12.8571 60.1044 6.19398C53.4795 3.63368 49.6574 2.18656 49.1159 2.04343C48.1763 1.78899 45.5168 2.05934 40.5162 2.93398Z" fill="white"/>
</svg>
