<svg width="200" height="80" viewBox="0 0 200 80" fill="none" xmlns="http://www.w3.org/2000/svg">
<g clip-path="url(#clip0_1_269)">
<path d="M62.7 -6.10352e-05H58.54L48.7 11.3399H51.14L53.22 8.91994H65.72L67.8 11.3399H72.52L62.7 -6.10352e-05ZM54.48 7.45994L59.46 1.65994L64.46 7.45994H54.48Z" fill="black"/>
<path d="M42.4 5.17994C42.4 6.69994 42.08 7.71994 41.34 8.43994C40.38 9.39994 38.78 9.79994 36.4 9.79994H28.68V11.3199H37.06C41.04 11.3199 43.84 10.7799 45.3 9.25994C46.14 8.39994 46.54 7.29994 46.54 5.51994V-6.10352e-05H42.38V5.17994H42.4Z" fill="black"/>
<path d="M99.76 -6.10352e-05V5.63994C99.76 7.09994 99.92 8.25994 100.66 9.21994C101.86 10.7799 104.06 11.6999 110.16 11.6999H110.22C116.36 11.6999 118.54 10.7999 119.74 9.21994C120.48 8.25994 120.64 7.09994 120.64 5.63994V-6.10352e-05H116.42V5.49994C116.42 6.91994 116.24 7.83994 115.7 8.59994C114.78 9.87994 113.34 10.3599 110.38 10.3599H110.02C107.18 10.3599 105.62 9.89994 104.7 8.59994C104.16 7.83994 103.98 6.97994 103.98 5.49994V-6.10352e-05H99.76Z" fill="black"/>
<path d="M79.7 2.61994C80.64 1.85994 81.86 1.51994 84.12 1.51994H94.66V-6.10352e-05H82.8C79.94 -6.10352e-05 78.2 0.319939 76.68 1.17994C75.24 1.97994 74.12 3.47994 74.12 5.63994C74.12 7.91994 75.16 9.59994 77.42 10.5199C78.78 11.0599 80.58 11.3399 82.88 11.3399H95.08V6.13994H90.88V9.81994H84.14C81.96 9.81994 80.7 9.49994 79.76 8.77994C78.86 8.09994 78.4 7.05994 78.4 5.65994C78.4 4.29994 78.84 3.27994 79.68 2.61994H79.7Z" fill="black"/>
<path d="M164.66 7.31994C166.24 7.25994 167.58 7.01994 168.62 6.47994C169.7 5.89994 170.22 4.79994 170.22 3.67994C170.22 2.15994 169.54 1.19994 168.3 0.659939C167.22 0.159939 165.86 -6.10352e-05 163.16 -6.10352e-05H150.08V11.3399H154.3V7.41994H159.84L166.16 11.3399H171.3L164.66 7.33994V7.31994ZM154.3 5.95994V1.43994H162.62C164.2 1.43994 164.9 1.57994 165.38 1.93994C165.84 2.27994 166 2.79994 166 3.61994V3.83994C166 4.57994 165.82 5.15994 165.28 5.53994C164.74 5.89994 164 5.97994 162.66 5.97994H154.3V5.95994Z" fill="black"/>
<path d="M136.5 -6.10352e-05H132.34L122.52 11.3399H124.96L127.02 8.91994H139.52L141.6 11.3399H146.34L136.5 -6.10352e-05ZM128.28 7.45994L133.26 1.65994L138.26 7.45994H128.28Z" fill="black"/>
<path d="M79.64 74.8399H77.78L73.38 79.8999H74.48L75.4 78.8199H80.98L81.92 79.8999H84.04L79.64 74.8399ZM75.98 78.1599L78.2 75.5599L80.44 78.1599H75.98Z" fill="black"/>
<path d="M105.86 77.8599V79.8999H107.44V77.7399V76.9999V74.8399H105.86V76.8799V77.8599Z" fill="black"/>
<path d="M96.78 79.2199H93.78C92.8 79.2199 92.24 79.0799 91.82 78.7599C91.42 78.4599 91.22 77.9999 91.22 77.3599C91.22 76.7599 91.42 76.2999 91.8 75.9999C92.22 75.6599 92.76 75.4999 93.78 75.4999H98.48V74.8199H93.18C91.9 74.8199 91.12 74.9599 90.44 75.3399C89.8 75.6999 89.3 76.3599 89.3 77.3399C89.3 78.3599 89.76 79.0999 90.78 79.5199C91.38 79.7599 92.2 79.8799 93.22 79.8799H98.48V79.1999" fill="black"/>
<path d="M134.9 75.9999C135.32 75.6599 135.86 75.4999 136.88 75.4999H141.58V74.8199H136.28C135 74.8199 134.22 74.9599 133.54 75.3399C132.9 75.6999 132.4 76.3599 132.4 77.3399C132.4 78.3599 132.86 79.0999 133.88 79.5199C134.48 79.7599 135.3 79.8799 136.32 79.8799H141.78V77.5599H139.9V79.1999H136.9C135.92 79.1999 135.36 79.0599 134.94 78.7399C134.54 78.4399 134.34 77.9799 134.34 77.3399C134.34 76.7399 134.54 76.2799 134.92 75.9799L134.9 75.9999Z" fill="black"/>
<path d="M64.72 78.2199C65.42 78.1999 66.02 78.0799 66.5 77.8399C66.98 77.5799 67.22 77.0999 67.22 76.5799C67.22 75.8999 66.92 75.4799 66.36 75.2199C65.88 74.9999 65.26 74.9399 64.06 74.9399H58.22V79.9999H60.1V78.2399H62.58L65.4 79.9999H67.7L64.74 78.2199H64.72ZM60.1 77.6199V75.5799H63.82C64.52 75.5799 64.84 75.6399 65.06 75.7999C65.26 75.9599 65.34 76.1799 65.34 76.5599V76.6599C65.34 76.9799 65.26 77.2599 65.02 77.4199C64.78 77.5799 64.46 77.6199 63.84 77.6199H60.1Z" fill="black"/>
<path d="M124.1 79.1799L117.9 74.7799V75.9599L119.34 76.9399L120.14 77.4999L123.52 79.9399L124.1 79.1799Z" fill="black"/>
<path d="M123.52 77.8599V79.9399H124.98V77.7399V76.9799V74.7799H123.52V76.8599V77.8599Z" fill="black"/>
<path d="M115.92 79.9399H117.92V77.9999L117.9 74.7799H115.92" fill="black"/>
<path d="M112.5 57.5C112.5 58.36 112.94 59.06 114.06 59.6C115.62 60.36 118.16 61 120.42 61C123.28 61 125.66 60.14 127.32 58.62C127.86 58.14 128.32 57.48 128.4 56.62C128.62 54.66 126.54 51.38 122.24 48.96C124.22 50.24 124.82 51.34 124.82 52.9C124.82 55.22 122.98 56.78 120.34 56.78C117.7 56.78 115.64 55.48 114.46 55.48C113.28 55.48 112.46 56.28 112.46 57.48L112.5 57.5Z" fill="url(#paint0_linear_1_269)"/>
<path d="M83 60.3599C85.16 59.5599 86.82 58.0399 87.9 55.8399L85.48 51.4799C84.4 54.7199 82.52 56.4399 79.92 56.4399C77.32 56.4399 75.44 54.8799 75.44 51.3199L75.38 53.3599C74.9 57.6999 77.5 61.5799 82.98 60.3799L83 60.3599Z" fill="url(#paint1_linear_1_269)"/>
<path d="M88.98 46.2799C88.98 55.9399 92.86 61.3199 105.16 59.4999C109.1 57.4599 111.9 53.2999 113.84 46.9399L114.98 43.1999C113.9 41.7999 113.92 40.2199 113.92 38.5399C113.92 36.7599 114.12 35.1799 115.2 33.9999C113.58 35.7199 112.24 38.2599 111.16 41.8199L109.92 45.9199C107.7 53.1399 104.2 56.5999 98.76 56.5999C92.78 56.5999 89 52.4399 89 46.2999L88.98 46.2799Z" fill="url(#paint2_linear_1_269)"/>
<path d="M105.16 59.5C92.86 61.34 88.98 54.76 88.98 46.3C88.98 40.16 92.76 35.94 98.2 35.94C99.98 35.94 101.76 36.32 103.38 37.08C104.08 37.4 104.68 37.52 105.22 37.52C106.52 37.52 107.38 36.66 107.38 35.36C107.38 34.56 106.9 33.74 105.76 33.2C103.72 32.18 101.06 31.58 98.22 31.58C89.7 31.58 83.82 37.62 83.82 46.4C83.82 55.18 89.48 61.02 98.6 61.02C101.08 61.02 103.24 60.54 105.18 59.52L105.16 59.5Z" fill="url(#paint3_linear_1_269)"/>
<path d="M83.8 46.4C83.8 37.62 89.68 31.58 98.2 31.58C101.06 31.58 103.7 32.18 105.74 33.2C106.88 33.74 107.36 34.54 107.36 35.36C107.36 36.66 106.5 37.52 105.2 37.52C104.66 37.52 104.06 37.42 103.36 37.08C101.74 36.32 99.98 35.94 98.18 35.94C90.68 35.94 83.78 40.68 83.78 46.4H83.8Z" fill="url(#paint4_linear_1_269)"/>
<path d="M116 33.2999C115.52 33.7599 115.24 34.3999 115.24 35.0799C115.24 36.8599 116.92 39.4999 120.8 42.1999L125.22 45.2799C128.46 47.5399 129.74 49.6999 129.74 52.9399C129.74 55.2599 128.82 57.2599 127.32 58.6599C127.86 58.1799 128.18 57.5199 128.18 56.6599C128.18 54.7799 126.3 51.7999 122.24 48.9999L118.2 46.1999C114.8 43.8199 113.46 41.6199 113.46 38.5999C113.46 36.8199 114.1 35.1999 115.18 34.0199C115.44 33.7799 115.7 33.5399 116 33.3199V33.2999Z" fill="url(#paint5_linear_1_269)"/>
<path d="M120.8 42.2C119.08 40.96 118.32 39.82 118.32 38.48C118.32 36.76 119.72 35.68 121.72 35.68C124.26 35.68 125.44 36.86 126.96 36.86C128.14 36.86 128.96 36.06 128.96 34.86C128.96 34 128.52 33.3 127.4 32.76C125.62 31.9 123.68 31.58 121.58 31.58C119.36 31.58 117.42 32.22 116.02 33.3C115.54 33.76 115.26 34.4 115.26 35.08C115.26 36.86 116.94 39.5 120.82 42.2H120.8Z" fill="url(#paint6_linear_1_269)"/>
<path d="M70.28 37.0599C70.28 33.8199 72.38 31.8999 75.46 31.8999V26.3799C75.46 24.7599 74.38 23.6799 72.88 23.6799C71.38 23.6799 70.3 24.7599 70.3 26.3799V37.0599H70.28Z" fill="url(#paint7_linear_1_269)"/>
<path d="M79.44 60.9599C80.66 60.9599 81.86 60.7599 83 60.3599C77.56 61.2799 75.5 57.5199 75.46 53.3399V36.0799H81.76C83.22 36.0799 84.18 35.2199 84.18 33.9799C84.18 32.7399 83.22 31.8799 81.76 31.8799H75.46C72.38 31.8799 70.28 33.8199 70.28 37.0599V51.8799C70.28 57.8199 73.68 60.9399 79.44 60.9399V60.9599Z" fill="url(#paint8_linear_1_269)"/>
</g>
<defs>
<linearGradient id="paint0_linear_1_269" x1="126.88" y1="53.74" x2="112.26" y2="57.62" gradientUnits="userSpaceOnUse">
<stop stop-color="#EE3984"/>
<stop offset="1" stop-color="#7800DA"/>
</linearGradient>
<linearGradient id="paint1_linear_1_269" x1="74.56" y1="57.2999" x2="89.52" y2="52.5599" gradientUnits="userSpaceOnUse">
<stop stop-color="#EE3984"/>
<stop offset="1" stop-color="#7800DA"/>
</linearGradient>
<linearGradient id="paint2_linear_1_269" x1="97.16" y1="54.5999" x2="107.24" y2="38.1399" gradientUnits="userSpaceOnUse">
<stop stop-color="#EE3984"/>
<stop offset="1" stop-color="#7800DA"/>
</linearGradient>
<linearGradient id="paint3_linear_1_269" x1="94.72" y1="38.92" x2="100.06" y2="57.76" gradientUnits="userSpaceOnUse">
<stop stop-color="#FF0000"/>
<stop offset="1" stop-color="#EE3984"/>
</linearGradient>
<linearGradient id="paint4_linear_1_269" x1="83.8" y1="38.98" x2="107.38" y2="38.98" gradientUnits="userSpaceOnUse">
<stop stop-color="#FFC708"/>
<stop offset="1" stop-color="#FA3B00"/>
</linearGradient>
<linearGradient id="paint5_linear_1_269" x1="113.46" y1="45.9599" x2="129.74" y2="45.9599" gradientUnits="userSpaceOnUse">
<stop stop-color="#FF0000"/>
<stop offset="1" stop-color="#EE3984"/>
</linearGradient>
<linearGradient id="paint6_linear_1_269" x1="115.24" y1="36.88" x2="128.94" y2="36.88" gradientUnits="userSpaceOnUse">
<stop stop-color="#FFC708"/>
<stop offset="1" stop-color="#F05731"/>
</linearGradient>
<linearGradient id="paint7_linear_1_269" x1="72.86" y1="25.1199" x2="72.86" y2="35.7999" gradientUnits="userSpaceOnUse">
<stop stop-color="#FFC708"/>
<stop offset="1" stop-color="#F05731"/>
</linearGradient>
<linearGradient id="paint8_linear_1_269" x1="78.74" y1="33.3199" x2="75.94" y2="53.5199" gradientUnits="userSpaceOnUse">
<stop stop-color="#F80000"/>
<stop offset="1" stop-color="#EE3984"/>
</linearGradient>
<clipPath id="clip0_1_269">
<rect width="200" height="80" fill="white"/>
</clipPath>
</defs>
</svg>
