<svg width="106" height="99" viewBox="0 0 106 99" fill="none" xmlns="http://www.w3.org/2000/svg">
<path d="M105.86 8.8227C105.403 11.4354 104.414 13.8434 103.18 16.1668C100.202 21.7528 96.2616 26.6177 91.8728 31.1265C82.7622 40.4958 72.4046 48.1069 60.4361 53.4258C55.0487 55.8204 49.4572 57.5296 43.5995 58.2863C39.6144 58.8026 35.6294 58.7803 31.6754 58.0281C30.7301 57.8501 29.7583 57.4985 28.9417 56.991C26.9403 55.7492 26.8028 53.4659 28.529 51.8502C29.7095 50.7419 31.1917 50.2834 32.7315 50.2834C41.3318 50.2834 49.08 47.3859 56.3934 43.1931C68.4861 36.2585 78.6484 27.0672 87.2354 16.1C88.1451 14.9383 88.9217 13.6654 89.685 12.4013C90.0001 11.8805 90.1243 11.2485 90.3373 10.6699C90.2397 10.5452 90.1421 10.425 90.0489 10.3004C89.33 10.3627 88.6022 10.3538 87.901 10.4874C83.0462 11.4354 78.391 13.0556 73.7803 14.7914C62.0292 19.2202 50.7619 24.6325 40.3023 31.6428C35.3675 34.9454 30.7213 38.6086 26.6386 42.9394C23.6742 46.0817 21.0826 49.4956 19.2321 53.4258C17.5857 56.9154 16.6316 60.5563 16.8978 64.4642C17.2307 69.3692 19.3519 73.3617 23.0352 76.5308C26.4655 79.4818 30.5038 81.0752 34.9548 81.6583C40.1603 82.3438 45.2902 81.6316 50.3714 80.6034C64.1061 77.826 76.2698 71.6125 87.4217 63.2491C88.1717 62.6883 88.9172 62.1097 89.7249 61.6423C90.3551 61.2773 91.0518 60.9791 91.7574 60.8144C93.1686 60.4806 94.065 61.1616 94.207 62.6037C94.3756 64.3618 93.7987 65.9286 92.8091 67.3351C92.1568 68.2609 91.4334 69.1466 90.6879 70.0012C83.2725 78.5337 74.3749 85.1657 64.4256 90.4178C57.7202 93.9563 50.6865 96.618 43.209 97.9978C36.1441 99.3019 29.0838 99.5779 22.1565 97.3302C9.82414 93.3243 2.67057 84.7295 0.500535 71.9997C-1.04822 62.9331 1.08631 54.5341 5.67045 46.6915C8.8656 41.2213 12.9971 36.53 17.6611 32.2882C24.6416 25.9322 32.4697 20.8047 40.7904 16.4294C53.5577 9.71734 66.9462 4.70556 81.0625 1.71006C86.3301 0.588414 91.6376 -0.221662 97.0427 0.0542978C98.3607 0.121062 99.7097 0.29465 100.966 0.672982C104.715 1.79908 106.539 4.95481 105.86 8.8227Z" fill="url(#paint0_linear_870_2781)"/>
<defs>
<linearGradient id="paint0_linear_870_2781" x1="0" y1="0" x2="115.967" y2="13.5217" gradientUnits="userSpaceOnUse">
<stop stop-color="#14B7ED"/>
<stop offset="1" stop-color="#0554F2"/>
</linearGradient>
</defs>
</svg>
