<svg width="200" height="80" viewBox="0 0 200 80" fill="none" xmlns="http://www.w3.org/2000/svg">
<g clip-path="url(#clip0_1_407)">
<mask id="mask0_1_407" style="mask-type:luminance" maskUnits="userSpaceOnUse" x="0" y="0" width="200" height="80">
<path d="M0 -6.10352e-05H200V79.9999H0V-6.10352e-05Z" fill="white"/>
</mask>
<g mask="url(#mask0_1_407)">
<mask id="mask1_1_407" style="mask-type:luminance" maskUnits="userSpaceOnUse" x="0" y="20" width="200" height="39">
<path d="M0 19.9999H200V58.5839H0V19.9999Z" fill="white"/>
</mask>
<g mask="url(#mask1_1_407)">
<path d="M187.046 29.0479H196.002C198.036 29.0479 199.696 30.6379 199.696 32.5819V40.6759H186.304C185.721 40.6872 185.157 40.4675 184.736 40.0647C184.314 39.6619 184.069 39.1088 184.054 38.5259V35.7139C184.068 35.1725 184.295 34.6584 184.686 34.2837C185.077 33.9091 185.6 33.7043 186.142 33.7139H193.574L192.79 35.3479H187.322C187.199 35.3427 187.078 35.3846 186.984 35.4652C186.891 35.5458 186.831 35.6591 186.818 35.7819V37.9919C186.831 38.1148 186.89 38.2281 186.984 38.3085C187.078 38.3889 187.199 38.4302 187.322 38.4239H196.802V33.1179C196.802 32.0859 195.882 31.3039 194.854 31.3039H185.96L187.046 29.0479ZM133.42 26.5139V24.7939H130.524V28.1499L133.42 26.5139ZM130.524 29.7839L133.42 28.1499V40.6819H130.524V29.7819V29.7839ZM148 29.0479C150.032 29.0479 151.694 30.6379 151.694 32.5819V40.6759H148.808V33.1039C148.808 32.0739 147.884 31.2899 146.858 31.2899H139.906V40.6639H137.014V29.0479H148.008M185.034 29.0479H177.766C175.734 29.0479 174.068 30.6379 174.068 32.5819V40.6759H176.982V33.1039C176.982 32.0739 177.904 31.2899 178.934 31.2899H183.946L185.034 29.0479ZM87.884 40.6779H90.778V32.5799C90.778 30.6359 89.114 29.0459 87.084 29.0459H68.12V40.6719H71.014V31.7319C71.0276 31.6096 71.0873 31.4971 71.1809 31.4172C71.2745 31.3373 71.3951 31.2961 71.518 31.3019H77.5C77.6229 31.2961 77.7435 31.3373 77.8371 31.4172C77.9307 31.4971 77.9904 31.6096 78.004 31.7319V40.6739H80.896V31.7339C80.9086 31.6111 80.968 31.4977 81.0618 31.4174C81.1556 31.337 81.2766 31.2957 81.4 31.3019H85.934C86.96 31.3019 87.884 32.0839 87.884 33.1159V40.6759V40.6779ZM112.006 24.8199V40.6759H114.902V24.8199H112.006ZM124.04 40.6759H126.936V32.5819C126.936 30.6379 125.272 29.0479 123.238 29.0479H117.094L116 31.2999H122.092C123.118 31.2999 124.04 32.0839 124.04 33.1159V40.6759ZM169.932 24.8199V40.6759H156.878C156.295 40.6878 155.73 40.4683 155.309 40.0654C154.887 39.6626 154.641 39.1091 154.626 38.5259V32.5859C154.626 30.6399 156.29 29.0499 158.324 29.0499H165.754L164.658 31.3039H159.464C158.438 31.3039 157.516 32.0859 157.516 33.1179V37.9919C157.529 38.1148 157.588 38.2281 157.682 38.3085C157.776 38.3889 157.897 38.4302 158.02 38.4239H167.042V24.8199H169.932ZM96.32 29.0479H105.278C107.31 29.0479 108.972 30.6379 108.972 32.5819V40.6759H95.58C94.9973 40.6872 94.4338 40.4674 94.0126 40.0646C93.5913 39.6618 93.3467 39.1086 93.332 38.5259V35.7139C93.3467 35.1728 93.5741 34.6594 93.965 34.2849C94.356 33.9105 94.8788 33.7053 95.42 33.7139H102.854L102.07 35.3479H96.6C96.4763 35.3426 96.3553 35.3845 96.2613 35.4651C96.1674 35.5457 96.1076 35.6589 96.094 35.7819V37.9919C96.1076 38.1148 96.1675 38.2278 96.2615 38.3081C96.3555 38.3884 96.4765 38.4298 96.6 38.4239H106.08V33.1179C106.08 32.0859 105.158 31.3039 104.132 31.3039H95.238L96.32 29.0479Z" fill="#DD052B"/>
<path d="M55.878 21.5L55.486 21.88L54.33 22.852L53.17 23.826L52.01 24.796L50.85 25.768L49.69 26.74L48.532 27.714L47.372 28.684L46.208 29.658L45.048 30.63L43.888 31.604L42.726 32.578L41.564 33.552L40.402 34.532L39.24 35.504L38.072 36.47L36.908 37.444L35.746 38.418L34.586 39.392L33.42 40.366L32.258 41.34L31.096 42.314L30.096 43.15C30.096 45.364 30.1 47.58 30.108 49.796C33.18 52.536 36.276 55.288 39.4 58.054H44.186C45.216 55.1246 46.2306 52.1899 47.23 49.25L47.362 48.852L47.498 48.456L47.632 48.058L47.768 47.662L47.9 47.262L48.034 46.866L48.168 46.468L48.3 46.068L48.434 45.672L48.566 45.276L48.7 44.876L48.83 44.478L48.964 44.078L49.094 43.68L49.226 43.284L49.358 42.884L49.488 42.484L49.618 42.088L49.75 41.688L49.878 41.288L50.008 40.888L50.138 40.488L50.266 40.092L50.54 39.246L50.8 38.4L51.062 37.554L51.322 36.708L51.584 35.86L51.846 35.014L52.106 34.168L52.368 33.32L52.628 32.47L52.89 31.624L53.15 30.776L53.412 29.928L53.672 29.076L53.934 28.228L54.194 27.378L54.456 26.528L54.702 25.68L54.948 24.828L55.19 23.976L55.43 23.128L55.67 22.278C55.744 22.016 55.818 21.754 55.888 21.494M54.856 23.124L54.652 23.834L54.432 24.6L54.214 25.37L53.994 26.138L53.768 26.906L53.542 27.672L53.316 28.454L53.086 29.22L52.856 29.988L52.626 30.756L52.394 31.52L52.16 32.286L51.924 33.052L51.686 33.818L51.448 34.584L51.212 35.348L50.972 36.114L50.728 36.878L50.488 37.644L50.242 38.404L50 39.17L49.752 39.936L49.624 40.332L49.494 40.732L49.366 41.132L49.234 41.532L49.104 41.928L48.974 42.328L48.844 42.724L48.712 43.124L48.582 43.52L48.452 43.92L48.318 44.316L48.188 44.716L48.054 45.114L47.922 45.51L47.788 45.91L47.656 46.306L47.522 46.704L47.388 47.1L47.256 47.5L47.12 47.896L46.986 48.294L46.852 48.69L46.718 49.088L46.588 49.468L46.46 49.848L46.328 50.228L46.2 50.608L46.068 50.99L45.936 51.37L45.81 51.75L45.678 52.13L45.548 52.51L45.418 52.89L45.284 53.27L45.154 53.65L45.024 54.03L44.89 54.41L44.76 54.788L44.626 55.166L44.496 55.546L44.362 55.926L44.23 56.306L44.098 56.684L43.966 57.062L43.832 57.442L43.804 57.522H39.626C36.6402 54.8742 33.6575 52.2229 30.678 49.568L30.658 43.408L31.586 42.624L32.678 41.712L33.772 40.794L34.864 39.88L35.958 38.966L37.05 38.052L38.144 37.136L39.234 36.222L40.326 35.308L41.418 34.392L42.508 33.478L43.6 32.564L44.692 31.648L45.786 30.736L46.874 29.82L47.966 28.906L49.054 27.992L50.146 27.082L51.234 26.168L52.324 25.254L53.412 24.34L54.502 23.426L54.846 23.138" fill="white"/>
<path d="M55.542 21.2L29.796 42.9L29.81 49.948L29.918 50.046C33.018 52.83 36.146 55.626 39.298 58.434L39.388 58.514H44.57L44.646 58.298C45.6879 55.3226 46.7126 52.3412 47.72 49.354L52.16 35.744L54.248 28.848L56.234 21.934L56.454 21.152L56.77 20.012L55.542 21.198V21.2ZM52.31 31.136L49.644 39.68L43.714 57.326H39.848C36.903 54.692 33.961 52.0547 31.022 49.414L31.01 43.444L54.51 23.63L52.31 31.136ZM0.002 20.066L1.022 23.734L3.036 30.646L5.704 39.262L9.05 49.414C9.99 52.214 11.026 55.226 12.122 58.36L12.196 58.576H17.38L17.47 58.496C20.622 55.682 23.75 52.886 26.85 50.106L26.956 50.01L26.97 42.96L1.256 21.28L0 20.066H0.002ZM25.768 43.516V49.488C22.8166 52.1189 19.8679 54.7529 16.922 57.39H13.054L9.922 48.234L4.464 31.204L2.264 23.7L25.768 43.516Z" fill="#DD052B"/>
<path d="M199.668 48.2H198.408L196.72 52.322C196.538 52.762 196.358 53.21 196.184 53.648H196.166L195.906 52.98L195.646 52.322L193.946 48.2H192.706V54.566H193.42V48.768H193.438C193.518 48.968 193.592 49.16 193.678 49.362L195.846 54.566H196.572L198.738 49.296C198.836 49.036 198.842 49.036 198.882 48.94C198.915 48.863 198.944 48.7842 198.968 48.704H198.988V54.566H199.7L199.668 48.2ZM185.808 52.64H183.002L184.394 48.772L185.808 52.64ZM186.018 53.21L186.514 54.558H187.268L184.892 48.192H183.878L181.55 54.558H182.312L182.8 53.21H186.018ZM173.032 48.81H176.404V48.19H172.32V54.558H176.404V53.936H173.032V51.568H176.26V50.98H173.032V48.81ZM164.842 48.858H166.904V48.192H162.056V48.858H164.128V54.558H164.842V48.858ZM148.782 48.818H152.15V48.198H148.07V54.566H152.154V53.944H148.782V51.576H152.008V50.98H148.78V48.82L148.782 48.818ZM136.41 52.646H133.608L135 48.78L136.41 52.646ZM136.618 53.218L137.114 54.566H137.87L135.49 48.2H134.48L132.152 54.566H132.912L133.402 53.218H136.618ZM124.018 48.198H123.302V54.566H127.292V53.896H124.02V48.2L124.018 48.198ZM116.638 48.198V52.658C116.638 53.868 116.448 54.012 114.748 54.012C113.724 54.012 113.354 53.914 113.164 53.592C113.066 53.43 113.028 53.162 113.028 52.656V48.2H112.312V52.656C112.312 53.774 112.532 54.202 113.258 54.468C113.582 54.594 113.938 54.63 114.784 54.63C116.19 54.63 116.656 54.508 117.028 54.062C117.276 53.746 117.354 53.418 117.354 52.656V48.2L116.638 48.198ZM106.358 48.198H105.098L103.406 52.322C103.226 52.762 103.042 53.21 102.87 53.648H102.852L102.592 52.98L102.33 52.322L100.63 48.2H99.39V54.566H100.106V48.768H100.124C100.2 48.968 100.278 49.16 100.362 49.362L102.528 54.566H103.254L105.424 49.296C105.518 49.036 105.528 49.036 105.564 48.94C105.602 48.846 105.624 48.798 105.652 48.704H105.672V54.566H106.388L106.356 48.2L106.358 48.198ZM89.372 51.388V48.818H91.692C92.2 48.818 92.516 48.922 92.658 49.132C92.802 49.34 92.828 49.592 92.828 50.25C92.828 51.11 92.494 51.388 91.444 51.388H89.372ZM88.658 54.566H89.372V52.006H91.54C92.044 52.006 92.218 52.042 92.436 52.216C92.656 52.388 92.744 52.636 92.744 53.114V54.566H93.458V52.952C93.458 52.168 93.124 51.776 92.448 51.72C93.296 51.576 93.544 51.196 93.544 50.038C93.544 48.692 93.048 48.21 91.682 48.21H88.662L88.658 54.566ZM80.158 48.75C81.466 48.75 81.744 48.836 81.956 49.296C82.128 49.676 82.128 49.676 82.128 52.196C82.128 53.03 82.042 53.418 81.802 53.706C81.582 53.954 81.266 54.012 80.104 54.012C78.8 54.012 78.52 53.926 78.308 53.468C78.136 53.084 78.136 53.084 78.136 50.564C78.136 49.734 78.222 49.344 78.462 49.056C78.682 48.808 78.984 48.75 80.16 48.75H80.158ZM80.13 48.13C79.7022 48.1241 79.2746 48.1475 78.85 48.2C78.621 48.2296 78.4017 48.3109 78.2087 48.4377C78.0157 48.5645 77.8541 48.7335 77.736 48.932C77.476 49.418 77.42 49.792 77.42 51.118C77.42 52.598 77.42 52.808 77.536 53.306C77.5704 53.5489 77.6664 53.7789 77.8148 53.9743C77.9632 54.1696 78.1592 54.3237 78.384 54.422C78.796 54.594 79.1 54.63 80.212 54.63C81.146 54.63 81.472 54.594 81.874 54.422C82.1009 54.3265 82.2987 54.1732 82.4479 53.9774C82.597 53.7815 82.6922 53.55 82.724 53.306C82.828 52.818 82.838 52.598 82.838 51.11C82.85 50.692 82.838 50.274 82.798 49.858C82.684 49.038 82.398 48.57 81.854 48.34C81.484 48.18 81.1 48.132 80.126 48.132M68.842 48.818H72.042V48.198H68.124V54.566H68.84V51.632H71.942V51.034H68.854L68.842 48.818Z" fill="#1D1D1B"/>
</g>
</g>
</g>
<defs>
<clipPath id="clip0_1_407">
<rect width="200" height="80" fill="white"/>
</clipPath>
</defs>
</svg>
