<svg width="179" height="73" viewBox="0 0 179 73" fill="none" xmlns="http://www.w3.org/2000/svg">
<mask id="mask0_409_4273" style="mask-type:luminance" maskUnits="userSpaceOnUse" x="0" y="0" width="179" height="73">
<path d="M178.105 0.666504H0V72.6665H178.105V0.666504Z" fill="white"/>
</mask>
<g mask="url(#mask0_409_4273)">
<path d="M71.1326 63.1552C71.5708 62.5956 71.8828 61.7893 72.009 60.8569V59.6782C72.009 59.2436 71.879 58.684 71.5708 58.0018C71.285 57.3936 70.8554 56.8626 70.3186 56.4542C69.522 55.8636 68.5578 55.5375 67.5634 55.5229H58.4238V72.3441H60.4276V64.9556H65.9992C66.375 65.514 67.3762 67.3143 70.1302 72.0333L70.381 72.5312L72.2014 71.6619L68.3202 64.8938C69.4422 64.7068 70.381 64.0864 71.1326 63.1552ZM60.49 57.4419H67.5634C68.0652 57.4419 68.566 57.629 69.1238 58.0018C69.7492 58.622 70.0626 59.3056 70.0626 60.1748C70.0626 60.919 69.8128 61.4786 69.311 62.099C68.9364 62.6588 68.1226 62.9063 66.9328 62.9063H60.4276V57.4419H60.49Z" fill="white"/>
<path d="M91.9788 56.6345C90.9732 56.0253 89.8356 55.6637 88.6604 55.5795C87.472 55.6415 87.1586 55.6415 86.97 55.7085C85.4098 56.0193 84.2162 56.6397 83.4022 57.4471C82.0876 58.7509 81.3984 60.4893 81.3984 62.5387V72.3441H83.471V65.0173H92.9864V72.3441H94.9902V62.1557C94.9836 59.8019 93.9824 57.9397 91.9788 56.6345ZM92.9174 62.0989V63.0301H83.4022V62.5297C83.4022 61.1639 83.778 60.0457 84.5918 59.1765C85.5306 58.1215 86.7204 57.6289 88.3484 57.6289C89.412 57.6289 90.476 58.0011 91.5406 58.7457C92.4794 59.8019 92.9174 60.8531 92.9174 62.0989Z" fill="white"/>
<path d="M109.444 56.2C107.624 57.0074 106.251 58.3112 105.249 60.1128C104.623 61.4786 104.311 62.7826 104.311 63.8994C104.311 64.8318 104.498 65.8868 104.936 67.1236C105.187 67.807 105.688 68.6132 106.375 69.4836C108.196 71.4078 110.32 72.339 112.636 72.339H117.894V70.358H113.262C111.947 70.358 111.322 70.2292 111.071 70.1092L110.941 70.0472C110.251 69.9182 109.501 69.4888 108.625 68.8052C107.122 67.378 106.37 65.7638 106.37 63.9626C106.36 62.6464 106.777 61.3618 107.56 60.2986C108.999 58.4364 110.753 57.567 112.944 57.567H117.952V55.5178H113.069C111.823 55.456 110.58 55.69 109.444 56.2Z" fill="white"/>
<path d="M130.228 55.4545H128.225V72.2809H130.228V55.4545Z" fill="white"/>
<path d="M149.987 68.3087L149.422 67.5013C142.6 57.3799 141.597 55.9523 141.41 55.7035L141.222 55.5177H139.469V72.3441H141.472V59.4911L150.236 72.3441H151.927V55.5177H149.924V68.3087H149.987Z" fill="white"/>
<path d="M165.504 60.4223C165.864 59.9371 166.262 59.4805 166.694 59.0565C167.869 58.0337 169.387 57.4821 170.951 57.5089H175.833V55.3939H170.951C170.041 55.4039 169.137 55.5287 168.259 55.7653C166.069 56.5727 164.441 57.8769 163.375 59.6781C163.34 59.8135 163.276 59.9401 163.188 60.0495H163.126L162.996 60.3603C162.494 61.7261 162.244 62.7205 162.244 63.5279C162.244 65.7629 162.932 67.6871 164.31 69.2399C164.622 69.7363 165.249 70.2329 166.188 70.9163C167.69 71.7857 169.068 72.2203 170.256 72.2203L171.697 72.1583H171.759C172.511 72.0293 173.199 71.9095 173.826 71.6619V72.2203H175.828V64.3971H170.887V66.3831H173.83V69.4255C172.827 69.9853 171.826 70.2947 170.762 70.2947L169.572 70.1091C168.709 69.8831 167.885 69.5273 167.131 69.0541L166.505 68.5563C165.754 67.8741 165.191 67.0087 164.752 66.0737C164.501 65.1413 164.314 64.3971 164.314 63.8993L164.377 63.2171C164.503 62.4097 164.878 61.4167 165.504 60.4223Z" fill="white"/>
<path d="M40.692 60.2559C40.1368 59.8883 39.644 59.4911 39.12 59.2165C38.3442 58.8025 37.4678 58.6101 36.5884 58.6607C35.2854 58.7109 34.046 59.2329 33.105 60.1283C32.3108 60.8357 31.7702 61.7799 31.5642 62.8185C31.34 63.7821 31.3928 64.7887 31.7164 65.7241C32.04 66.6593 32.6218 67.4859 33.3952 68.1099C34.1688 68.7337 35.1032 69.1299 36.0924 69.2535C37.0816 69.3771 38.0858 69.2231 38.9912 68.8091C39.1758 68.7175 39.1758 68.6259 39.1758 68.4427V64.0153H42.3824V70.3735C42.3844 70.4493 42.369 70.5245 42.337 70.5935C42.3048 70.6623 42.2572 70.7231 42.1978 70.7707C41.0626 71.6949 39.7018 72.3061 38.2526 72.5427C36.6076 72.8267 34.9148 72.6249 33.3844 71.9623C32.1206 71.4465 31.0726 70.6171 30.1482 69.6087C29.8616 69.2671 29.5942 68.9103 29.3472 68.5395C29.1314 69.0283 28.9154 69.5171 28.6684 70.0059C27.9598 71.2285 26.8818 71.9313 25.5256 72.2989C25.142 72.3871 24.7492 72.4303 24.3554 72.4279H13.506V60.6531C13.506 59.7363 13.0744 59.1249 12.3032 58.8799C11.2254 58.5433 10.085 59.2165 10.085 60.4997C10.0538 64.3519 10.085 68.1719 10.085 72.0243V72.4215H6.75504V60.6531C6.75504 59.5827 5.92288 58.7277 4.84496 58.8193C4.16622 58.8799 3.45758 59.5531 3.39646 60.2249C3.36526 60.6531 3.33404 61.1109 3.33404 61.5391V72.4511H0.00796269V72.0849C0.00796269 68.1719 -0.0232377 64.2295 0.0378823 60.3165C0.0690823 58.4517 0.993563 57.0769 2.6267 56.1289C3.35638 55.7067 4.18606 55.4841 5.0309 55.4841C6.20114 55.4841 7.28036 55.8207 8.17364 56.5855C8.38948 56.7687 8.513 56.7687 8.72886 56.5855C9.48102 55.9731 10.4078 55.6095 11.3788 55.5461C12.3372 55.4637 13.2994 55.6543 14.1522 56.0955C15.1388 56.5937 15.9224 57.4133 16.3718 58.4169C16.3896 58.4323 16.4008 58.4541 16.403 58.4775C16.7724 58.0493 17.1116 57.5605 17.542 57.1323C18.266 56.3743 19.2388 55.8973 20.2856 55.7873C20.5718 55.7523 20.8594 55.7321 21.1476 55.7267H28.6984V59.0579H21.1788C20.2856 59.0579 19.5146 59.5479 19.33 60.4649C19.1764 61.2593 19.7004 62.1763 20.5314 62.3903C20.7324 62.4419 20.9404 62.4623 21.1476 62.4509H24.5388C25.6778 62.4819 26.696 62.8185 27.558 63.5511C27.7426 63.7045 27.8974 63.8271 28.0782 63.9793C28.3862 59.8833 30.4186 57.0407 34.426 55.7873C37.3542 54.8703 40.0666 55.5731 42.5006 57.4637C41.8436 58.3577 41.236 59.2865 40.6802 60.2457M16.8334 69.0593C16.8958 69.0889 16.8958 69.0889 16.9258 69.0889H24.2306C24.5034 69.0975 24.7742 69.0415 25.0206 68.9251C25.267 68.8089 25.4818 68.6361 25.6472 68.4207C25.8126 68.2055 25.9238 67.9541 25.9714 67.6877C26.019 67.4211 26.0018 67.1473 25.921 66.8887C25.7364 66.2155 24.9964 65.6957 24.2306 65.6957H20.5898C19.809 65.6941 19.0468 65.4601 18.4016 65.0239C17.8164 64.6267 17.2924 64.1675 16.7996 63.7703V69.0579L16.8334 69.0593Z" fill="white"/>
<path d="M170.527 18.3957H167.406C167.48 18.2487 167.553 18.0991 167.627 17.9521C168.137 16.9203 168.668 16.5914 169.838 16.5914H171.432L170.539 18.3969" fill="white"/>
<path d="M142.034 24.1385C141.541 25.0413 140.961 25.3805 139.894 25.3793H138.128L140.033 21.8777C140.515 20.9917 141.116 20.6461 142.17 20.6461H143.934L142.029 24.1385M71.2162 24.1385C70.7222 25.0413 70.1422 25.3805 69.0746 25.3793H67.3142C67.9512 24.2133 68.588 23.0467 69.2242 21.8791C69.708 20.9931 70.3074 20.6475 71.3632 20.6475H73.1264L71.2214 24.1399M103.689 21.4729C104.005 20.5701 104.729 20.4889 105.394 20.4889H108.964C108.883 20.7321 108.8 20.9751 108.717 21.2175C108.429 22.0713 107.773 22.1421 107.182 22.1421H103.456C103.533 21.9195 103.61 21.6963 103.689 21.4729ZM167.152 25.3703C168.111 23.4383 169.069 21.5059 170.026 19.5731H166.905L164.424 24.5771C164.146 25.1393 163.764 25.3703 163.107 25.3715H155.511C156.534 23.3081 157.558 21.2415 158.584 19.1721C159.017 18.2989 159.179 18.2371 160.192 18.2371H161.102C161.989 18.2371 162.403 17.9985 162.758 17.2905C162.899 17.0041 163.04 16.7179 163.181 16.4328H159.942C160.408 15.4956 160.873 14.5576 161.336 13.6187H159.294C158.403 13.6187 157.986 13.856 157.638 14.5576L156.71 16.4328H155.009C154.712 17.0347 154.414 17.6365 154.116 18.2383H155.817C155.467 18.9425 153.022 23.8755 152.674 24.5809C152.394 25.1433 152.013 25.3729 151.358 25.3741H144.608L148.197 18.7967H145.719C145.142 18.7967 144.892 18.9863 144.532 19.4197C144.532 18.9463 144.359 18.7967 143.905 18.7967H142.178C139.358 18.7967 137.782 19.6711 136.557 21.9165C136.071 22.8107 135.584 23.7031 135.097 24.5939C134.791 25.1535 134.412 25.3819 133.784 25.3819H129.436C127.86 25.3819 127.243 25.1549 127.069 24.3269C126.882 23.4345 127.281 22.7097 129.389 21.3077L130.582 20.5133C131.139 20.1445 131.363 19.9523 131.289 19.5513C131.222 19.1927 131.006 18.7981 129.284 18.7981H121.104C120.238 18.7981 119.834 19.0289 119.444 19.7459L116.797 24.6003C116.494 25.1575 116.114 25.3845 115.485 25.3845H102.352L102.913 23.7323H109.477C110.769 23.7323 111.306 23.3971 111.772 22.2957L112.398 20.8177C112.556 20.4463 112.687 19.9149 112.42 19.5163C112.112 19.0483 111.319 18.8019 110.128 18.8019H103.835C101.822 18.8019 100.904 19.3643 100.194 21.0331C99.7606 22.0647 99.3246 23.0935 98.886 24.1193C98.44 25.1729 97.7326 25.3845 96.734 25.3845H92.2312L92.5146 24.9575C93.4052 23.6149 93.2336 22.1203 92.0452 20.8589C90.875 19.6195 89.3276 19.1823 87.9546 18.7955H84.4556L82.041 23.2165C81.0424 25.0581 79.9502 25.3869 78.0244 25.3869H73.7868L77.3768 18.8097H74.8894C74.3108 18.8097 74.0626 18.9993 73.701 19.4325C73.701 18.9593 73.5294 18.8097 73.0756 18.8097H71.3658C68.5454 18.8097 66.9696 19.6841 65.7448 21.9293L64.2846 24.6067C63.9764 25.1703 63.6084 25.3909 62.9712 25.3909H56.5142L61.9882 15.3495C62.062 15.2159 62.0996 15.0657 62.0972 14.9134C62.095 14.7612 62.053 14.6121 61.9754 14.4808C61.8976 14.3494 61.787 14.2403 61.6542 14.164C61.5212 14.0878 61.3706 14.047 61.2172 14.0456H35.5734C33.8336 14.0456 32.9728 14.4867 32.1484 15.8924H43.2358L37.0518 27.2119H40.2438L46.4228 15.8847H50.8632L44.6856 27.2105H47.8764C49.9352 23.4361 51.994 19.6613 54.0528 15.886H58.4932C56.7942 19.0043 55.0952 22.1219 53.396 25.2387C53.1634 25.6655 52.937 26.2627 53.1828 26.6793C53.3896 27.0275 53.9084 27.2119 54.682 27.2119H63.0922C63.5044 27.2119 63.6824 27.0829 63.9386 26.7695C63.9386 27.1075 64.2234 27.2119 64.5458 27.2119H79.0088C81.8772 27.2119 83.4024 26.3711 84.6362 24.1167L86.5412 20.6151L86.7376 20.6527C89.0168 21.0873 90.1716 21.9345 90.2704 23.2435C90.2934 23.4987 90.2622 23.7559 90.1788 23.9985C90.0956 24.2411 89.962 24.4637 89.7866 24.6519C89.5552 24.8903 89.2766 25.0789 88.9682 25.2053C88.66 25.3319 88.3284 25.3937 87.9948 25.3869C86.5372 25.3869 85.9534 25.9597 85.3944 27.2157H97.6376C98.0512 27.2157 98.228 27.0867 98.4842 26.7733C98.4842 27.1113 98.7688 27.2157 99.0914 27.2157H117.203C118.425 27.2157 118.954 26.8921 119.564 25.7739L121.686 21.8855C122.17 20.9983 122.769 20.6527 123.826 20.6527H127.018C126.447 21.0469 125.911 21.4905 125.418 21.9783C124.812 22.6025 124.228 23.4629 124.118 24.5771C124.043 25.3509 124.233 26.0203 124.668 26.4987C125.102 26.9771 125.718 27.2157 126.475 27.2157H133.922C134.335 27.2157 134.512 27.0867 134.768 26.7733C134.768 27.1113 135.053 27.2157 135.375 27.2157H151.041C151.453 27.2157 151.631 27.0867 151.887 26.7733C151.887 27.1113 152.172 27.2157 152.495 27.2157H175.66C177.055 27.2157 177.764 26.7605 178.028 25.6939C178.054 25.5857 178.081 25.4759 178.107 25.3677H167.155" fill="white"/>
<path d="M8.8496 32.4867V31.1803H12.186H15.5212V32.4867H12.186H8.8496Z" fill="white"/>
<path d="M12.1826 35.1923H14.2864V33.1625H12.1826H10.08V35.1923H12.1826Z" fill="white"/>
<path d="M10.0836 30.5057C10.0772 29.3851 9.78716 28.2901 8.89258 27.5459H15.4798C14.5864 28.2901 14.2952 29.3851 14.29 30.5057H10.0836Z" fill="white"/>
<path d="M4.50976 25.3895V24.4249H12.1826H19.8568V25.3895H12.184H4.50976Z" fill="white"/>
<path d="M5.19574 28.8691C6.13392 28.6573 6.99832 28.2015 7.70006 27.5485H5.0332C5.08912 27.9883 5.14372 28.4293 5.19834 28.8691" fill="white"/>
<path d="M19.1704 28.8691C18.232 28.6579 17.3674 28.2019 16.666 27.5485H19.3342L19.1704 28.8691Z" fill="white"/>
<path d="M4.25188 22.3111C3.4106 17.3137 1.78136 12.1124 0 8.68958C1.91832 9.7342 3.98012 11.3914 6.18536 13.6613C5.28206 13.4161 4.36568 13.2211 3.4405 13.077C4.6919 16.0985 5.7894 19.1805 6.72888 22.3111H4.25188Z" fill="white"/>
<path d="M20.1164 22.3111C20.9576 17.3137 22.5804 12.1124 24.3682 8.68958C22.449 9.7342 20.3868 11.3914 18.1816 13.6613C19.0852 13.4161 20.002 13.2211 20.9276 13.077C19.6762 16.0983 18.579 19.1803 17.6406 22.3111H20.1164Z" fill="white"/>
<path d="M3.69726 23.9231V22.9457H12.1842H20.6722V23.9231H12.1854H3.69726Z" fill="white"/>
<path d="M9.3245 8.1621C10.6338 5.9 11.7586 3.32968 12.185 0.666504C12.6102 3.32968 13.735 5.9 15.0456 8.1621C14.5788 7.95058 14.0848 7.72746 13.536 7.48372C13.0628 7.27222 12.8612 7.39732 12.8768 7.8874C13.0342 12.6901 13.739 18.1519 16.238 22.3111H13.293C12.8458 21.2465 12.4752 20.1519 12.1838 19.0353C11.8928 20.1519 11.5226 21.2465 11.076 22.3111H8.13086C10.6312 18.1519 11.3348 12.6901 11.492 7.8874C11.509 7.39732 11.3074 7.27222 10.8328 7.48372C10.2854 7.72746 9.7926 7.95058 9.3245 8.1621Z" fill="white"/>
<path d="M3.69726 26.8701V25.8925H12.1842H20.6722V26.8701H12.1854H3.69726Z" fill="white"/>
<path d="M175.835 40.2441H0V42.1785H175.835V40.2441Z" fill="white"/>
</g>
</svg>
