<svg width="149" height="98" viewBox="0 0 149 98" fill="none" xmlns="http://www.w3.org/2000/svg">
<path d="M24.22 1.09612C17.8405 2.01174 12.4436 4.80682 7.9167 9.52954C4.22751 13.3688 1.77878 17.963 0.586643 23.2319C0.183892 25.0471 0.151672 25.4808 0.151672 28.6614C0.151672 31.3279 0.216112 32.4845 0.441653 33.7214C2.48763 44.9339 9.94656 53.5601 20.6436 57.0941C24.4295 58.3471 29.1658 59.1181 30.6318 58.7165C32.0334 58.3471 33.3705 57.1101 34.0472 55.568C34.5788 54.3311 35.7387 46.0583 35.6259 44.2913C35.5776 43.44 35.4165 42.9902 34.7077 41.6248C33.0322 38.396 31.5018 36.3719 30.1807 35.6651C29.4075 35.2475 29.053 35.1832 25.3639 34.8298C20.9658 34.3961 20.1603 34.2033 19.8703 33.4805C19.5965 32.8219 19.8059 32.34 21.1108 30.4605C23.8334 26.5249 25.8149 24.0832 26.3949 23.9387C26.846 23.8262 32.8711 25.8824 33.5477 26.3803C34.2244 26.8783 34.6432 27.6172 34.9332 28.8541C35.0943 29.4967 35.6743 31.7295 36.2381 33.8178C36.8181 35.9061 37.3336 38.0747 37.398 38.6369C37.4625 39.1991 37.4625 43.9219 37.398 49.1265C37.2692 58.4916 37.2692 58.6041 37.6075 59.2787C38.2035 60.5156 37.6719 60.4032 55.1674 62.8931C72.5984 65.3829 73.2589 65.4472 75.5143 64.8207C77.222 64.3549 79.3807 63.2143 81.2817 61.8007C82.1356 61.1582 82.9088 60.6281 83.0055 60.6281C83.3438 60.6281 83.6821 61.624 83.811 63.0858C83.9882 64.9171 84.2299 65.5115 85.0837 66.2825C86.0342 67.1499 85.2126 66.9893 98.165 68.7402C103.401 69.447 107.219 70.1378 108.991 70.684C112.777 71.8727 128.742 77.7841 130.82 78.78C134.799 80.6595 137.602 83.7116 139.584 88.2576C140.389 90.1049 140.792 91.631 141.147 94.153C141.614 97.3497 141.936 97.6388 145.126 97.7994C146.479 97.8637 147.22 97.8316 147.623 97.687C148.364 97.43 148.912 96.5947 148.912 95.7433C148.912 95.3417 148.251 93.0928 147.236 89.9764C145.416 84.4505 144.868 83.2618 142.87 80.4667C141.42 78.4427 140.518 77.4468 139.342 76.6114C137.264 75.1336 135.299 74.3625 117.9 68.0816C112.439 66.1219 111.198 65.6239 110.779 65.2062C110.135 64.5637 109.99 64.0175 110.248 63.0698C110.425 62.4433 110.683 62.106 111.681 61.1903C115.644 57.5439 117.32 55.4395 119.092 51.8734C121.154 47.729 121.831 44.7732 121.847 39.9863C121.847 32.7416 120.042 26.1876 116.659 21.24C115.516 19.5533 113.163 17.0473 111.714 15.9711C110.65 15.184 110.489 14.8948 110.328 13.5615C110.199 12.3889 109.829 11.6821 109.217 11.3608C108.701 11.0877 108.33 11.0717 100.42 10.6861C98.3745 10.5897 95.8935 10.3327 93.8959 10.0436C84.7293 8.6621 42.9721 2.63823 42.6338 2.63823C42.4566 2.63823 42.4244 2.50972 42.5049 2.10812C42.5532 1.83504 42.5532 1.67441 42.4727 1.77079C42.4083 1.86717 42.2149 1.97961 42.0699 2.04387C41.9088 2.09206 41.78 2.2527 41.78 2.39727C41.78 2.52578 41.635 2.63823 41.4578 2.63823C41.2483 2.63823 41.1356 2.75068 41.1356 2.9595C41.1356 3.1362 41.2322 3.28078 41.3611 3.28078C41.4739 3.28078 41.6189 3.1362 41.6672 2.9595C41.7961 2.49366 42.2633 2.54184 42.2633 3.03982C42.2633 3.32896 42.1827 3.44141 41.9411 3.44141C41.4255 3.44141 41.5222 4.03576 42.0699 4.14821C42.3116 4.1964 46.9996 4.88714 52.4931 5.69032C65.1717 7.52158 76.6904 9.17615 87.9352 10.8307C96.844 12.1319 98.6967 12.3246 104.77 12.5334C106.494 12.5977 108.073 12.6941 108.266 12.7744C108.54 12.8708 108.637 13.0796 108.717 13.8346C108.878 15.3125 109.217 16.0675 110.054 16.7421C111.569 17.963 113.373 19.6015 113.437 19.8103C113.486 19.9388 113.244 19.8745 112.809 19.6175C111.665 18.9589 108.894 17.8345 106.462 17.0473C102.015 15.6016 99.2605 15.0394 90.0295 13.7222C80.2668 12.3086 44.3737 6.79872 42.3921 6.39713C42.1344 6.34893 41.9411 6.20436 41.9411 6.07585C41.9411 5.72245 41.345 5.80277 41.2483 6.17223C41.2 6.34893 41.055 6.49351 40.9261 6.49351C40.7811 6.49351 40.6362 6.63808 40.5717 6.79872C40.5234 6.95936 40.3301 7.13606 40.1529 7.18425C39.9595 7.23244 39.8468 7.36095 39.879 7.4734C39.9918 7.8268 40.2978 7.81073 40.4106 7.4734C40.4589 7.28063 40.62 7.13605 40.765 7.13605C40.8939 7.13605 41.0389 6.99148 41.0872 6.81478C41.1356 6.63808 41.3128 6.49351 41.4739 6.49351C41.9894 6.49351 41.8122 7.13606 41.2644 7.34489C41.1033 7.39308 40.9745 7.55371 40.9745 7.69829C40.9745 7.8268 40.8295 7.93924 40.6523 7.93924C40.2817 7.93924 40.2173 8.38902 40.5717 8.51753C40.7006 8.58179 40.8134 8.75848 40.8134 8.91912C40.8134 9.11188 40.9261 9.22433 41.1356 9.22433C41.5544 9.22433 41.5544 8.79061 41.1195 8.6621C40.9261 8.59785 40.8134 8.43721 40.8456 8.29264C40.9261 7.92318 41.4094 7.85892 41.5061 8.21232C41.5544 8.38902 41.5866 8.3087 41.6028 8.01955C41.635 7.13605 41.6672 7.13606 44.1642 7.55371C49.8511 8.51753 86.1308 14.0434 93.6542 15.0876C101.145 16.1478 107.009 17.7381 111.617 20.0031C115.145 21.7219 115.532 22.0913 117.014 25.0792C119.253 29.5931 120.413 35.5045 120.187 41.2714C120.042 45.0142 119.446 47.3916 117.803 50.8293C116.208 54.1705 114.339 56.4997 110.312 60.1462C109.168 61.1903 108.62 62.2345 108.524 63.5999C108.459 64.4352 108.508 64.6761 108.91 65.4472C109.184 65.9773 109.635 66.5074 110.006 66.7644C110.393 67.0375 115.032 68.7884 121.444 71.1177C137.2 76.8363 137.328 76.8845 139.503 79.021C140.953 80.4507 142.935 83.2939 143.805 85.2055C144.562 86.8601 147.365 95.5505 147.252 95.8718C147.091 96.2734 143.595 96.2573 143.241 95.8397C143.08 95.679 142.886 94.8116 142.725 93.6068C142.323 90.5868 141.565 88.2576 140.164 85.6874C138.005 81.7036 135.234 79.021 131.464 77.254C128.758 75.985 110.86 69.431 108.492 68.8206C105.833 68.162 102.885 67.6961 90.1906 66.0094C88.5151 65.7845 86.9041 65.4954 86.6142 65.3669C85.8248 65.0135 85.5992 64.5155 85.4381 62.7967C85.2609 61.0136 84.9065 60.0819 84.1332 59.4394C83.6821 59.0539 83.4888 58.9896 82.8444 59.0539C82.2161 59.1181 81.8456 59.3269 80.4601 60.3711C78.7525 61.6401 76.1104 63.0376 74.7733 63.3429C73.1784 63.7123 71.4707 63.5356 55.9729 61.3349C47.499 60.1462 40.2656 59.086 39.879 58.9896C39.5085 58.8932 39.1218 58.6844 39.0413 58.5398C38.9446 58.3631 38.9446 54.7167 39.0252 48.757C39.1218 43.1669 39.1218 38.8618 39.0413 38.2675C38.9607 37.7052 38.5257 35.9382 38.0908 34.3319C37.6397 32.7255 37.0597 30.5087 36.7859 29.4324C35.7548 25.2559 35.5937 25.1274 29.3752 23.007C26.0083 21.8504 25.5894 21.9628 23.5273 24.4206C22.2063 25.9948 19.0004 30.4766 18.5493 31.3922C18.0016 32.4845 18.0338 33.8821 18.6299 34.6531C19.5159 35.8097 20.2409 36.0025 25.3477 36.4523C26.991 36.5968 28.6342 36.8217 29.0047 36.9502C30.1485 37.3679 31.5823 39.1992 33.2578 42.4119C34.1921 44.211 34.1921 44.1789 33.6444 48.3554C32.8389 54.4918 32.5973 55.3753 31.3729 56.4515C30.4707 57.2387 30.1485 57.3029 28.2475 57.0941C20.9336 56.323 14.0385 53.0621 9.47937 48.2269C4.63026 43.0866 1.98821 36.7575 1.71434 29.5449C1.4888 23.8262 3.18036 18.477 6.789 13.417C8.0778 11.5857 10.6715 8.91912 11.5737 8.46934C12.5725 7.97136 13.958 7.55371 18.5815 6.39713C22.7057 5.35299 22.9312 5.30479 25.235 5.24054C27.877 5.16022 28.9403 5.27267 34.7399 6.12405L38.7513 6.7184L38.6546 7.37701C38.6063 7.73042 38.6224 7.90711 38.6868 7.7786C38.7513 7.65009 38.9124 7.53765 39.0413 7.53765C39.1701 7.53765 39.299 7.40914 39.3312 7.2485C39.3635 7.08787 39.2829 6.97542 39.1379 6.97542C38.9768 6.97542 38.8802 6.83085 38.8802 6.57383C38.8802 6.28468 38.9607 6.17223 39.2024 6.17223C39.4118 6.17223 39.5246 6.05979 39.5246 5.86703C39.5246 5.70639 39.3796 5.52969 39.2024 5.4815C38.9929 5.43331 38.8802 5.4815 38.8802 5.62607C38.8802 5.89915 38.7996 5.89915 37.5269 5.69032C30.213 4.50161 26.2338 4.11609 23.9784 4.38917C23.1568 4.48555 20.5953 5.03172 18.2754 5.61001C15.9556 6.1883 14.0063 6.65414 13.9418 6.65414C13.668 6.63808 16.5356 5.09597 17.8566 4.5498C21.3686 3.08801 24.0267 2.57397 28.167 2.57397C30.8413 2.57397 31.7273 2.65429 35.2232 3.16833C37.4303 3.4896 39.2829 3.74662 39.3312 3.74662C39.6696 3.69843 39.8468 3.79481 39.8468 4.00364C39.8468 4.29279 40.4106 4.88714 40.7006 4.88714C40.8134 4.87107 40.7811 4.79076 40.62 4.66225C40.4589 4.5498 40.3301 4.32491 40.3301 4.18034C40.3301 4.03576 40.2173 3.87513 40.0884 3.82693C39.9595 3.76268 39.8468 3.60205 39.8468 3.42535C39.8468 3.26471 39.734 3.07195 39.6051 2.99163C39.2829 2.81493 39.444 2.38121 39.8629 2.26876C40.024 2.22057 40.169 2.076 40.169 1.93143C40.169 1.78685 40.2978 1.67441 40.4912 1.67441C40.7006 1.67441 40.8134 1.56196 40.8134 1.35313C40.8134 1.17643 40.7167 1.03186 40.5878 1.03186C40.4751 1.03186 40.3301 1.17643 40.2817 1.35313C40.169 1.78685 39.7179 1.75472 39.6373 1.30494C39.589 1.04792 39.5568 1.08005 39.5407 1.46558C39.5407 1.73866 39.4762 2.01174 39.4118 2.04387C39.3312 2.09206 37.6236 1.86717 35.5776 1.56196C31.1635 0.919411 26.7976 0.726651 24.22 1.09612Z" fill="white"/>
</svg>
