<svg width="200" height="80" viewBox="0 0 200 80" fill="none" xmlns="http://www.w3.org/2000/svg">
<mask id="mask0_1_247" style="mask-type:luminance" maskUnits="userSpaceOnUse" x="0" y="13" width="200" height="54">
<path d="M0 13.3339H200V66.3179H0V13.3339Z" fill="white"/>
</mask>
<g mask="url(#mask0_1_247)">
<path d="M25.388 47.9199L4.864 20.5859V47.9199H0V13.9519H5.662L24.682 39.3399V13.9519H29.544V47.9199H25.388ZM42.194 47.9199V13.9519H47.058V47.9199H42.194ZM83.236 15.1019V19.7899C78.816 18.4639 75.896 17.7579 72.446 17.7579C68.024 17.7579 63.512 18.8179 63.512 22.6219C63.512 25.0979 65.636 26.5139 68.464 27.3099L77.044 29.7859C81.2 30.9359 84.65 33.5019 84.65 38.6319C84.65 44.9119 79.344 48.5399 70.234 48.5399C65.812 48.5399 61.918 47.7439 58.026 46.2399V41.2879C62.006 42.6139 65.722 44.0299 70.234 44.0299C75.894 44.0299 79.61 41.9959 79.61 38.8099C79.61 36.0679 77.486 34.6539 74.566 33.8579L66.606 31.6459C62.274 30.4959 58.556 28.0199 58.556 22.6239C58.558 15.9859 64.836 13.3339 72.446 13.3339C76.602 13.3339 80.052 14.1279 83.236 15.1019ZM119.152 15.1019V19.7899C114.73 18.4639 111.812 17.7579 108.36 17.7579C103.94 17.7579 99.426 18.8179 99.426 22.6219C99.426 25.0979 101.55 26.5139 104.38 27.3099L112.96 29.7859C117.116 30.9359 120.566 33.5019 120.566 38.6319C120.566 44.9119 115.258 48.5399 106.148 48.5399C101.728 48.5399 97.834 47.7439 93.94 46.2399V41.2879C97.92 42.6139 101.636 44.0299 106.148 44.0299C111.81 44.0299 115.526 41.9959 115.526 38.8099C115.526 36.0679 113.402 34.6539 110.482 33.8579L102.522 31.6459C98.188 30.4959 94.472 28.0199 94.472 22.6239C94.472 15.9899 100.752 13.3359 108.358 13.3359C112.604 13.3359 115.966 14.1299 119.15 15.1039L119.152 15.1019ZM157.012 47.9199C156.066 44.9703 155.033 42.049 153.916 39.1599H135.428C134.102 42.6119 132.952 45.7079 132.332 47.9199H127.026C132.156 32.4399 139.41 17.6679 141.71 13.9519H147.46C148.874 16.1639 156.13 29.7859 162.144 47.9199H157.012ZM152.146 34.7399C149.758 28.7239 147.016 22.6199 144.626 18.3739C142.504 22.3539 139.584 28.7239 137.196 34.7399H152.146ZM195.842 47.9199L175.32 20.5859V47.9199H170.456V13.9519H176.116L195.136 39.3399V13.9519H200V47.9199H195.842ZM2.124 59.3319V61.4559H6.37V63.2239H2.124V66.2319H0.088V57.6519H6.81V59.4219H2.124V59.3319ZM23.53 61.8079C23.53 65.0819 21.23 66.3199 18.842 66.3199C16.454 66.3199 14.242 65.0799 14.242 61.8079C14.242 58.7999 16.63 57.3859 18.93 57.3859C21.054 57.4739 23.53 58.7999 23.53 61.8079ZM16.364 61.8079C16.364 63.7539 17.692 64.5499 18.842 64.5499C20.08 64.5499 21.318 63.8439 21.318 61.8079C21.318 60.1279 20.168 59.2439 18.842 59.2439C17.516 59.2439 16.364 60.2159 16.364 61.8079ZM36.8 66.2299C36.092 65.0799 35.384 64.1059 34.764 63.4879H33.35V66.2299H31.316V57.6499H35.386C37.066 57.6499 39.012 58.1819 39.012 60.5699C39.012 61.8959 38.128 62.8699 36.888 63.1339C37.95 64.2839 38.922 65.6119 39.364 66.3179H36.8V66.2299ZM35.03 61.7179C36.18 61.7179 36.798 61.3639 36.798 60.4779C36.798 59.6839 36.178 59.3299 34.942 59.3299H33.348V61.7179H35.03ZM56.436 57.5619C56.966 60.5699 57.32 63.3119 57.586 66.1419H55.552C55.3736 63.9502 55.108 61.7665 54.756 59.5959C54.048 61.5419 53.518 63.4899 52.988 65.3459H51.042C50.51 63.3999 49.892 61.5439 49.272 59.5959C49.008 61.3659 48.742 63.1359 48.476 66.1419H46.444C46.708 63.2219 47.064 60.4799 47.594 57.5619H50.6C50.866 58.5359 51.75 61.1899 52.016 62.4279C52.28 61.1879 53.166 58.5339 53.43 57.5619H56.436ZM73.332 62.2499C73.332 64.8139 72.182 66.3179 69.262 66.3179C66.342 66.3179 65.282 64.7259 65.282 62.2499V57.5599H67.316V62.2499C67.316 63.8419 68.11 64.5499 69.26 64.5499C70.5 64.5499 71.206 63.8419 71.206 62.2499V57.5599H73.24V62.2499H73.332ZM87.572 64.4599V66.2299H81.47V57.6499H83.504V64.5499H87.572V64.4599ZM100.574 64.6379H96.416C96.24 65.1679 96.062 65.6979 95.974 66.2299H93.85C94.734 63.2219 95.974 59.9499 97.124 57.6499H99.954C101.242 60.4417 102.364 63.3066 103.316 66.2299H101.016L100.574 64.6379ZM99.954 62.9579C99.4998 61.6718 98.9981 60.4029 98.45 59.1539C97.918 60.3919 97.476 61.6299 97.036 62.9559H99.956L99.954 62.9579ZM122.07 59.3319V61.0119H126.316V62.6919H122.07V64.5519H126.848V66.3199H120.038V57.7399H126.758V59.5099H122.07V59.3319ZM148.34 59.3319V66.2319H146.308V59.3319H143.476V57.5619H151.172V59.3319H148.34ZM160.814 59.3319V61.0119H165.06V62.6919H160.814V64.5519H165.59V66.3199H158.78V57.7399H165.502V59.5099H160.814V59.3319ZM178.948 64.6379H174.88C174.704 65.1679 174.526 65.6979 174.44 66.2299H172.314C173.198 63.2219 174.438 59.9499 175.588 57.6499H178.42C179.707 60.4417 180.829 63.3067 181.78 66.2299H179.48L178.948 64.6379ZM178.418 62.9579C177.963 61.6718 177.461 60.4029 176.912 59.1539C176.382 60.3919 175.938 61.6299 175.498 62.9559L178.418 62.9579ZM198.32 57.5619C198.85 60.5699 199.202 63.3119 199.47 66.1419H197.436C197.258 63.9502 196.992 61.7665 196.64 59.5959C195.932 61.5419 195.4 63.4899 194.87 65.3459H192.926C192.394 63.3999 191.776 61.5439 191.156 59.5959C190.892 61.3659 190.624 63.1359 190.36 66.1419H188.414C188.68 63.2219 189.034 60.4799 189.566 57.5619H192.572C192.836 58.5359 193.722 61.1899 193.986 62.4279C194.252 61.1879 195.138 58.5339 195.402 57.5619H198.32Z" fill="black"/>
</g>
</svg>
