<svg width="160" height="83" viewBox="0 0 160 83" fill="none" xmlns="http://www.w3.org/2000/svg">
<path d="M131.491 0.537779C131.317 0.58534 129.4 1.14022 127.213 1.79022C119.767 4.02559 120.116 3.8829 119.83 4.88168C119.719 5.23046 119.513 5.57925 119.387 5.64266C119.181 5.75364 114.665 7.14875 108.122 9.14632C106.823 9.54266 106.459 9.7329 105.508 10.5256C104.89 11.0329 102.007 13.3475 99.0913 15.6622C90.4091 22.5427 90.52 22.4634 89.918 21.9244C89.7437 21.7658 89.2525 20.5927 88.7931 19.2927C87.8583 16.6292 87.589 16.2488 86.4166 15.9634C85.3709 15.7097 84.9907 15.789 80 17.2634C64.8061 21.75 48.2973 26.6012 38.2525 29.5341C26.0689 33.1012 26.0689 33.1012 21.1892 34.8451C16.0084 36.7 9.33829 38.5232 6.02701 39.0146C4.80707 39.2049 4.28423 39.3634 3.60297 39.7756C2.43055 40.4732 1.22645 41.8207 0.656089 43.0573C0.212473 43.9768 0.180786 44.2146 0.19663 45.5939C0.228316 48.7012 1.49579 52.0463 3.38116 54.0597C5.59924 56.4219 9.54425 58.4829 16.3252 60.8293C19.3989 61.8915 20.698 62.5097 22.6309 63.7939C25.562 65.7439 28.0969 68.5976 34.5135 77.1902C36.0503 79.2512 37.6663 81.2646 38.11 81.661C39.1239 82.5646 40.1696 82.9293 41.4846 82.8341C43.0373 82.7073 43.8928 82.1524 47.6794 78.9024C52.5592 74.7012 52.7018 74.6378 55.6962 75.6683C59.2134 76.8732 61.2572 76.5244 64.5843 74.1939C66.8182 72.6244 67.6896 72.5768 71.3812 73.7658C74.7558 74.8597 75.9757 75.0817 80 75.3354C88.096 75.8744 88.6505 76.0329 90.6151 78.4268C91.7558 79.8219 92.8648 80.8524 93.6729 81.2646C94.5918 81.7402 96.5564 82.0256 100.818 82.3268C106.126 82.6915 107.884 82.4378 110.118 80.9793C110.641 80.6463 112.257 79.2195 113.715 77.8085C116.868 74.7646 117.628 74.1622 118.975 73.5122C121.494 72.3073 123.95 72.1012 126.279 72.878C128.338 73.5756 130.588 74.0037 132.838 74.0988C136.418 74.2573 137.733 73.7341 140.3 71.1341C141.235 70.1829 142.201 69.311 142.471 69.1683C143.089 68.8512 144.625 68.8512 145.909 69.1524C147.746 69.5963 150.313 69.3268 153.022 68.4232C156.048 67.4085 157.807 66.1085 158.694 64.2219C159.692 62.0817 159.645 60.0524 158.568 57.928C157.855 56.5329 157.585 55.2805 157.411 52.5378C157.284 50.5402 157.237 50.2707 156.761 49.3036C155.716 47.1793 153.624 45.6415 150.915 44.9597C148.713 44.4207 146.622 43.2 146.067 42.1219C145.956 41.9 144.911 38.2219 143.754 33.9732C142.043 27.6317 141.71 26.2049 141.884 26.078C142.043 25.9671 142.011 25.9512 141.774 26.0305C141.536 26.0939 141.393 26.0305 141.33 25.8561C141.203 25.539 141.346 25.3171 141.647 25.3171C141.774 25.3171 141.869 25.1744 141.869 25C141.869 24.7305 141.789 24.6988 141.472 24.778C141.187 24.8414 141.045 24.7939 140.981 24.6195C140.839 24.2549 140.284 24.2866 140.284 24.6671C140.284 24.9049 140.379 24.9683 140.712 24.9524C141.267 24.9049 141.409 25.3963 140.902 25.5549C140.649 25.6341 140.49 25.5866 140.348 25.3963C140.11 25.0793 139.65 25.1902 139.65 25.5549C139.65 25.7293 139.777 25.7927 140.094 25.761C140.427 25.7293 140.522 25.7768 140.522 26.0305C140.522 26.2049 140.569 26.3793 140.633 26.4268C140.696 26.4744 141.678 29.9622 142.819 34.1634C143.96 38.3488 144.958 41.9951 145.053 42.2329C145.132 42.4707 145.465 42.9939 145.782 43.3902L146.352 44.1036L145.528 43.311C145.069 42.8671 144.562 42.2963 144.404 42.0268C144.134 41.5988 140.3 27.5207 140.237 26.7439C140.221 26.5695 140.126 26.4268 140.031 26.4268C139.92 26.4268 139.809 26.3158 139.746 26.189C139.619 25.8244 139.334 25.9036 139.381 26.3C139.429 26.7439 138.874 26.8866 138.605 26.5061C138.351 26.1573 137.908 26.3 137.908 26.728C137.908 26.9024 137.813 27.0768 137.718 27.1244C137.607 27.1719 137.702 27.1719 137.955 27.1244C138.193 27.061 138.383 27.061 138.383 27.1085C138.383 27.1561 139.27 30.5646 140.363 34.6866C142.566 43.0256 142.661 43.2475 144.308 44.7536C145.608 45.9427 146.352 46.2439 148.57 46.4976C151.533 46.8463 152.943 47.4646 154.29 48.939C155.272 50.0329 155.478 50.6829 155.652 53.3305C155.827 56.0415 156.08 57.1512 156.872 58.689C158.235 61.3366 157.395 64.2695 154.892 65.6329C152.008 67.2024 148.444 67.8207 145.671 67.2341C144.293 66.9488 142.756 67.0122 141.789 67.4085C141.393 67.5829 140.522 68.328 139.413 69.4537C136.83 72.0854 135.705 72.5293 132.331 72.228C130.16 72.0378 128.703 71.7524 126.881 71.1183C124.488 70.2939 122.397 70.3256 119.688 71.2293C117.264 72.0219 116.186 72.8146 111.433 77.4122C108.201 80.5354 107.171 80.8524 101.595 80.5037C97.6971 80.2658 95.1463 79.9488 94.5442 79.6476C94.1165 79.4256 93.6095 78.9183 91.3439 76.5085C90.7735 75.8902 89.9813 75.2402 89.4427 74.9549C87.7791 74.0671 86.5908 73.8927 80.1584 73.5122C76.6095 73.3061 75.4212 73.1 72.2367 72.0695C70.1612 71.4037 69.4324 71.2451 68.1808 71.1817C66.232 71.0707 65.5032 71.3085 63.4594 72.6878C60.5442 74.6854 59.2292 74.9073 56.2982 73.8927C53.383 72.8622 51.7511 73.1 49.5806 74.8756C49.0578 75.3037 47.4576 76.6354 46.0475 77.8402C43.0848 80.3293 42.4669 80.789 41.6589 80.9634C40.9935 81.1061 40.1221 80.9158 39.4883 80.4719C39.2665 80.2976 37.698 78.3317 36.0186 76.0805C29.6812 67.5829 27.1938 64.7451 24.3103 62.6841C22.4883 61.4 19.5731 59.9415 17.4184 59.2439C13.7269 58.0549 9.21154 56.0732 7.05683 54.6939C4.26839 52.9183 2.85833 50.7622 2.20875 47.2744C1.76513 44.8963 2.00278 43.8658 3.36532 42.4073C4.41098 41.2817 4.87044 41.0597 6.66075 40.7902C9.94034 40.2988 16.4678 38.4756 22.0447 36.5097C26.3858 34.9719 27.6533 34.5597 31.9152 33.3232C37.6188 31.6585 65.0121 23.6207 75.0727 20.6561C80.5387 19.039 85.2442 17.7073 85.5293 17.7073C85.7987 17.7073 86.0997 17.7707 86.1948 17.8341C86.2898 17.8975 86.7017 18.9122 87.1137 20.1012C88.1752 23.1134 88.5079 23.589 89.8071 23.8902C90.821 24.1122 91.7241 23.7793 93.2134 22.6536C95.2889 21.0683 105.872 12.6658 106.76 11.9049C107.409 11.3341 107.821 11.1597 109.532 10.6524C110.625 10.3353 115.632 8.78168 120.638 7.21217C125.645 5.64266 130.018 4.27924 130.366 4.19997C131.269 3.99387 131.982 4.27924 132.363 5.00851C132.727 5.73778 132.933 6.46705 135.452 16.0268C136.894 21.5122 137.401 23.6524 137.274 23.7317C137.163 23.7951 137.131 23.9853 137.195 24.1914C137.274 24.4451 137.385 24.5085 137.654 24.4293C137.908 24.3658 138.05 24.4293 138.114 24.5878C138.256 24.9683 138.858 24.9049 138.858 24.5244C138.858 24.2549 138.763 24.2073 138.431 24.239C138.082 24.2707 137.987 24.2232 137.987 23.9695C137.987 23.5732 138.541 23.4463 138.732 23.7951C138.922 24.128 139.239 24.128 139.112 23.7793C139.048 23.6366 139.064 23.478 139.159 23.4305C139.286 23.3353 135.42 8.32193 134.517 5.42071C133.852 3.28046 132.743 2.32924 130.968 2.32924C130.255 2.32924 129.035 2.64631 125.486 3.75607C122.967 4.54875 120.876 5.1512 120.828 5.10364C120.575 4.84998 121.637 4.45363 126.342 3.04265C132.172 1.29875 133.598 1.0451 133.947 1.71095C134.295 2.32924 139.809 23.0183 139.65 23.0658C139.445 23.1451 140.078 23.7317 140.363 23.7317C140.506 23.7317 140.601 23.589 140.601 23.3354C140.601 23.0658 140.696 22.939 140.87 22.939C141.108 22.939 141.108 22.9232 140.902 22.7329C140.744 22.6219 139.524 18.3573 137.829 12C135.151 2.09144 134.961 1.42558 134.486 0.934118C134.01 0.458508 133.915 0.426802 132.901 0.442655C132.299 0.458509 131.665 0.490218 131.491 0.537779Z" fill="white"/>
</svg>
