<svg width="200" height="80" viewBox="0 0 200 80" fill="none" xmlns="http://www.w3.org/2000/svg">
<g clip-path="url(#clip0_1_298)">
<mask id="mask0_1_298" style="mask-type:luminance" maskUnits="userSpaceOnUse" x="58" y="0" width="86" height="80">
<path d="M58.332 -6.10352e-05H143.332V79.9999H58.332V-6.10352e-05Z" fill="white"/>
</mask>
<g mask="url(#mask0_1_298)">
<path d="M143.332 12.5739L58.332 12.5779V55.1199L100.854 80.0039L143.334 55.1319L143.332 12.5739Z" fill="black"/>
<path d="M106.706 47.3759V50.0599C106.705 50.3412 106.815 50.6117 107.01 50.8139C107.106 50.9129 107.221 50.9918 107.347 51.046C107.474 51.1003 107.61 51.1288 107.748 51.1299H115.272V50.0699H107.892C107.857 50.0695 107.823 50.0559 107.798 50.0319C107.773 50.0082 107.757 49.9762 107.754 49.9419V47.5239C107.76 47.4827 107.78 47.4451 107.812 47.4179C107.843 47.3912 107.883 47.377 107.924 47.3779H115.274V46.3179H107.78C107.642 46.3176 107.505 46.3449 107.377 46.3981C107.249 46.4513 107.133 46.5294 107.036 46.6279C106.837 46.8294 106.725 47.1008 106.724 47.3839M104.422 48.2699H97.792C97.7583 48.2718 97.7248 48.2631 97.6962 48.2452C97.6675 48.2274 97.6451 48.201 97.632 48.1699C97.6233 48.1497 97.6185 48.128 97.618 48.1059V47.3859C97.6182 47.3516 97.6286 47.3181 97.6478 47.2896C97.667 47.2611 97.6942 47.239 97.726 47.2259C97.747 47.2175 97.7694 47.2134 97.792 47.2139H105.312V46.3139H97.616C97.4791 46.3155 97.3439 46.3447 97.2185 46.3997C97.093 46.4547 96.98 46.5343 96.886 46.6339C96.692 46.8349 96.5856 47.1046 96.59 47.3839V48.1039C96.586 48.3846 96.6915 48.6557 96.884 48.8599C96.9784 48.96 97.0917 49.0403 97.2173 49.0963C97.343 49.1522 97.4785 49.1827 97.616 49.1859H104.246C104.268 49.1854 104.29 49.1894 104.311 49.1976C104.332 49.2059 104.35 49.2182 104.366 49.2339C104.383 49.2493 104.396 49.2679 104.405 49.2885C104.414 49.3091 104.419 49.3314 104.42 49.3539V50.0779C104.419 50.1235 104.399 50.1667 104.366 50.1979C104.35 50.2133 104.331 50.2253 104.311 50.2332C104.29 50.2411 104.268 50.2447 104.246 50.2439H96.716V51.1419H104.422C104.56 51.1424 104.696 51.1152 104.823 51.0619C104.951 51.0087 105.066 50.9305 105.162 50.8319C105.361 50.6314 105.472 50.3603 105.472 50.0779V49.3539C105.472 49.072 105.361 48.8014 105.164 48.5999C105.068 48.5012 104.953 48.4226 104.826 48.3687C104.698 48.3148 104.562 48.2867 104.424 48.2859M94.318 48.6199C94.3187 48.664 94.303 48.7068 94.274 48.7399C94.2452 48.7722 94.2051 48.7922 94.162 48.7959H87.492V47.3539H94.146C94.1697 47.3545 94.193 47.3598 94.2146 47.3694C94.2362 47.379 94.2557 47.3928 94.272 47.4099C94.304 47.4439 94.322 47.4899 94.324 47.5379L94.318 48.6199ZM94.354 49.4799C94.6256 49.4696 94.8822 49.3524 95.068 49.1539C95.2561 48.9537 95.3599 48.6887 95.358 48.4139V47.3679C95.3572 47.0877 95.2474 46.8188 95.052 46.6179C94.9556 46.5201 94.8407 46.4423 94.714 46.3891C94.5873 46.3359 94.4514 46.3083 94.314 46.3079H86.454V51.1179H87.494V49.8519H93.284C93.422 49.8526 93.5585 49.8806 93.6856 49.9345C93.8126 49.9885 93.9277 50.0671 94.024 50.1659C94.2216 50.3679 94.3322 50.6393 94.332 50.9219V51.1119H95.376C95.3759 50.7724 95.2802 50.4397 95.1 50.1519C94.9215 49.8657 94.6647 49.6367 94.36 49.4919M84.168 49.8859C84.1667 49.9307 84.1489 49.9735 84.118 50.0059C84.0881 50.0393 84.0466 50.0601 84.002 50.0639H77.646C77.6114 50.0624 77.5787 50.0482 77.554 50.0239C77.5286 49.9997 77.513 49.9669 77.51 49.9319V47.5159C77.515 47.4749 77.5349 47.4372 77.566 47.4099C77.5969 47.3829 77.6369 47.3686 77.678 47.3699H83.976C84.0235 47.3706 84.0688 47.39 84.102 47.4239C84.136 47.4579 84.154 47.5039 84.156 47.5519L84.168 49.8859ZM84.168 46.3079H77.526C77.3874 46.3073 77.2501 46.3346 77.1222 46.3882C76.9944 46.4418 76.8787 46.5206 76.782 46.6199C76.5831 46.8213 76.4717 47.0929 76.472 47.3759V50.0599C76.4741 50.3417 76.5861 50.6115 76.784 50.8119C76.881 50.9094 76.9964 50.9868 77.1233 51.0396C77.2503 51.0925 77.3865 51.1198 77.524 51.1199H84.162C84.2992 51.1204 84.4351 51.0932 84.5616 51.04C84.6881 50.9867 84.8025 50.9085 84.898 50.8099C85.095 50.6095 85.2044 50.339 85.202 50.0579V47.3719C85.2033 47.093 85.0957 46.8246 84.902 46.6239C84.8076 46.5257 84.6946 46.4472 84.5697 46.393C84.4447 46.3388 84.3102 46.3098 84.174 46.3079M74.204 48.6199C74.2047 48.664 74.189 48.7068 74.16 48.7399C74.1312 48.7722 74.0911 48.7922 74.048 48.7959H67.396V47.3539H74.026C74.0728 47.3551 74.1173 47.3745 74.15 47.4079C74.184 47.4439 74.202 47.4879 74.202 47.5359V48.6179L74.204 48.6199ZM74.204 46.3079H66.356V51.1199H67.396V49.8519H74.196C74.3338 49.8525 74.4704 49.8254 74.5975 49.7721C74.7246 49.7189 74.8397 49.6406 74.936 49.5419C75.1339 49.3418 75.2447 49.0714 75.244 48.7899V47.3699C75.2437 47.088 75.1331 46.8174 74.936 46.6159C74.8394 46.5179 74.7241 46.4402 74.5971 46.3873C74.47 46.3344 74.3336 46.3074 74.196 46.3079M135.312 47.2099V46.3099H126.1V51.1239H135.31V50.2239H127.14V49.1639H135.31V48.2679H127.14V47.2099H135.312ZM123.836 48.2599H117.524V46.3019H116.486V51.1139H117.524V49.3179H123.836V51.1139H124.876V46.3019H123.836V48.2619V48.2599ZM116.172 29.3779C116.012 29.7759 115.736 30.1139 115.386 30.3539C115.034 30.5919 114.62 30.7179 114.198 30.7139C112.822 30.7139 112.616 29.6319 112.616 28.9839V24.7459H111.436V28.8179C111.436 31.5679 113.46 31.7719 114.082 31.7719C114.858 31.7879 115.612 31.4919 116.182 30.9539V31.6079H117.38V24.7459H116.2L116.172 29.3779ZM130.812 25.4819C130.782 25.4459 130.05 24.6179 129.106 24.6179C128.274 24.6179 127.462 25.4339 127.006 26.0019V24.7459H125.806V31.6199H127.004V27.5139C127.304 26.9879 128.16 25.7899 128.868 25.7899C129.468 25.7899 130.068 26.4719 130.088 26.4779L130.812 25.4819ZM107.276 24.6179C105.422 24.6179 104.024 26.0259 104.024 28.1679C104.024 29.6439 105.004 31.7579 107.624 31.7579C108.612 31.7679 109.572 31.4259 110.34 30.7919L110.408 30.7239V29.3279L110.042 29.6859C109.399 30.2687 108.573 30.6089 107.706 30.6479C106.258 30.6479 105.246 29.7879 105.246 28.2039H110.54V27.9539C110.54 26.2619 109.52 24.6179 107.276 24.6179ZM105.414 27.1079C105.516 26.6993 105.758 26.3392 106.098 26.0899C106.435 25.844 106.848 25.7263 107.264 25.7579C108.676 25.7579 109.064 26.6239 109.18 27.1079H105.414ZM121.606 24.6179C119.752 24.6179 118.354 26.0259 118.354 28.1679C118.354 29.6439 119.332 31.7579 121.954 31.7579C122.942 31.7679 123.902 31.4259 124.67 30.7919L124.738 30.7239V29.3279L124.372 29.6859C123.729 30.2687 122.903 30.6089 122.036 30.6479C120.588 30.6479 119.578 29.7879 119.578 28.2039H124.864V27.9539C124.864 26.2619 123.842 24.6179 121.598 24.6179M119.746 27.1079C119.848 26.6985 120.09 26.3377 120.43 26.0879C120.767 25.8426 121.18 25.7256 121.596 25.7579C123.008 25.7579 123.396 26.6239 123.512 27.1079H119.746ZM101.92 27.1039H97.514V23.6999H96.33V31.6059H97.514V28.1699H101.92L101.916 31.6059H103.102V23.6999H101.916L101.92 27.1059V27.1039ZM81.276 28.6359L82.394 25.6619L83.594 28.6219L81.276 28.6359ZM83.492 23.7099H81.22L78.038 31.6319H80.138L80.738 30.0779H84.204L84.842 31.6319H86.942L83.49 23.7119L83.492 23.7099ZM75.632 31.5839V25.1399H78.428V23.6399H70.858V25.1399H73.65V31.5839H75.632ZM94.296 31.5039C92.772 31.8479 90.816 31.9519 89.406 31.2899C88.206 30.7519 87.456 29.4579 87.306 28.2139C87.212 27.4899 87.312 26.7539 87.596 26.0859C87.88 25.4159 88.336 24.8379 88.92 24.4139C90.334 23.3839 92.578 23.4139 94.12 24.1319V25.7019C92.952 25.1559 91.2 24.8339 90.08 25.7019C89.7339 25.9861 89.469 26.3566 89.312 26.7759C89.154 27.1974 89.1085 27.6527 89.18 28.097C89.2516 28.5414 89.4377 28.9594 89.72 29.3099C90.004 29.6579 90.372 29.9219 90.788 30.0779C91.354 30.2499 91.948 30.3019 92.536 30.2259V28.9459H91.768V27.4199H94.29V31.5119L94.296 31.5039Z" fill="white"/>
<path d="M99.904 38.29H84.74V39.718H99.904V38.288V38.29Z" fill="#007E53"/>
<path d="M116.928 38.29H101.76V39.718H116.926V38.288L116.928 38.29Z" fill="#D5001C"/>
<path d="M143.332 -6.10352e-05L58.332 0.00393897V10.6679L143.332 10.6799V-6.10352e-05Z" fill="black"/>
<path d="M74.84 2.93594H77.592V3.77394H75.748V4.94394H77.432V5.72394H75.748V7.74394H74.848L74.842 2.93594H74.84ZM78.188 5.32794C78.188 3.35994 78.614 2.85394 80.012 2.85394C81.408 2.85394 81.834 3.35994 81.834 5.32794C81.834 7.21994 81.478 7.82794 80.012 7.82794C78.546 7.82794 78.188 7.21994 78.188 5.32794ZM80.888 5.31194C80.888 3.92194 80.776 3.69194 80.012 3.69194C79.246 3.69194 79.136 3.92194 79.136 5.31194C79.136 6.90194 79.25 7.08194 80.012 7.08194C80.772 7.08194 80.888 6.90194 80.888 5.31194ZM82.624 2.93594H84.326C85.314 2.93594 85.766 3.29394 85.766 4.48194C85.766 5.37394 85.498 5.78594 84.968 5.91394L85.904 7.74794H84.904L84.092 6.07994H83.522V7.74794H82.622L82.624 2.93594ZM83.524 3.77394V5.29994H84.2C84.66 5.29994 84.824 5.22994 84.824 4.51994C84.824 3.87394 84.664 3.77994 84.174 3.77994L83.524 3.77394ZM86.554 7.74394L86.768 2.93594H87.84L88.84 6.13594L89.796 2.93594H90.87L91.11 7.74394H90.234L90.088 4.58394L89.112 7.74994H88.494L87.508 4.58194L87.376 7.74994L86.554 7.74394ZM91.974 2.93594H92.874V6.21594C92.874 6.87394 93.106 7.08194 93.662 7.08194C94.216 7.08194 94.452 6.87394 94.452 6.21794V2.93594H95.352V6.19794C95.352 7.27194 94.902 7.82794 93.662 7.82794C92.42 7.82794 91.964 7.27194 91.964 6.19794L91.974 2.93594ZM96.33 2.93594H97.23V7.00194H99.046V7.74394H96.322L96.33 2.93594ZM101.032 2.93594H102.152L103.518 7.74394H102.582L102.33 6.82794H100.748L100.502 7.74394H99.664L101.032 2.93594ZM100.96 6.06394H102.114L101.53 3.92394L100.96 6.06394ZM105.66 2.93594H108.456V3.77394H106.568V4.94394H108.298V5.72394H106.568V7.00394H108.456V7.74394H105.66V2.93594ZM110.414 2.93594H113.714V3.77394H112.514V7.74394H111.614V3.77394H110.414V2.93594ZM114.466 2.93594H117.264V3.77394H115.374V4.94394H117.108V5.72394H115.378V7.00394H117.266V7.74394H114.468L114.466 2.93594ZM119.264 2.93594H120.384L121.75 7.74394H120.814L120.562 6.82794H118.98L118.734 7.74394H117.896L119.264 2.93594ZM119.188 6.06394H120.358L119.758 3.92394L119.188 6.06394ZM122.374 7.74394L122.584 2.93594H123.65L124.652 6.13594L125.61 2.93594H126.682L126.92 7.74394H126.044L125.898 4.58394L124.922 7.74994H124.304L123.318 4.58194L123.186 7.74994L122.374 7.74394Z" fill="white"/>
</g>
</g>
<defs>
<clipPath id="clip0_1_298">
<rect width="200" height="80" fill="white"/>
</clipPath>
</defs>
</svg>
