<svg width="180" height="108" viewBox="0 0 180 108" fill="none" xmlns="http://www.w3.org/2000/svg">
<path d="M45.0483 0.371254C43.8992 0.684189 42.8545 1.44913 42.2451 2.45746C41.3919 3.81349 41.4267 4.54367 42.5933 10.2286L43.6032 15.1659V18.9037C43.6206 22.9544 43.4116 24.5713 42.5411 27.3181C40.9218 32.4988 38.223 34.898 34.2183 34.6894C31.3803 34.5329 29.3779 33.0552 27.1667 29.4391C24.9032 25.7361 24.2938 24.8842 22.9182 23.4934C20.794 21.355 19.1399 20.6422 16.267 20.6422C14.4562 20.6422 12.5584 21.0595 11.1132 21.7723C9.92924 22.3807 8.84972 23.1805 5.8027 25.7361C3.95707 27.2659 3.12132 28.1004 2.54674 28.9697C0.439941 32.1338 0.143945 36.3583 1.67616 41.6086C2.58156 44.7901 4.02672 46.6503 6.58622 47.9889C7.68315 48.58 32.425 58.0896 35.6461 59.1675C37.5614 59.8108 39.2329 60.1063 40.9218 60.1063C42.1928 60.1063 43.5335 59.8629 48.8789 58.6981C55.2689 57.2899 56.9927 57.0639 57.7588 57.4812C58.4378 57.8289 58.403 58.333 57.4802 60.9582C56.4877 63.7572 56.3832 64.7481 56.923 65.8086C57.3409 66.6257 58.194 67.4776 59.1169 68.0165C59.4999 68.2425 68.7106 71.8065 79.5754 75.9267C90.4402 80.0644 99.4246 83.5066 99.5465 83.6109C99.6858 83.7152 99.7728 83.6631 99.8599 83.4197C99.9469 83.1241 100.034 83.0894 100.295 83.2284C100.574 83.3675 100.609 83.4892 100.469 83.8195C100.347 84.1498 100.382 84.2715 100.591 84.3411C100.922 84.4628 100.922 84.4628 101.061 83.9934C101.148 83.7326 101.096 83.5761 100.905 83.5066C100.713 83.4371 100.661 83.298 100.73 83.0372C100.818 82.7938 100.748 82.6026 100.556 82.4635C100.138 82.1506 100.487 81.4726 100.992 81.6116C101.427 81.7333 101.444 81.4725 101.009 81.1944C100.73 81.0205 100.661 81.0379 100.591 81.3509C100.539 81.5421 100.417 81.6812 100.313 81.6464C97.8576 80.7424 81.8738 74.6055 81.926 74.5707C82.013 74.4838 88.9951 76.344 90.4576 76.8481C91.1367 77.0915 93.7484 78.0651 96.2731 79.0386C100.051 80.499 100.905 80.7598 101.026 80.5511C101.114 80.4121 101.305 80.3425 101.514 80.3947C102.002 80.5164 102.193 79.9427 101.775 79.6471C101.531 79.4733 101.41 79.4559 101.322 79.595C101.253 79.734 99.4942 79.143 95.9249 77.7869C90.1442 75.579 89.0299 75.2313 81.1425 73.232C78.2173 72.5019 74.9788 71.6674 73.9167 71.3718C71.3572 70.6938 60.3705 66.504 59.6044 65.9129C59.2736 65.6695 58.8905 65.2001 58.7338 64.8872C58.4726 64.3309 58.49 64.244 59.378 61.6884C60.1964 59.3588 60.2834 58.9589 60.2138 58.0027C60.1441 57.0118 60.0745 56.8727 59.4303 56.2642C58.0025 54.943 56.7837 54.9256 50.8812 56.2121C41.2004 58.2983 41.6183 58.2287 40.2776 58.107C38.1882 57.9332 36.7604 57.4638 25.7912 53.2914C9.23277 47.0154 8.5189 46.7372 7.47421 46.1635C5.31518 45.0335 4.23566 43.434 3.38249 40.183C2.84274 38.1142 2.6338 34.672 2.96462 33.1073C3.27802 31.5253 4.21825 29.8389 5.36741 28.7784C7.10856 27.179 11.0088 24.1192 11.8445 23.6846C13.7598 22.7111 16.6327 22.3633 18.4087 22.8675C20.2717 23.4065 22.2218 25.3014 24.0674 28.3264C26.5747 32.4641 27.8805 34.1157 29.5172 35.2283C32.0071 36.932 35.7332 37.245 38.5364 35.9759C42.2799 34.2721 44.9264 29.074 45.6229 22.0504C46.006 18.0866 45.8493 16.1917 44.4912 9.46364C43.4291 4.12643 43.4291 3.86565 44.4912 2.92686C45.1528 2.35315 45.9886 2.12714 47.0158 2.26623C47.6078 2.33577 50.9857 3.7961 61.1714 8.36838C62.7907 9.09855 64.6711 9.86349 65.3502 10.0721C66.8128 10.5067 67.9968 10.5415 75.0484 10.3155C80.0978 10.1417 81.6822 10.246 85.4257 10.9935C89.1866 11.7585 93.4524 13.2014 99.2505 15.6701C104.77 18.0345 108.148 20.3467 114.103 25.823C121.189 32.325 135.815 49.2233 144.016 60.3671C148.212 66.052 153.714 73.9622 154.863 75.9615C155.49 77.0394 156.778 78.4649 157.562 78.9517C158.572 79.5776 159.442 79.8557 162.402 80.5164C167.312 81.6116 169.088 82.3418 170.777 83.976C171.909 85.0713 172.466 86.1144 175.095 92.0948L177.515 97.5711V99.1358C177.515 100.37 177.428 100.874 177.132 101.518C176.349 103.239 174.625 104.525 172.536 104.977C171.195 105.273 168.409 105.081 166.459 104.56C165.554 104.334 153.714 99.9007 140.168 94.72C126.621 89.5392 113.127 84.3759 110.168 83.2632C104.927 81.2813 104.822 81.2118 104.909 80.7945C104.979 80.499 104.961 80.4294 104.84 80.6033C104.753 80.7424 104.561 80.7945 104.404 80.7424C104.23 80.6728 104.056 80.7598 103.952 80.9684C103.708 81.403 103.725 81.4899 104.056 81.4899C104.265 81.4899 104.317 81.6116 104.265 81.9246C104.213 82.1506 104.23 82.307 104.317 82.2723C104.387 82.2201 114.886 86.1839 127.666 91.0691C140.429 95.9369 152.025 100.37 153.435 100.909C154.846 101.448 155.977 101.917 155.96 101.935C155.89 102.022 151.711 100.996 150.092 100.509C149.274 100.266 144.973 98.6664 140.516 96.9626C132.698 93.9724 106.737 84.0803 104.857 83.3675C104.195 83.1241 103.952 82.9503 103.986 82.7417C104.021 82.533 103.899 82.4287 103.603 82.394C103.185 82.3592 103.185 82.3592 103.499 82.6026C103.986 82.9851 103.76 83.7326 103.185 83.6283C102.698 83.524 102.472 84.0629 102.872 84.3759C103.238 84.654 102.977 85.3668 102.559 85.2277C102.106 85.0886 101.793 85.6623 102.158 85.9231C102.541 86.2187 102.298 86.9315 101.862 86.7924C101.427 86.6533 101.026 87.3139 101.444 87.4704C101.932 87.6616 101.984 87.5921 102.559 86.2708C102.872 85.558 103.185 84.9669 103.238 84.9669C103.307 84.9669 105.066 85.6276 107.173 86.4273C109.28 87.227 115.67 89.6609 121.363 91.834C127.057 94.0072 135.362 97.1713 139.819 98.875C149.187 102.456 149.256 102.474 155.925 104.073C158.711 104.734 162.576 105.69 164.544 106.194C167.904 107.046 168.252 107.098 170.377 107.116C172.274 107.133 172.849 107.063 173.876 106.75C175.304 106.298 177.01 105.221 177.777 104.299C179.309 102.456 179.97 99.8659 179.483 97.6233C179.1 95.9195 174.555 85.6276 173.493 84.0455C171.508 81.1422 169.036 79.8731 162.803 78.5345C160.226 77.9782 159.181 77.6131 158.276 76.9698C158.014 76.7786 156.5 74.675 154.915 72.3106C149.03 63.4616 142.623 54.856 136.424 47.4152C127.997 37.3319 123.644 32.4467 118.246 27.0573C110.289 19.1124 106.215 16.296 97.5964 12.7668C92.164 10.5415 87.5325 9.16809 83.3189 8.54223C80.9161 8.19453 75.8842 8.12498 70.6955 8.36838C66.7605 8.55962 66.4297 8.49007 62.338 6.66464C60.7536 5.95186 57.0797 4.30028 54.1546 2.9964C47.5382 0.0409393 46.9462 -0.132912 45.0483 0.371254Z" fill="white"/>
</svg>
