<svg width="100" height="40" fill="none" xmlns="http://www.w3.org/2000/svg"><path fill="#fff" d="M0 0h100v40H0z"/><g clip-path="url(#a)" fill="#000"><path d="M12.694 23.96 2.432 10.293V23.96H0V6.976h2.831l9.51 12.694V6.976h2.431V23.96h-2.078ZM21.097 23.96V6.976h2.432V23.96h-2.432ZM41.618 7.551v2.344c-2.21-.663-3.67-1.016-5.395-1.016-2.211 0-4.467.53-4.467 2.432 0 1.238 1.062 1.946 2.476 2.344l4.29 1.238c2.078.575 3.803 1.858 3.803 4.423 0 3.14-2.653 4.954-7.208 4.954-2.211 0-4.158-.398-6.104-1.15v-2.476c1.99.663 3.848 1.371 6.104 1.371 2.83 0 4.688-1.017 4.688-2.61 0-1.371-1.062-2.078-2.522-2.476l-3.98-1.106c-2.166-.575-4.025-1.813-4.025-4.511.001-3.319 3.14-4.645 6.945-4.645 2.078 0 3.803.397 5.395.884ZM59.576 7.551v2.344c-2.211-.663-3.67-1.016-5.396-1.016-2.21 0-4.467.53-4.467 2.432 0 1.238 1.062 1.946 2.477 2.344l4.29 1.238c2.078.575 3.803 1.858 3.803 4.423 0 3.14-2.654 4.954-7.209 4.954-2.21 0-4.157-.398-6.104-1.15v-2.476c1.99.663 3.848 1.371 6.104 1.371 2.831 0 4.689-1.017 4.689-2.61 0-1.371-1.062-2.078-2.522-2.476l-3.98-1.106c-2.167-.575-4.025-1.813-4.025-4.511 0-3.317 3.14-4.644 6.943-4.644 2.123 0 3.804.397 5.396.884ZM78.506 23.96a79.143 79.143 0 0 0-1.548-4.38h-9.244c-.663 1.726-1.238 3.274-1.548 4.38h-2.653c2.565-7.74 6.192-15.126 7.342-16.984h2.875c.707 1.106 4.335 7.917 7.342 16.984h-2.566Zm-2.433-6.59c-1.194-3.008-2.565-6.06-3.76-8.183-1.061 1.99-2.521 5.175-3.715 8.183H76.073ZM97.921 23.96 87.66 10.293V23.96h-2.432V6.976h2.83l9.51 12.694V6.976H100V23.96h-2.079ZM1.062 29.666v1.062h2.123v.884H1.062v1.504H.044v-4.29h3.361v.885H1.062v-.045ZM11.765 30.904c0 1.637-1.15 2.256-2.344 2.256s-2.3-.62-2.3-2.256c0-1.504 1.194-2.211 2.344-2.211 1.062.044 2.3.707 2.3 2.211Zm-3.583 0c0 .973.664 1.371 1.239 1.371.619 0 1.238-.353 1.238-1.371 0-.84-.575-1.282-1.238-1.282s-1.239.486-1.239 1.282ZM18.4 33.115c-.354-.575-.708-1.062-1.018-1.371h-.707v1.371h-1.017v-4.29h2.035c.84 0 1.813.266 1.813 1.46 0 .663-.442 1.15-1.062 1.282.531.575 1.017 1.239 1.238 1.592H18.4v-.044Zm-.885-2.256c.575 0 .884-.177.884-.62 0-.397-.31-.574-.928-.574h-.797v1.194h.84ZM28.218 28.781c.265 1.504.442 2.875.575 4.29h-1.017a41.452 41.452 0 0 0-.398-3.273c-.354.973-.619 1.947-.884 2.875h-.973c-.266-.973-.575-1.901-.885-2.875-.132.885-.265 1.77-.398 3.273h-1.016c.132-1.46.31-2.831.575-4.29H25.3c.133.487.575 1.814.708 2.433.132-.62.575-1.947.707-2.433h1.504-.001ZM36.666 31.125c0 1.282-.575 2.034-2.035 2.034-1.46 0-1.99-.796-1.99-2.034V28.78h1.017v2.345c0 .796.397 1.15.972 1.15.62 0 .973-.354.973-1.15V28.78h1.017v2.345h.046ZM43.786 32.23v.885h-3.051v-4.29h1.017v3.45h2.034v-.044ZM50.287 32.319h-2.079c-.088.265-.177.53-.221.796h-1.062c.442-1.504 1.062-3.14 1.637-4.29h1.415a39.271 39.271 0 0 1 1.681 4.29h-1.15l-.221-.796Zm-.31-.84a27.614 27.614 0 0 0-.752-1.902c-.266.619-.487 1.238-.707 1.901h1.46ZM61.035 29.666v.84h2.123v.84h-2.123v.93h2.389v.884h-3.405v-4.29h3.36v.885h-2.344v-.089ZM74.17 29.666v3.45h-1.016v-3.45h-1.416v-.885h3.848v.885h-1.415ZM80.407 29.666v.84h2.123v.84h-2.123v.93h2.388v.884H79.39v-4.29h3.361v.885h-2.344v-.089ZM89.474 32.319H87.44c-.088.265-.177.53-.22.796h-1.063c.442-1.504 1.062-3.14 1.637-4.29h1.416a39.291 39.291 0 0 1 1.68 4.29h-1.15l-.265-.796Zm-.265-.84a27.614 27.614 0 0 0-.753-1.902c-.265.619-.487 1.238-.707 1.901h1.46ZM99.16 28.781c.265 1.504.441 2.875.575 4.29h-1.017a41.394 41.394 0 0 0-.398-3.273c-.354.973-.62 1.947-.885 2.875h-.972c-.266-.973-.575-1.901-.885-2.875-.132.885-.266 1.77-.398 3.273h-.973c.133-1.46.31-2.831.576-4.29h1.503c.132.487.575 1.814.707 2.433.133-.62.576-1.947.708-2.433h1.46-.002Z"/></g><defs><clipPath id="a"><path fill="#fff" transform="translate(0 6.667)" d="M0 0h100v26.492H0z"/></clipPath></defs></svg>