<svg width="200" height="81" viewBox="0 0 200 81" fill="none" xmlns="http://www.w3.org/2000/svg">
<mask id="mask0_409_4099" style="mask-type:luminance" maskUnits="userSpaceOnUse" x="0" y="14" width="200" height="53">
<path d="M0 14.0005H200V66.9845H0V14.0005Z" fill="white"/>
</mask>
<g mask="url(#mask0_409_4099)">
<path d="M25.388 48.5865L4.864 21.2525V48.5865H0V14.6185H5.662L24.682 40.0065V14.6185H29.544V48.5865H25.388ZM42.194 48.5865V14.6185H47.058V48.5865H42.194ZM83.236 15.7685V20.4565C78.816 19.1305 75.896 18.4245 72.446 18.4245C68.024 18.4245 63.512 19.4845 63.512 23.2885C63.512 25.7645 65.636 27.1805 68.464 27.9765L77.044 30.4525C81.2 31.6025 84.65 34.1685 84.65 39.2985C84.65 45.5785 79.344 49.2065 70.234 49.2065C65.812 49.2065 61.918 48.4105 58.026 46.9065V41.9545C62.006 43.2805 65.722 44.6965 70.234 44.6965C75.894 44.6965 79.61 42.6625 79.61 39.4765C79.61 36.7345 77.486 35.3205 74.566 34.5245L66.606 32.3125C62.274 31.1625 58.556 28.6865 58.556 23.2905C58.558 16.6525 64.836 14.0005 72.446 14.0005C76.602 14.0005 80.052 14.7945 83.236 15.7685ZM119.152 15.7685V20.4565C114.73 19.1305 111.812 18.4245 108.36 18.4245C103.94 18.4245 99.426 19.4845 99.426 23.2885C99.426 25.7645 101.55 27.1805 104.38 27.9765L112.96 30.4525C117.116 31.6025 120.566 34.1685 120.566 39.2985C120.566 45.5785 115.258 49.2065 106.148 49.2065C101.728 49.2065 97.834 48.4105 93.94 46.9065V41.9545C97.92 43.2805 101.636 44.6965 106.148 44.6965C111.81 44.6965 115.526 42.6625 115.526 39.4765C115.526 36.7345 113.402 35.3205 110.482 34.5245L102.522 32.3125C98.188 31.1625 94.472 28.6865 94.472 23.2905C94.472 16.6565 100.752 14.0025 108.358 14.0025C112.604 14.0025 115.966 14.7965 119.15 15.7705L119.152 15.7685ZM157.012 48.5865C156.066 45.6368 155.033 42.7156 153.916 39.8265H135.428C134.102 43.2785 132.952 46.3745 132.332 48.5865H127.026C132.156 33.1065 139.41 18.3345 141.71 14.6185H147.46C148.874 16.8305 156.13 30.4525 162.144 48.5865H157.012ZM152.146 35.4065C149.758 29.3905 147.016 23.2865 144.626 19.0405C142.504 23.0205 139.584 29.3905 137.196 35.4065H152.146ZM195.842 48.5865L175.32 21.2525V48.5865H170.456V14.6185H176.116L195.136 40.0065V14.6185H200V48.5865H195.842ZM2.124 59.9985V62.1225H6.37V63.8905H2.124V66.8985H0.088V58.3185H6.81V60.0885H2.124V59.9985ZM23.53 62.4745C23.53 65.7485 21.23 66.9865 18.842 66.9865C16.454 66.9865 14.242 65.7465 14.242 62.4745C14.242 59.4665 16.63 58.0525 18.93 58.0525C21.054 58.1405 23.53 59.4665 23.53 62.4745ZM16.364 62.4745C16.364 64.4205 17.692 65.2165 18.842 65.2165C20.08 65.2165 21.318 64.5105 21.318 62.4745C21.318 60.7945 20.168 59.9105 18.842 59.9105C17.516 59.9105 16.364 60.8825 16.364 62.4745ZM36.8 66.8965C36.092 65.7465 35.384 64.7725 34.764 64.1545H33.35V66.8965H31.316V58.3165H35.386C37.066 58.3165 39.012 58.8485 39.012 61.2365C39.012 62.5625 38.128 63.5365 36.888 63.8005C37.95 64.9505 38.922 66.2785 39.364 66.9845H36.8V66.8965ZM35.03 62.3845C36.18 62.3845 36.798 62.0305 36.798 61.1445C36.798 60.3505 36.178 59.9965 34.942 59.9965H33.348V62.3845H35.03ZM56.436 58.2285C56.966 61.2365 57.32 63.9785 57.586 66.8085H55.552C55.3736 64.6168 55.108 62.4331 54.756 60.2625C54.048 62.2085 53.518 64.1565 52.988 66.0125H51.042C50.51 64.0665 49.892 62.2105 49.272 60.2625C49.008 62.0325 48.742 63.8025 48.476 66.8085H46.444C46.708 63.8885 47.064 61.1465 47.594 58.2285H50.6C50.866 59.2025 51.75 61.8565 52.016 63.0945C52.28 61.8545 53.166 59.2005 53.43 58.2285H56.436ZM73.332 62.9165C73.332 65.4805 72.182 66.9845 69.262 66.9845C66.342 66.9845 65.282 65.3925 65.282 62.9165V58.2265H67.316V62.9165C67.316 64.5085 68.11 65.2165 69.26 65.2165C70.5 65.2165 71.206 64.5085 71.206 62.9165V58.2265H73.24V62.9165H73.332ZM87.572 65.1265V66.8965H81.47V58.3165H83.504V65.2165H87.572V65.1265ZM100.574 65.3045H96.416C96.24 65.8345 96.062 66.3645 95.974 66.8965H93.85C94.734 63.8885 95.974 60.6165 97.124 58.3165H99.954C101.242 61.1082 102.364 63.9732 103.316 66.8965H101.016L100.574 65.3045ZM99.954 63.6245C99.4998 62.3384 98.9981 61.0695 98.45 59.8205C97.918 61.0585 97.476 62.2965 97.036 63.6225H99.956L99.954 63.6245ZM122.07 59.9985V61.6785H126.316V63.3585H122.07V65.2185H126.848V66.9865H120.038V58.4065H126.758V60.1765H122.07V59.9985ZM148.34 59.9985V66.8985H146.308V59.9985H143.476V58.2285H151.172V59.9985H148.34ZM160.814 59.9985V61.6785H165.06V63.3585H160.814V65.2185H165.59V66.9865H158.78V58.4065H165.502V60.1765H160.814V59.9985ZM178.948 65.3045H174.88C174.704 65.8345 174.526 66.3645 174.44 66.8965H172.314C173.198 63.8885 174.438 60.6165 175.588 58.3165H178.42C179.707 61.1083 180.829 63.9732 181.78 66.8965H179.48L178.948 65.3045ZM178.418 63.6245C177.963 62.3383 177.461 61.0695 176.912 59.8205C176.382 61.0585 175.938 62.2965 175.498 63.6225L178.418 63.6245ZM198.32 58.2285C198.85 61.2365 199.202 63.9785 199.47 66.8085H197.436C197.258 64.6168 196.992 62.4331 196.64 60.2625C195.932 62.2085 195.4 64.1565 194.87 66.0125H192.926C192.394 64.0665 191.776 62.2105 191.156 60.2625C190.892 62.0325 190.624 63.8025 190.36 66.8085H188.414C188.68 63.8885 189.034 61.1465 189.566 58.2285H192.572C192.836 59.2025 193.722 61.8565 193.986 63.0945C194.252 61.8545 195.138 59.2005 195.402 58.2285H198.32Z" fill="white"/>
</g>
</svg>
