<svg width="150" height="61" viewBox="0 0 150 61" fill="none" xmlns="http://www.w3.org/2000/svg">
<mask id="mask0_70_5313" style="mask-type:luminance" maskUnits="userSpaceOnUse" x="0" y="11" width="150" height="42">
<path d="M0 11.1064H150V52.6069H0V11.1064Z" fill="white"/>
</mask>
<g mask="url(#mask0_70_5313)">
<path d="M110.138 50.7477H123.705L149.73 11.2527H26.295L0.27002 50.7477H69.7725" stroke="black" stroke-width="0.193"/>
<path d="M122.578 23.7778L117.415 26.3166C118.465 26.7204 119.514 27.1242 120.561 27.531C121.21 27.7826 121.98 28.099 122.265 28.8689C122.556 29.6614 122.127 30.3651 121.749 30.9662L120.03 33.6693C117.99 36.8755 115.95 40.0802 113.905 43.282C113.905 42.2936 113.904 41.3052 113.899 40.3168C114.904 37.143 115.871 33.9576 116.802 30.7613C116.925 30.3349 116.845 30.0803 116.437 29.8769C115.395 29.3601 114.351 28.8448 113.305 28.3295L110.173 29.8769C109.765 30.0803 109.684 30.3349 109.807 30.7613C110.735 33.9588 111.703 37.1442 112.711 40.3168C112.711 41.3052 112.708 42.2936 112.704 43.282C110.658 40.0807 108.616 36.8764 106.579 33.6693L104.862 30.9662C104.482 30.3696 104.05 29.6645 104.346 28.8689C104.629 28.099 105.4 27.7841 106.048 27.531L109.195 26.3166L104.032 23.7778L105.642 26.4883L102.973 27.5174C101.111 24.5851 99.2494 21.652 97.3889 18.7183C102.687 20.6047 107.979 22.5076 113.301 24.3323C118.621 22.5076 123.913 20.6032 129.213 18.7168C127.357 21.6534 125.495 24.5865 123.627 27.5159L120.966 26.4883L122.574 23.7778" fill="black"/>
<path d="M89.9551 43.279V18.7153" stroke="black" stroke-width="0.193"/>
<path d="M73.7174 52.5572V48.9457H75.4424V49.4866H74.3354V50.4177H75.1634V50.9601H74.3354V52.5572H73.7174ZM75.9314 49.8181C75.9314 49.3058 76.2314 48.8914 76.8794 48.8914C77.5274 48.8914 77.8274 49.3073 77.8274 49.8166V51.6819C77.8274 52.1926 77.5274 52.607 76.8794 52.607C76.2314 52.607 75.9314 52.1926 75.9314 51.6819V49.8181ZM76.5494 51.6713C76.5494 51.9425 76.6304 52.0736 76.8794 52.0736C77.1284 52.0736 77.2094 51.9425 77.2094 51.6728V49.8331C77.2094 49.5619 77.1284 49.4324 76.8794 49.4324C76.6304 49.4324 76.5494 49.5619 76.5494 49.8331V51.6713ZM79.1924 52.5572H78.5729V48.9457H79.443C80.1375 48.9457 80.4854 49.241 80.4854 50.0124C80.4854 50.594 80.2604 50.826 80.0504 50.924L80.5754 52.5618H79.9499L79.5119 51.0641C79.4058 51.0751 79.2991 51.0801 79.1924 51.0792V52.5572ZM79.1924 50.5639H79.4115C79.746 50.5639 79.8705 50.4388 79.8705 50.0064C79.8705 49.5755 79.746 49.4519 79.4115 49.4519H79.1924V50.5639ZM83.745 48.9412V52.5527H83.2079V49.7322H83.1974L82.6394 52.5572H82.3395L81.7799 49.7322H81.7709V52.5572H81.2309V48.9457H82.0439L82.4909 51.0551L82.9289 48.9412H83.745ZM84.4845 48.9412H85.1024V51.6728C85.1024 51.938 85.2075 52.0691 85.4325 52.0691C85.6575 52.0691 85.7624 51.938 85.7624 51.6713V48.9412H86.3805V51.6472C86.3805 52.268 86.0205 52.6085 85.4325 52.6085C84.8445 52.6085 84.4845 52.268 84.4845 51.6457V48.9412ZM87.1184 52.5572V48.9457H87.7364V52.0224H88.7099V52.5618L87.1184 52.5572ZM89.8304 52.5572H89.2319L89.8964 48.9457H90.6644L91.3274 52.5572H90.7274L90.6179 51.7557H89.9384L89.8304 52.5572ZM90.0299 51.2163H90.5294L90.2849 49.6629H90.2759L90.0299 51.2163ZM92.9309 52.5572V48.9457H94.5869V49.4866H93.5429V50.4177H94.341V50.9601H93.5429V52.0224H94.6499V52.5618L92.9309 52.5572ZM97.0844 49.4821H96.4859V48.9412H98.3009V49.4821H97.7025V52.5572H97.0844V49.4821ZM98.907 52.5572V48.9457H100.561V49.4866H99.5249V50.4177H100.323V50.9601H99.5249V52.0224H100.63V52.5618L98.9054 52.5572H98.907ZM101.719 52.5572H101.119L101.784 48.9457H102.558L103.221 52.5572H102.622L102.507 51.7557H101.827L101.719 52.5572ZM101.919 51.2163H102.417L102.172 49.6629H102.162L101.919 51.2163ZM106.293 48.9412V52.5527H105.753V49.7322H105.744L105.184 52.5572H104.884L104.328 49.7322H104.317V52.5572H103.779V48.9457H104.59L105.03 51.0596H105.04L105.478 48.9457L106.293 48.9412ZM48.8744 25.4503H55.0529C56.0654 25.4503 56.5814 25.0359 56.5814 24.2193C56.5814 23.1631 55.6034 23.0049 55.0199 23.0049H48.8699V25.4518L48.8729 25.4488L48.8744 25.4503ZM38.0819 29.2592H41.4839V23.9707L38.0819 29.2592ZM48.8849 32.8029H56.0564C57.0764 32.8029 57.7364 32.1551 57.7364 31.1486C57.7364 30.1707 57.0584 29.4611 56.1239 29.4611H48.8849V32.8029ZM20.0024 43.2775L36.2174 18.7153H75.2369V36.8454H67.9499V23.2746H64.3949C64.3286 23.801 64.2064 24.3187 64.0304 24.819C63.7559 25.5874 63.5654 25.8601 62.9549 26.6029C63.6869 27.412 63.9749 27.867 64.3349 28.7906C64.7024 29.6811 64.8989 30.6333 64.9154 31.5961C64.9154 32.8873 64.5254 33.9857 63.6899 35.0555C63.3116 35.5595 62.8425 35.9878 62.3069 36.3181C61.6424 36.7143 61.0169 36.8454 59.8199 36.8454H41.4839V33.6467H34.8569L28.4774 43.279H20.0024V43.2775ZM76.0499 23.2746V18.7153H82.5449V23.2746H76.0499Z" fill="black"/>
</g>
</svg>
