<svg width="200" height="81" viewBox="0 0 200 81" fill="none" xmlns="http://www.w3.org/2000/svg">
<g clip-path="url(#clip0_409_4259)">
<mask id="mask0_409_4259" style="mask-type:luminance" maskUnits="userSpaceOnUse" x="0" y="0" width="200" height="81">
<path d="M0 0.666504H200V80.6665H0V0.666504Z" fill="white"/>
</mask>
<g mask="url(#mask0_409_4259)">
<mask id="mask1_409_4259" style="mask-type:luminance" maskUnits="userSpaceOnUse" x="0" y="20" width="200" height="40">
<path d="M0 20.6665H200V59.2505H0V20.6665Z" fill="white"/>
</mask>
<g mask="url(#mask1_409_4259)">
<path d="M187.046 29.7145H196.002C198.036 29.7145 199.696 31.3045 199.696 33.2485V41.3425H186.304C185.721 41.3538 185.157 41.1341 184.736 40.7313C184.314 40.3285 184.069 39.7753 184.054 39.1925V36.3805C184.068 35.8391 184.295 35.325 184.686 34.9503C185.077 34.5757 185.6 34.3708 186.142 34.3805H193.574L192.79 36.0145H187.322C187.199 36.0092 187.078 36.0512 186.984 36.1318C186.891 36.2124 186.831 36.3257 186.818 36.4485V38.6585C186.831 38.7814 186.89 38.8947 186.984 38.9751C187.078 39.0555 187.199 39.0968 187.322 39.0905H196.802V33.7845C196.802 32.7525 195.882 31.9705 194.854 31.9705H185.96L187.046 29.7145ZM133.42 27.1805V25.4605H130.524V28.8165L133.42 27.1805ZM130.524 30.4505L133.42 28.8165V41.3485H130.524V30.4485V30.4505ZM148 29.7145C150.032 29.7145 151.694 31.3045 151.694 33.2485V41.3425H148.808V33.7705C148.808 32.7405 147.884 31.9565 146.858 31.9565H139.906V41.3305H137.014V29.7145H148.008M185.034 29.7145H177.766C175.734 29.7145 174.068 31.3045 174.068 33.2485V41.3425H176.982V33.7705C176.982 32.7405 177.904 31.9565 178.934 31.9565H183.946L185.034 29.7145ZM87.884 41.3445H90.778V33.2465C90.778 31.3025 89.114 29.7125 87.084 29.7125H68.12V41.3385H71.014V32.3985C71.0276 32.2762 71.0873 32.1636 71.1809 32.0838C71.2745 32.0039 71.3951 31.9627 71.518 31.9685H77.5C77.6229 31.9627 77.7435 32.0039 77.8371 32.0838C77.9307 32.1636 77.9904 32.2762 78.004 32.3985V41.3405H80.896V32.4005C80.9086 32.2776 80.968 32.1643 81.0618 32.0839C81.1556 32.0035 81.2766 31.9622 81.4 31.9685H85.934C86.96 31.9685 87.884 32.7505 87.884 33.7825V41.3425V41.3445ZM112.006 25.4865V41.3425H114.902V25.4865H112.006ZM124.04 41.3425H126.936V33.2485C126.936 31.3045 125.272 29.7145 123.238 29.7145H117.094L116 31.9665H122.092C123.118 31.9665 124.04 32.7505 124.04 33.7825V41.3425ZM169.932 25.4865V41.3425H156.878C156.295 41.3543 155.73 41.1348 155.309 40.732C154.887 40.3292 154.641 39.7757 154.626 39.1925V33.2525C154.626 31.3065 156.29 29.7165 158.324 29.7165H165.754L164.658 31.9705H159.464C158.438 31.9705 157.516 32.7525 157.516 33.7845V38.6585C157.529 38.7814 157.588 38.8947 157.682 38.9751C157.776 39.0555 157.897 39.0968 158.02 39.0905H167.042V25.4865H169.932ZM96.32 29.7145H105.278C107.31 29.7145 108.972 31.3045 108.972 33.2485V41.3425H95.58C94.9973 41.3538 94.4338 41.134 94.0126 40.7312C93.5913 40.3283 93.3467 39.7752 93.332 39.1925V36.3805C93.3467 35.8394 93.5741 35.3259 93.965 34.9515C94.356 34.5771 94.8788 34.3719 95.42 34.3805H102.854L102.07 36.0145H96.6C96.4763 36.0092 96.3553 36.0511 96.2613 36.1316C96.1674 36.2122 96.1076 36.3255 96.094 36.4485V38.6585C96.1076 38.7814 96.1675 38.8944 96.2615 38.9747C96.3555 39.0549 96.4765 39.0963 96.6 39.0905H106.08V33.7845C106.08 32.7525 105.158 31.9705 104.132 31.9705H95.238L96.32 29.7145Z" fill="#DD052B"/>
<path d="M55.878 22.1665L55.486 22.5465L54.33 23.5185L53.17 24.4925L52.01 25.4625L50.85 26.4345L49.69 27.4065L48.532 28.3805L47.372 29.3505L46.208 30.3245L45.048 31.2965L43.888 32.2705L42.726 33.2445L41.564 34.2185L40.402 35.1985L39.24 36.1705L38.072 37.1365L36.908 38.1105L35.746 39.0845L34.586 40.0585L33.42 41.0325L32.258 42.0065L31.096 42.9805L30.096 43.8165C30.096 46.0305 30.1 48.2465 30.108 50.4625C33.18 53.2025 36.276 55.9545 39.4 58.7205H44.186C45.216 55.7912 46.2306 52.8565 47.23 49.9165L47.362 49.5185L47.498 49.1225L47.632 48.7245L47.768 48.3285L47.9 47.9285L48.034 47.5325L48.168 47.1345L48.3 46.7345L48.434 46.3385L48.566 45.9425L48.7 45.5425L48.83 45.1445L48.964 44.7445L49.094 44.3465L49.226 43.9505L49.358 43.5505L49.488 43.1505L49.618 42.7545L49.75 42.3545L49.878 41.9545L50.008 41.5545L50.138 41.1545L50.266 40.7585L50.54 39.9125L50.8 39.0665L51.062 38.2205L51.322 37.3745L51.584 36.5265L51.846 35.6805L52.106 34.8345L52.368 33.9865L52.628 33.1365L52.89 32.2905L53.15 31.4425L53.412 30.5945L53.672 29.7425L53.934 28.8945L54.194 28.0445L54.456 27.1945L54.702 26.3465L54.948 25.4945L55.19 24.6425L55.43 23.7945L55.67 22.9445C55.744 22.6825 55.818 22.4205 55.888 22.1605M54.856 23.7905L54.652 24.5005L54.432 25.2665L54.214 26.0365L53.994 26.8045L53.768 27.5725L53.542 28.3385L53.316 29.1205L53.086 29.8865L52.856 30.6545L52.626 31.4225L52.394 32.1865L52.16 32.9525L51.924 33.7185L51.686 34.4845L51.448 35.2505L51.212 36.0145L50.972 36.7805L50.728 37.5445L50.488 38.3105L50.242 39.0705L50 39.8365L49.752 40.6025L49.624 40.9985L49.494 41.3985L49.366 41.7985L49.234 42.1985L49.104 42.5945L48.974 42.9945L48.844 43.3905L48.712 43.7905L48.582 44.1865L48.452 44.5865L48.318 44.9825L48.188 45.3825L48.054 45.7805L47.922 46.1765L47.788 46.5765L47.656 46.9725L47.522 47.3705L47.388 47.7665L47.256 48.1665L47.12 48.5625L46.986 48.9605L46.852 49.3565L46.718 49.7545L46.588 50.1345L46.46 50.5145L46.328 50.8945L46.2 51.2745L46.068 51.6565L45.936 52.0365L45.81 52.4165L45.678 52.7965L45.548 53.1765L45.418 53.5565L45.284 53.9365L45.154 54.3165L45.024 54.6965L44.89 55.0765L44.76 55.4545L44.626 55.8325L44.496 56.2125L44.362 56.5925L44.23 56.9725L44.098 57.3505L43.966 57.7285L43.832 58.1085L43.804 58.1885H39.626C36.6402 55.5408 33.6575 52.8894 30.678 50.2345L30.658 44.0745L31.586 43.2905L32.678 42.3785L33.772 41.4605L34.864 40.5465L35.958 39.6325L37.05 38.7185L38.144 37.8025L39.234 36.8885L40.326 35.9745L41.418 35.0585L42.508 34.1445L43.6 33.2305L44.692 32.3145L45.786 31.4025L46.874 30.4865L47.966 29.5725L49.054 28.6585L50.146 27.7485L51.234 26.8345L52.324 25.9205L53.412 25.0065L54.502 24.0925L54.846 23.8045" fill="white"/>
<path d="M55.542 21.8665L29.796 43.5665L29.81 50.6145L29.918 50.7125C33.018 53.4965 36.146 56.2925 39.298 59.1005L39.388 59.1805H44.57L44.646 58.9645C45.6879 55.9892 46.7126 53.0078 47.72 50.0205L52.16 36.4105L54.248 29.5145L56.234 22.6005L56.454 21.8185L56.77 20.6785L55.542 21.8645V21.8665ZM52.31 31.8025L49.644 40.3465L43.714 57.9925H39.848C36.903 55.3586 33.961 52.7212 31.022 50.0805L31.01 44.1105L54.51 24.2965L52.31 31.8025ZM0.002 20.7325L1.022 24.4005L3.036 31.3125L5.704 39.9285L9.05 50.0805C9.99 52.8805 11.026 55.8925 12.122 59.0265L12.196 59.2425H17.38L17.47 59.1625C20.622 56.3485 23.75 53.5525 26.85 50.7725L26.956 50.6765L26.97 43.6265L1.256 21.9465L0 20.7325H0.002ZM25.768 44.1825V50.1545C22.8166 52.7855 19.8679 55.4195 16.922 58.0565H13.054L9.922 48.9005L4.464 31.8705L2.264 24.3665L25.768 44.1825Z" fill="#DD052B"/>
<path d="M199.668 48.8665H198.408L196.72 52.9885C196.538 53.4285 196.358 53.8765 196.184 54.3145H196.166L195.906 53.6465L195.646 52.9885L193.946 48.8665H192.706V55.2325H193.42V49.4345H193.438C193.518 49.6345 193.592 49.8265 193.678 50.0285L195.846 55.2325H196.572L198.738 49.9625C198.836 49.7025 198.842 49.7025 198.882 49.6065C198.915 49.5296 198.944 49.4508 198.968 49.3705H198.988V55.2325H199.7L199.668 48.8665ZM185.808 53.3065H183.002L184.394 49.4385L185.808 53.3065ZM186.018 53.8765L186.514 55.2245H187.268L184.892 48.8585H183.878L181.55 55.2245H182.312L182.8 53.8765H186.018ZM173.032 49.4765H176.404V48.8565H172.32V55.2245H176.404V54.6025H173.032V52.2345H176.26V51.6465H173.032V49.4765ZM164.842 49.5245H166.904V48.8585H162.056V49.5245H164.128V55.2245H164.842V49.5245ZM148.782 49.4845H152.15V48.8645H148.07V55.2325H152.154V54.6105H148.782V52.2425H152.008V51.6465H148.78V49.4865L148.782 49.4845ZM136.41 53.3125H133.608L135 49.4465L136.41 53.3125ZM136.618 53.8845L137.114 55.2325H137.87L135.49 48.8665H134.48L132.152 55.2325H132.912L133.402 53.8845H136.618ZM124.018 48.8645H123.302V55.2325H127.292V54.5625H124.02V48.8665L124.018 48.8645ZM116.638 48.8645V53.3245C116.638 54.5345 116.448 54.6785 114.748 54.6785C113.724 54.6785 113.354 54.5805 113.164 54.2585C113.066 54.0965 113.028 53.8285 113.028 53.3225V48.8665H112.312V53.3225C112.312 54.4405 112.532 54.8685 113.258 55.1345C113.582 55.2605 113.938 55.2965 114.784 55.2965C116.19 55.2965 116.656 55.1745 117.028 54.7285C117.276 54.4125 117.354 54.0845 117.354 53.3225V48.8665L116.638 48.8645ZM106.358 48.8645H105.098L103.406 52.9885C103.226 53.4285 103.042 53.8765 102.87 54.3145H102.852L102.592 53.6465L102.33 52.9885L100.63 48.8665H99.39V55.2325H100.106V49.4345H100.124C100.2 49.6345 100.278 49.8265 100.362 50.0285L102.528 55.2325H103.254L105.424 49.9625C105.518 49.7025 105.528 49.7025 105.564 49.6065C105.602 49.5125 105.624 49.4645 105.652 49.3705H105.672V55.2325H106.388L106.356 48.8665L106.358 48.8645ZM89.372 52.0545V49.4845H91.692C92.2 49.4845 92.516 49.5885 92.658 49.7985C92.802 50.0065 92.828 50.2585 92.828 50.9165C92.828 51.7765 92.494 52.0545 91.444 52.0545H89.372ZM88.658 55.2325H89.372V52.6725H91.54C92.044 52.6725 92.218 52.7085 92.436 52.8825C92.656 53.0545 92.744 53.3025 92.744 53.7805V55.2325H93.458V53.6185C93.458 52.8345 93.124 52.4425 92.448 52.3865C93.296 52.2425 93.544 51.8625 93.544 50.7045C93.544 49.3585 93.048 48.8765 91.682 48.8765H88.662L88.658 55.2325ZM80.158 49.4165C81.466 49.4165 81.744 49.5025 81.956 49.9625C82.128 50.3425 82.128 50.3425 82.128 52.8625C82.128 53.6965 82.042 54.0845 81.802 54.3725C81.582 54.6205 81.266 54.6785 80.104 54.6785C78.8 54.6785 78.52 54.5925 78.308 54.1345C78.136 53.7505 78.136 53.7505 78.136 51.2305C78.136 50.4005 78.222 50.0105 78.462 49.7225C78.682 49.4745 78.984 49.4165 80.16 49.4165H80.158ZM80.13 48.7965C79.7022 48.7907 79.2746 48.8141 78.85 48.8665C78.621 48.8962 78.4017 48.9775 78.2087 49.1043C78.0157 49.2311 77.8541 49.4001 77.736 49.5985C77.476 50.0845 77.42 50.4585 77.42 51.7845C77.42 53.2645 77.42 53.4745 77.536 53.9725C77.5704 54.2154 77.6664 54.4455 77.8148 54.6408C77.9632 54.8362 78.1592 54.9903 78.384 55.0885C78.796 55.2605 79.1 55.2965 80.212 55.2965C81.146 55.2965 81.472 55.2605 81.874 55.0885C82.1009 54.993 82.2987 54.8397 82.4479 54.6439C82.597 54.4481 82.6922 54.2166 82.724 53.9725C82.828 53.4845 82.838 53.2645 82.838 51.7765C82.85 51.3585 82.838 50.9405 82.798 50.5245C82.684 49.7045 82.398 49.2365 81.854 49.0065C81.484 48.8465 81.1 48.7985 80.126 48.7985M68.842 49.4845H72.042V48.8645H68.124V55.2325H68.84V52.2985H71.942V51.7005H68.854L68.842 49.4845Z" fill="white"/>
</g>
</g>
</g>
<defs>
<clipPath id="clip0_409_4259">
<rect width="200" height="80" fill="white" transform="translate(0 0.666504)"/>
</clipPath>
</defs>
</svg>
