<svg width="45" height="56" viewBox="0 0 60 56" fill="none" xmlns="http://www.w3.org/2000/svg">
<path d="M59.921 4.9791C59.6622 6.45358 59.1021 7.81253 58.4038 9.12374C56.7183 12.2762 54.4877 15.0217 52.0034 17.5663C46.8465 22.8538 40.9837 27.1492 34.2091 30.1509C31.1597 31.5023 27.9947 32.4669 24.6789 32.8939C22.4233 33.1853 20.1676 33.1727 17.9295 32.7482C17.3944 32.6477 16.8443 32.4493 16.3821 32.1629C15.2493 31.4621 15.1714 30.1735 16.1485 29.2617C16.8167 28.6362 17.6557 28.3775 18.5273 28.3775C23.3954 28.3775 27.7811 26.7422 31.9208 24.376C38.7657 20.4625 44.518 15.2754 49.3785 9.08606C49.8934 8.43045 50.333 7.71205 50.7651 6.99867C50.9434 6.70478 51.0138 6.34808 51.1343 6.02154C51.0791 5.9512 51.0238 5.88338 50.9711 5.81305C50.5641 5.84822 50.1522 5.84319 49.7553 5.91855C47.0073 6.45358 44.3723 7.36792 41.7624 8.34756C35.1109 10.8469 28.7332 13.9014 22.8126 17.8576C20.0194 19.7215 17.3894 21.7888 15.0784 24.2328C13.4005 26.0063 11.9335 27.9329 10.8861 30.1509C9.95416 32.1202 9.4141 34.175 9.56481 36.3804C9.7532 39.1485 10.9539 41.4017 13.0388 43.1902C14.9805 44.8556 17.2663 45.7549 19.7858 46.0839C22.7322 46.4707 25.636 46.0688 28.5121 45.4886C36.2865 43.9212 43.1716 40.4145 49.484 35.6947C49.9085 35.3782 50.3305 35.0516 50.7877 34.7879C51.1444 34.5819 51.5387 34.4136 51.9381 34.3207C52.7369 34.1323 53.2443 34.5166 53.3247 35.3304C53.4202 36.3226 53.0936 37.2068 52.5335 38.0006C52.1642 38.5231 51.7548 39.0229 51.3328 39.5052C47.1354 44.3206 42.099 48.0633 36.4673 51.0273C32.6718 53.0243 28.6905 54.5264 24.4579 55.3051C20.4589 56.0411 16.4625 56.1968 12.5414 54.9283C5.56083 52.6676 1.51164 47.8171 0.283322 40.6331C-0.593333 35.5163 0.614893 30.7764 3.20969 26.3504C5.01826 23.2633 7.35685 20.6157 9.99686 18.2219C13.9481 14.6349 18.3791 11.7411 23.0889 9.27194C30.3157 5.48399 37.8941 2.65558 45.8844 0.965072C48.8661 0.332072 51.8703 -0.125095 54.9298 0.030643C55.6758 0.0683216 56.4395 0.166286 57.1503 0.379798C59.2729 1.01531 60.3053 2.79625 59.921 4.9791Z" fill="#333333"/>
</svg>
